G04 #@! TF.GenerationSoftware,KiCad,Pcbnew,5.1.7-a382d34a8~88~ubuntu20.04.1*
G04 #@! TF.CreationDate,2021-04-25T17:04:25-07:00*
G04 #@! TF.ProjectId,tec-1,7465632d-312e-46b6-9963-61645f706362,Apr2021*
G04 #@! TF.SameCoordinates,Original*
G04 #@! TF.FileFunction,Other,Fab,Top*
%FSLAX46Y46*%
G04 Gerber Fmt 4.6, Leading zero omitted, Abs format (unit mm)*
G04 Created by KiCad (PCBNEW 5.1.7-a382d34a8~88~ubuntu20.04.1) date 2021-04-25 17:04:25*
%MOMM*%
%LPD*%
G01*
G04 APERTURE LIST*
%ADD10C,0.100000*%
%ADD11C,0.120000*%
%ADD12C,0.150000*%
%ADD13C,0.250000*%
%ADD14C,0.015000*%
G04 APERTURE END LIST*
D10*
G04 #@! TO.C,J7*
X117570000Y-81260000D02*
X117570000Y-79355000D01*
X117570000Y-79355000D02*
X140430000Y-79355000D01*
X140430000Y-79355000D02*
X140430000Y-81895000D01*
X140430000Y-81895000D02*
X118205000Y-81895000D01*
X118205000Y-81895000D02*
X117570000Y-81260000D01*
G04 #@! TO.C,RV1*
X81900000Y-166200000D02*
G75*
G03*
X81900000Y-166200000I-1500000J0D01*
G01*
X81150000Y-164200000D02*
X78900000Y-164200000D01*
X78900000Y-164200000D02*
X78900000Y-168000000D01*
X78900000Y-168000000D02*
X81900000Y-168000000D01*
X81900000Y-168000000D02*
X81900000Y-164950000D01*
X81900000Y-164950000D02*
X81150000Y-164200000D01*
G04 #@! TO.C,R48*
X37825000Y-148800000D02*
X37825000Y-150800000D01*
X36575000Y-148800000D02*
X37825000Y-148800000D01*
X36575000Y-150800000D02*
X36575000Y-148800000D01*
X37825000Y-150800000D02*
X36575000Y-150800000D01*
G04 #@! TO.C,D3*
X36600000Y-154300000D02*
X37800000Y-154300000D01*
X36600000Y-152300000D02*
X36600000Y-154300000D01*
X37500000Y-152300000D02*
X36600000Y-152300000D01*
X37800000Y-152600000D02*
X37500000Y-152300000D01*
X37800000Y-154300000D02*
X37800000Y-152600000D01*
G04 #@! TO.C,J6*
X174070000Y-141865000D02*
X174070000Y-143770000D01*
X174070000Y-143770000D02*
X168990000Y-143770000D01*
X168990000Y-143770000D02*
X168990000Y-141230000D01*
X168990000Y-141230000D02*
X173435000Y-141230000D01*
X173435000Y-141230000D02*
X174070000Y-141865000D01*
G04 #@! TO.C,C22*
X31575000Y-167200000D02*
X31575000Y-165200000D01*
X32825000Y-167200000D02*
X31575000Y-167200000D01*
X32825000Y-165200000D02*
X32825000Y-167200000D01*
X31575000Y-165200000D02*
X32825000Y-165200000D01*
G04 #@! TO.C,X1*
X86790000Y-105730000D02*
X74740000Y-105730000D01*
X74090000Y-105080000D02*
X74090000Y-85680000D01*
X74740000Y-85030000D02*
X86140000Y-85030000D01*
X86790000Y-105730000D02*
X86790000Y-85680000D01*
X85790000Y-104730000D02*
X85790000Y-86380000D01*
X85790000Y-104730000D02*
X75440000Y-104730000D01*
X75090000Y-104380000D02*
X75090000Y-86380000D01*
X85440000Y-86030000D02*
X75440000Y-86030000D01*
X74090000Y-105080000D02*
G75*
G03*
X74740000Y-105730000I650000J0D01*
G01*
X74740000Y-85030000D02*
G75*
G03*
X74090000Y-85680000I0J-650000D01*
G01*
X86790000Y-85680000D02*
G75*
G03*
X86140000Y-85030000I-650000J0D01*
G01*
X75090000Y-104380000D02*
G75*
G03*
X75440000Y-104730000I350000J0D01*
G01*
X75440000Y-86030000D02*
G75*
G03*
X75090000Y-86380000I0J-350000D01*
G01*
X85790000Y-86380000D02*
G75*
G03*
X85440000Y-86030000I-350000J0D01*
G01*
G04 #@! TO.C,SW24*
X55115000Y-77020000D02*
X54115000Y-78020000D01*
X55115000Y-67860000D02*
X55115000Y-77020000D01*
X48765000Y-67860000D02*
X55115000Y-67860000D01*
X48765000Y-78020000D02*
X48765000Y-67860000D01*
X54115000Y-78020000D02*
X48765000Y-78020000D01*
G04 #@! TO.C,C20*
X77300000Y-83425000D02*
X75300000Y-83425000D01*
X77300000Y-82175000D02*
X77300000Y-83425000D01*
X75300000Y-82175000D02*
X77300000Y-82175000D01*
X75300000Y-83425000D02*
X75300000Y-82175000D01*
D11*
G04 #@! TO.C,SW23*
X168000000Y-89075000D02*
X156000000Y-89075000D01*
X168000000Y-77075000D02*
X168000000Y-89075000D01*
X156000000Y-77075000D02*
X168000000Y-77075000D01*
X156000000Y-89075000D02*
X156000000Y-77075000D01*
D10*
G04 #@! TO.C,U4*
X67500000Y-48160000D02*
X68000000Y-47160000D01*
X67000000Y-47160000D02*
X67500000Y-48160000D01*
X75320000Y-48430000D02*
X59680000Y-48430000D01*
X75320000Y-64070000D02*
X75320000Y-48430000D01*
X59680000Y-66610000D02*
X75320000Y-66610000D01*
X59680000Y-48430000D02*
X59680000Y-64070000D01*
X73785000Y-49965000D02*
X62215000Y-49965000D01*
X73785000Y-62535000D02*
X73785000Y-49965000D01*
X61215000Y-65075000D02*
X73785000Y-65075000D01*
X61215000Y-50965000D02*
X61215000Y-62535000D01*
X62215000Y-49965000D02*
X61215000Y-50965000D01*
X76590000Y-47160000D02*
X59410000Y-47160000D01*
X76590000Y-65340000D02*
X76590000Y-47160000D01*
X58410000Y-67880000D02*
X76590000Y-67880000D01*
X58410000Y-48160000D02*
X58410000Y-65340000D01*
X59410000Y-47160000D02*
X58410000Y-48160000D01*
G04 #@! TO.C,C8*
X20850000Y-143850000D02*
X20850000Y-150150000D01*
X20850000Y-150150000D02*
X21850000Y-151150000D01*
X21850000Y-151150000D02*
X25150000Y-151150000D01*
X25150000Y-151150000D02*
X25150000Y-143850000D01*
X25150000Y-143850000D02*
X20850000Y-143850000D01*
G04 #@! TO.C,U8*
X83365000Y-152770000D02*
X78015000Y-152770000D01*
X78015000Y-152770000D02*
X78015000Y-127370000D01*
X78015000Y-127370000D02*
X84365000Y-127370000D01*
X84365000Y-127370000D02*
X84365000Y-151770000D01*
X84365000Y-151770000D02*
X83365000Y-152770000D01*
G04 #@! TO.C,J5*
X162020000Y-68635000D02*
X161385000Y-69270000D01*
X162020000Y-46410000D02*
X162020000Y-68635000D01*
X159480000Y-46410000D02*
X162020000Y-46410000D01*
X159480000Y-69270000D02*
X159480000Y-46410000D01*
X161385000Y-69270000D02*
X159480000Y-69270000D01*
G04 #@! TO.C,J4*
X152770000Y-68635000D02*
X152135000Y-69270000D01*
X152770000Y-26090000D02*
X152770000Y-68635000D01*
X150230000Y-26090000D02*
X152770000Y-26090000D01*
X150230000Y-69270000D02*
X150230000Y-26090000D01*
X152135000Y-69270000D02*
X150230000Y-69270000D01*
D12*
G04 #@! TO.C,U7*
X39650000Y-171100000D02*
X35350000Y-171100000D01*
X35350000Y-171100000D02*
X35350000Y-160900000D01*
X35350000Y-160900000D02*
X40650000Y-160900000D01*
X40650000Y-160900000D02*
X40650000Y-170100000D01*
X40650000Y-170100000D02*
X39650000Y-171100000D01*
D10*
G04 #@! TO.C,U6*
X129055000Y-34400000D02*
X142785000Y-34400000D01*
X142785000Y-34400000D02*
X142785000Y-69960000D01*
X142785000Y-69960000D02*
X128055000Y-69960000D01*
X128055000Y-69960000D02*
X128055000Y-35400000D01*
X128055000Y-35400000D02*
X129055000Y-34400000D01*
G04 #@! TO.C,U5*
X109805000Y-34400000D02*
X123535000Y-34400000D01*
X123535000Y-34400000D02*
X123535000Y-69960000D01*
X123535000Y-69960000D02*
X108805000Y-69960000D01*
X108805000Y-69960000D02*
X108805000Y-35400000D01*
X108805000Y-35400000D02*
X109805000Y-34400000D01*
G04 #@! TO.C,U3*
X90255000Y-31730000D02*
X103985000Y-31730000D01*
X103985000Y-31730000D02*
X103985000Y-82530000D01*
X103985000Y-82530000D02*
X89255000Y-82530000D01*
X89255000Y-82530000D02*
X89255000Y-32730000D01*
X89255000Y-32730000D02*
X90255000Y-31730000D01*
D11*
G04 #@! TO.C,SW22*
X167500000Y-164000000D02*
X167500000Y-176000000D01*
X155500000Y-164000000D02*
X167500000Y-164000000D01*
X155500000Y-176000000D02*
X155500000Y-164000000D01*
X167500000Y-176000000D02*
X155500000Y-176000000D01*
G04 #@! TO.C,SW21*
X155500000Y-148000000D02*
X167500000Y-148000000D01*
X155500000Y-160000000D02*
X155500000Y-148000000D01*
X167500000Y-160000000D02*
X155500000Y-160000000D01*
X167500000Y-148000000D02*
X167500000Y-160000000D01*
G04 #@! TO.C,SW20*
X168000000Y-132000000D02*
X168000000Y-144000000D01*
X156000000Y-132000000D02*
X168000000Y-132000000D01*
X156000000Y-144000000D02*
X156000000Y-132000000D01*
X168000000Y-144000000D02*
X156000000Y-144000000D01*
G04 #@! TO.C,SW19*
X156000000Y-116000000D02*
X168000000Y-116000000D01*
X156000000Y-128000000D02*
X156000000Y-116000000D01*
X168000000Y-128000000D02*
X156000000Y-128000000D01*
X168000000Y-116000000D02*
X168000000Y-128000000D01*
G04 #@! TO.C,SW18*
X139500000Y-164000000D02*
X151500000Y-164000000D01*
X139500000Y-176000000D02*
X139500000Y-164000000D01*
X151500000Y-176000000D02*
X139500000Y-176000000D01*
X151500000Y-164000000D02*
X151500000Y-176000000D01*
G04 #@! TO.C,SW17*
X139500000Y-160000000D02*
X139500000Y-148000000D01*
X151500000Y-160000000D02*
X139500000Y-160000000D01*
X151500000Y-148000000D02*
X151500000Y-160000000D01*
X139500000Y-148000000D02*
X151500000Y-148000000D01*
G04 #@! TO.C,SW16*
X140000000Y-132000000D02*
X152000000Y-132000000D01*
X140000000Y-144000000D02*
X140000000Y-132000000D01*
X152000000Y-144000000D02*
X140000000Y-144000000D01*
X152000000Y-132000000D02*
X152000000Y-144000000D01*
G04 #@! TO.C,SW15*
X140000000Y-128000000D02*
X140000000Y-116000000D01*
X152000000Y-128000000D02*
X140000000Y-128000000D01*
X152000000Y-116000000D02*
X152000000Y-128000000D01*
X140000000Y-116000000D02*
X152000000Y-116000000D01*
G04 #@! TO.C,SW14*
X123500000Y-176000000D02*
X123500000Y-164000000D01*
X135500000Y-176000000D02*
X123500000Y-176000000D01*
X135500000Y-164000000D02*
X135500000Y-176000000D01*
X123500000Y-164000000D02*
X135500000Y-164000000D01*
G04 #@! TO.C,SW13*
X123500000Y-148000000D02*
X135500000Y-148000000D01*
X123500000Y-160000000D02*
X123500000Y-148000000D01*
X135500000Y-160000000D02*
X123500000Y-160000000D01*
X135500000Y-148000000D02*
X135500000Y-160000000D01*
G04 #@! TO.C,SW12*
X123500000Y-144000000D02*
X123500000Y-132000000D01*
X135500000Y-144000000D02*
X123500000Y-144000000D01*
X135500000Y-132000000D02*
X135500000Y-144000000D01*
X123500000Y-132000000D02*
X135500000Y-132000000D01*
G04 #@! TO.C,SW11*
X123500000Y-116000000D02*
X135500000Y-116000000D01*
X123500000Y-128000000D02*
X123500000Y-116000000D01*
X135500000Y-128000000D02*
X123500000Y-128000000D01*
X135500000Y-116000000D02*
X135500000Y-128000000D01*
G04 #@! TO.C,SW10*
X107500000Y-164000000D02*
X119500000Y-164000000D01*
X107500000Y-176000000D02*
X107500000Y-164000000D01*
X119500000Y-176000000D02*
X107500000Y-176000000D01*
X119500000Y-164000000D02*
X119500000Y-176000000D01*
G04 #@! TO.C,SW9*
X107500000Y-160000000D02*
X107500000Y-148000000D01*
X119500000Y-160000000D02*
X107500000Y-160000000D01*
X119500000Y-148000000D02*
X119500000Y-160000000D01*
X107500000Y-148000000D02*
X119500000Y-148000000D01*
G04 #@! TO.C,SW8*
X107500000Y-132000000D02*
X119500000Y-132000000D01*
X107500000Y-144000000D02*
X107500000Y-132000000D01*
X119500000Y-144000000D02*
X107500000Y-144000000D01*
X119500000Y-132000000D02*
X119500000Y-144000000D01*
G04 #@! TO.C,SW7*
X107500000Y-128000000D02*
X107500000Y-116000000D01*
X119500000Y-128000000D02*
X107500000Y-128000000D01*
X119500000Y-116000000D02*
X119500000Y-128000000D01*
X107500000Y-116000000D02*
X119500000Y-116000000D01*
G04 #@! TO.C,SW6*
X91500000Y-176000000D02*
X91500000Y-164000000D01*
X103500000Y-176000000D02*
X91500000Y-176000000D01*
X103500000Y-164000000D02*
X103500000Y-176000000D01*
X91500000Y-164000000D02*
X103500000Y-164000000D01*
G04 #@! TO.C,SW5*
X91500000Y-148000000D02*
X103500000Y-148000000D01*
X91500000Y-160000000D02*
X91500000Y-148000000D01*
X103500000Y-160000000D02*
X91500000Y-160000000D01*
X103500000Y-148000000D02*
X103500000Y-160000000D01*
G04 #@! TO.C,SW4*
X91500000Y-144000000D02*
X91500000Y-132000000D01*
X103500000Y-144000000D02*
X91500000Y-144000000D01*
X103500000Y-132000000D02*
X103500000Y-144000000D01*
X91500000Y-132000000D02*
X103500000Y-132000000D01*
G04 #@! TO.C,SW3*
X91500000Y-116000000D02*
X103500000Y-116000000D01*
X91500000Y-128000000D02*
X91500000Y-116000000D01*
X103500000Y-128000000D02*
X91500000Y-128000000D01*
X103500000Y-116000000D02*
X103500000Y-128000000D01*
G04 #@! TO.C,SW2*
X75500000Y-123500000D02*
X75500000Y-111500000D01*
X87500000Y-123500000D02*
X75500000Y-123500000D01*
X87500000Y-111500000D02*
X87500000Y-123500000D01*
X75500000Y-111500000D02*
X87500000Y-111500000D01*
D10*
G04 #@! TO.C,SW1*
X54115000Y-56270000D02*
X48765000Y-56270000D01*
X48765000Y-56270000D02*
X48765000Y-46110000D01*
X48765000Y-46110000D02*
X55115000Y-46110000D01*
X55115000Y-46110000D02*
X55115000Y-55270000D01*
X55115000Y-55270000D02*
X54115000Y-56270000D01*
G04 #@! TO.C,R14*
X30825000Y-167200000D02*
X29575000Y-167200000D01*
X29575000Y-167200000D02*
X29575000Y-165200000D01*
X29575000Y-165200000D02*
X30825000Y-165200000D01*
X30825000Y-165200000D02*
X30825000Y-167200000D01*
G04 #@! TO.C,R13*
X32500000Y-177125000D02*
X32500000Y-175875000D01*
X32500000Y-175875000D02*
X34500000Y-175875000D01*
X34500000Y-175875000D02*
X34500000Y-177125000D01*
X34500000Y-177125000D02*
X32500000Y-177125000D01*
G04 #@! TO.C,R1*
X84500000Y-70375000D02*
X84500000Y-71625000D01*
X84500000Y-71625000D02*
X82500000Y-71625000D01*
X82500000Y-71625000D02*
X82500000Y-70375000D01*
X82500000Y-70375000D02*
X84500000Y-70375000D01*
G04 #@! TO.C,J3*
X47080000Y-177040000D02*
X47080000Y-183040000D01*
X47720000Y-183040000D02*
X47080000Y-183040000D01*
X47720000Y-177040000D02*
X47720000Y-183040000D01*
X47080000Y-172680000D02*
X47080000Y-174500000D01*
X47720000Y-172680000D02*
X47080000Y-172680000D01*
X47720000Y-172680000D02*
X47720000Y-174500000D01*
X49620000Y-177040000D02*
X49620000Y-183040000D01*
X50260000Y-183040000D02*
X49620000Y-183040000D01*
X50260000Y-177040000D02*
X50260000Y-183040000D01*
X49620000Y-172680000D02*
X49620000Y-174500000D01*
X50260000Y-172680000D02*
X49620000Y-172680000D01*
X50260000Y-172680000D02*
X50260000Y-174500000D01*
X52160000Y-177040000D02*
X52160000Y-183040000D01*
X52800000Y-183040000D02*
X52160000Y-183040000D01*
X52800000Y-177040000D02*
X52800000Y-183040000D01*
X52160000Y-172680000D02*
X52160000Y-174500000D01*
X52800000Y-172680000D02*
X52160000Y-172680000D01*
X52800000Y-172680000D02*
X52800000Y-174500000D01*
X54700000Y-177040000D02*
X54700000Y-183040000D01*
X55340000Y-183040000D02*
X54700000Y-183040000D01*
X55340000Y-177040000D02*
X55340000Y-183040000D01*
X54700000Y-172680000D02*
X54700000Y-174500000D01*
X55340000Y-172680000D02*
X54700000Y-172680000D01*
X55340000Y-172680000D02*
X55340000Y-174500000D01*
X57240000Y-177040000D02*
X57240000Y-183040000D01*
X57880000Y-183040000D02*
X57240000Y-183040000D01*
X57880000Y-177040000D02*
X57880000Y-183040000D01*
X57240000Y-172680000D02*
X57240000Y-174500000D01*
X57880000Y-172680000D02*
X57240000Y-172680000D01*
X57880000Y-172680000D02*
X57880000Y-174500000D01*
X59780000Y-177040000D02*
X59780000Y-183040000D01*
X60420000Y-183040000D02*
X59780000Y-183040000D01*
X60420000Y-177040000D02*
X60420000Y-183040000D01*
X59780000Y-172680000D02*
X59780000Y-174500000D01*
X60420000Y-172680000D02*
X59780000Y-172680000D01*
X60420000Y-172680000D02*
X60420000Y-174500000D01*
X62320000Y-177040000D02*
X62320000Y-183040000D01*
X62960000Y-183040000D02*
X62320000Y-183040000D01*
X62960000Y-177040000D02*
X62960000Y-183040000D01*
X62320000Y-172680000D02*
X62320000Y-174500000D01*
X62960000Y-172680000D02*
X62320000Y-172680000D01*
X62960000Y-172680000D02*
X62960000Y-174500000D01*
X64860000Y-177040000D02*
X64860000Y-183040000D01*
X65500000Y-183040000D02*
X64860000Y-183040000D01*
X65500000Y-177040000D02*
X65500000Y-183040000D01*
X64860000Y-172680000D02*
X64860000Y-174500000D01*
X65500000Y-172680000D02*
X64860000Y-172680000D01*
X65500000Y-172680000D02*
X65500000Y-174500000D01*
X67400000Y-177040000D02*
X67400000Y-183040000D01*
X68040000Y-183040000D02*
X67400000Y-183040000D01*
X68040000Y-177040000D02*
X68040000Y-183040000D01*
X67400000Y-172680000D02*
X67400000Y-174500000D01*
X68040000Y-172680000D02*
X67400000Y-172680000D01*
X68040000Y-172680000D02*
X68040000Y-174500000D01*
X69940000Y-177040000D02*
X69940000Y-183040000D01*
X70580000Y-183040000D02*
X69940000Y-183040000D01*
X70580000Y-177040000D02*
X70580000Y-183040000D01*
X69940000Y-172680000D02*
X69940000Y-174500000D01*
X70580000Y-172680000D02*
X69940000Y-172680000D01*
X70580000Y-172680000D02*
X70580000Y-174500000D01*
X72480000Y-177040000D02*
X72480000Y-183040000D01*
X73120000Y-183040000D02*
X72480000Y-183040000D01*
X73120000Y-177040000D02*
X73120000Y-183040000D01*
X72480000Y-172680000D02*
X72480000Y-174500000D01*
X73120000Y-172680000D02*
X72480000Y-172680000D01*
X73120000Y-172680000D02*
X73120000Y-174500000D01*
X75020000Y-177040000D02*
X75020000Y-183040000D01*
X75660000Y-183040000D02*
X75020000Y-183040000D01*
X75660000Y-177040000D02*
X75660000Y-183040000D01*
X75020000Y-172680000D02*
X75020000Y-174500000D01*
X75660000Y-172680000D02*
X75020000Y-172680000D01*
X75660000Y-172680000D02*
X75660000Y-174500000D01*
X77560000Y-177040000D02*
X77560000Y-183040000D01*
X78200000Y-183040000D02*
X77560000Y-183040000D01*
X78200000Y-177040000D02*
X78200000Y-183040000D01*
X77560000Y-172680000D02*
X77560000Y-174500000D01*
X78200000Y-172680000D02*
X77560000Y-172680000D01*
X78200000Y-172680000D02*
X78200000Y-174500000D01*
X80100000Y-177040000D02*
X80100000Y-183040000D01*
X80740000Y-183040000D02*
X80100000Y-183040000D01*
X80740000Y-177040000D02*
X80740000Y-183040000D01*
X80100000Y-172680000D02*
X80100000Y-174500000D01*
X80740000Y-172680000D02*
X80100000Y-172680000D01*
X80740000Y-172680000D02*
X80740000Y-174500000D01*
X82640000Y-177040000D02*
X82640000Y-183040000D01*
X83280000Y-183040000D02*
X82640000Y-183040000D01*
X83280000Y-177040000D02*
X83280000Y-183040000D01*
X82640000Y-172680000D02*
X82640000Y-174500000D01*
X83280000Y-172680000D02*
X82640000Y-172680000D01*
X83280000Y-172680000D02*
X83280000Y-174500000D01*
X85180000Y-177040000D02*
X85180000Y-183040000D01*
X85820000Y-183040000D02*
X85180000Y-183040000D01*
X85820000Y-177040000D02*
X85820000Y-183040000D01*
X85180000Y-172680000D02*
X85180000Y-174500000D01*
X85820000Y-172680000D02*
X85180000Y-172680000D01*
X85820000Y-172680000D02*
X85820000Y-174500000D01*
X86135000Y-174500000D02*
X86770000Y-175135000D01*
X46130000Y-174500000D02*
X86135000Y-174500000D01*
X46130000Y-177040000D02*
X46130000Y-174500000D01*
X86770000Y-177040000D02*
X46130000Y-177040000D01*
X86770000Y-175135000D02*
X86770000Y-177040000D01*
D11*
G04 #@! TO.C,J1*
X26925000Y-157530000D02*
X26925000Y-166470000D01*
X26925000Y-166470000D02*
X18975000Y-166470000D01*
X18975000Y-166470000D02*
X18975000Y-157530000D01*
X26925000Y-157530000D02*
X18975000Y-157530000D01*
D10*
G04 #@! TO.C,FB1*
X24000000Y-153550000D02*
X24000000Y-154450000D01*
X24000000Y-154450000D02*
X22000000Y-154450000D01*
X22000000Y-154450000D02*
X22000000Y-153550000D01*
X22000000Y-153550000D02*
X24000000Y-153550000D01*
G04 #@! TO.C,D1*
X172000000Y-165100000D02*
X173700000Y-165100000D01*
X173700000Y-165100000D02*
X174000000Y-164800000D01*
X174000000Y-164800000D02*
X174000000Y-163900000D01*
X174000000Y-163900000D02*
X172000000Y-163900000D01*
X172000000Y-163900000D02*
X172000000Y-165100000D01*
G04 #@! TO.C,C19*
X39250000Y-125125000D02*
X39250000Y-126375000D01*
X39250000Y-126375000D02*
X37250000Y-126375000D01*
X37250000Y-126375000D02*
X37250000Y-125125000D01*
X37250000Y-125125000D02*
X39250000Y-125125000D01*
G04 #@! TO.C,C18*
X70250000Y-125125000D02*
X70250000Y-126375000D01*
X70250000Y-126375000D02*
X68250000Y-126375000D01*
X68250000Y-126375000D02*
X68250000Y-125125000D01*
X68250000Y-125125000D02*
X70250000Y-125125000D01*
G04 #@! TO.C,C17*
X55250000Y-125125000D02*
X55250000Y-126375000D01*
X55250000Y-126375000D02*
X53250000Y-126375000D01*
X53250000Y-126375000D02*
X53250000Y-125125000D01*
X53250000Y-125125000D02*
X55250000Y-125125000D01*
G04 #@! TO.C,C10*
X40750000Y-173625000D02*
X40750000Y-172375000D01*
X40750000Y-172375000D02*
X42750000Y-172375000D01*
X42750000Y-172375000D02*
X42750000Y-173625000D01*
X42750000Y-173625000D02*
X40750000Y-173625000D01*
G04 #@! TO.C,C9*
X39000000Y-172375000D02*
X39000000Y-173625000D01*
X39000000Y-173625000D02*
X37000000Y-173625000D01*
X37000000Y-173625000D02*
X37000000Y-172375000D01*
X37000000Y-172375000D02*
X39000000Y-172375000D01*
G04 #@! TO.C,C7*
X34500000Y-177875000D02*
X34500000Y-179125000D01*
X34500000Y-179125000D02*
X32500000Y-179125000D01*
X32500000Y-179125000D02*
X32500000Y-177875000D01*
X32500000Y-177875000D02*
X34500000Y-177875000D01*
G04 #@! TO.C,C1*
X40250000Y-159375000D02*
X40250000Y-158125000D01*
X40250000Y-158125000D02*
X42250000Y-158125000D01*
X42250000Y-158125000D02*
X42250000Y-159375000D01*
X42250000Y-159375000D02*
X40250000Y-159375000D01*
G04 #@! TD*
G04 #@! TO.C,J7*
D12*
X141847142Y-81601190D02*
X141894761Y-81648809D01*
X141942380Y-81791666D01*
X141942380Y-81886904D01*
X141894761Y-82029761D01*
X141799523Y-82125000D01*
X141704285Y-82172619D01*
X141513809Y-82220238D01*
X141370952Y-82220238D01*
X141180476Y-82172619D01*
X141085238Y-82125000D01*
X140990000Y-82029761D01*
X140942380Y-81886904D01*
X140942380Y-81791666D01*
X140990000Y-81648809D01*
X141037619Y-81601190D01*
X140942380Y-81315476D02*
X140942380Y-80744047D01*
X141942380Y-81029761D02*
X140942380Y-81029761D01*
X141942380Y-79839285D02*
X141466190Y-80172619D01*
X141942380Y-80410714D02*
X140942380Y-80410714D01*
X140942380Y-80029761D01*
X140990000Y-79934523D01*
X141037619Y-79886904D01*
X141132857Y-79839285D01*
X141275714Y-79839285D01*
X141370952Y-79886904D01*
X141418571Y-79934523D01*
X141466190Y-80029761D01*
X141466190Y-80410714D01*
X141942380Y-78934523D02*
X141942380Y-79410714D01*
X140942380Y-79410714D01*
X128666666Y-80077380D02*
X128666666Y-80791666D01*
X128619047Y-80934523D01*
X128523809Y-81029761D01*
X128380952Y-81077380D01*
X128285714Y-81077380D01*
X129047619Y-80077380D02*
X129714285Y-80077380D01*
X129285714Y-81077380D01*
G04 #@! TO.C,RV1*
X77447619Y-167366666D02*
X77400000Y-167319047D01*
X77352380Y-167223809D01*
X77352380Y-166985714D01*
X77400000Y-166890476D01*
X77447619Y-166842857D01*
X77542857Y-166795238D01*
X77638095Y-166795238D01*
X77780952Y-166842857D01*
X78352380Y-167414285D01*
X78352380Y-166795238D01*
X77352380Y-166176190D02*
X77352380Y-166080952D01*
X77400000Y-165985714D01*
X77447619Y-165938095D01*
X77542857Y-165890476D01*
X77733333Y-165842857D01*
X77971428Y-165842857D01*
X78161904Y-165890476D01*
X78257142Y-165938095D01*
X78304761Y-165985714D01*
X78352380Y-166080952D01*
X78352380Y-166176190D01*
X78304761Y-166271428D01*
X78257142Y-166319047D01*
X78161904Y-166366666D01*
X77971428Y-166414285D01*
X77733333Y-166414285D01*
X77542857Y-166366666D01*
X77447619Y-166319047D01*
X77400000Y-166271428D01*
X77352380Y-166176190D01*
X78352380Y-165414285D02*
X77352380Y-165414285D01*
X77971428Y-165319047D02*
X78352380Y-165033333D01*
X77685714Y-165033333D02*
X78066666Y-165414285D01*
D13*
X81078571Y-167092857D02*
X80364285Y-167592857D01*
X81078571Y-167950000D02*
X79578571Y-167950000D01*
X79578571Y-167378571D01*
X79650000Y-167235714D01*
X79721428Y-167164285D01*
X79864285Y-167092857D01*
X80078571Y-167092857D01*
X80221428Y-167164285D01*
X80292857Y-167235714D01*
X80364285Y-167378571D01*
X80364285Y-167950000D01*
X79578571Y-166664285D02*
X81078571Y-166164285D01*
X79578571Y-165664285D01*
X81078571Y-164378571D02*
X81078571Y-165235714D01*
X81078571Y-164807142D02*
X79578571Y-164807142D01*
X79792857Y-164950000D01*
X79935714Y-165092857D01*
X80007142Y-165235714D01*
G04 #@! TO.C,R48*
D12*
X39302380Y-149919047D02*
X39302380Y-150490476D01*
X39302380Y-150204761D02*
X38302380Y-150204761D01*
X38445238Y-150300000D01*
X38540476Y-150395238D01*
X38588095Y-150490476D01*
X39302380Y-149490476D02*
X38302380Y-149490476D01*
X38921428Y-149395238D02*
X39302380Y-149109523D01*
X38635714Y-149109523D02*
X39016666Y-149490476D01*
D13*
X37878571Y-150764285D02*
X37164285Y-151264285D01*
X37878571Y-151621428D02*
X36378571Y-151621428D01*
X36378571Y-151050000D01*
X36450000Y-150907142D01*
X36521428Y-150835714D01*
X36664285Y-150764285D01*
X36878571Y-150764285D01*
X37021428Y-150835714D01*
X37092857Y-150907142D01*
X37164285Y-151050000D01*
X37164285Y-151621428D01*
X36878571Y-149478571D02*
X37878571Y-149478571D01*
X36307142Y-149835714D02*
X37378571Y-150192857D01*
X37378571Y-149264285D01*
X37021428Y-148478571D02*
X36950000Y-148621428D01*
X36878571Y-148692857D01*
X36735714Y-148764285D01*
X36664285Y-148764285D01*
X36521428Y-148692857D01*
X36450000Y-148621428D01*
X36378571Y-148478571D01*
X36378571Y-148192857D01*
X36450000Y-148050000D01*
X36521428Y-147978571D01*
X36664285Y-147907142D01*
X36735714Y-147907142D01*
X36878571Y-147978571D01*
X36950000Y-148050000D01*
X37021428Y-148192857D01*
X37021428Y-148478571D01*
X37092857Y-148621428D01*
X37164285Y-148692857D01*
X37307142Y-148764285D01*
X37592857Y-148764285D01*
X37735714Y-148692857D01*
X37807142Y-148621428D01*
X37878571Y-148478571D01*
X37878571Y-148192857D01*
X37807142Y-148050000D01*
X37735714Y-147978571D01*
X37592857Y-147907142D01*
X37307142Y-147907142D01*
X37164285Y-147978571D01*
X37092857Y-148050000D01*
X37021428Y-148192857D01*
G04 #@! TO.C,D3*
D12*
X36002380Y-153942857D02*
X36002380Y-154419047D01*
X35002380Y-154419047D01*
X35478571Y-153609523D02*
X35478571Y-153276190D01*
X36002380Y-153133333D02*
X36002380Y-153609523D01*
X35002380Y-153609523D01*
X35002380Y-153133333D01*
X36002380Y-152704761D02*
X35002380Y-152704761D01*
X35002380Y-152466666D01*
X35050000Y-152323809D01*
X35145238Y-152228571D01*
X35240476Y-152180952D01*
X35430952Y-152133333D01*
X35573809Y-152133333D01*
X35764285Y-152180952D01*
X35859523Y-152228571D01*
X35954761Y-152323809D01*
X36002380Y-152466666D01*
X36002380Y-152704761D01*
D13*
X37878571Y-154407142D02*
X36378571Y-154407142D01*
X36378571Y-154050000D01*
X36450000Y-153835714D01*
X36592857Y-153692857D01*
X36735714Y-153621428D01*
X37021428Y-153550000D01*
X37235714Y-153550000D01*
X37521428Y-153621428D01*
X37664285Y-153692857D01*
X37807142Y-153835714D01*
X37878571Y-154050000D01*
X37878571Y-154407142D01*
X36378571Y-153050000D02*
X36378571Y-152121428D01*
X36950000Y-152621428D01*
X36950000Y-152407142D01*
X37021428Y-152264285D01*
X37092857Y-152192857D01*
X37235714Y-152121428D01*
X37592857Y-152121428D01*
X37735714Y-152192857D01*
X37807142Y-152264285D01*
X37878571Y-152407142D01*
X37878571Y-152835714D01*
X37807142Y-152978571D01*
X37735714Y-153050000D01*
G04 #@! TO.C,J6*
D12*
X168287142Y-146238095D02*
X168334761Y-146285714D01*
X168382380Y-146428571D01*
X168382380Y-146523809D01*
X168334761Y-146666666D01*
X168239523Y-146761904D01*
X168144285Y-146809523D01*
X167953809Y-146857142D01*
X167810952Y-146857142D01*
X167620476Y-146809523D01*
X167525238Y-146761904D01*
X167430000Y-146666666D01*
X167382380Y-146523809D01*
X167382380Y-146428571D01*
X167430000Y-146285714D01*
X167477619Y-146238095D01*
X168382380Y-145666666D02*
X168334761Y-145761904D01*
X168287142Y-145809523D01*
X168191904Y-145857142D01*
X167906190Y-145857142D01*
X167810952Y-145809523D01*
X167763333Y-145761904D01*
X167715714Y-145666666D01*
X167715714Y-145523809D01*
X167763333Y-145428571D01*
X167810952Y-145380952D01*
X167906190Y-145333333D01*
X168191904Y-145333333D01*
X168287142Y-145380952D01*
X168334761Y-145428571D01*
X168382380Y-145523809D01*
X168382380Y-145666666D01*
X167715714Y-144904761D02*
X168382380Y-144904761D01*
X167810952Y-144904761D02*
X167763333Y-144857142D01*
X167715714Y-144761904D01*
X167715714Y-144619047D01*
X167763333Y-144523809D01*
X167858571Y-144476190D01*
X168382380Y-144476190D01*
X167715714Y-144000000D02*
X168382380Y-144000000D01*
X167810952Y-144000000D02*
X167763333Y-143952380D01*
X167715714Y-143857142D01*
X167715714Y-143714285D01*
X167763333Y-143619047D01*
X167858571Y-143571428D01*
X168382380Y-143571428D01*
X168477619Y-143333333D02*
X168477619Y-142571428D01*
X167382380Y-142142857D02*
X167382380Y-142047619D01*
X167430000Y-141952380D01*
X167477619Y-141904761D01*
X167572857Y-141857142D01*
X167763333Y-141809523D01*
X168001428Y-141809523D01*
X168191904Y-141857142D01*
X168287142Y-141904761D01*
X168334761Y-141952380D01*
X168382380Y-142047619D01*
X168382380Y-142142857D01*
X168334761Y-142238095D01*
X168287142Y-142285714D01*
X168191904Y-142333333D01*
X168001428Y-142380952D01*
X167763333Y-142380952D01*
X167572857Y-142333333D01*
X167477619Y-142285714D01*
X167430000Y-142238095D01*
X167382380Y-142142857D01*
X168382380Y-140857142D02*
X168382380Y-141428571D01*
X168382380Y-141142857D02*
X167382380Y-141142857D01*
X167525238Y-141238095D01*
X167620476Y-141333333D01*
X167668095Y-141428571D01*
X168382380Y-140523809D02*
X167715714Y-140000000D01*
X167715714Y-140523809D02*
X168382380Y-140000000D01*
X167382380Y-139428571D02*
X167382380Y-139333333D01*
X167430000Y-139238095D01*
X167477619Y-139190476D01*
X167572857Y-139142857D01*
X167763333Y-139095238D01*
X168001428Y-139095238D01*
X168191904Y-139142857D01*
X168287142Y-139190476D01*
X168334761Y-139238095D01*
X168382380Y-139333333D01*
X168382380Y-139428571D01*
X168334761Y-139523809D01*
X168287142Y-139571428D01*
X168191904Y-139619047D01*
X168001428Y-139666666D01*
X167763333Y-139666666D01*
X167572857Y-139619047D01*
X167477619Y-139571428D01*
X167430000Y-139523809D01*
X167382380Y-139428571D01*
X167477619Y-138714285D02*
X167430000Y-138666666D01*
X167382380Y-138571428D01*
X167382380Y-138333333D01*
X167430000Y-138238095D01*
X167477619Y-138190476D01*
X167572857Y-138142857D01*
X167668095Y-138142857D01*
X167810952Y-138190476D01*
X168382380Y-138761904D01*
X168382380Y-138142857D01*
D13*
X171030000Y-141678571D02*
X171030000Y-142750000D01*
X170958571Y-142964285D01*
X170815714Y-143107142D01*
X170601428Y-143178571D01*
X170458571Y-143178571D01*
X172387142Y-141678571D02*
X172101428Y-141678571D01*
X171958571Y-141750000D01*
X171887142Y-141821428D01*
X171744285Y-142035714D01*
X171672857Y-142321428D01*
X171672857Y-142892857D01*
X171744285Y-143035714D01*
X171815714Y-143107142D01*
X171958571Y-143178571D01*
X172244285Y-143178571D01*
X172387142Y-143107142D01*
X172458571Y-143035714D01*
X172530000Y-142892857D01*
X172530000Y-142535714D01*
X172458571Y-142392857D01*
X172387142Y-142321428D01*
X172244285Y-142250000D01*
X171958571Y-142250000D01*
X171815714Y-142321428D01*
X171744285Y-142392857D01*
X171672857Y-142535714D01*
G04 #@! TO.C,C22*
D12*
X29972380Y-169747619D02*
X29972380Y-169652380D01*
X30020000Y-169557142D01*
X30067619Y-169509523D01*
X30162857Y-169461904D01*
X30353333Y-169414285D01*
X30591428Y-169414285D01*
X30781904Y-169461904D01*
X30877142Y-169509523D01*
X30924761Y-169557142D01*
X30972380Y-169652380D01*
X30972380Y-169747619D01*
X30924761Y-169842857D01*
X30877142Y-169890476D01*
X30781904Y-169938095D01*
X30591428Y-169985714D01*
X30353333Y-169985714D01*
X30162857Y-169938095D01*
X30067619Y-169890476D01*
X30020000Y-169842857D01*
X29972380Y-169747619D01*
X30877142Y-168985714D02*
X30924761Y-168938095D01*
X30972380Y-168985714D01*
X30924761Y-169033333D01*
X30877142Y-168985714D01*
X30972380Y-168985714D01*
X30972380Y-167985714D02*
X30972380Y-168557142D01*
X30972380Y-168271428D02*
X29972380Y-168271428D01*
X30115238Y-168366666D01*
X30210476Y-168461904D01*
X30258095Y-168557142D01*
X30305714Y-167128571D02*
X30972380Y-167128571D01*
X30305714Y-167557142D02*
X30829523Y-167557142D01*
X30924761Y-167509523D01*
X30972380Y-167414285D01*
X30972380Y-167271428D01*
X30924761Y-167176190D01*
X30877142Y-167128571D01*
X30448571Y-166319047D02*
X30448571Y-166652380D01*
X30972380Y-166652380D02*
X29972380Y-166652380D01*
X29972380Y-166176190D01*
X29924761Y-165080952D02*
X31210476Y-165938095D01*
X30972380Y-164223809D02*
X30972380Y-164795238D01*
X30972380Y-164509523D02*
X29972380Y-164509523D01*
X30115238Y-164604761D01*
X30210476Y-164700000D01*
X30258095Y-164795238D01*
X29972380Y-163604761D02*
X29972380Y-163509523D01*
X30020000Y-163414285D01*
X30067619Y-163366666D01*
X30162857Y-163319047D01*
X30353333Y-163271428D01*
X30591428Y-163271428D01*
X30781904Y-163319047D01*
X30877142Y-163366666D01*
X30924761Y-163414285D01*
X30972380Y-163509523D01*
X30972380Y-163604761D01*
X30924761Y-163700000D01*
X30877142Y-163747619D01*
X30781904Y-163795238D01*
X30591428Y-163842857D01*
X30353333Y-163842857D01*
X30162857Y-163795238D01*
X30067619Y-163747619D01*
X30020000Y-163700000D01*
X29972380Y-163604761D01*
X29972380Y-162985714D02*
X30972380Y-162652380D01*
X29972380Y-162319047D01*
D13*
X32735714Y-167164285D02*
X32807142Y-167235714D01*
X32878571Y-167450000D01*
X32878571Y-167592857D01*
X32807142Y-167807142D01*
X32664285Y-167950000D01*
X32521428Y-168021428D01*
X32235714Y-168092857D01*
X32021428Y-168092857D01*
X31735714Y-168021428D01*
X31592857Y-167950000D01*
X31450000Y-167807142D01*
X31378571Y-167592857D01*
X31378571Y-167450000D01*
X31450000Y-167235714D01*
X31521428Y-167164285D01*
X31521428Y-166592857D02*
X31450000Y-166521428D01*
X31378571Y-166378571D01*
X31378571Y-166021428D01*
X31450000Y-165878571D01*
X31521428Y-165807142D01*
X31664285Y-165735714D01*
X31807142Y-165735714D01*
X32021428Y-165807142D01*
X32878571Y-166664285D01*
X32878571Y-165735714D01*
X31521428Y-165164285D02*
X31450000Y-165092857D01*
X31378571Y-164950000D01*
X31378571Y-164592857D01*
X31450000Y-164450000D01*
X31521428Y-164378571D01*
X31664285Y-164307142D01*
X31807142Y-164307142D01*
X32021428Y-164378571D01*
X32878571Y-165235714D01*
X32878571Y-164307142D01*
G04 #@! TO.C,X1*
D12*
X87537619Y-97641904D02*
X87490000Y-97594285D01*
X87442380Y-97499047D01*
X87442380Y-97260952D01*
X87490000Y-97165714D01*
X87537619Y-97118095D01*
X87632857Y-97070476D01*
X87728095Y-97070476D01*
X87870952Y-97118095D01*
X88442380Y-97689523D01*
X88442380Y-97070476D01*
X87775714Y-96213333D02*
X88442380Y-96213333D01*
X87394761Y-96451428D02*
X88109047Y-96689523D01*
X88109047Y-96070476D01*
X88442380Y-95689523D02*
X87442380Y-95689523D01*
X88156666Y-95356190D01*
X87442380Y-95022857D01*
X88442380Y-95022857D01*
X88442380Y-94546666D02*
X87442380Y-94546666D01*
X87918571Y-94546666D02*
X87918571Y-93975238D01*
X88442380Y-93975238D02*
X87442380Y-93975238D01*
X87775714Y-93594285D02*
X87775714Y-93070476D01*
X88442380Y-93594285D01*
X88442380Y-93070476D01*
D13*
X79618571Y-96594285D02*
X81118571Y-95594285D01*
X79618571Y-95594285D02*
X81118571Y-96594285D01*
X81118571Y-94237142D02*
X81118571Y-95094285D01*
X81118571Y-94665714D02*
X79618571Y-94665714D01*
X79832857Y-94808571D01*
X79975714Y-94951428D01*
X80047142Y-95094285D01*
G04 #@! TO.C,SW24*
D12*
X47725714Y-67204761D02*
X47868571Y-67252380D01*
X48106666Y-67252380D01*
X48201904Y-67204761D01*
X48249523Y-67157142D01*
X48297142Y-67061904D01*
X48297142Y-66966666D01*
X48249523Y-66871428D01*
X48201904Y-66823809D01*
X48106666Y-66776190D01*
X47916190Y-66728571D01*
X47820952Y-66680952D01*
X47773333Y-66633333D01*
X47725714Y-66538095D01*
X47725714Y-66442857D01*
X47773333Y-66347619D01*
X47820952Y-66300000D01*
X47916190Y-66252380D01*
X48154285Y-66252380D01*
X48297142Y-66300000D01*
X48630476Y-66252380D02*
X48868571Y-67252380D01*
X49059047Y-66538095D01*
X49249523Y-67252380D01*
X49487619Y-66252380D01*
X49630476Y-67347619D02*
X50392380Y-67347619D01*
X50630476Y-67252380D02*
X50630476Y-66252380D01*
X50868571Y-66252380D01*
X51011428Y-66300000D01*
X51106666Y-66395238D01*
X51154285Y-66490476D01*
X51201904Y-66680952D01*
X51201904Y-66823809D01*
X51154285Y-67014285D01*
X51106666Y-67109523D01*
X51011428Y-67204761D01*
X50868571Y-67252380D01*
X50630476Y-67252380D01*
X51630476Y-67252380D02*
X51630476Y-66252380D01*
X52106666Y-67252380D02*
X52106666Y-66252380D01*
X52487619Y-66252380D01*
X52582857Y-66300000D01*
X52630476Y-66347619D01*
X52678095Y-66442857D01*
X52678095Y-66585714D01*
X52630476Y-66680952D01*
X52582857Y-66728571D01*
X52487619Y-66776190D01*
X52106666Y-66776190D01*
X52868571Y-67347619D02*
X53630476Y-67347619D01*
X53773333Y-67252380D02*
X54297142Y-66585714D01*
X53773333Y-66585714D02*
X54297142Y-67252380D01*
X54868571Y-66252380D02*
X54963809Y-66252380D01*
X55059047Y-66300000D01*
X55106666Y-66347619D01*
X55154285Y-66442857D01*
X55201904Y-66633333D01*
X55201904Y-66871428D01*
X55154285Y-67061904D01*
X55106666Y-67157142D01*
X55059047Y-67204761D01*
X54963809Y-67252380D01*
X54868571Y-67252380D01*
X54773333Y-67204761D01*
X54725714Y-67157142D01*
X54678095Y-67061904D01*
X54630476Y-66871428D01*
X54630476Y-66633333D01*
X54678095Y-66442857D01*
X54725714Y-66347619D01*
X54773333Y-66300000D01*
X54868571Y-66252380D01*
X56059047Y-66585714D02*
X56059047Y-67252380D01*
X55820952Y-66204761D02*
X55582857Y-66919047D01*
X56201904Y-66919047D01*
D13*
X49225714Y-73547142D02*
X49440000Y-73618571D01*
X49797142Y-73618571D01*
X49940000Y-73547142D01*
X50011428Y-73475714D01*
X50082857Y-73332857D01*
X50082857Y-73190000D01*
X50011428Y-73047142D01*
X49940000Y-72975714D01*
X49797142Y-72904285D01*
X49511428Y-72832857D01*
X49368571Y-72761428D01*
X49297142Y-72690000D01*
X49225714Y-72547142D01*
X49225714Y-72404285D01*
X49297142Y-72261428D01*
X49368571Y-72190000D01*
X49511428Y-72118571D01*
X49868571Y-72118571D01*
X50082857Y-72190000D01*
X50582857Y-72118571D02*
X50940000Y-73618571D01*
X51225714Y-72547142D01*
X51511428Y-73618571D01*
X51868571Y-72118571D01*
X52368571Y-72261428D02*
X52440000Y-72190000D01*
X52582857Y-72118571D01*
X52940000Y-72118571D01*
X53082857Y-72190000D01*
X53154285Y-72261428D01*
X53225714Y-72404285D01*
X53225714Y-72547142D01*
X53154285Y-72761428D01*
X52297142Y-73618571D01*
X53225714Y-73618571D01*
X54511428Y-72618571D02*
X54511428Y-73618571D01*
X54154285Y-72047142D02*
X53797142Y-73118571D01*
X54725714Y-73118571D01*
G04 #@! TO.C,C20*
D12*
X72752380Y-83932380D02*
X72847619Y-83932380D01*
X72942857Y-83980000D01*
X72990476Y-84027619D01*
X73038095Y-84122857D01*
X73085714Y-84313333D01*
X73085714Y-84551428D01*
X73038095Y-84741904D01*
X72990476Y-84837142D01*
X72942857Y-84884761D01*
X72847619Y-84932380D01*
X72752380Y-84932380D01*
X72657142Y-84884761D01*
X72609523Y-84837142D01*
X72561904Y-84741904D01*
X72514285Y-84551428D01*
X72514285Y-84313333D01*
X72561904Y-84122857D01*
X72609523Y-84027619D01*
X72657142Y-83980000D01*
X72752380Y-83932380D01*
X73514285Y-84837142D02*
X73561904Y-84884761D01*
X73514285Y-84932380D01*
X73466666Y-84884761D01*
X73514285Y-84837142D01*
X73514285Y-84932380D01*
X74514285Y-84932380D02*
X73942857Y-84932380D01*
X74228571Y-84932380D02*
X74228571Y-83932380D01*
X74133333Y-84075238D01*
X74038095Y-84170476D01*
X73942857Y-84218095D01*
X75371428Y-84265714D02*
X75371428Y-84932380D01*
X74942857Y-84265714D02*
X74942857Y-84789523D01*
X74990476Y-84884761D01*
X75085714Y-84932380D01*
X75228571Y-84932380D01*
X75323809Y-84884761D01*
X75371428Y-84837142D01*
X76180952Y-84408571D02*
X75847619Y-84408571D01*
X75847619Y-84932380D02*
X75847619Y-83932380D01*
X76323809Y-83932380D01*
X77419047Y-83884761D02*
X76561904Y-85170476D01*
X78276190Y-84932380D02*
X77704761Y-84932380D01*
X77990476Y-84932380D02*
X77990476Y-83932380D01*
X77895238Y-84075238D01*
X77800000Y-84170476D01*
X77704761Y-84218095D01*
X78895238Y-83932380D02*
X78990476Y-83932380D01*
X79085714Y-83980000D01*
X79133333Y-84027619D01*
X79180952Y-84122857D01*
X79228571Y-84313333D01*
X79228571Y-84551428D01*
X79180952Y-84741904D01*
X79133333Y-84837142D01*
X79085714Y-84884761D01*
X78990476Y-84932380D01*
X78895238Y-84932380D01*
X78800000Y-84884761D01*
X78752380Y-84837142D01*
X78704761Y-84741904D01*
X78657142Y-84551428D01*
X78657142Y-84313333D01*
X78704761Y-84122857D01*
X78752380Y-84027619D01*
X78800000Y-83980000D01*
X78895238Y-83932380D01*
X79514285Y-83932380D02*
X79847619Y-84932380D01*
X80180952Y-83932380D01*
D13*
X75335714Y-83335714D02*
X75264285Y-83407142D01*
X75050000Y-83478571D01*
X74907142Y-83478571D01*
X74692857Y-83407142D01*
X74550000Y-83264285D01*
X74478571Y-83121428D01*
X74407142Y-82835714D01*
X74407142Y-82621428D01*
X74478571Y-82335714D01*
X74550000Y-82192857D01*
X74692857Y-82050000D01*
X74907142Y-81978571D01*
X75050000Y-81978571D01*
X75264285Y-82050000D01*
X75335714Y-82121428D01*
X75907142Y-82121428D02*
X75978571Y-82050000D01*
X76121428Y-81978571D01*
X76478571Y-81978571D01*
X76621428Y-82050000D01*
X76692857Y-82121428D01*
X76764285Y-82264285D01*
X76764285Y-82407142D01*
X76692857Y-82621428D01*
X75835714Y-83478571D01*
X76764285Y-83478571D01*
X77692857Y-81978571D02*
X77835714Y-81978571D01*
X77978571Y-82050000D01*
X78050000Y-82121428D01*
X78121428Y-82264285D01*
X78192857Y-82550000D01*
X78192857Y-82907142D01*
X78121428Y-83192857D01*
X78050000Y-83335714D01*
X77978571Y-83407142D01*
X77835714Y-83478571D01*
X77692857Y-83478571D01*
X77550000Y-83407142D01*
X77478571Y-83335714D01*
X77407142Y-83192857D01*
X77335714Y-82907142D01*
X77335714Y-82550000D01*
X77407142Y-82264285D01*
X77478571Y-82121428D01*
X77550000Y-82050000D01*
X77692857Y-81978571D01*
G04 #@! TO.C,SW23*
D12*
X167404761Y-86146428D02*
X167452380Y-86003571D01*
X167452380Y-85765476D01*
X167404761Y-85670238D01*
X167357142Y-85622619D01*
X167261904Y-85575000D01*
X167166666Y-85575000D01*
X167071428Y-85622619D01*
X167023809Y-85670238D01*
X166976190Y-85765476D01*
X166928571Y-85955952D01*
X166880952Y-86051190D01*
X166833333Y-86098809D01*
X166738095Y-86146428D01*
X166642857Y-86146428D01*
X166547619Y-86098809D01*
X166500000Y-86051190D01*
X166452380Y-85955952D01*
X166452380Y-85717857D01*
X166500000Y-85575000D01*
X166452380Y-85241666D02*
X167452380Y-85003571D01*
X166738095Y-84813095D01*
X167452380Y-84622619D01*
X166452380Y-84384523D01*
X167547619Y-84241666D02*
X167547619Y-83479761D01*
X167404761Y-83289285D02*
X167452380Y-83146428D01*
X167452380Y-82908333D01*
X167404761Y-82813095D01*
X167357142Y-82765476D01*
X167261904Y-82717857D01*
X167166666Y-82717857D01*
X167071428Y-82765476D01*
X167023809Y-82813095D01*
X166976190Y-82908333D01*
X166928571Y-83098809D01*
X166880952Y-83194047D01*
X166833333Y-83241666D01*
X166738095Y-83289285D01*
X166642857Y-83289285D01*
X166547619Y-83241666D01*
X166500000Y-83194047D01*
X166452380Y-83098809D01*
X166452380Y-82860714D01*
X166500000Y-82717857D01*
X167452380Y-82289285D02*
X166452380Y-82289285D01*
X166452380Y-81908333D01*
X166500000Y-81813095D01*
X166547619Y-81765476D01*
X166642857Y-81717857D01*
X166785714Y-81717857D01*
X166880952Y-81765476D01*
X166928571Y-81813095D01*
X166976190Y-81908333D01*
X166976190Y-82289285D01*
X167404761Y-81336904D02*
X167452380Y-81194047D01*
X167452380Y-80955952D01*
X167404761Y-80860714D01*
X167357142Y-80813095D01*
X167261904Y-80765476D01*
X167166666Y-80765476D01*
X167071428Y-80813095D01*
X167023809Y-80860714D01*
X166976190Y-80955952D01*
X166928571Y-81146428D01*
X166880952Y-81241666D01*
X166833333Y-81289285D01*
X166738095Y-81336904D01*
X166642857Y-81336904D01*
X166547619Y-81289285D01*
X166500000Y-81241666D01*
X166452380Y-81146428D01*
X166452380Y-80908333D01*
X166500000Y-80765476D01*
X166452380Y-80479761D02*
X166452380Y-79908333D01*
X167452380Y-80194047D02*
X166452380Y-80194047D01*
G04 #@! TO.C,U4*
D14*
X79537134Y-75501332D02*
X79821540Y-75596134D01*
X80295550Y-75596134D01*
X80485155Y-75501332D01*
X80579957Y-75406530D01*
X80674759Y-75216926D01*
X80674759Y-75027322D01*
X80579957Y-74837718D01*
X80485155Y-74742916D01*
X80295550Y-74648113D01*
X79916342Y-74553311D01*
X79726738Y-74458509D01*
X79631936Y-74363707D01*
X79537134Y-74174103D01*
X79537134Y-73984499D01*
X79631936Y-73794895D01*
X79726738Y-73700093D01*
X79916342Y-73605291D01*
X80390353Y-73605291D01*
X80674759Y-73700093D01*
X81433175Y-75501332D02*
X81717581Y-75596134D01*
X82191591Y-75596134D01*
X82381196Y-75501332D01*
X82475998Y-75406530D01*
X82570800Y-75216926D01*
X82570800Y-75027322D01*
X82475998Y-74837718D01*
X82381196Y-74742916D01*
X82191591Y-74648113D01*
X81812383Y-74553311D01*
X81622779Y-74458509D01*
X81527977Y-74363707D01*
X81433175Y-74174103D01*
X81433175Y-73984499D01*
X81527977Y-73794895D01*
X81622779Y-73700093D01*
X81812383Y-73605291D01*
X82286393Y-73605291D01*
X82570800Y-73700093D01*
X83139612Y-73605291D02*
X84277236Y-73605291D01*
X83708424Y-75596134D02*
X83708424Y-73605291D01*
X84751247Y-73605291D02*
X85983673Y-73605291D01*
X85320059Y-74363707D01*
X85604465Y-74363707D01*
X85794069Y-74458509D01*
X85888871Y-74553311D01*
X85983673Y-74742916D01*
X85983673Y-75216926D01*
X85888871Y-75406530D01*
X85794069Y-75501332D01*
X85604465Y-75596134D01*
X85035653Y-75596134D01*
X84846049Y-75501332D01*
X84751247Y-75406530D01*
X86931694Y-75596134D02*
X87310902Y-75596134D01*
X87500506Y-75501332D01*
X87595308Y-75406530D01*
X87784912Y-75122124D01*
X87879714Y-74742916D01*
X87879714Y-73984499D01*
X87784912Y-73794895D01*
X87690110Y-73700093D01*
X87500506Y-73605291D01*
X87121298Y-73605291D01*
X86931694Y-73700093D01*
X86836892Y-73794895D01*
X86742090Y-73984499D01*
X86742090Y-74458509D01*
X86836892Y-74648113D01*
X86931694Y-74742916D01*
X87121298Y-74837718D01*
X87500506Y-74837718D01*
X87690110Y-74742916D01*
X87784912Y-74648113D01*
X87879714Y-74458509D01*
X88638131Y-75501332D02*
X88922537Y-75596134D01*
X89396547Y-75596134D01*
X89586151Y-75501332D01*
X89680953Y-75406530D01*
X89775755Y-75216926D01*
X89775755Y-75027322D01*
X89680953Y-74837718D01*
X89586151Y-74742916D01*
X89396547Y-74648113D01*
X89017339Y-74553311D01*
X88827735Y-74458509D01*
X88732933Y-74363707D01*
X88638131Y-74174103D01*
X88638131Y-73984499D01*
X88732933Y-73794895D01*
X88827735Y-73700093D01*
X89017339Y-73605291D01*
X89491349Y-73605291D01*
X89775755Y-73700093D01*
X91292588Y-74553311D02*
X90628974Y-74553311D01*
X90628974Y-75596134D02*
X90628974Y-73605291D01*
X91576994Y-73605291D01*
X92714619Y-73605291D02*
X92904223Y-73605291D01*
X93093827Y-73700093D01*
X93188629Y-73794895D01*
X93283431Y-73984499D01*
X93378233Y-74363707D01*
X93378233Y-74837718D01*
X93283431Y-75216926D01*
X93188629Y-75406530D01*
X93093827Y-75501332D01*
X92904223Y-75596134D01*
X92714619Y-75596134D01*
X92525015Y-75501332D01*
X92430213Y-75406530D01*
X92335411Y-75216926D01*
X92240608Y-74837718D01*
X92240608Y-74363707D01*
X92335411Y-73984499D01*
X92430213Y-73794895D01*
X92525015Y-73700093D01*
X92714619Y-73605291D01*
X95084670Y-74268905D02*
X95084670Y-75596134D01*
X94610660Y-73510489D02*
X94136649Y-74932520D01*
X95369076Y-74932520D01*
X96506701Y-73605291D02*
X96696305Y-73605291D01*
X96885909Y-73700093D01*
X96980711Y-73794895D01*
X97075513Y-73984499D01*
X97170315Y-74363707D01*
X97170315Y-74837718D01*
X97075513Y-75216926D01*
X96980711Y-75406530D01*
X96885909Y-75501332D01*
X96696305Y-75596134D01*
X96506701Y-75596134D01*
X96317097Y-75501332D01*
X96222294Y-75406530D01*
X96127492Y-75216926D01*
X96032690Y-74837718D01*
X96032690Y-74363707D01*
X96127492Y-73984499D01*
X96222294Y-73794895D01*
X96317097Y-73700093D01*
X96506701Y-73605291D01*
D13*
X66357142Y-55428571D02*
X66357142Y-56642857D01*
X66428571Y-56785714D01*
X66500000Y-56857142D01*
X66642857Y-56928571D01*
X66928571Y-56928571D01*
X67071428Y-56857142D01*
X67142857Y-56785714D01*
X67214285Y-56642857D01*
X67214285Y-55428571D01*
X68571428Y-55928571D02*
X68571428Y-56928571D01*
X68214285Y-55357142D02*
X67857142Y-56428571D01*
X68785714Y-56428571D01*
G04 #@! TO.C,C8*
D12*
X26552380Y-150952380D02*
X26552380Y-151523809D01*
X26552380Y-151238095D02*
X25552380Y-151238095D01*
X25695238Y-151333333D01*
X25790476Y-151428571D01*
X25838095Y-151523809D01*
X25552380Y-150333333D02*
X25552380Y-150238095D01*
X25600000Y-150142857D01*
X25647619Y-150095238D01*
X25742857Y-150047619D01*
X25933333Y-150000000D01*
X26171428Y-150000000D01*
X26361904Y-150047619D01*
X26457142Y-150095238D01*
X26504761Y-150142857D01*
X26552380Y-150238095D01*
X26552380Y-150333333D01*
X26504761Y-150428571D01*
X26457142Y-150476190D01*
X26361904Y-150523809D01*
X26171428Y-150571428D01*
X25933333Y-150571428D01*
X25742857Y-150523809D01*
X25647619Y-150476190D01*
X25600000Y-150428571D01*
X25552380Y-150333333D01*
X25552380Y-149380952D02*
X25552380Y-149285714D01*
X25600000Y-149190476D01*
X25647619Y-149142857D01*
X25742857Y-149095238D01*
X25933333Y-149047619D01*
X26171428Y-149047619D01*
X26361904Y-149095238D01*
X26457142Y-149142857D01*
X26504761Y-149190476D01*
X26552380Y-149285714D01*
X26552380Y-149380952D01*
X26504761Y-149476190D01*
X26457142Y-149523809D01*
X26361904Y-149571428D01*
X26171428Y-149619047D01*
X25933333Y-149619047D01*
X25742857Y-149571428D01*
X25647619Y-149523809D01*
X25600000Y-149476190D01*
X25552380Y-149380952D01*
X25885714Y-148190476D02*
X26552380Y-148190476D01*
X25885714Y-148619047D02*
X26409523Y-148619047D01*
X26504761Y-148571428D01*
X26552380Y-148476190D01*
X26552380Y-148333333D01*
X26504761Y-148238095D01*
X26457142Y-148190476D01*
X26028571Y-147380952D02*
X26028571Y-147714285D01*
X26552380Y-147714285D02*
X25552380Y-147714285D01*
X25552380Y-147238095D01*
X25504761Y-146142857D02*
X26790476Y-147000000D01*
X26552380Y-145285714D02*
X26552380Y-145857142D01*
X26552380Y-145571428D02*
X25552380Y-145571428D01*
X25695238Y-145666666D01*
X25790476Y-145761904D01*
X25838095Y-145857142D01*
X25552380Y-144666666D02*
X25552380Y-144571428D01*
X25600000Y-144476190D01*
X25647619Y-144428571D01*
X25742857Y-144380952D01*
X25933333Y-144333333D01*
X26171428Y-144333333D01*
X26361904Y-144380952D01*
X26457142Y-144428571D01*
X26504761Y-144476190D01*
X26552380Y-144571428D01*
X26552380Y-144666666D01*
X26504761Y-144761904D01*
X26457142Y-144809523D01*
X26361904Y-144857142D01*
X26171428Y-144904761D01*
X25933333Y-144904761D01*
X25742857Y-144857142D01*
X25647619Y-144809523D01*
X25600000Y-144761904D01*
X25552380Y-144666666D01*
X25552380Y-144047619D02*
X26552380Y-143714285D01*
X25552380Y-143380952D01*
D13*
X23535714Y-147750000D02*
X23607142Y-147821428D01*
X23678571Y-148035714D01*
X23678571Y-148178571D01*
X23607142Y-148392857D01*
X23464285Y-148535714D01*
X23321428Y-148607142D01*
X23035714Y-148678571D01*
X22821428Y-148678571D01*
X22535714Y-148607142D01*
X22392857Y-148535714D01*
X22250000Y-148392857D01*
X22178571Y-148178571D01*
X22178571Y-148035714D01*
X22250000Y-147821428D01*
X22321428Y-147750000D01*
X22821428Y-146892857D02*
X22750000Y-147035714D01*
X22678571Y-147107142D01*
X22535714Y-147178571D01*
X22464285Y-147178571D01*
X22321428Y-147107142D01*
X22250000Y-147035714D01*
X22178571Y-146892857D01*
X22178571Y-146607142D01*
X22250000Y-146464285D01*
X22321428Y-146392857D01*
X22464285Y-146321428D01*
X22535714Y-146321428D01*
X22678571Y-146392857D01*
X22750000Y-146464285D01*
X22821428Y-146607142D01*
X22821428Y-146892857D01*
X22892857Y-147035714D01*
X22964285Y-147107142D01*
X23107142Y-147178571D01*
X23392857Y-147178571D01*
X23535714Y-147107142D01*
X23607142Y-147035714D01*
X23678571Y-146892857D01*
X23678571Y-146607142D01*
X23607142Y-146464285D01*
X23535714Y-146392857D01*
X23392857Y-146321428D01*
X23107142Y-146321428D01*
X22964285Y-146392857D01*
X22892857Y-146464285D01*
X22821428Y-146607142D01*
G04 #@! TO.C,U8*
D12*
X77404285Y-126762380D02*
X77404285Y-125762380D01*
X77737619Y-126476666D01*
X78070952Y-125762380D01*
X78070952Y-126762380D01*
X78547142Y-126762380D02*
X78547142Y-125762380D01*
X78880476Y-126476666D01*
X79213809Y-125762380D01*
X79213809Y-126762380D01*
X79594761Y-125762380D02*
X80261428Y-125762380D01*
X79832857Y-126762380D01*
X81070952Y-126095714D02*
X81070952Y-126762380D01*
X80832857Y-125714761D02*
X80594761Y-126429047D01*
X81213809Y-126429047D01*
X82166190Y-126667142D02*
X82118571Y-126714761D01*
X81975714Y-126762380D01*
X81880476Y-126762380D01*
X81737619Y-126714761D01*
X81642380Y-126619523D01*
X81594761Y-126524285D01*
X81547142Y-126333809D01*
X81547142Y-126190952D01*
X81594761Y-126000476D01*
X81642380Y-125905238D01*
X81737619Y-125810000D01*
X81880476Y-125762380D01*
X81975714Y-125762380D01*
X82118571Y-125810000D01*
X82166190Y-125857619D01*
X82642380Y-126762380D02*
X82832857Y-126762380D01*
X82928095Y-126714761D01*
X82975714Y-126667142D01*
X83070952Y-126524285D01*
X83118571Y-126333809D01*
X83118571Y-125952857D01*
X83070952Y-125857619D01*
X83023333Y-125810000D01*
X82928095Y-125762380D01*
X82737619Y-125762380D01*
X82642380Y-125810000D01*
X82594761Y-125857619D01*
X82547142Y-125952857D01*
X82547142Y-126190952D01*
X82594761Y-126286190D01*
X82642380Y-126333809D01*
X82737619Y-126381428D01*
X82928095Y-126381428D01*
X83023333Y-126333809D01*
X83070952Y-126286190D01*
X83118571Y-126190952D01*
X83499523Y-125857619D02*
X83547142Y-125810000D01*
X83642380Y-125762380D01*
X83880476Y-125762380D01*
X83975714Y-125810000D01*
X84023333Y-125857619D01*
X84070952Y-125952857D01*
X84070952Y-126048095D01*
X84023333Y-126190952D01*
X83451904Y-126762380D01*
X84070952Y-126762380D01*
X84404285Y-125762380D02*
X85023333Y-125762380D01*
X84690000Y-126143333D01*
X84832857Y-126143333D01*
X84928095Y-126190952D01*
X84975714Y-126238571D01*
X85023333Y-126333809D01*
X85023333Y-126571904D01*
X84975714Y-126667142D01*
X84928095Y-126714761D01*
X84832857Y-126762380D01*
X84547142Y-126762380D01*
X84451904Y-126714761D01*
X84404285Y-126667142D01*
D13*
X80047142Y-139248571D02*
X80047142Y-140462857D01*
X80118571Y-140605714D01*
X80190000Y-140677142D01*
X80332857Y-140748571D01*
X80618571Y-140748571D01*
X80761428Y-140677142D01*
X80832857Y-140605714D01*
X80904285Y-140462857D01*
X80904285Y-139248571D01*
X81832857Y-139891428D02*
X81690000Y-139820000D01*
X81618571Y-139748571D01*
X81547142Y-139605714D01*
X81547142Y-139534285D01*
X81618571Y-139391428D01*
X81690000Y-139320000D01*
X81832857Y-139248571D01*
X82118571Y-139248571D01*
X82261428Y-139320000D01*
X82332857Y-139391428D01*
X82404285Y-139534285D01*
X82404285Y-139605714D01*
X82332857Y-139748571D01*
X82261428Y-139820000D01*
X82118571Y-139891428D01*
X81832857Y-139891428D01*
X81690000Y-139962857D01*
X81618571Y-140034285D01*
X81547142Y-140177142D01*
X81547142Y-140462857D01*
X81618571Y-140605714D01*
X81690000Y-140677142D01*
X81832857Y-140748571D01*
X82118571Y-140748571D01*
X82261428Y-140677142D01*
X82332857Y-140605714D01*
X82404285Y-140462857D01*
X82404285Y-140177142D01*
X82332857Y-140034285D01*
X82261428Y-139962857D01*
X82118571Y-139891428D01*
G04 #@! TO.C,J5*
D12*
X159250000Y-45802380D02*
X159250000Y-44802380D01*
X159488095Y-44802380D01*
X159630952Y-44850000D01*
X159726190Y-44945238D01*
X159773809Y-45040476D01*
X159821428Y-45230952D01*
X159821428Y-45373809D01*
X159773809Y-45564285D01*
X159726190Y-45659523D01*
X159630952Y-45754761D01*
X159488095Y-45802380D01*
X159250000Y-45802380D01*
X160202380Y-45516666D02*
X160678571Y-45516666D01*
X160107142Y-45802380D02*
X160440476Y-44802380D01*
X160773809Y-45802380D01*
X160964285Y-44802380D02*
X161535714Y-44802380D01*
X161250000Y-45802380D02*
X161250000Y-44802380D01*
X161821428Y-45516666D02*
X162297619Y-45516666D01*
X161726190Y-45802380D02*
X162059523Y-44802380D01*
X162392857Y-45802380D01*
D13*
X159928571Y-58340000D02*
X161000000Y-58340000D01*
X161214285Y-58411428D01*
X161357142Y-58554285D01*
X161428571Y-58768571D01*
X161428571Y-58911428D01*
X159928571Y-56911428D02*
X159928571Y-57625714D01*
X160642857Y-57697142D01*
X160571428Y-57625714D01*
X160500000Y-57482857D01*
X160500000Y-57125714D01*
X160571428Y-56982857D01*
X160642857Y-56911428D01*
X160785714Y-56840000D01*
X161142857Y-56840000D01*
X161285714Y-56911428D01*
X161357142Y-56982857D01*
X161428571Y-57125714D01*
X161428571Y-57482857D01*
X161357142Y-57625714D01*
X161285714Y-57697142D01*
G04 #@! TO.C,J4*
D12*
X149761904Y-25196666D02*
X150238095Y-25196666D01*
X149666666Y-25482380D02*
X150000000Y-24482380D01*
X150333333Y-25482380D01*
X150666666Y-25482380D02*
X150666666Y-24482380D01*
X150904761Y-24482380D01*
X151047619Y-24530000D01*
X151142857Y-24625238D01*
X151190476Y-24720476D01*
X151238095Y-24910952D01*
X151238095Y-25053809D01*
X151190476Y-25244285D01*
X151142857Y-25339523D01*
X151047619Y-25434761D01*
X150904761Y-25482380D01*
X150666666Y-25482380D01*
X151666666Y-25482380D02*
X151666666Y-24482380D01*
X151904761Y-24482380D01*
X152047619Y-24530000D01*
X152142857Y-24625238D01*
X152190476Y-24720476D01*
X152238095Y-24910952D01*
X152238095Y-25053809D01*
X152190476Y-25244285D01*
X152142857Y-25339523D01*
X152047619Y-25434761D01*
X151904761Y-25482380D01*
X151666666Y-25482380D01*
X153238095Y-25482380D02*
X152904761Y-25006190D01*
X152666666Y-25482380D02*
X152666666Y-24482380D01*
X153047619Y-24482380D01*
X153142857Y-24530000D01*
X153190476Y-24577619D01*
X153238095Y-24672857D01*
X153238095Y-24815714D01*
X153190476Y-24910952D01*
X153142857Y-24958571D01*
X153047619Y-25006190D01*
X152666666Y-25006190D01*
D13*
X150678571Y-48180000D02*
X151750000Y-48180000D01*
X151964285Y-48251428D01*
X152107142Y-48394285D01*
X152178571Y-48608571D01*
X152178571Y-48751428D01*
X151178571Y-46822857D02*
X152178571Y-46822857D01*
X150607142Y-47180000D02*
X151678571Y-47537142D01*
X151678571Y-46608571D01*
G04 #@! TO.C,U12*
D12*
X151476190Y-100952380D02*
X151000000Y-100952380D01*
X151000000Y-99952380D01*
X151809523Y-100428571D02*
X152142857Y-100428571D01*
X152285714Y-100952380D02*
X151809523Y-100952380D01*
X151809523Y-99952380D01*
X152285714Y-99952380D01*
X152714285Y-100952380D02*
X152714285Y-99952380D01*
X152952380Y-99952380D01*
X153095238Y-100000000D01*
X153190476Y-100095238D01*
X153238095Y-100190476D01*
X153285714Y-100380952D01*
X153285714Y-100523809D01*
X153238095Y-100714285D01*
X153190476Y-100809523D01*
X153095238Y-100904761D01*
X152952380Y-100952380D01*
X152714285Y-100952380D01*
X153476190Y-101047619D02*
X154238095Y-101047619D01*
X154428571Y-100904761D02*
X154571428Y-100952380D01*
X154809523Y-100952380D01*
X154904761Y-100904761D01*
X154952380Y-100857142D01*
X155000000Y-100761904D01*
X155000000Y-100666666D01*
X154952380Y-100571428D01*
X154904761Y-100523809D01*
X154809523Y-100476190D01*
X154619047Y-100428571D01*
X154523809Y-100380952D01*
X154476190Y-100333333D01*
X154428571Y-100238095D01*
X154428571Y-100142857D01*
X154476190Y-100047619D01*
X154523809Y-100000000D01*
X154619047Y-99952380D01*
X154857142Y-99952380D01*
X155000000Y-100000000D01*
X155428571Y-100428571D02*
X155761904Y-100428571D01*
X155904761Y-100952380D02*
X155428571Y-100952380D01*
X155428571Y-99952380D01*
X155904761Y-99952380D01*
X156857142Y-100000000D02*
X156761904Y-99952380D01*
X156619047Y-99952380D01*
X156476190Y-100000000D01*
X156380952Y-100095238D01*
X156333333Y-100190476D01*
X156285714Y-100380952D01*
X156285714Y-100523809D01*
X156333333Y-100714285D01*
X156380952Y-100809523D01*
X156476190Y-100904761D01*
X156619047Y-100952380D01*
X156714285Y-100952380D01*
X156857142Y-100904761D01*
X156904761Y-100857142D01*
X156904761Y-100523809D01*
X156714285Y-100523809D01*
X157333333Y-100952380D02*
X157333333Y-99952380D01*
X157666666Y-100666666D01*
X158000000Y-99952380D01*
X158000000Y-100952380D01*
X158476190Y-100428571D02*
X158809523Y-100428571D01*
X158952380Y-100952380D02*
X158476190Y-100952380D01*
X158476190Y-99952380D01*
X158952380Y-99952380D01*
X159380952Y-100952380D02*
X159380952Y-99952380D01*
X159952380Y-100952380D01*
X159952380Y-99952380D01*
X160285714Y-99952380D02*
X160857142Y-99952380D01*
X160571428Y-100952380D02*
X160571428Y-99952380D01*
X160952380Y-101047619D02*
X161714285Y-101047619D01*
X162523809Y-100857142D02*
X162476190Y-100904761D01*
X162333333Y-100952380D01*
X162238095Y-100952380D01*
X162095238Y-100904761D01*
X162000000Y-100809523D01*
X161952380Y-100714285D01*
X161904761Y-100523809D01*
X161904761Y-100380952D01*
X161952380Y-100190476D01*
X162000000Y-100095238D01*
X162095238Y-100000000D01*
X162238095Y-99952380D01*
X162333333Y-99952380D01*
X162476190Y-100000000D01*
X162523809Y-100047619D01*
X163523809Y-100857142D02*
X163476190Y-100904761D01*
X163333333Y-100952380D01*
X163238095Y-100952380D01*
X163095238Y-100904761D01*
X163000000Y-100809523D01*
X162952380Y-100714285D01*
X162904761Y-100523809D01*
X162904761Y-100380952D01*
X162952380Y-100190476D01*
X163000000Y-100095238D01*
X163095238Y-100000000D01*
X163238095Y-99952380D01*
X163333333Y-99952380D01*
X163476190Y-100000000D01*
X163523809Y-100047619D01*
X163714285Y-101047619D02*
X164476190Y-101047619D01*
X164619047Y-100952380D02*
X165142857Y-100285714D01*
X164619047Y-100285714D02*
X165142857Y-100952380D01*
X165476190Y-100047619D02*
X165523809Y-100000000D01*
X165619047Y-99952380D01*
X165857142Y-99952380D01*
X165952380Y-100000000D01*
X166000000Y-100047619D01*
X166047619Y-100142857D01*
X166047619Y-100238095D01*
X166000000Y-100380952D01*
X165428571Y-100952380D01*
X166047619Y-100952380D01*
G04 #@! TO.C,U13*
X106476190Y-100952380D02*
X106000000Y-100952380D01*
X106000000Y-99952380D01*
X106809523Y-100428571D02*
X107142857Y-100428571D01*
X107285714Y-100952380D02*
X106809523Y-100952380D01*
X106809523Y-99952380D01*
X107285714Y-99952380D01*
X107714285Y-100952380D02*
X107714285Y-99952380D01*
X107952380Y-99952380D01*
X108095238Y-100000000D01*
X108190476Y-100095238D01*
X108238095Y-100190476D01*
X108285714Y-100380952D01*
X108285714Y-100523809D01*
X108238095Y-100714285D01*
X108190476Y-100809523D01*
X108095238Y-100904761D01*
X107952380Y-100952380D01*
X107714285Y-100952380D01*
X108476190Y-101047619D02*
X109238095Y-101047619D01*
X109428571Y-100904761D02*
X109571428Y-100952380D01*
X109809523Y-100952380D01*
X109904761Y-100904761D01*
X109952380Y-100857142D01*
X110000000Y-100761904D01*
X110000000Y-100666666D01*
X109952380Y-100571428D01*
X109904761Y-100523809D01*
X109809523Y-100476190D01*
X109619047Y-100428571D01*
X109523809Y-100380952D01*
X109476190Y-100333333D01*
X109428571Y-100238095D01*
X109428571Y-100142857D01*
X109476190Y-100047619D01*
X109523809Y-100000000D01*
X109619047Y-99952380D01*
X109857142Y-99952380D01*
X110000000Y-100000000D01*
X110428571Y-100428571D02*
X110761904Y-100428571D01*
X110904761Y-100952380D02*
X110428571Y-100952380D01*
X110428571Y-99952380D01*
X110904761Y-99952380D01*
X111857142Y-100000000D02*
X111761904Y-99952380D01*
X111619047Y-99952380D01*
X111476190Y-100000000D01*
X111380952Y-100095238D01*
X111333333Y-100190476D01*
X111285714Y-100380952D01*
X111285714Y-100523809D01*
X111333333Y-100714285D01*
X111380952Y-100809523D01*
X111476190Y-100904761D01*
X111619047Y-100952380D01*
X111714285Y-100952380D01*
X111857142Y-100904761D01*
X111904761Y-100857142D01*
X111904761Y-100523809D01*
X111714285Y-100523809D01*
X112333333Y-100952380D02*
X112333333Y-99952380D01*
X112666666Y-100666666D01*
X113000000Y-99952380D01*
X113000000Y-100952380D01*
X113476190Y-100428571D02*
X113809523Y-100428571D01*
X113952380Y-100952380D02*
X113476190Y-100952380D01*
X113476190Y-99952380D01*
X113952380Y-99952380D01*
X114380952Y-100952380D02*
X114380952Y-99952380D01*
X114952380Y-100952380D01*
X114952380Y-99952380D01*
X115285714Y-99952380D02*
X115857142Y-99952380D01*
X115571428Y-100952380D02*
X115571428Y-99952380D01*
X115952380Y-101047619D02*
X116714285Y-101047619D01*
X117523809Y-100857142D02*
X117476190Y-100904761D01*
X117333333Y-100952380D01*
X117238095Y-100952380D01*
X117095238Y-100904761D01*
X117000000Y-100809523D01*
X116952380Y-100714285D01*
X116904761Y-100523809D01*
X116904761Y-100380952D01*
X116952380Y-100190476D01*
X117000000Y-100095238D01*
X117095238Y-100000000D01*
X117238095Y-99952380D01*
X117333333Y-99952380D01*
X117476190Y-100000000D01*
X117523809Y-100047619D01*
X118523809Y-100857142D02*
X118476190Y-100904761D01*
X118333333Y-100952380D01*
X118238095Y-100952380D01*
X118095238Y-100904761D01*
X118000000Y-100809523D01*
X117952380Y-100714285D01*
X117904761Y-100523809D01*
X117904761Y-100380952D01*
X117952380Y-100190476D01*
X118000000Y-100095238D01*
X118095238Y-100000000D01*
X118238095Y-99952380D01*
X118333333Y-99952380D01*
X118476190Y-100000000D01*
X118523809Y-100047619D01*
X118714285Y-101047619D02*
X119476190Y-101047619D01*
X119619047Y-100952380D02*
X120142857Y-100285714D01*
X119619047Y-100285714D02*
X120142857Y-100952380D01*
X120952380Y-100285714D02*
X120952380Y-100952380D01*
X120714285Y-99904761D02*
X120476190Y-100619047D01*
X121095238Y-100619047D01*
G04 #@! TO.C,U7*
X35428571Y-159678571D02*
X35095238Y-159678571D01*
X35095238Y-160202380D02*
X35095238Y-159202380D01*
X35571428Y-159202380D01*
X35809523Y-159202380D02*
X36380952Y-159202380D01*
X36095238Y-160202380D02*
X36095238Y-159202380D01*
X36666666Y-159297619D02*
X36714285Y-159250000D01*
X36809523Y-159202380D01*
X37047619Y-159202380D01*
X37142857Y-159250000D01*
X37190476Y-159297619D01*
X37238095Y-159392857D01*
X37238095Y-159488095D01*
X37190476Y-159630952D01*
X36619047Y-160202380D01*
X37238095Y-160202380D01*
X37571428Y-159202380D02*
X38190476Y-159202380D01*
X37857142Y-159583333D01*
X38000000Y-159583333D01*
X38095238Y-159630952D01*
X38142857Y-159678571D01*
X38190476Y-159773809D01*
X38190476Y-160011904D01*
X38142857Y-160107142D01*
X38095238Y-160154761D01*
X38000000Y-160202380D01*
X37714285Y-160202380D01*
X37619047Y-160154761D01*
X37571428Y-160107142D01*
X38571428Y-159297619D02*
X38619047Y-159250000D01*
X38714285Y-159202380D01*
X38952380Y-159202380D01*
X39047619Y-159250000D01*
X39095238Y-159297619D01*
X39142857Y-159392857D01*
X39142857Y-159488095D01*
X39095238Y-159630952D01*
X38523809Y-160202380D01*
X39142857Y-160202380D01*
X40142857Y-160202380D02*
X39809523Y-159726190D01*
X39571428Y-160202380D02*
X39571428Y-159202380D01*
X39952380Y-159202380D01*
X40047619Y-159250000D01*
X40095238Y-159297619D01*
X40142857Y-159392857D01*
X40142857Y-159535714D01*
X40095238Y-159630952D01*
X40047619Y-159678571D01*
X39952380Y-159726190D01*
X39571428Y-159726190D01*
X41047619Y-160202380D02*
X40571428Y-160202380D01*
X40571428Y-159202380D01*
D13*
X36857142Y-165178571D02*
X36857142Y-166392857D01*
X36928571Y-166535714D01*
X37000000Y-166607142D01*
X37142857Y-166678571D01*
X37428571Y-166678571D01*
X37571428Y-166607142D01*
X37642857Y-166535714D01*
X37714285Y-166392857D01*
X37714285Y-165178571D01*
X38285714Y-165178571D02*
X39285714Y-165178571D01*
X38642857Y-166678571D01*
G04 #@! TO.C,U6*
D12*
X132158095Y-71424761D02*
X132300952Y-71472380D01*
X132539047Y-71472380D01*
X132634285Y-71424761D01*
X132681904Y-71377142D01*
X132729523Y-71281904D01*
X132729523Y-71186666D01*
X132681904Y-71091428D01*
X132634285Y-71043809D01*
X132539047Y-70996190D01*
X132348571Y-70948571D01*
X132253333Y-70900952D01*
X132205714Y-70853333D01*
X132158095Y-70758095D01*
X132158095Y-70662857D01*
X132205714Y-70567619D01*
X132253333Y-70520000D01*
X132348571Y-70472380D01*
X132586666Y-70472380D01*
X132729523Y-70520000D01*
X133729523Y-71472380D02*
X133396190Y-70996190D01*
X133158095Y-71472380D02*
X133158095Y-70472380D01*
X133539047Y-70472380D01*
X133634285Y-70520000D01*
X133681904Y-70567619D01*
X133729523Y-70662857D01*
X133729523Y-70805714D01*
X133681904Y-70900952D01*
X133634285Y-70948571D01*
X133539047Y-70996190D01*
X133158095Y-70996190D01*
X134158095Y-71472380D02*
X134158095Y-70472380D01*
X134491428Y-71186666D01*
X134824761Y-70472380D01*
X134824761Y-71472380D01*
X135253333Y-70567619D02*
X135300952Y-70520000D01*
X135396190Y-70472380D01*
X135634285Y-70472380D01*
X135729523Y-70520000D01*
X135777142Y-70567619D01*
X135824761Y-70662857D01*
X135824761Y-70758095D01*
X135777142Y-70900952D01*
X135205714Y-71472380D01*
X135824761Y-71472380D01*
X136205714Y-70567619D02*
X136253333Y-70520000D01*
X136348571Y-70472380D01*
X136586666Y-70472380D01*
X136681904Y-70520000D01*
X136729523Y-70567619D01*
X136777142Y-70662857D01*
X136777142Y-70758095D01*
X136729523Y-70900952D01*
X136158095Y-71472380D01*
X136777142Y-71472380D01*
X137634285Y-70472380D02*
X137443809Y-70472380D01*
X137348571Y-70520000D01*
X137300952Y-70567619D01*
X137205714Y-70710476D01*
X137158095Y-70900952D01*
X137158095Y-71281904D01*
X137205714Y-71377142D01*
X137253333Y-71424761D01*
X137348571Y-71472380D01*
X137539047Y-71472380D01*
X137634285Y-71424761D01*
X137681904Y-71377142D01*
X137729523Y-71281904D01*
X137729523Y-71043809D01*
X137681904Y-70948571D01*
X137634285Y-70900952D01*
X137539047Y-70853333D01*
X137348571Y-70853333D01*
X137253333Y-70900952D01*
X137205714Y-70948571D01*
X137158095Y-71043809D01*
X138586666Y-70805714D02*
X138586666Y-71472380D01*
X138348571Y-70424761D02*
X138110476Y-71139047D01*
X138729523Y-71139047D01*
D13*
X134277142Y-51358571D02*
X134277142Y-52572857D01*
X134348571Y-52715714D01*
X134420000Y-52787142D01*
X134562857Y-52858571D01*
X134848571Y-52858571D01*
X134991428Y-52787142D01*
X135062857Y-52715714D01*
X135134285Y-52572857D01*
X135134285Y-51358571D01*
X136491428Y-51358571D02*
X136205714Y-51358571D01*
X136062857Y-51430000D01*
X135991428Y-51501428D01*
X135848571Y-51715714D01*
X135777142Y-52001428D01*
X135777142Y-52572857D01*
X135848571Y-52715714D01*
X135920000Y-52787142D01*
X136062857Y-52858571D01*
X136348571Y-52858571D01*
X136491428Y-52787142D01*
X136562857Y-52715714D01*
X136634285Y-52572857D01*
X136634285Y-52215714D01*
X136562857Y-52072857D01*
X136491428Y-52001428D01*
X136348571Y-51930000D01*
X136062857Y-51930000D01*
X135920000Y-52001428D01*
X135848571Y-52072857D01*
X135777142Y-52215714D01*
G04 #@! TO.C,U5*
D12*
X112908095Y-71424761D02*
X113050952Y-71472380D01*
X113289047Y-71472380D01*
X113384285Y-71424761D01*
X113431904Y-71377142D01*
X113479523Y-71281904D01*
X113479523Y-71186666D01*
X113431904Y-71091428D01*
X113384285Y-71043809D01*
X113289047Y-70996190D01*
X113098571Y-70948571D01*
X113003333Y-70900952D01*
X112955714Y-70853333D01*
X112908095Y-70758095D01*
X112908095Y-70662857D01*
X112955714Y-70567619D01*
X113003333Y-70520000D01*
X113098571Y-70472380D01*
X113336666Y-70472380D01*
X113479523Y-70520000D01*
X114479523Y-71472380D02*
X114146190Y-70996190D01*
X113908095Y-71472380D02*
X113908095Y-70472380D01*
X114289047Y-70472380D01*
X114384285Y-70520000D01*
X114431904Y-70567619D01*
X114479523Y-70662857D01*
X114479523Y-70805714D01*
X114431904Y-70900952D01*
X114384285Y-70948571D01*
X114289047Y-70996190D01*
X113908095Y-70996190D01*
X114908095Y-71472380D02*
X114908095Y-70472380D01*
X115241428Y-71186666D01*
X115574761Y-70472380D01*
X115574761Y-71472380D01*
X116003333Y-70567619D02*
X116050952Y-70520000D01*
X116146190Y-70472380D01*
X116384285Y-70472380D01*
X116479523Y-70520000D01*
X116527142Y-70567619D01*
X116574761Y-70662857D01*
X116574761Y-70758095D01*
X116527142Y-70900952D01*
X115955714Y-71472380D01*
X116574761Y-71472380D01*
X116955714Y-70567619D02*
X117003333Y-70520000D01*
X117098571Y-70472380D01*
X117336666Y-70472380D01*
X117431904Y-70520000D01*
X117479523Y-70567619D01*
X117527142Y-70662857D01*
X117527142Y-70758095D01*
X117479523Y-70900952D01*
X116908095Y-71472380D01*
X117527142Y-71472380D01*
X118384285Y-70472380D02*
X118193809Y-70472380D01*
X118098571Y-70520000D01*
X118050952Y-70567619D01*
X117955714Y-70710476D01*
X117908095Y-70900952D01*
X117908095Y-71281904D01*
X117955714Y-71377142D01*
X118003333Y-71424761D01*
X118098571Y-71472380D01*
X118289047Y-71472380D01*
X118384285Y-71424761D01*
X118431904Y-71377142D01*
X118479523Y-71281904D01*
X118479523Y-71043809D01*
X118431904Y-70948571D01*
X118384285Y-70900952D01*
X118289047Y-70853333D01*
X118098571Y-70853333D01*
X118003333Y-70900952D01*
X117955714Y-70948571D01*
X117908095Y-71043809D01*
X119336666Y-70805714D02*
X119336666Y-71472380D01*
X119098571Y-70424761D02*
X118860476Y-71139047D01*
X119479523Y-71139047D01*
D13*
X115027142Y-51358571D02*
X115027142Y-52572857D01*
X115098571Y-52715714D01*
X115170000Y-52787142D01*
X115312857Y-52858571D01*
X115598571Y-52858571D01*
X115741428Y-52787142D01*
X115812857Y-52715714D01*
X115884285Y-52572857D01*
X115884285Y-51358571D01*
X117312857Y-51358571D02*
X116598571Y-51358571D01*
X116527142Y-52072857D01*
X116598571Y-52001428D01*
X116741428Y-51930000D01*
X117098571Y-51930000D01*
X117241428Y-52001428D01*
X117312857Y-52072857D01*
X117384285Y-52215714D01*
X117384285Y-52572857D01*
X117312857Y-52715714D01*
X117241428Y-52787142D01*
X117098571Y-52858571D01*
X116741428Y-52858571D01*
X116598571Y-52787142D01*
X116527142Y-52715714D01*
G04 #@! TO.C,U3*
D12*
X93810476Y-83042380D02*
X94477142Y-83042380D01*
X93810476Y-84042380D01*
X94477142Y-84042380D01*
X95000952Y-83470952D02*
X94905714Y-83423333D01*
X94858095Y-83375714D01*
X94810476Y-83280476D01*
X94810476Y-83232857D01*
X94858095Y-83137619D01*
X94905714Y-83090000D01*
X95000952Y-83042380D01*
X95191428Y-83042380D01*
X95286666Y-83090000D01*
X95334285Y-83137619D01*
X95381904Y-83232857D01*
X95381904Y-83280476D01*
X95334285Y-83375714D01*
X95286666Y-83423333D01*
X95191428Y-83470952D01*
X95000952Y-83470952D01*
X94905714Y-83518571D01*
X94858095Y-83566190D01*
X94810476Y-83661428D01*
X94810476Y-83851904D01*
X94858095Y-83947142D01*
X94905714Y-83994761D01*
X95000952Y-84042380D01*
X95191428Y-84042380D01*
X95286666Y-83994761D01*
X95334285Y-83947142D01*
X95381904Y-83851904D01*
X95381904Y-83661428D01*
X95334285Y-83566190D01*
X95286666Y-83518571D01*
X95191428Y-83470952D01*
X96000952Y-83042380D02*
X96096190Y-83042380D01*
X96191428Y-83090000D01*
X96239047Y-83137619D01*
X96286666Y-83232857D01*
X96334285Y-83423333D01*
X96334285Y-83661428D01*
X96286666Y-83851904D01*
X96239047Y-83947142D01*
X96191428Y-83994761D01*
X96096190Y-84042380D01*
X96000952Y-84042380D01*
X95905714Y-83994761D01*
X95858095Y-83947142D01*
X95810476Y-83851904D01*
X95762857Y-83661428D01*
X95762857Y-83423333D01*
X95810476Y-83232857D01*
X95858095Y-83137619D01*
X95905714Y-83090000D01*
X96000952Y-83042380D01*
X97334285Y-83947142D02*
X97286666Y-83994761D01*
X97143809Y-84042380D01*
X97048571Y-84042380D01*
X96905714Y-83994761D01*
X96810476Y-83899523D01*
X96762857Y-83804285D01*
X96715238Y-83613809D01*
X96715238Y-83470952D01*
X96762857Y-83280476D01*
X96810476Y-83185238D01*
X96905714Y-83090000D01*
X97048571Y-83042380D01*
X97143809Y-83042380D01*
X97286666Y-83090000D01*
X97334285Y-83137619D01*
X97762857Y-84042380D02*
X97762857Y-83042380D01*
X98143809Y-83042380D01*
X98239047Y-83090000D01*
X98286666Y-83137619D01*
X98334285Y-83232857D01*
X98334285Y-83375714D01*
X98286666Y-83470952D01*
X98239047Y-83518571D01*
X98143809Y-83566190D01*
X97762857Y-83566190D01*
X98762857Y-83042380D02*
X98762857Y-83851904D01*
X98810476Y-83947142D01*
X98858095Y-83994761D01*
X98953333Y-84042380D01*
X99143809Y-84042380D01*
X99239047Y-83994761D01*
X99286666Y-83947142D01*
X99334285Y-83851904D01*
X99334285Y-83042380D01*
D13*
X95477142Y-56308571D02*
X95477142Y-57522857D01*
X95548571Y-57665714D01*
X95620000Y-57737142D01*
X95762857Y-57808571D01*
X96048571Y-57808571D01*
X96191428Y-57737142D01*
X96262857Y-57665714D01*
X96334285Y-57522857D01*
X96334285Y-56308571D01*
X96905714Y-56308571D02*
X97834285Y-56308571D01*
X97334285Y-56880000D01*
X97548571Y-56880000D01*
X97691428Y-56951428D01*
X97762857Y-57022857D01*
X97834285Y-57165714D01*
X97834285Y-57522857D01*
X97762857Y-57665714D01*
X97691428Y-57737142D01*
X97548571Y-57808571D01*
X97120000Y-57808571D01*
X96977142Y-57737142D01*
X96905714Y-57665714D01*
G04 #@! TO.C,SW22*
D12*
X159761904Y-165404761D02*
X159904761Y-165452380D01*
X160142857Y-165452380D01*
X160238095Y-165404761D01*
X160285714Y-165357142D01*
X160333333Y-165261904D01*
X160333333Y-165166666D01*
X160285714Y-165071428D01*
X160238095Y-165023809D01*
X160142857Y-164976190D01*
X159952380Y-164928571D01*
X159857142Y-164880952D01*
X159809523Y-164833333D01*
X159761904Y-164738095D01*
X159761904Y-164642857D01*
X159809523Y-164547619D01*
X159857142Y-164500000D01*
X159952380Y-164452380D01*
X160190476Y-164452380D01*
X160333333Y-164500000D01*
X160666666Y-164452380D02*
X160904761Y-165452380D01*
X161095238Y-164738095D01*
X161285714Y-165452380D01*
X161523809Y-164452380D01*
X161666666Y-165547619D02*
X162428571Y-165547619D01*
X163238095Y-165357142D02*
X163190476Y-165404761D01*
X163047619Y-165452380D01*
X162952380Y-165452380D01*
X162809523Y-165404761D01*
X162714285Y-165309523D01*
X162666666Y-165214285D01*
X162619047Y-165023809D01*
X162619047Y-164880952D01*
X162666666Y-164690476D01*
X162714285Y-164595238D01*
X162809523Y-164500000D01*
X162952380Y-164452380D01*
X163047619Y-164452380D01*
X163190476Y-164500000D01*
X163238095Y-164547619D01*
G04 #@! TO.C,SW21*
X156904761Y-155738095D02*
X156952380Y-155595238D01*
X156952380Y-155357142D01*
X156904761Y-155261904D01*
X156857142Y-155214285D01*
X156761904Y-155166666D01*
X156666666Y-155166666D01*
X156571428Y-155214285D01*
X156523809Y-155261904D01*
X156476190Y-155357142D01*
X156428571Y-155547619D01*
X156380952Y-155642857D01*
X156333333Y-155690476D01*
X156238095Y-155738095D01*
X156142857Y-155738095D01*
X156047619Y-155690476D01*
X156000000Y-155642857D01*
X155952380Y-155547619D01*
X155952380Y-155309523D01*
X156000000Y-155166666D01*
X155952380Y-154833333D02*
X156952380Y-154595238D01*
X156238095Y-154404761D01*
X156952380Y-154214285D01*
X155952380Y-153976190D01*
X157047619Y-153833333D02*
X157047619Y-153071428D01*
X156952380Y-152833333D02*
X155952380Y-152833333D01*
X155952380Y-152595238D01*
X156000000Y-152452380D01*
X156095238Y-152357142D01*
X156190476Y-152309523D01*
X156380952Y-152261904D01*
X156523809Y-152261904D01*
X156714285Y-152309523D01*
X156809523Y-152357142D01*
X156904761Y-152452380D01*
X156952380Y-152595238D01*
X156952380Y-152833333D01*
G04 #@! TO.C,SW20*
X160309523Y-133404761D02*
X160452380Y-133452380D01*
X160690476Y-133452380D01*
X160785714Y-133404761D01*
X160833333Y-133357142D01*
X160880952Y-133261904D01*
X160880952Y-133166666D01*
X160833333Y-133071428D01*
X160785714Y-133023809D01*
X160690476Y-132976190D01*
X160500000Y-132928571D01*
X160404761Y-132880952D01*
X160357142Y-132833333D01*
X160309523Y-132738095D01*
X160309523Y-132642857D01*
X160357142Y-132547619D01*
X160404761Y-132500000D01*
X160500000Y-132452380D01*
X160738095Y-132452380D01*
X160880952Y-132500000D01*
X161214285Y-132452380D02*
X161452380Y-133452380D01*
X161642857Y-132738095D01*
X161833333Y-133452380D01*
X162071428Y-132452380D01*
X162214285Y-133547619D02*
X162976190Y-133547619D01*
X163214285Y-132928571D02*
X163547619Y-132928571D01*
X163690476Y-133452380D02*
X163214285Y-133452380D01*
X163214285Y-132452380D01*
X163690476Y-132452380D01*
G04 #@! TO.C,SW19*
X157404761Y-123666666D02*
X157452380Y-123523809D01*
X157452380Y-123285714D01*
X157404761Y-123190476D01*
X157357142Y-123142857D01*
X157261904Y-123095238D01*
X157166666Y-123095238D01*
X157071428Y-123142857D01*
X157023809Y-123190476D01*
X156976190Y-123285714D01*
X156928571Y-123476190D01*
X156880952Y-123571428D01*
X156833333Y-123619047D01*
X156738095Y-123666666D01*
X156642857Y-123666666D01*
X156547619Y-123619047D01*
X156500000Y-123571428D01*
X156452380Y-123476190D01*
X156452380Y-123238095D01*
X156500000Y-123095238D01*
X156452380Y-122761904D02*
X157452380Y-122523809D01*
X156738095Y-122333333D01*
X157452380Y-122142857D01*
X156452380Y-121904761D01*
X157547619Y-121761904D02*
X157547619Y-121000000D01*
X156928571Y-120428571D02*
X156928571Y-120761904D01*
X157452380Y-120761904D02*
X156452380Y-120761904D01*
X156452380Y-120285714D01*
G04 #@! TO.C,SW18*
X140904761Y-171714285D02*
X140952380Y-171571428D01*
X140952380Y-171333333D01*
X140904761Y-171238095D01*
X140857142Y-171190476D01*
X140761904Y-171142857D01*
X140666666Y-171142857D01*
X140571428Y-171190476D01*
X140523809Y-171238095D01*
X140476190Y-171333333D01*
X140428571Y-171523809D01*
X140380952Y-171619047D01*
X140333333Y-171666666D01*
X140238095Y-171714285D01*
X140142857Y-171714285D01*
X140047619Y-171666666D01*
X140000000Y-171619047D01*
X139952380Y-171523809D01*
X139952380Y-171285714D01*
X140000000Y-171142857D01*
X139952380Y-170809523D02*
X140952380Y-170571428D01*
X140238095Y-170380952D01*
X140952380Y-170190476D01*
X139952380Y-169952380D01*
X141047619Y-169809523D02*
X141047619Y-169047619D01*
X140380952Y-168666666D02*
X140333333Y-168761904D01*
X140285714Y-168809523D01*
X140190476Y-168857142D01*
X140142857Y-168857142D01*
X140047619Y-168809523D01*
X140000000Y-168761904D01*
X139952380Y-168666666D01*
X139952380Y-168476190D01*
X140000000Y-168380952D01*
X140047619Y-168333333D01*
X140142857Y-168285714D01*
X140190476Y-168285714D01*
X140285714Y-168333333D01*
X140333333Y-168380952D01*
X140380952Y-168476190D01*
X140380952Y-168666666D01*
X140428571Y-168761904D01*
X140476190Y-168809523D01*
X140571428Y-168857142D01*
X140761904Y-168857142D01*
X140857142Y-168809523D01*
X140904761Y-168761904D01*
X140952380Y-168666666D01*
X140952380Y-168476190D01*
X140904761Y-168380952D01*
X140857142Y-168333333D01*
X140761904Y-168285714D01*
X140571428Y-168285714D01*
X140476190Y-168333333D01*
X140428571Y-168380952D01*
X140380952Y-168476190D01*
G04 #@! TO.C,SW17*
X143785714Y-159404761D02*
X143928571Y-159452380D01*
X144166666Y-159452380D01*
X144261904Y-159404761D01*
X144309523Y-159357142D01*
X144357142Y-159261904D01*
X144357142Y-159166666D01*
X144309523Y-159071428D01*
X144261904Y-159023809D01*
X144166666Y-158976190D01*
X143976190Y-158928571D01*
X143880952Y-158880952D01*
X143833333Y-158833333D01*
X143785714Y-158738095D01*
X143785714Y-158642857D01*
X143833333Y-158547619D01*
X143880952Y-158500000D01*
X143976190Y-158452380D01*
X144214285Y-158452380D01*
X144357142Y-158500000D01*
X144690476Y-158452380D02*
X144928571Y-159452380D01*
X145119047Y-158738095D01*
X145309523Y-159452380D01*
X145547619Y-158452380D01*
X145690476Y-159547619D02*
X146452380Y-159547619D01*
X146738095Y-159452380D02*
X146928571Y-159452380D01*
X147023809Y-159404761D01*
X147071428Y-159357142D01*
X147166666Y-159214285D01*
X147214285Y-159023809D01*
X147214285Y-158642857D01*
X147166666Y-158547619D01*
X147119047Y-158500000D01*
X147023809Y-158452380D01*
X146833333Y-158452380D01*
X146738095Y-158500000D01*
X146690476Y-158547619D01*
X146642857Y-158642857D01*
X146642857Y-158880952D01*
X146690476Y-158976190D01*
X146738095Y-159023809D01*
X146833333Y-159071428D01*
X147023809Y-159071428D01*
X147119047Y-159023809D01*
X147166666Y-158976190D01*
X147214285Y-158880952D01*
G04 #@! TO.C,SW16*
X141404761Y-139666666D02*
X141452380Y-139523809D01*
X141452380Y-139285714D01*
X141404761Y-139190476D01*
X141357142Y-139142857D01*
X141261904Y-139095238D01*
X141166666Y-139095238D01*
X141071428Y-139142857D01*
X141023809Y-139190476D01*
X140976190Y-139285714D01*
X140928571Y-139476190D01*
X140880952Y-139571428D01*
X140833333Y-139619047D01*
X140738095Y-139666666D01*
X140642857Y-139666666D01*
X140547619Y-139619047D01*
X140500000Y-139571428D01*
X140452380Y-139476190D01*
X140452380Y-139238095D01*
X140500000Y-139095238D01*
X140452380Y-138761904D02*
X141452380Y-138523809D01*
X140738095Y-138333333D01*
X141452380Y-138142857D01*
X140452380Y-137904761D01*
X141547619Y-137761904D02*
X141547619Y-137000000D01*
X141166666Y-136809523D02*
X141166666Y-136333333D01*
X141452380Y-136904761D02*
X140452380Y-136571428D01*
X141452380Y-136238095D01*
G04 #@! TO.C,SW15*
X144261904Y-127404761D02*
X144404761Y-127452380D01*
X144642857Y-127452380D01*
X144738095Y-127404761D01*
X144785714Y-127357142D01*
X144833333Y-127261904D01*
X144833333Y-127166666D01*
X144785714Y-127071428D01*
X144738095Y-127023809D01*
X144642857Y-126976190D01*
X144452380Y-126928571D01*
X144357142Y-126880952D01*
X144309523Y-126833333D01*
X144261904Y-126738095D01*
X144261904Y-126642857D01*
X144309523Y-126547619D01*
X144357142Y-126500000D01*
X144452380Y-126452380D01*
X144690476Y-126452380D01*
X144833333Y-126500000D01*
X145166666Y-126452380D02*
X145404761Y-127452380D01*
X145595238Y-126738095D01*
X145785714Y-127452380D01*
X146023809Y-126452380D01*
X146166666Y-127547619D02*
X146928571Y-127547619D01*
X147500000Y-126928571D02*
X147642857Y-126976190D01*
X147690476Y-127023809D01*
X147738095Y-127119047D01*
X147738095Y-127261904D01*
X147690476Y-127357142D01*
X147642857Y-127404761D01*
X147547619Y-127452380D01*
X147166666Y-127452380D01*
X147166666Y-126452380D01*
X147500000Y-126452380D01*
X147595238Y-126500000D01*
X147642857Y-126547619D01*
X147690476Y-126642857D01*
X147690476Y-126738095D01*
X147642857Y-126833333D01*
X147595238Y-126880952D01*
X147500000Y-126928571D01*
X147166666Y-126928571D01*
G04 #@! TO.C,SW14*
X127785714Y-175404761D02*
X127928571Y-175452380D01*
X128166666Y-175452380D01*
X128261904Y-175404761D01*
X128309523Y-175357142D01*
X128357142Y-175261904D01*
X128357142Y-175166666D01*
X128309523Y-175071428D01*
X128261904Y-175023809D01*
X128166666Y-174976190D01*
X127976190Y-174928571D01*
X127880952Y-174880952D01*
X127833333Y-174833333D01*
X127785714Y-174738095D01*
X127785714Y-174642857D01*
X127833333Y-174547619D01*
X127880952Y-174500000D01*
X127976190Y-174452380D01*
X128214285Y-174452380D01*
X128357142Y-174500000D01*
X128690476Y-174452380D02*
X128928571Y-175452380D01*
X129119047Y-174738095D01*
X129309523Y-175452380D01*
X129547619Y-174452380D01*
X129690476Y-175547619D02*
X130452380Y-175547619D01*
X131119047Y-174785714D02*
X131119047Y-175452380D01*
X130880952Y-174404761D02*
X130642857Y-175119047D01*
X131261904Y-175119047D01*
G04 #@! TO.C,SW13*
X124904761Y-155714285D02*
X124952380Y-155571428D01*
X124952380Y-155333333D01*
X124904761Y-155238095D01*
X124857142Y-155190476D01*
X124761904Y-155142857D01*
X124666666Y-155142857D01*
X124571428Y-155190476D01*
X124523809Y-155238095D01*
X124476190Y-155333333D01*
X124428571Y-155523809D01*
X124380952Y-155619047D01*
X124333333Y-155666666D01*
X124238095Y-155714285D01*
X124142857Y-155714285D01*
X124047619Y-155666666D01*
X124000000Y-155619047D01*
X123952380Y-155523809D01*
X123952380Y-155285714D01*
X124000000Y-155142857D01*
X123952380Y-154809523D02*
X124952380Y-154571428D01*
X124238095Y-154380952D01*
X124952380Y-154190476D01*
X123952380Y-153952380D01*
X125047619Y-153809523D02*
X125047619Y-153047619D01*
X123952380Y-152333333D02*
X123952380Y-152809523D01*
X124428571Y-152857142D01*
X124380952Y-152809523D01*
X124333333Y-152714285D01*
X124333333Y-152476190D01*
X124380952Y-152380952D01*
X124428571Y-152333333D01*
X124523809Y-152285714D01*
X124761904Y-152285714D01*
X124857142Y-152333333D01*
X124904761Y-152380952D01*
X124952380Y-152476190D01*
X124952380Y-152714285D01*
X124904761Y-152809523D01*
X124857142Y-152857142D01*
G04 #@! TO.C,SW12*
X127785714Y-143404761D02*
X127928571Y-143452380D01*
X128166666Y-143452380D01*
X128261904Y-143404761D01*
X128309523Y-143357142D01*
X128357142Y-143261904D01*
X128357142Y-143166666D01*
X128309523Y-143071428D01*
X128261904Y-143023809D01*
X128166666Y-142976190D01*
X127976190Y-142928571D01*
X127880952Y-142880952D01*
X127833333Y-142833333D01*
X127785714Y-142738095D01*
X127785714Y-142642857D01*
X127833333Y-142547619D01*
X127880952Y-142500000D01*
X127976190Y-142452380D01*
X128214285Y-142452380D01*
X128357142Y-142500000D01*
X128690476Y-142452380D02*
X128928571Y-143452380D01*
X129119047Y-142738095D01*
X129309523Y-143452380D01*
X129547619Y-142452380D01*
X129690476Y-143547619D02*
X130452380Y-143547619D01*
X131119047Y-142452380D02*
X130928571Y-142452380D01*
X130833333Y-142500000D01*
X130785714Y-142547619D01*
X130690476Y-142690476D01*
X130642857Y-142880952D01*
X130642857Y-143261904D01*
X130690476Y-143357142D01*
X130738095Y-143404761D01*
X130833333Y-143452380D01*
X131023809Y-143452380D01*
X131119047Y-143404761D01*
X131166666Y-143357142D01*
X131214285Y-143261904D01*
X131214285Y-143023809D01*
X131166666Y-142928571D01*
X131119047Y-142880952D01*
X131023809Y-142833333D01*
X130833333Y-142833333D01*
X130738095Y-142880952D01*
X130690476Y-142928571D01*
X130642857Y-143023809D01*
G04 #@! TO.C,SW11*
X124904761Y-123714285D02*
X124952380Y-123571428D01*
X124952380Y-123333333D01*
X124904761Y-123238095D01*
X124857142Y-123190476D01*
X124761904Y-123142857D01*
X124666666Y-123142857D01*
X124571428Y-123190476D01*
X124523809Y-123238095D01*
X124476190Y-123333333D01*
X124428571Y-123523809D01*
X124380952Y-123619047D01*
X124333333Y-123666666D01*
X124238095Y-123714285D01*
X124142857Y-123714285D01*
X124047619Y-123666666D01*
X124000000Y-123619047D01*
X123952380Y-123523809D01*
X123952380Y-123285714D01*
X124000000Y-123142857D01*
X123952380Y-122809523D02*
X124952380Y-122571428D01*
X124238095Y-122380952D01*
X124952380Y-122190476D01*
X123952380Y-121952380D01*
X125047619Y-121809523D02*
X125047619Y-121047619D01*
X123952380Y-120904761D02*
X123952380Y-120238095D01*
X124952380Y-120666666D01*
G04 #@! TO.C,SW10*
X108904761Y-171714285D02*
X108952380Y-171571428D01*
X108952380Y-171333333D01*
X108904761Y-171238095D01*
X108857142Y-171190476D01*
X108761904Y-171142857D01*
X108666666Y-171142857D01*
X108571428Y-171190476D01*
X108523809Y-171238095D01*
X108476190Y-171333333D01*
X108428571Y-171523809D01*
X108380952Y-171619047D01*
X108333333Y-171666666D01*
X108238095Y-171714285D01*
X108142857Y-171714285D01*
X108047619Y-171666666D01*
X108000000Y-171619047D01*
X107952380Y-171523809D01*
X107952380Y-171285714D01*
X108000000Y-171142857D01*
X107952380Y-170809523D02*
X108952380Y-170571428D01*
X108238095Y-170380952D01*
X108952380Y-170190476D01*
X107952380Y-169952380D01*
X109047619Y-169809523D02*
X109047619Y-169047619D01*
X107952380Y-168619047D02*
X107952380Y-168523809D01*
X108000000Y-168428571D01*
X108047619Y-168380952D01*
X108142857Y-168333333D01*
X108333333Y-168285714D01*
X108571428Y-168285714D01*
X108761904Y-168333333D01*
X108857142Y-168380952D01*
X108904761Y-168428571D01*
X108952380Y-168523809D01*
X108952380Y-168619047D01*
X108904761Y-168714285D01*
X108857142Y-168761904D01*
X108761904Y-168809523D01*
X108571428Y-168857142D01*
X108333333Y-168857142D01*
X108142857Y-168809523D01*
X108047619Y-168761904D01*
X108000000Y-168714285D01*
X107952380Y-168619047D01*
G04 #@! TO.C,SW9*
X111785714Y-159404761D02*
X111928571Y-159452380D01*
X112166666Y-159452380D01*
X112261904Y-159404761D01*
X112309523Y-159357142D01*
X112357142Y-159261904D01*
X112357142Y-159166666D01*
X112309523Y-159071428D01*
X112261904Y-159023809D01*
X112166666Y-158976190D01*
X111976190Y-158928571D01*
X111880952Y-158880952D01*
X111833333Y-158833333D01*
X111785714Y-158738095D01*
X111785714Y-158642857D01*
X111833333Y-158547619D01*
X111880952Y-158500000D01*
X111976190Y-158452380D01*
X112214285Y-158452380D01*
X112357142Y-158500000D01*
X112690476Y-158452380D02*
X112928571Y-159452380D01*
X113119047Y-158738095D01*
X113309523Y-159452380D01*
X113547619Y-158452380D01*
X113690476Y-159547619D02*
X114452380Y-159547619D01*
X115214285Y-159452380D02*
X114642857Y-159452380D01*
X114928571Y-159452380D02*
X114928571Y-158452380D01*
X114833333Y-158595238D01*
X114738095Y-158690476D01*
X114642857Y-158738095D01*
G04 #@! TO.C,SW8*
X108904761Y-139714285D02*
X108952380Y-139571428D01*
X108952380Y-139333333D01*
X108904761Y-139238095D01*
X108857142Y-139190476D01*
X108761904Y-139142857D01*
X108666666Y-139142857D01*
X108571428Y-139190476D01*
X108523809Y-139238095D01*
X108476190Y-139333333D01*
X108428571Y-139523809D01*
X108380952Y-139619047D01*
X108333333Y-139666666D01*
X108238095Y-139714285D01*
X108142857Y-139714285D01*
X108047619Y-139666666D01*
X108000000Y-139619047D01*
X107952380Y-139523809D01*
X107952380Y-139285714D01*
X108000000Y-139142857D01*
X107952380Y-138809523D02*
X108952380Y-138571428D01*
X108238095Y-138380952D01*
X108952380Y-138190476D01*
X107952380Y-137952380D01*
X109047619Y-137809523D02*
X109047619Y-137047619D01*
X108047619Y-136857142D02*
X108000000Y-136809523D01*
X107952380Y-136714285D01*
X107952380Y-136476190D01*
X108000000Y-136380952D01*
X108047619Y-136333333D01*
X108142857Y-136285714D01*
X108238095Y-136285714D01*
X108380952Y-136333333D01*
X108952380Y-136904761D01*
X108952380Y-136285714D01*
G04 #@! TO.C,SW7*
X111785714Y-127404761D02*
X111928571Y-127452380D01*
X112166666Y-127452380D01*
X112261904Y-127404761D01*
X112309523Y-127357142D01*
X112357142Y-127261904D01*
X112357142Y-127166666D01*
X112309523Y-127071428D01*
X112261904Y-127023809D01*
X112166666Y-126976190D01*
X111976190Y-126928571D01*
X111880952Y-126880952D01*
X111833333Y-126833333D01*
X111785714Y-126738095D01*
X111785714Y-126642857D01*
X111833333Y-126547619D01*
X111880952Y-126500000D01*
X111976190Y-126452380D01*
X112214285Y-126452380D01*
X112357142Y-126500000D01*
X112690476Y-126452380D02*
X112928571Y-127452380D01*
X113119047Y-126738095D01*
X113309523Y-127452380D01*
X113547619Y-126452380D01*
X113690476Y-127547619D02*
X114452380Y-127547619D01*
X114595238Y-126452380D02*
X115214285Y-126452380D01*
X114880952Y-126833333D01*
X115023809Y-126833333D01*
X115119047Y-126880952D01*
X115166666Y-126928571D01*
X115214285Y-127023809D01*
X115214285Y-127261904D01*
X115166666Y-127357142D01*
X115119047Y-127404761D01*
X115023809Y-127452380D01*
X114738095Y-127452380D01*
X114642857Y-127404761D01*
X114595238Y-127357142D01*
G04 #@! TO.C,SW6*
X94357142Y-175404761D02*
X94500000Y-175452380D01*
X94738095Y-175452380D01*
X94833333Y-175404761D01*
X94880952Y-175357142D01*
X94928571Y-175261904D01*
X94928571Y-175166666D01*
X94880952Y-175071428D01*
X94833333Y-175023809D01*
X94738095Y-174976190D01*
X94547619Y-174928571D01*
X94452380Y-174880952D01*
X94404761Y-174833333D01*
X94357142Y-174738095D01*
X94357142Y-174642857D01*
X94404761Y-174547619D01*
X94452380Y-174500000D01*
X94547619Y-174452380D01*
X94785714Y-174452380D01*
X94928571Y-174500000D01*
X95261904Y-174452380D02*
X95500000Y-175452380D01*
X95690476Y-174738095D01*
X95880952Y-175452380D01*
X96119047Y-174452380D01*
X96261904Y-175547619D02*
X97023809Y-175547619D01*
X97261904Y-175452380D02*
X97261904Y-174452380D01*
X97642857Y-174452380D01*
X97738095Y-174500000D01*
X97785714Y-174547619D01*
X97833333Y-174642857D01*
X97833333Y-174785714D01*
X97785714Y-174880952D01*
X97738095Y-174928571D01*
X97642857Y-174976190D01*
X97261904Y-174976190D01*
X98738095Y-175452380D02*
X98261904Y-175452380D01*
X98261904Y-174452380D01*
X99071428Y-174452380D02*
X99071428Y-175261904D01*
X99119047Y-175357142D01*
X99166666Y-175404761D01*
X99261904Y-175452380D01*
X99452380Y-175452380D01*
X99547619Y-175404761D01*
X99595238Y-175357142D01*
X99642857Y-175261904D01*
X99642857Y-174452380D01*
X100071428Y-175404761D02*
X100214285Y-175452380D01*
X100452380Y-175452380D01*
X100547619Y-175404761D01*
X100595238Y-175357142D01*
X100642857Y-175261904D01*
X100642857Y-175166666D01*
X100595238Y-175071428D01*
X100547619Y-175023809D01*
X100452380Y-174976190D01*
X100261904Y-174928571D01*
X100166666Y-174880952D01*
X100119047Y-174833333D01*
X100071428Y-174738095D01*
X100071428Y-174642857D01*
X100119047Y-174547619D01*
X100166666Y-174500000D01*
X100261904Y-174452380D01*
X100500000Y-174452380D01*
X100642857Y-174500000D01*
G04 #@! TO.C,SW5*
X92904761Y-157571428D02*
X92952380Y-157428571D01*
X92952380Y-157190476D01*
X92904761Y-157095238D01*
X92857142Y-157047619D01*
X92761904Y-157000000D01*
X92666666Y-157000000D01*
X92571428Y-157047619D01*
X92523809Y-157095238D01*
X92476190Y-157190476D01*
X92428571Y-157380952D01*
X92380952Y-157476190D01*
X92333333Y-157523809D01*
X92238095Y-157571428D01*
X92142857Y-157571428D01*
X92047619Y-157523809D01*
X92000000Y-157476190D01*
X91952380Y-157380952D01*
X91952380Y-157142857D01*
X92000000Y-157000000D01*
X91952380Y-156666666D02*
X92952380Y-156428571D01*
X92238095Y-156238095D01*
X92952380Y-156047619D01*
X91952380Y-155809523D01*
X93047619Y-155666666D02*
X93047619Y-154904761D01*
X92952380Y-154666666D02*
X91952380Y-154666666D01*
X92666666Y-154333333D01*
X91952380Y-154000000D01*
X92952380Y-154000000D01*
X92952380Y-153523809D02*
X91952380Y-153523809D01*
X92952380Y-153047619D02*
X91952380Y-153047619D01*
X92952380Y-152476190D01*
X91952380Y-152476190D01*
X91952380Y-152000000D02*
X92761904Y-152000000D01*
X92857142Y-151952380D01*
X92904761Y-151904761D01*
X92952380Y-151809523D01*
X92952380Y-151619047D01*
X92904761Y-151523809D01*
X92857142Y-151476190D01*
X92761904Y-151428571D01*
X91952380Y-151428571D01*
X92904761Y-151000000D02*
X92952380Y-150857142D01*
X92952380Y-150619047D01*
X92904761Y-150523809D01*
X92857142Y-150476190D01*
X92761904Y-150428571D01*
X92666666Y-150428571D01*
X92571428Y-150476190D01*
X92523809Y-150523809D01*
X92476190Y-150619047D01*
X92428571Y-150809523D01*
X92380952Y-150904761D01*
X92333333Y-150952380D01*
X92238095Y-151000000D01*
X92142857Y-151000000D01*
X92047619Y-150952380D01*
X92000000Y-150904761D01*
X91952380Y-150809523D01*
X91952380Y-150571428D01*
X92000000Y-150428571D01*
G04 #@! TO.C,SW4*
X95238095Y-143404761D02*
X95380952Y-143452380D01*
X95619047Y-143452380D01*
X95714285Y-143404761D01*
X95761904Y-143357142D01*
X95809523Y-143261904D01*
X95809523Y-143166666D01*
X95761904Y-143071428D01*
X95714285Y-143023809D01*
X95619047Y-142976190D01*
X95428571Y-142928571D01*
X95333333Y-142880952D01*
X95285714Y-142833333D01*
X95238095Y-142738095D01*
X95238095Y-142642857D01*
X95285714Y-142547619D01*
X95333333Y-142500000D01*
X95428571Y-142452380D01*
X95666666Y-142452380D01*
X95809523Y-142500000D01*
X96142857Y-142452380D02*
X96380952Y-143452380D01*
X96571428Y-142738095D01*
X96761904Y-143452380D01*
X97000000Y-142452380D01*
X97142857Y-143547619D02*
X97904761Y-143547619D01*
X98666666Y-142500000D02*
X98571428Y-142452380D01*
X98428571Y-142452380D01*
X98285714Y-142500000D01*
X98190476Y-142595238D01*
X98142857Y-142690476D01*
X98095238Y-142880952D01*
X98095238Y-143023809D01*
X98142857Y-143214285D01*
X98190476Y-143309523D01*
X98285714Y-143404761D01*
X98428571Y-143452380D01*
X98523809Y-143452380D01*
X98666666Y-143404761D01*
X98714285Y-143357142D01*
X98714285Y-143023809D01*
X98523809Y-143023809D01*
X99333333Y-142452380D02*
X99523809Y-142452380D01*
X99619047Y-142500000D01*
X99714285Y-142595238D01*
X99761904Y-142785714D01*
X99761904Y-143119047D01*
X99714285Y-143309523D01*
X99619047Y-143404761D01*
X99523809Y-143452380D01*
X99333333Y-143452380D01*
X99238095Y-143404761D01*
X99142857Y-143309523D01*
X99095238Y-143119047D01*
X99095238Y-142785714D01*
X99142857Y-142595238D01*
X99238095Y-142500000D01*
X99333333Y-142452380D01*
G04 #@! TO.C,SW3*
X92904761Y-124166666D02*
X92952380Y-124023809D01*
X92952380Y-123785714D01*
X92904761Y-123690476D01*
X92857142Y-123642857D01*
X92761904Y-123595238D01*
X92666666Y-123595238D01*
X92571428Y-123642857D01*
X92523809Y-123690476D01*
X92476190Y-123785714D01*
X92428571Y-123976190D01*
X92380952Y-124071428D01*
X92333333Y-124119047D01*
X92238095Y-124166666D01*
X92142857Y-124166666D01*
X92047619Y-124119047D01*
X92000000Y-124071428D01*
X91952380Y-123976190D01*
X91952380Y-123738095D01*
X92000000Y-123595238D01*
X91952380Y-123261904D02*
X92952380Y-123023809D01*
X92238095Y-122833333D01*
X92952380Y-122642857D01*
X91952380Y-122404761D01*
X93047619Y-122261904D02*
X93047619Y-121500000D01*
X92666666Y-121309523D02*
X92666666Y-120833333D01*
X92952380Y-121404761D02*
X91952380Y-121071428D01*
X92952380Y-120738095D01*
X92952380Y-120404761D02*
X91952380Y-120404761D01*
X91952380Y-120166666D01*
X92000000Y-120023809D01*
X92095238Y-119928571D01*
X92190476Y-119880952D01*
X92380952Y-119833333D01*
X92523809Y-119833333D01*
X92714285Y-119880952D01*
X92809523Y-119928571D01*
X92904761Y-120023809D01*
X92952380Y-120166666D01*
X92952380Y-120404761D01*
G04 #@! TO.C,SW2*
X78428571Y-122904761D02*
X78571428Y-122952380D01*
X78809523Y-122952380D01*
X78904761Y-122904761D01*
X78952380Y-122857142D01*
X79000000Y-122761904D01*
X79000000Y-122666666D01*
X78952380Y-122571428D01*
X78904761Y-122523809D01*
X78809523Y-122476190D01*
X78619047Y-122428571D01*
X78523809Y-122380952D01*
X78476190Y-122333333D01*
X78428571Y-122238095D01*
X78428571Y-122142857D01*
X78476190Y-122047619D01*
X78523809Y-122000000D01*
X78619047Y-121952380D01*
X78857142Y-121952380D01*
X79000000Y-122000000D01*
X79333333Y-121952380D02*
X79571428Y-122952380D01*
X79761904Y-122238095D01*
X79952380Y-122952380D01*
X80190476Y-121952380D01*
X80333333Y-123047619D02*
X81095238Y-123047619D01*
X81285714Y-122904761D02*
X81428571Y-122952380D01*
X81666666Y-122952380D01*
X81761904Y-122904761D01*
X81809523Y-122857142D01*
X81857142Y-122761904D01*
X81857142Y-122666666D01*
X81809523Y-122571428D01*
X81761904Y-122523809D01*
X81666666Y-122476190D01*
X81476190Y-122428571D01*
X81380952Y-122380952D01*
X81333333Y-122333333D01*
X81285714Y-122238095D01*
X81285714Y-122142857D01*
X81333333Y-122047619D01*
X81380952Y-122000000D01*
X81476190Y-121952380D01*
X81714285Y-121952380D01*
X81857142Y-122000000D01*
X82285714Y-122952380D02*
X82285714Y-121952380D01*
X82666666Y-121952380D01*
X82761904Y-122000000D01*
X82809523Y-122047619D01*
X82857142Y-122142857D01*
X82857142Y-122285714D01*
X82809523Y-122380952D01*
X82761904Y-122428571D01*
X82666666Y-122476190D01*
X82285714Y-122476190D01*
X83238095Y-122904761D02*
X83380952Y-122952380D01*
X83619047Y-122952380D01*
X83714285Y-122904761D01*
X83761904Y-122857142D01*
X83809523Y-122761904D01*
X83809523Y-122666666D01*
X83761904Y-122571428D01*
X83714285Y-122523809D01*
X83619047Y-122476190D01*
X83428571Y-122428571D01*
X83333333Y-122380952D01*
X83285714Y-122333333D01*
X83238095Y-122238095D01*
X83238095Y-122142857D01*
X83285714Y-122047619D01*
X83333333Y-122000000D01*
X83428571Y-121952380D01*
X83666666Y-121952380D01*
X83809523Y-122000000D01*
X84095238Y-121952380D02*
X84666666Y-121952380D01*
X84380952Y-122952380D02*
X84380952Y-121952380D01*
G04 #@! TO.C,SW1*
X47725714Y-45454761D02*
X47868571Y-45502380D01*
X48106666Y-45502380D01*
X48201904Y-45454761D01*
X48249523Y-45407142D01*
X48297142Y-45311904D01*
X48297142Y-45216666D01*
X48249523Y-45121428D01*
X48201904Y-45073809D01*
X48106666Y-45026190D01*
X47916190Y-44978571D01*
X47820952Y-44930952D01*
X47773333Y-44883333D01*
X47725714Y-44788095D01*
X47725714Y-44692857D01*
X47773333Y-44597619D01*
X47820952Y-44550000D01*
X47916190Y-44502380D01*
X48154285Y-44502380D01*
X48297142Y-44550000D01*
X48630476Y-44502380D02*
X48868571Y-45502380D01*
X49059047Y-44788095D01*
X49249523Y-45502380D01*
X49487619Y-44502380D01*
X49630476Y-45597619D02*
X50392380Y-45597619D01*
X50630476Y-45502380D02*
X50630476Y-44502380D01*
X50868571Y-44502380D01*
X51011428Y-44550000D01*
X51106666Y-44645238D01*
X51154285Y-44740476D01*
X51201904Y-44930952D01*
X51201904Y-45073809D01*
X51154285Y-45264285D01*
X51106666Y-45359523D01*
X51011428Y-45454761D01*
X50868571Y-45502380D01*
X50630476Y-45502380D01*
X51630476Y-45502380D02*
X51630476Y-44502380D01*
X52106666Y-45502380D02*
X52106666Y-44502380D01*
X52487619Y-44502380D01*
X52582857Y-44550000D01*
X52630476Y-44597619D01*
X52678095Y-44692857D01*
X52678095Y-44835714D01*
X52630476Y-44930952D01*
X52582857Y-44978571D01*
X52487619Y-45026190D01*
X52106666Y-45026190D01*
X52868571Y-45597619D02*
X53630476Y-45597619D01*
X53773333Y-45502380D02*
X54297142Y-44835714D01*
X53773333Y-44835714D02*
X54297142Y-45502380D01*
X54868571Y-44502380D02*
X54963809Y-44502380D01*
X55059047Y-44550000D01*
X55106666Y-44597619D01*
X55154285Y-44692857D01*
X55201904Y-44883333D01*
X55201904Y-45121428D01*
X55154285Y-45311904D01*
X55106666Y-45407142D01*
X55059047Y-45454761D01*
X54963809Y-45502380D01*
X54868571Y-45502380D01*
X54773333Y-45454761D01*
X54725714Y-45407142D01*
X54678095Y-45311904D01*
X54630476Y-45121428D01*
X54630476Y-44883333D01*
X54678095Y-44692857D01*
X54725714Y-44597619D01*
X54773333Y-44550000D01*
X54868571Y-44502380D01*
X56059047Y-44835714D02*
X56059047Y-45502380D01*
X55820952Y-44454761D02*
X55582857Y-45169047D01*
X56201904Y-45169047D01*
D13*
X49940000Y-51797142D02*
X50154285Y-51868571D01*
X50511428Y-51868571D01*
X50654285Y-51797142D01*
X50725714Y-51725714D01*
X50797142Y-51582857D01*
X50797142Y-51440000D01*
X50725714Y-51297142D01*
X50654285Y-51225714D01*
X50511428Y-51154285D01*
X50225714Y-51082857D01*
X50082857Y-51011428D01*
X50011428Y-50940000D01*
X49940000Y-50797142D01*
X49940000Y-50654285D01*
X50011428Y-50511428D01*
X50082857Y-50440000D01*
X50225714Y-50368571D01*
X50582857Y-50368571D01*
X50797142Y-50440000D01*
X51297142Y-50368571D02*
X51654285Y-51868571D01*
X51940000Y-50797142D01*
X52225714Y-51868571D01*
X52582857Y-50368571D01*
X53940000Y-51868571D02*
X53082857Y-51868571D01*
X53511428Y-51868571D02*
X53511428Y-50368571D01*
X53368571Y-50582857D01*
X53225714Y-50725714D01*
X53082857Y-50797142D01*
G04 #@! TO.C,R14*
D12*
X31302380Y-167080952D02*
X31302380Y-167557142D01*
X31778571Y-167604761D01*
X31730952Y-167557142D01*
X31683333Y-167461904D01*
X31683333Y-167223809D01*
X31730952Y-167128571D01*
X31778571Y-167080952D01*
X31873809Y-167033333D01*
X32111904Y-167033333D01*
X32207142Y-167080952D01*
X32254761Y-167128571D01*
X32302380Y-167223809D01*
X32302380Y-167461904D01*
X32254761Y-167557142D01*
X32207142Y-167604761D01*
X32207142Y-166604761D02*
X32254761Y-166557142D01*
X32302380Y-166604761D01*
X32254761Y-166652380D01*
X32207142Y-166604761D01*
X32302380Y-166604761D01*
X32302380Y-165604761D02*
X32302380Y-166176190D01*
X32302380Y-165890476D02*
X31302380Y-165890476D01*
X31445238Y-165985714D01*
X31540476Y-166080952D01*
X31588095Y-166176190D01*
X32302380Y-165176190D02*
X31302380Y-165176190D01*
X31921428Y-165080952D02*
X32302380Y-164795238D01*
X31635714Y-164795238D02*
X32016666Y-165176190D01*
D13*
X30878571Y-167164285D02*
X30164285Y-167664285D01*
X30878571Y-168021428D02*
X29378571Y-168021428D01*
X29378571Y-167450000D01*
X29450000Y-167307142D01*
X29521428Y-167235714D01*
X29664285Y-167164285D01*
X29878571Y-167164285D01*
X30021428Y-167235714D01*
X30092857Y-167307142D01*
X30164285Y-167450000D01*
X30164285Y-168021428D01*
X30878571Y-165735714D02*
X30878571Y-166592857D01*
X30878571Y-166164285D02*
X29378571Y-166164285D01*
X29592857Y-166307142D01*
X29735714Y-166450000D01*
X29807142Y-166592857D01*
X29878571Y-164450000D02*
X30878571Y-164450000D01*
X29307142Y-164807142D02*
X30378571Y-165164285D01*
X30378571Y-164235714D01*
G04 #@! TO.C,R13*
D12*
X32428571Y-178602380D02*
X31857142Y-178602380D01*
X32142857Y-178602380D02*
X32142857Y-177602380D01*
X32047619Y-177745238D01*
X31952380Y-177840476D01*
X31857142Y-177888095D01*
X33047619Y-177602380D02*
X33142857Y-177602380D01*
X33238095Y-177650000D01*
X33285714Y-177697619D01*
X33333333Y-177792857D01*
X33380952Y-177983333D01*
X33380952Y-178221428D01*
X33333333Y-178411904D01*
X33285714Y-178507142D01*
X33238095Y-178554761D01*
X33142857Y-178602380D01*
X33047619Y-178602380D01*
X32952380Y-178554761D01*
X32904761Y-178507142D01*
X32857142Y-178411904D01*
X32809523Y-178221428D01*
X32809523Y-177983333D01*
X32857142Y-177792857D01*
X32904761Y-177697619D01*
X32952380Y-177650000D01*
X33047619Y-177602380D01*
X34000000Y-177602380D02*
X34095238Y-177602380D01*
X34190476Y-177650000D01*
X34238095Y-177697619D01*
X34285714Y-177792857D01*
X34333333Y-177983333D01*
X34333333Y-178221428D01*
X34285714Y-178411904D01*
X34238095Y-178507142D01*
X34190476Y-178554761D01*
X34095238Y-178602380D01*
X34000000Y-178602380D01*
X33904761Y-178554761D01*
X33857142Y-178507142D01*
X33809523Y-178411904D01*
X33761904Y-178221428D01*
X33761904Y-177983333D01*
X33809523Y-177792857D01*
X33857142Y-177697619D01*
X33904761Y-177650000D01*
X34000000Y-177602380D01*
X34761904Y-178602380D02*
X34761904Y-177602380D01*
X34857142Y-178221428D02*
X35142857Y-178602380D01*
X35142857Y-177935714D02*
X34761904Y-178316666D01*
D13*
X32535714Y-177178571D02*
X32035714Y-176464285D01*
X31678571Y-177178571D02*
X31678571Y-175678571D01*
X32250000Y-175678571D01*
X32392857Y-175750000D01*
X32464285Y-175821428D01*
X32535714Y-175964285D01*
X32535714Y-176178571D01*
X32464285Y-176321428D01*
X32392857Y-176392857D01*
X32250000Y-176464285D01*
X31678571Y-176464285D01*
X33964285Y-177178571D02*
X33107142Y-177178571D01*
X33535714Y-177178571D02*
X33535714Y-175678571D01*
X33392857Y-175892857D01*
X33250000Y-176035714D01*
X33107142Y-176107142D01*
X34464285Y-175678571D02*
X35392857Y-175678571D01*
X34892857Y-176250000D01*
X35107142Y-176250000D01*
X35250000Y-176321428D01*
X35321428Y-176392857D01*
X35392857Y-176535714D01*
X35392857Y-176892857D01*
X35321428Y-177035714D01*
X35250000Y-177107142D01*
X35107142Y-177178571D01*
X34678571Y-177178571D01*
X34535714Y-177107142D01*
X34464285Y-177035714D01*
G04 #@! TO.C,R1*
D12*
X82904761Y-69802380D02*
X82333333Y-69802380D01*
X82619047Y-69802380D02*
X82619047Y-68802380D01*
X82523809Y-68945238D01*
X82428571Y-69040476D01*
X82333333Y-69088095D01*
X83523809Y-68802380D02*
X83619047Y-68802380D01*
X83714285Y-68850000D01*
X83761904Y-68897619D01*
X83809523Y-68992857D01*
X83857142Y-69183333D01*
X83857142Y-69421428D01*
X83809523Y-69611904D01*
X83761904Y-69707142D01*
X83714285Y-69754761D01*
X83619047Y-69802380D01*
X83523809Y-69802380D01*
X83428571Y-69754761D01*
X83380952Y-69707142D01*
X83333333Y-69611904D01*
X83285714Y-69421428D01*
X83285714Y-69183333D01*
X83333333Y-68992857D01*
X83380952Y-68897619D01*
X83428571Y-68850000D01*
X83523809Y-68802380D01*
X84285714Y-69802380D02*
X84285714Y-68802380D01*
X84380952Y-69421428D02*
X84666666Y-69802380D01*
X84666666Y-69135714D02*
X84285714Y-69516666D01*
D13*
X83250000Y-71678571D02*
X82750000Y-70964285D01*
X82392857Y-71678571D02*
X82392857Y-70178571D01*
X82964285Y-70178571D01*
X83107142Y-70250000D01*
X83178571Y-70321428D01*
X83250000Y-70464285D01*
X83250000Y-70678571D01*
X83178571Y-70821428D01*
X83107142Y-70892857D01*
X82964285Y-70964285D01*
X82392857Y-70964285D01*
X84678571Y-71678571D02*
X83821428Y-71678571D01*
X84250000Y-71678571D02*
X84250000Y-70178571D01*
X84107142Y-70392857D01*
X83964285Y-70535714D01*
X83821428Y-70607142D01*
G04 #@! TO.C,J3*
D12*
X45582380Y-178075476D02*
X45582380Y-178551666D01*
X44582380Y-178551666D01*
X45487142Y-177170714D02*
X45534761Y-177218333D01*
X45582380Y-177361190D01*
X45582380Y-177456428D01*
X45534761Y-177599285D01*
X45439523Y-177694523D01*
X45344285Y-177742142D01*
X45153809Y-177789761D01*
X45010952Y-177789761D01*
X44820476Y-177742142D01*
X44725238Y-177694523D01*
X44630000Y-177599285D01*
X44582380Y-177456428D01*
X44582380Y-177361190D01*
X44630000Y-177218333D01*
X44677619Y-177170714D01*
X45582380Y-176742142D02*
X44582380Y-176742142D01*
X44582380Y-176504047D01*
X44630000Y-176361190D01*
X44725238Y-176265952D01*
X44820476Y-176218333D01*
X45010952Y-176170714D01*
X45153809Y-176170714D01*
X45344285Y-176218333D01*
X45439523Y-176265952D01*
X45534761Y-176361190D01*
X45582380Y-176504047D01*
X45582380Y-176742142D01*
D13*
X65950000Y-174948571D02*
X65950000Y-176020000D01*
X65878571Y-176234285D01*
X65735714Y-176377142D01*
X65521428Y-176448571D01*
X65378571Y-176448571D01*
X66521428Y-174948571D02*
X67450000Y-174948571D01*
X66950000Y-175520000D01*
X67164285Y-175520000D01*
X67307142Y-175591428D01*
X67378571Y-175662857D01*
X67450000Y-175805714D01*
X67450000Y-176162857D01*
X67378571Y-176305714D01*
X67307142Y-176377142D01*
X67164285Y-176448571D01*
X66735714Y-176448571D01*
X66592857Y-176377142D01*
X66521428Y-176305714D01*
G04 #@! TO.C,J1*
D12*
X16952380Y-171690476D02*
X17761904Y-171690476D01*
X17857142Y-171642857D01*
X17904761Y-171595238D01*
X17952380Y-171500000D01*
X17952380Y-171309523D01*
X17904761Y-171214285D01*
X17857142Y-171166666D01*
X17761904Y-171119047D01*
X16952380Y-171119047D01*
X17904761Y-170690476D02*
X17952380Y-170547619D01*
X17952380Y-170309523D01*
X17904761Y-170214285D01*
X17857142Y-170166666D01*
X17761904Y-170119047D01*
X17666666Y-170119047D01*
X17571428Y-170166666D01*
X17523809Y-170214285D01*
X17476190Y-170309523D01*
X17428571Y-170500000D01*
X17380952Y-170595238D01*
X17333333Y-170642857D01*
X17238095Y-170690476D01*
X17142857Y-170690476D01*
X17047619Y-170642857D01*
X17000000Y-170595238D01*
X16952380Y-170500000D01*
X16952380Y-170261904D01*
X17000000Y-170119047D01*
X17428571Y-169357142D02*
X17476190Y-169214285D01*
X17523809Y-169166666D01*
X17619047Y-169119047D01*
X17761904Y-169119047D01*
X17857142Y-169166666D01*
X17904761Y-169214285D01*
X17952380Y-169309523D01*
X17952380Y-169690476D01*
X16952380Y-169690476D01*
X16952380Y-169357142D01*
X17000000Y-169261904D01*
X17047619Y-169214285D01*
X17142857Y-169166666D01*
X17238095Y-169166666D01*
X17333333Y-169214285D01*
X17380952Y-169261904D01*
X17428571Y-169357142D01*
X17428571Y-169690476D01*
X18047619Y-168928571D02*
X18047619Y-168166666D01*
X17857142Y-167357142D02*
X17904761Y-167404761D01*
X17952380Y-167547619D01*
X17952380Y-167642857D01*
X17904761Y-167785714D01*
X17809523Y-167880952D01*
X17714285Y-167928571D01*
X17523809Y-167976190D01*
X17380952Y-167976190D01*
X17190476Y-167928571D01*
X17095238Y-167880952D01*
X17000000Y-167785714D01*
X16952380Y-167642857D01*
X16952380Y-167547619D01*
X17000000Y-167404761D01*
X17047619Y-167357142D01*
X18047619Y-167166666D02*
X18047619Y-166404761D01*
X17952380Y-165595238D02*
X17476190Y-165928571D01*
X17952380Y-166166666D02*
X16952380Y-166166666D01*
X16952380Y-165785714D01*
X17000000Y-165690476D01*
X17047619Y-165642857D01*
X17142857Y-165595238D01*
X17285714Y-165595238D01*
X17380952Y-165642857D01*
X17428571Y-165690476D01*
X17476190Y-165785714D01*
X17476190Y-166166666D01*
X17904761Y-164785714D02*
X17952380Y-164880952D01*
X17952380Y-165071428D01*
X17904761Y-165166666D01*
X17809523Y-165214285D01*
X17428571Y-165214285D01*
X17333333Y-165166666D01*
X17285714Y-165071428D01*
X17285714Y-164880952D01*
X17333333Y-164785714D01*
X17428571Y-164738095D01*
X17523809Y-164738095D01*
X17619047Y-165214285D01*
X17904761Y-163880952D02*
X17952380Y-163976190D01*
X17952380Y-164166666D01*
X17904761Y-164261904D01*
X17857142Y-164309523D01*
X17761904Y-164357142D01*
X17476190Y-164357142D01*
X17380952Y-164309523D01*
X17333333Y-164261904D01*
X17285714Y-164166666D01*
X17285714Y-163976190D01*
X17333333Y-163880952D01*
X17904761Y-163071428D02*
X17952380Y-163166666D01*
X17952380Y-163357142D01*
X17904761Y-163452380D01*
X17809523Y-163500000D01*
X17428571Y-163500000D01*
X17333333Y-163452380D01*
X17285714Y-163357142D01*
X17285714Y-163166666D01*
X17333333Y-163071428D01*
X17428571Y-163023809D01*
X17523809Y-163023809D01*
X17619047Y-163500000D01*
X17285714Y-162595238D02*
X18285714Y-162595238D01*
X17333333Y-162595238D02*
X17285714Y-162500000D01*
X17285714Y-162309523D01*
X17333333Y-162214285D01*
X17380952Y-162166666D01*
X17476190Y-162119047D01*
X17761904Y-162119047D01*
X17857142Y-162166666D01*
X17904761Y-162214285D01*
X17952380Y-162309523D01*
X17952380Y-162500000D01*
X17904761Y-162595238D01*
X17285714Y-161833333D02*
X17285714Y-161452380D01*
X16952380Y-161690476D02*
X17809523Y-161690476D01*
X17904761Y-161642857D01*
X17952380Y-161547619D01*
X17952380Y-161452380D01*
X17952380Y-160690476D02*
X17428571Y-160690476D01*
X17333333Y-160738095D01*
X17285714Y-160833333D01*
X17285714Y-161023809D01*
X17333333Y-161119047D01*
X17904761Y-160690476D02*
X17952380Y-160785714D01*
X17952380Y-161023809D01*
X17904761Y-161119047D01*
X17809523Y-161166666D01*
X17714285Y-161166666D01*
X17619047Y-161119047D01*
X17571428Y-161023809D01*
X17571428Y-160785714D01*
X17523809Y-160690476D01*
X17904761Y-159785714D02*
X17952380Y-159880952D01*
X17952380Y-160071428D01*
X17904761Y-160166666D01*
X17857142Y-160214285D01*
X17761904Y-160261904D01*
X17476190Y-160261904D01*
X17380952Y-160214285D01*
X17333333Y-160166666D01*
X17285714Y-160071428D01*
X17285714Y-159880952D01*
X17333333Y-159785714D01*
X17952380Y-159214285D02*
X17904761Y-159309523D01*
X17809523Y-159357142D01*
X16952380Y-159357142D01*
X17904761Y-158452380D02*
X17952380Y-158547619D01*
X17952380Y-158738095D01*
X17904761Y-158833333D01*
X17809523Y-158880952D01*
X17428571Y-158880952D01*
X17333333Y-158833333D01*
X17285714Y-158738095D01*
X17285714Y-158547619D01*
X17333333Y-158452380D01*
X17428571Y-158404761D01*
X17523809Y-158404761D01*
X17619047Y-158880952D01*
X18047619Y-158214285D02*
X18047619Y-157452380D01*
X16952380Y-157214285D02*
X17761904Y-157214285D01*
X17857142Y-157166666D01*
X17904761Y-157119047D01*
X17952380Y-157023809D01*
X17952380Y-156833333D01*
X17904761Y-156738095D01*
X17857142Y-156690476D01*
X17761904Y-156642857D01*
X16952380Y-156642857D01*
X17904761Y-156214285D02*
X17952380Y-156071428D01*
X17952380Y-155833333D01*
X17904761Y-155738095D01*
X17857142Y-155690476D01*
X17761904Y-155642857D01*
X17666666Y-155642857D01*
X17571428Y-155690476D01*
X17523809Y-155738095D01*
X17476190Y-155833333D01*
X17428571Y-156023809D01*
X17380952Y-156119047D01*
X17333333Y-156166666D01*
X17238095Y-156214285D01*
X17142857Y-156214285D01*
X17047619Y-156166666D01*
X17000000Y-156119047D01*
X16952380Y-156023809D01*
X16952380Y-155785714D01*
X17000000Y-155642857D01*
X17428571Y-154880952D02*
X17476190Y-154738095D01*
X17523809Y-154690476D01*
X17619047Y-154642857D01*
X17761904Y-154642857D01*
X17857142Y-154690476D01*
X17904761Y-154738095D01*
X17952380Y-154833333D01*
X17952380Y-155214285D01*
X16952380Y-155214285D01*
X16952380Y-154880952D01*
X17000000Y-154785714D01*
X17047619Y-154738095D01*
X17142857Y-154690476D01*
X17238095Y-154690476D01*
X17333333Y-154738095D01*
X17380952Y-154785714D01*
X17428571Y-154880952D01*
X17428571Y-155214285D01*
X17047619Y-154261904D02*
X17000000Y-154214285D01*
X16952380Y-154119047D01*
X16952380Y-153880952D01*
X17000000Y-153785714D01*
X17047619Y-153738095D01*
X17142857Y-153690476D01*
X17238095Y-153690476D01*
X17380952Y-153738095D01*
X17952380Y-154309523D01*
X17952380Y-153690476D01*
X17857142Y-153261904D02*
X17904761Y-153214285D01*
X17952380Y-153261904D01*
X17904761Y-153309523D01*
X17857142Y-153261904D01*
X17952380Y-153261904D01*
X16952380Y-152595238D02*
X16952380Y-152500000D01*
X17000000Y-152404761D01*
X17047619Y-152357142D01*
X17142857Y-152309523D01*
X17333333Y-152261904D01*
X17571428Y-152261904D01*
X17761904Y-152309523D01*
X17857142Y-152357142D01*
X17904761Y-152404761D01*
X17952380Y-152500000D01*
X17952380Y-152595238D01*
X17904761Y-152690476D01*
X17857142Y-152738095D01*
X17761904Y-152785714D01*
X17571428Y-152833333D01*
X17333333Y-152833333D01*
X17142857Y-152785714D01*
X17047619Y-152738095D01*
X17000000Y-152690476D01*
X16952380Y-152595238D01*
D10*
X23952380Y-162952380D02*
X23476190Y-163285714D01*
X23952380Y-163523809D02*
X22952380Y-163523809D01*
X22952380Y-163142857D01*
X23000000Y-163047619D01*
X23047619Y-163000000D01*
X23142857Y-162952380D01*
X23285714Y-162952380D01*
X23380952Y-163000000D01*
X23428571Y-163047619D01*
X23476190Y-163142857D01*
X23476190Y-163523809D01*
X23428571Y-162523809D02*
X23428571Y-162190476D01*
X23952380Y-162047619D02*
X23952380Y-162523809D01*
X22952380Y-162523809D01*
X22952380Y-162047619D01*
X23428571Y-161285714D02*
X23428571Y-161619047D01*
X23952380Y-161619047D02*
X22952380Y-161619047D01*
X22952380Y-161142857D01*
X22952380Y-160619047D02*
X23190476Y-160619047D01*
X23095238Y-160857142D02*
X23190476Y-160619047D01*
X23095238Y-160380952D01*
X23380952Y-160761904D02*
X23190476Y-160619047D01*
X23380952Y-160476190D01*
G04 #@! TO.C,FB1*
D12*
X16428571Y-152378571D02*
X16095238Y-152378571D01*
X16095238Y-152902380D02*
X16095238Y-151902380D01*
X16571428Y-151902380D01*
X17333333Y-152854761D02*
X17238095Y-152902380D01*
X17047619Y-152902380D01*
X16952380Y-152854761D01*
X16904761Y-152759523D01*
X16904761Y-152378571D01*
X16952380Y-152283333D01*
X17047619Y-152235714D01*
X17238095Y-152235714D01*
X17333333Y-152283333D01*
X17380952Y-152378571D01*
X17380952Y-152473809D01*
X16904761Y-152569047D01*
X17809523Y-152902380D02*
X17809523Y-152235714D01*
X17809523Y-152426190D02*
X17857142Y-152330952D01*
X17904761Y-152283333D01*
X18000000Y-152235714D01*
X18095238Y-152235714D01*
X18428571Y-152902380D02*
X18428571Y-152235714D01*
X18428571Y-152426190D02*
X18476190Y-152330952D01*
X18523809Y-152283333D01*
X18619047Y-152235714D01*
X18714285Y-152235714D01*
X19047619Y-152902380D02*
X19047619Y-152235714D01*
X19047619Y-151902380D02*
X19000000Y-151950000D01*
X19047619Y-151997619D01*
X19095238Y-151950000D01*
X19047619Y-151902380D01*
X19047619Y-151997619D01*
X19380952Y-152235714D02*
X19761904Y-152235714D01*
X19523809Y-151902380D02*
X19523809Y-152759523D01*
X19571428Y-152854761D01*
X19666666Y-152902380D01*
X19761904Y-152902380D01*
X20476190Y-152854761D02*
X20380952Y-152902380D01*
X20190476Y-152902380D01*
X20095238Y-152854761D01*
X20047619Y-152759523D01*
X20047619Y-152378571D01*
X20095238Y-152283333D01*
X20190476Y-152235714D01*
X20380952Y-152235714D01*
X20476190Y-152283333D01*
X20523809Y-152378571D01*
X20523809Y-152473809D01*
X20047619Y-152569047D01*
X20714285Y-152997619D02*
X21476190Y-152997619D01*
X22047619Y-152378571D02*
X22190476Y-152426190D01*
X22238095Y-152473809D01*
X22285714Y-152569047D01*
X22285714Y-152711904D01*
X22238095Y-152807142D01*
X22190476Y-152854761D01*
X22095238Y-152902380D01*
X21714285Y-152902380D01*
X21714285Y-151902380D01*
X22047619Y-151902380D01*
X22142857Y-151950000D01*
X22190476Y-151997619D01*
X22238095Y-152092857D01*
X22238095Y-152188095D01*
X22190476Y-152283333D01*
X22142857Y-152330952D01*
X22047619Y-152378571D01*
X21714285Y-152378571D01*
X23095238Y-152854761D02*
X23000000Y-152902380D01*
X22809523Y-152902380D01*
X22714285Y-152854761D01*
X22666666Y-152759523D01*
X22666666Y-152378571D01*
X22714285Y-152283333D01*
X22809523Y-152235714D01*
X23000000Y-152235714D01*
X23095238Y-152283333D01*
X23142857Y-152378571D01*
X23142857Y-152473809D01*
X22666666Y-152569047D01*
X24000000Y-152902380D02*
X24000000Y-152378571D01*
X23952380Y-152283333D01*
X23857142Y-152235714D01*
X23666666Y-152235714D01*
X23571428Y-152283333D01*
X24000000Y-152854761D02*
X23904761Y-152902380D01*
X23666666Y-152902380D01*
X23571428Y-152854761D01*
X23523809Y-152759523D01*
X23523809Y-152664285D01*
X23571428Y-152569047D01*
X23666666Y-152521428D01*
X23904761Y-152521428D01*
X24000000Y-152473809D01*
X24904761Y-152902380D02*
X24904761Y-151902380D01*
X24904761Y-152854761D02*
X24809523Y-152902380D01*
X24619047Y-152902380D01*
X24523809Y-152854761D01*
X24476190Y-152807142D01*
X24428571Y-152711904D01*
X24428571Y-152426190D01*
X24476190Y-152330952D01*
X24523809Y-152283333D01*
X24619047Y-152235714D01*
X24809523Y-152235714D01*
X24904761Y-152283333D01*
X25142857Y-152997619D02*
X25904761Y-152997619D01*
X26095238Y-152854761D02*
X26238095Y-152902380D01*
X26476190Y-152902380D01*
X26571428Y-152854761D01*
X26619047Y-152807142D01*
X26666666Y-152711904D01*
X26666666Y-152616666D01*
X26619047Y-152521428D01*
X26571428Y-152473809D01*
X26476190Y-152426190D01*
X26285714Y-152378571D01*
X26190476Y-152330952D01*
X26142857Y-152283333D01*
X26095238Y-152188095D01*
X26095238Y-152092857D01*
X26142857Y-151997619D01*
X26190476Y-151950000D01*
X26285714Y-151902380D01*
X26523809Y-151902380D01*
X26666666Y-151950000D01*
X27095238Y-152902380D02*
X27095238Y-152235714D01*
X27095238Y-152330952D02*
X27142857Y-152283333D01*
X27238095Y-152235714D01*
X27380952Y-152235714D01*
X27476190Y-152283333D01*
X27523809Y-152378571D01*
X27523809Y-152902380D01*
X27523809Y-152378571D02*
X27571428Y-152283333D01*
X27666666Y-152235714D01*
X27809523Y-152235714D01*
X27904761Y-152283333D01*
X27952380Y-152378571D01*
X27952380Y-152902380D01*
X28857142Y-152902380D02*
X28857142Y-152378571D01*
X28809523Y-152283333D01*
X28714285Y-152235714D01*
X28523809Y-152235714D01*
X28428571Y-152283333D01*
X28857142Y-152854761D02*
X28761904Y-152902380D01*
X28523809Y-152902380D01*
X28428571Y-152854761D01*
X28380952Y-152759523D01*
X28380952Y-152664285D01*
X28428571Y-152569047D01*
X28523809Y-152521428D01*
X28761904Y-152521428D01*
X28857142Y-152473809D01*
X29476190Y-152902380D02*
X29380952Y-152854761D01*
X29333333Y-152759523D01*
X29333333Y-151902380D01*
X30000000Y-152902380D02*
X29904761Y-152854761D01*
X29857142Y-152759523D01*
X29857142Y-151902380D01*
D13*
X21750000Y-153892857D02*
X21250000Y-153892857D01*
X21250000Y-154678571D02*
X21250000Y-153178571D01*
X21964285Y-153178571D01*
X23035714Y-153892857D02*
X23250000Y-153964285D01*
X23321428Y-154035714D01*
X23392857Y-154178571D01*
X23392857Y-154392857D01*
X23321428Y-154535714D01*
X23250000Y-154607142D01*
X23107142Y-154678571D01*
X22535714Y-154678571D01*
X22535714Y-153178571D01*
X23035714Y-153178571D01*
X23178571Y-153250000D01*
X23250000Y-153321428D01*
X23321428Y-153464285D01*
X23321428Y-153607142D01*
X23250000Y-153750000D01*
X23178571Y-153821428D01*
X23035714Y-153892857D01*
X22535714Y-153892857D01*
X24821428Y-154678571D02*
X23964285Y-154678571D01*
X24392857Y-154678571D02*
X24392857Y-153178571D01*
X24250000Y-153392857D01*
X24107142Y-153535714D01*
X23964285Y-153607142D01*
G04 #@! TO.C,D2*
D12*
X47690476Y-101452380D02*
X47214285Y-101452380D01*
X47214285Y-100452380D01*
X48023809Y-100928571D02*
X48357142Y-100928571D01*
X48500000Y-101452380D02*
X48023809Y-101452380D01*
X48023809Y-100452380D01*
X48500000Y-100452380D01*
X48928571Y-101452380D02*
X48928571Y-100452380D01*
X49166666Y-100452380D01*
X49309523Y-100500000D01*
X49404761Y-100595238D01*
X49452380Y-100690476D01*
X49500000Y-100880952D01*
X49500000Y-101023809D01*
X49452380Y-101214285D01*
X49404761Y-101309523D01*
X49309523Y-101404761D01*
X49166666Y-101452380D01*
X48928571Y-101452380D01*
X49690476Y-101547619D02*
X50452380Y-101547619D01*
X50690476Y-101452380D02*
X50690476Y-100452380D01*
X51023809Y-101166666D01*
X51357142Y-100452380D01*
X51357142Y-101452380D01*
X51785714Y-101166666D02*
X52261904Y-101166666D01*
X51690476Y-101452380D02*
X52023809Y-100452380D01*
X52357142Y-101452380D01*
X52547619Y-100452380D02*
X53119047Y-100452380D01*
X52833333Y-101452380D02*
X52833333Y-100452380D01*
X54023809Y-101452380D02*
X53690476Y-100976190D01*
X53452380Y-101452380D02*
X53452380Y-100452380D01*
X53833333Y-100452380D01*
X53928571Y-100500000D01*
X53976190Y-100547619D01*
X54023809Y-100642857D01*
X54023809Y-100785714D01*
X53976190Y-100880952D01*
X53928571Y-100928571D01*
X53833333Y-100976190D01*
X53452380Y-100976190D01*
X54452380Y-101452380D02*
X54452380Y-100452380D01*
X54833333Y-100452380D02*
X55500000Y-101452380D01*
X55500000Y-100452380D02*
X54833333Y-101452380D01*
X55642857Y-101547619D02*
X56404761Y-101547619D01*
X57214285Y-101452380D02*
X56880952Y-100976190D01*
X56642857Y-101452380D02*
X56642857Y-100452380D01*
X57023809Y-100452380D01*
X57119047Y-100500000D01*
X57166666Y-100547619D01*
X57214285Y-100642857D01*
X57214285Y-100785714D01*
X57166666Y-100880952D01*
X57119047Y-100928571D01*
X57023809Y-100976190D01*
X56642857Y-100976190D01*
X58166666Y-100500000D02*
X58071428Y-100452380D01*
X57928571Y-100452380D01*
X57785714Y-100500000D01*
X57690476Y-100595238D01*
X57642857Y-100690476D01*
X57595238Y-100880952D01*
X57595238Y-101023809D01*
X57642857Y-101214285D01*
X57690476Y-101309523D01*
X57785714Y-101404761D01*
X57928571Y-101452380D01*
X58023809Y-101452380D01*
X58166666Y-101404761D01*
X58214285Y-101357142D01*
X58214285Y-101023809D01*
X58023809Y-101023809D01*
X58404761Y-101547619D02*
X59166666Y-101547619D01*
X59976190Y-101357142D02*
X59928571Y-101404761D01*
X59785714Y-101452380D01*
X59690476Y-101452380D01*
X59547619Y-101404761D01*
X59452380Y-101309523D01*
X59404761Y-101214285D01*
X59357142Y-101023809D01*
X59357142Y-100880952D01*
X59404761Y-100690476D01*
X59452380Y-100595238D01*
X59547619Y-100500000D01*
X59690476Y-100452380D01*
X59785714Y-100452380D01*
X59928571Y-100500000D01*
X59976190Y-100547619D01*
X60357142Y-101166666D02*
X60833333Y-101166666D01*
X60261904Y-101452380D02*
X60595238Y-100452380D01*
X60928571Y-101452380D01*
G04 #@! TO.C,D1*
X172357142Y-163302380D02*
X171880952Y-163302380D01*
X171880952Y-162302380D01*
X172690476Y-162778571D02*
X173023809Y-162778571D01*
X173166666Y-163302380D02*
X172690476Y-163302380D01*
X172690476Y-162302380D01*
X173166666Y-162302380D01*
X173595238Y-163302380D02*
X173595238Y-162302380D01*
X173833333Y-162302380D01*
X173976190Y-162350000D01*
X174071428Y-162445238D01*
X174119047Y-162540476D01*
X174166666Y-162730952D01*
X174166666Y-162873809D01*
X174119047Y-163064285D01*
X174071428Y-163159523D01*
X173976190Y-163254761D01*
X173833333Y-163302380D01*
X173595238Y-163302380D01*
D13*
X171892857Y-165178571D02*
X171892857Y-163678571D01*
X172250000Y-163678571D01*
X172464285Y-163750000D01*
X172607142Y-163892857D01*
X172678571Y-164035714D01*
X172750000Y-164321428D01*
X172750000Y-164535714D01*
X172678571Y-164821428D01*
X172607142Y-164964285D01*
X172464285Y-165107142D01*
X172250000Y-165178571D01*
X171892857Y-165178571D01*
X174178571Y-165178571D02*
X173321428Y-165178571D01*
X173750000Y-165178571D02*
X173750000Y-163678571D01*
X173607142Y-163892857D01*
X173464285Y-164035714D01*
X173321428Y-164107142D01*
G04 #@! TO.C,C19*
D12*
X34702380Y-123522380D02*
X34797619Y-123522380D01*
X34892857Y-123570000D01*
X34940476Y-123617619D01*
X34988095Y-123712857D01*
X35035714Y-123903333D01*
X35035714Y-124141428D01*
X34988095Y-124331904D01*
X34940476Y-124427142D01*
X34892857Y-124474761D01*
X34797619Y-124522380D01*
X34702380Y-124522380D01*
X34607142Y-124474761D01*
X34559523Y-124427142D01*
X34511904Y-124331904D01*
X34464285Y-124141428D01*
X34464285Y-123903333D01*
X34511904Y-123712857D01*
X34559523Y-123617619D01*
X34607142Y-123570000D01*
X34702380Y-123522380D01*
X35464285Y-124427142D02*
X35511904Y-124474761D01*
X35464285Y-124522380D01*
X35416666Y-124474761D01*
X35464285Y-124427142D01*
X35464285Y-124522380D01*
X36464285Y-124522380D02*
X35892857Y-124522380D01*
X36178571Y-124522380D02*
X36178571Y-123522380D01*
X36083333Y-123665238D01*
X35988095Y-123760476D01*
X35892857Y-123808095D01*
X37321428Y-123855714D02*
X37321428Y-124522380D01*
X36892857Y-123855714D02*
X36892857Y-124379523D01*
X36940476Y-124474761D01*
X37035714Y-124522380D01*
X37178571Y-124522380D01*
X37273809Y-124474761D01*
X37321428Y-124427142D01*
X38130952Y-123998571D02*
X37797619Y-123998571D01*
X37797619Y-124522380D02*
X37797619Y-123522380D01*
X38273809Y-123522380D01*
X39369047Y-123474761D02*
X38511904Y-124760476D01*
X40226190Y-124522380D02*
X39654761Y-124522380D01*
X39940476Y-124522380D02*
X39940476Y-123522380D01*
X39845238Y-123665238D01*
X39750000Y-123760476D01*
X39654761Y-123808095D01*
X40845238Y-123522380D02*
X40940476Y-123522380D01*
X41035714Y-123570000D01*
X41083333Y-123617619D01*
X41130952Y-123712857D01*
X41178571Y-123903333D01*
X41178571Y-124141428D01*
X41130952Y-124331904D01*
X41083333Y-124427142D01*
X41035714Y-124474761D01*
X40940476Y-124522380D01*
X40845238Y-124522380D01*
X40750000Y-124474761D01*
X40702380Y-124427142D01*
X40654761Y-124331904D01*
X40607142Y-124141428D01*
X40607142Y-123903333D01*
X40654761Y-123712857D01*
X40702380Y-123617619D01*
X40750000Y-123570000D01*
X40845238Y-123522380D01*
X41464285Y-123522380D02*
X41797619Y-124522380D01*
X42130952Y-123522380D01*
D13*
X37285714Y-126285714D02*
X37214285Y-126357142D01*
X37000000Y-126428571D01*
X36857142Y-126428571D01*
X36642857Y-126357142D01*
X36500000Y-126214285D01*
X36428571Y-126071428D01*
X36357142Y-125785714D01*
X36357142Y-125571428D01*
X36428571Y-125285714D01*
X36500000Y-125142857D01*
X36642857Y-125000000D01*
X36857142Y-124928571D01*
X37000000Y-124928571D01*
X37214285Y-125000000D01*
X37285714Y-125071428D01*
X38714285Y-126428571D02*
X37857142Y-126428571D01*
X38285714Y-126428571D02*
X38285714Y-124928571D01*
X38142857Y-125142857D01*
X38000000Y-125285714D01*
X37857142Y-125357142D01*
X39428571Y-126428571D02*
X39714285Y-126428571D01*
X39857142Y-126357142D01*
X39928571Y-126285714D01*
X40071428Y-126071428D01*
X40142857Y-125785714D01*
X40142857Y-125214285D01*
X40071428Y-125071428D01*
X40000000Y-125000000D01*
X39857142Y-124928571D01*
X39571428Y-124928571D01*
X39428571Y-125000000D01*
X39357142Y-125071428D01*
X39285714Y-125214285D01*
X39285714Y-125571428D01*
X39357142Y-125714285D01*
X39428571Y-125785714D01*
X39571428Y-125857142D01*
X39857142Y-125857142D01*
X40000000Y-125785714D01*
X40071428Y-125714285D01*
X40142857Y-125571428D01*
G04 #@! TO.C,C18*
D12*
X65702380Y-123522380D02*
X65797619Y-123522380D01*
X65892857Y-123570000D01*
X65940476Y-123617619D01*
X65988095Y-123712857D01*
X66035714Y-123903333D01*
X66035714Y-124141428D01*
X65988095Y-124331904D01*
X65940476Y-124427142D01*
X65892857Y-124474761D01*
X65797619Y-124522380D01*
X65702380Y-124522380D01*
X65607142Y-124474761D01*
X65559523Y-124427142D01*
X65511904Y-124331904D01*
X65464285Y-124141428D01*
X65464285Y-123903333D01*
X65511904Y-123712857D01*
X65559523Y-123617619D01*
X65607142Y-123570000D01*
X65702380Y-123522380D01*
X66464285Y-124427142D02*
X66511904Y-124474761D01*
X66464285Y-124522380D01*
X66416666Y-124474761D01*
X66464285Y-124427142D01*
X66464285Y-124522380D01*
X67464285Y-124522380D02*
X66892857Y-124522380D01*
X67178571Y-124522380D02*
X67178571Y-123522380D01*
X67083333Y-123665238D01*
X66988095Y-123760476D01*
X66892857Y-123808095D01*
X68321428Y-123855714D02*
X68321428Y-124522380D01*
X67892857Y-123855714D02*
X67892857Y-124379523D01*
X67940476Y-124474761D01*
X68035714Y-124522380D01*
X68178571Y-124522380D01*
X68273809Y-124474761D01*
X68321428Y-124427142D01*
X69130952Y-123998571D02*
X68797619Y-123998571D01*
X68797619Y-124522380D02*
X68797619Y-123522380D01*
X69273809Y-123522380D01*
X70369047Y-123474761D02*
X69511904Y-124760476D01*
X71226190Y-124522380D02*
X70654761Y-124522380D01*
X70940476Y-124522380D02*
X70940476Y-123522380D01*
X70845238Y-123665238D01*
X70750000Y-123760476D01*
X70654761Y-123808095D01*
X71845238Y-123522380D02*
X71940476Y-123522380D01*
X72035714Y-123570000D01*
X72083333Y-123617619D01*
X72130952Y-123712857D01*
X72178571Y-123903333D01*
X72178571Y-124141428D01*
X72130952Y-124331904D01*
X72083333Y-124427142D01*
X72035714Y-124474761D01*
X71940476Y-124522380D01*
X71845238Y-124522380D01*
X71750000Y-124474761D01*
X71702380Y-124427142D01*
X71654761Y-124331904D01*
X71607142Y-124141428D01*
X71607142Y-123903333D01*
X71654761Y-123712857D01*
X71702380Y-123617619D01*
X71750000Y-123570000D01*
X71845238Y-123522380D01*
X72464285Y-123522380D02*
X72797619Y-124522380D01*
X73130952Y-123522380D01*
D13*
X68285714Y-126285714D02*
X68214285Y-126357142D01*
X68000000Y-126428571D01*
X67857142Y-126428571D01*
X67642857Y-126357142D01*
X67500000Y-126214285D01*
X67428571Y-126071428D01*
X67357142Y-125785714D01*
X67357142Y-125571428D01*
X67428571Y-125285714D01*
X67500000Y-125142857D01*
X67642857Y-125000000D01*
X67857142Y-124928571D01*
X68000000Y-124928571D01*
X68214285Y-125000000D01*
X68285714Y-125071428D01*
X69714285Y-126428571D02*
X68857142Y-126428571D01*
X69285714Y-126428571D02*
X69285714Y-124928571D01*
X69142857Y-125142857D01*
X69000000Y-125285714D01*
X68857142Y-125357142D01*
X70571428Y-125571428D02*
X70428571Y-125500000D01*
X70357142Y-125428571D01*
X70285714Y-125285714D01*
X70285714Y-125214285D01*
X70357142Y-125071428D01*
X70428571Y-125000000D01*
X70571428Y-124928571D01*
X70857142Y-124928571D01*
X71000000Y-125000000D01*
X71071428Y-125071428D01*
X71142857Y-125214285D01*
X71142857Y-125285714D01*
X71071428Y-125428571D01*
X71000000Y-125500000D01*
X70857142Y-125571428D01*
X70571428Y-125571428D01*
X70428571Y-125642857D01*
X70357142Y-125714285D01*
X70285714Y-125857142D01*
X70285714Y-126142857D01*
X70357142Y-126285714D01*
X70428571Y-126357142D01*
X70571428Y-126428571D01*
X70857142Y-126428571D01*
X71000000Y-126357142D01*
X71071428Y-126285714D01*
X71142857Y-126142857D01*
X71142857Y-125857142D01*
X71071428Y-125714285D01*
X71000000Y-125642857D01*
X70857142Y-125571428D01*
G04 #@! TO.C,C17*
D12*
X50702380Y-123522380D02*
X50797619Y-123522380D01*
X50892857Y-123570000D01*
X50940476Y-123617619D01*
X50988095Y-123712857D01*
X51035714Y-123903333D01*
X51035714Y-124141428D01*
X50988095Y-124331904D01*
X50940476Y-124427142D01*
X50892857Y-124474761D01*
X50797619Y-124522380D01*
X50702380Y-124522380D01*
X50607142Y-124474761D01*
X50559523Y-124427142D01*
X50511904Y-124331904D01*
X50464285Y-124141428D01*
X50464285Y-123903333D01*
X50511904Y-123712857D01*
X50559523Y-123617619D01*
X50607142Y-123570000D01*
X50702380Y-123522380D01*
X51464285Y-124427142D02*
X51511904Y-124474761D01*
X51464285Y-124522380D01*
X51416666Y-124474761D01*
X51464285Y-124427142D01*
X51464285Y-124522380D01*
X52464285Y-124522380D02*
X51892857Y-124522380D01*
X52178571Y-124522380D02*
X52178571Y-123522380D01*
X52083333Y-123665238D01*
X51988095Y-123760476D01*
X51892857Y-123808095D01*
X53321428Y-123855714D02*
X53321428Y-124522380D01*
X52892857Y-123855714D02*
X52892857Y-124379523D01*
X52940476Y-124474761D01*
X53035714Y-124522380D01*
X53178571Y-124522380D01*
X53273809Y-124474761D01*
X53321428Y-124427142D01*
X54130952Y-123998571D02*
X53797619Y-123998571D01*
X53797619Y-124522380D02*
X53797619Y-123522380D01*
X54273809Y-123522380D01*
X55369047Y-123474761D02*
X54511904Y-124760476D01*
X56226190Y-124522380D02*
X55654761Y-124522380D01*
X55940476Y-124522380D02*
X55940476Y-123522380D01*
X55845238Y-123665238D01*
X55750000Y-123760476D01*
X55654761Y-123808095D01*
X56845238Y-123522380D02*
X56940476Y-123522380D01*
X57035714Y-123570000D01*
X57083333Y-123617619D01*
X57130952Y-123712857D01*
X57178571Y-123903333D01*
X57178571Y-124141428D01*
X57130952Y-124331904D01*
X57083333Y-124427142D01*
X57035714Y-124474761D01*
X56940476Y-124522380D01*
X56845238Y-124522380D01*
X56750000Y-124474761D01*
X56702380Y-124427142D01*
X56654761Y-124331904D01*
X56607142Y-124141428D01*
X56607142Y-123903333D01*
X56654761Y-123712857D01*
X56702380Y-123617619D01*
X56750000Y-123570000D01*
X56845238Y-123522380D01*
X57464285Y-123522380D02*
X57797619Y-124522380D01*
X58130952Y-123522380D01*
D13*
X53285714Y-126285714D02*
X53214285Y-126357142D01*
X53000000Y-126428571D01*
X52857142Y-126428571D01*
X52642857Y-126357142D01*
X52500000Y-126214285D01*
X52428571Y-126071428D01*
X52357142Y-125785714D01*
X52357142Y-125571428D01*
X52428571Y-125285714D01*
X52500000Y-125142857D01*
X52642857Y-125000000D01*
X52857142Y-124928571D01*
X53000000Y-124928571D01*
X53214285Y-125000000D01*
X53285714Y-125071428D01*
X54714285Y-126428571D02*
X53857142Y-126428571D01*
X54285714Y-126428571D02*
X54285714Y-124928571D01*
X54142857Y-125142857D01*
X54000000Y-125285714D01*
X53857142Y-125357142D01*
X55214285Y-124928571D02*
X56214285Y-124928571D01*
X55571428Y-126428571D01*
G04 #@! TO.C,C10*
D12*
X38202380Y-174132380D02*
X38297619Y-174132380D01*
X38392857Y-174180000D01*
X38440476Y-174227619D01*
X38488095Y-174322857D01*
X38535714Y-174513333D01*
X38535714Y-174751428D01*
X38488095Y-174941904D01*
X38440476Y-175037142D01*
X38392857Y-175084761D01*
X38297619Y-175132380D01*
X38202380Y-175132380D01*
X38107142Y-175084761D01*
X38059523Y-175037142D01*
X38011904Y-174941904D01*
X37964285Y-174751428D01*
X37964285Y-174513333D01*
X38011904Y-174322857D01*
X38059523Y-174227619D01*
X38107142Y-174180000D01*
X38202380Y-174132380D01*
X38964285Y-175037142D02*
X39011904Y-175084761D01*
X38964285Y-175132380D01*
X38916666Y-175084761D01*
X38964285Y-175037142D01*
X38964285Y-175132380D01*
X39964285Y-175132380D02*
X39392857Y-175132380D01*
X39678571Y-175132380D02*
X39678571Y-174132380D01*
X39583333Y-174275238D01*
X39488095Y-174370476D01*
X39392857Y-174418095D01*
X40821428Y-174465714D02*
X40821428Y-175132380D01*
X40392857Y-174465714D02*
X40392857Y-174989523D01*
X40440476Y-175084761D01*
X40535714Y-175132380D01*
X40678571Y-175132380D01*
X40773809Y-175084761D01*
X40821428Y-175037142D01*
X41630952Y-174608571D02*
X41297619Y-174608571D01*
X41297619Y-175132380D02*
X41297619Y-174132380D01*
X41773809Y-174132380D01*
X42869047Y-174084761D02*
X42011904Y-175370476D01*
X43726190Y-175132380D02*
X43154761Y-175132380D01*
X43440476Y-175132380D02*
X43440476Y-174132380D01*
X43345238Y-174275238D01*
X43250000Y-174370476D01*
X43154761Y-174418095D01*
X44345238Y-174132380D02*
X44440476Y-174132380D01*
X44535714Y-174180000D01*
X44583333Y-174227619D01*
X44630952Y-174322857D01*
X44678571Y-174513333D01*
X44678571Y-174751428D01*
X44630952Y-174941904D01*
X44583333Y-175037142D01*
X44535714Y-175084761D01*
X44440476Y-175132380D01*
X44345238Y-175132380D01*
X44250000Y-175084761D01*
X44202380Y-175037142D01*
X44154761Y-174941904D01*
X44107142Y-174751428D01*
X44107142Y-174513333D01*
X44154761Y-174322857D01*
X44202380Y-174227619D01*
X44250000Y-174180000D01*
X44345238Y-174132380D01*
X44964285Y-174132380D02*
X45297619Y-175132380D01*
X45630952Y-174132380D01*
D13*
X40785714Y-173535714D02*
X40714285Y-173607142D01*
X40500000Y-173678571D01*
X40357142Y-173678571D01*
X40142857Y-173607142D01*
X40000000Y-173464285D01*
X39928571Y-173321428D01*
X39857142Y-173035714D01*
X39857142Y-172821428D01*
X39928571Y-172535714D01*
X40000000Y-172392857D01*
X40142857Y-172250000D01*
X40357142Y-172178571D01*
X40500000Y-172178571D01*
X40714285Y-172250000D01*
X40785714Y-172321428D01*
X42214285Y-173678571D02*
X41357142Y-173678571D01*
X41785714Y-173678571D02*
X41785714Y-172178571D01*
X41642857Y-172392857D01*
X41500000Y-172535714D01*
X41357142Y-172607142D01*
X43142857Y-172178571D02*
X43285714Y-172178571D01*
X43428571Y-172250000D01*
X43500000Y-172321428D01*
X43571428Y-172464285D01*
X43642857Y-172750000D01*
X43642857Y-173107142D01*
X43571428Y-173392857D01*
X43500000Y-173535714D01*
X43428571Y-173607142D01*
X43285714Y-173678571D01*
X43142857Y-173678571D01*
X43000000Y-173607142D01*
X42928571Y-173535714D01*
X42857142Y-173392857D01*
X42785714Y-173107142D01*
X42785714Y-172750000D01*
X42857142Y-172464285D01*
X42928571Y-172321428D01*
X43000000Y-172250000D01*
X43142857Y-172178571D01*
G04 #@! TO.C,C9*
D12*
X34452380Y-170772380D02*
X34547619Y-170772380D01*
X34642857Y-170820000D01*
X34690476Y-170867619D01*
X34738095Y-170962857D01*
X34785714Y-171153333D01*
X34785714Y-171391428D01*
X34738095Y-171581904D01*
X34690476Y-171677142D01*
X34642857Y-171724761D01*
X34547619Y-171772380D01*
X34452380Y-171772380D01*
X34357142Y-171724761D01*
X34309523Y-171677142D01*
X34261904Y-171581904D01*
X34214285Y-171391428D01*
X34214285Y-171153333D01*
X34261904Y-170962857D01*
X34309523Y-170867619D01*
X34357142Y-170820000D01*
X34452380Y-170772380D01*
X35214285Y-171677142D02*
X35261904Y-171724761D01*
X35214285Y-171772380D01*
X35166666Y-171724761D01*
X35214285Y-171677142D01*
X35214285Y-171772380D01*
X36214285Y-171772380D02*
X35642857Y-171772380D01*
X35928571Y-171772380D02*
X35928571Y-170772380D01*
X35833333Y-170915238D01*
X35738095Y-171010476D01*
X35642857Y-171058095D01*
X37071428Y-171105714D02*
X37071428Y-171772380D01*
X36642857Y-171105714D02*
X36642857Y-171629523D01*
X36690476Y-171724761D01*
X36785714Y-171772380D01*
X36928571Y-171772380D01*
X37023809Y-171724761D01*
X37071428Y-171677142D01*
X37880952Y-171248571D02*
X37547619Y-171248571D01*
X37547619Y-171772380D02*
X37547619Y-170772380D01*
X38023809Y-170772380D01*
X39119047Y-170724761D02*
X38261904Y-172010476D01*
X39976190Y-171772380D02*
X39404761Y-171772380D01*
X39690476Y-171772380D02*
X39690476Y-170772380D01*
X39595238Y-170915238D01*
X39500000Y-171010476D01*
X39404761Y-171058095D01*
X40595238Y-170772380D02*
X40690476Y-170772380D01*
X40785714Y-170820000D01*
X40833333Y-170867619D01*
X40880952Y-170962857D01*
X40928571Y-171153333D01*
X40928571Y-171391428D01*
X40880952Y-171581904D01*
X40833333Y-171677142D01*
X40785714Y-171724761D01*
X40690476Y-171772380D01*
X40595238Y-171772380D01*
X40500000Y-171724761D01*
X40452380Y-171677142D01*
X40404761Y-171581904D01*
X40357142Y-171391428D01*
X40357142Y-171153333D01*
X40404761Y-170962857D01*
X40452380Y-170867619D01*
X40500000Y-170820000D01*
X40595238Y-170772380D01*
X41214285Y-170772380D02*
X41547619Y-171772380D01*
X41880952Y-170772380D01*
D13*
X37750000Y-173535714D02*
X37678571Y-173607142D01*
X37464285Y-173678571D01*
X37321428Y-173678571D01*
X37107142Y-173607142D01*
X36964285Y-173464285D01*
X36892857Y-173321428D01*
X36821428Y-173035714D01*
X36821428Y-172821428D01*
X36892857Y-172535714D01*
X36964285Y-172392857D01*
X37107142Y-172250000D01*
X37321428Y-172178571D01*
X37464285Y-172178571D01*
X37678571Y-172250000D01*
X37750000Y-172321428D01*
X38464285Y-173678571D02*
X38750000Y-173678571D01*
X38892857Y-173607142D01*
X38964285Y-173535714D01*
X39107142Y-173321428D01*
X39178571Y-173035714D01*
X39178571Y-172464285D01*
X39107142Y-172321428D01*
X39035714Y-172250000D01*
X38892857Y-172178571D01*
X38607142Y-172178571D01*
X38464285Y-172250000D01*
X38392857Y-172321428D01*
X38321428Y-172464285D01*
X38321428Y-172821428D01*
X38392857Y-172964285D01*
X38464285Y-173035714D01*
X38607142Y-173107142D01*
X38892857Y-173107142D01*
X39035714Y-173035714D01*
X39107142Y-172964285D01*
X39178571Y-172821428D01*
G04 #@! TO.C,C7*
D12*
X29952380Y-176272380D02*
X30047619Y-176272380D01*
X30142857Y-176320000D01*
X30190476Y-176367619D01*
X30238095Y-176462857D01*
X30285714Y-176653333D01*
X30285714Y-176891428D01*
X30238095Y-177081904D01*
X30190476Y-177177142D01*
X30142857Y-177224761D01*
X30047619Y-177272380D01*
X29952380Y-177272380D01*
X29857142Y-177224761D01*
X29809523Y-177177142D01*
X29761904Y-177081904D01*
X29714285Y-176891428D01*
X29714285Y-176653333D01*
X29761904Y-176462857D01*
X29809523Y-176367619D01*
X29857142Y-176320000D01*
X29952380Y-176272380D01*
X30714285Y-177177142D02*
X30761904Y-177224761D01*
X30714285Y-177272380D01*
X30666666Y-177224761D01*
X30714285Y-177177142D01*
X30714285Y-177272380D01*
X31714285Y-177272380D02*
X31142857Y-177272380D01*
X31428571Y-177272380D02*
X31428571Y-176272380D01*
X31333333Y-176415238D01*
X31238095Y-176510476D01*
X31142857Y-176558095D01*
X32571428Y-176605714D02*
X32571428Y-177272380D01*
X32142857Y-176605714D02*
X32142857Y-177129523D01*
X32190476Y-177224761D01*
X32285714Y-177272380D01*
X32428571Y-177272380D01*
X32523809Y-177224761D01*
X32571428Y-177177142D01*
X33380952Y-176748571D02*
X33047619Y-176748571D01*
X33047619Y-177272380D02*
X33047619Y-176272380D01*
X33523809Y-176272380D01*
X34619047Y-176224761D02*
X33761904Y-177510476D01*
X35476190Y-177272380D02*
X34904761Y-177272380D01*
X35190476Y-177272380D02*
X35190476Y-176272380D01*
X35095238Y-176415238D01*
X35000000Y-176510476D01*
X34904761Y-176558095D01*
X36095238Y-176272380D02*
X36190476Y-176272380D01*
X36285714Y-176320000D01*
X36333333Y-176367619D01*
X36380952Y-176462857D01*
X36428571Y-176653333D01*
X36428571Y-176891428D01*
X36380952Y-177081904D01*
X36333333Y-177177142D01*
X36285714Y-177224761D01*
X36190476Y-177272380D01*
X36095238Y-177272380D01*
X36000000Y-177224761D01*
X35952380Y-177177142D01*
X35904761Y-177081904D01*
X35857142Y-176891428D01*
X35857142Y-176653333D01*
X35904761Y-176462857D01*
X35952380Y-176367619D01*
X36000000Y-176320000D01*
X36095238Y-176272380D01*
X36714285Y-176272380D02*
X37047619Y-177272380D01*
X37380952Y-176272380D01*
D13*
X33250000Y-179035714D02*
X33178571Y-179107142D01*
X32964285Y-179178571D01*
X32821428Y-179178571D01*
X32607142Y-179107142D01*
X32464285Y-178964285D01*
X32392857Y-178821428D01*
X32321428Y-178535714D01*
X32321428Y-178321428D01*
X32392857Y-178035714D01*
X32464285Y-177892857D01*
X32607142Y-177750000D01*
X32821428Y-177678571D01*
X32964285Y-177678571D01*
X33178571Y-177750000D01*
X33250000Y-177821428D01*
X33750000Y-177678571D02*
X34750000Y-177678571D01*
X34107142Y-179178571D01*
G04 #@! TO.C,C1*
D12*
X37702380Y-159882380D02*
X37797619Y-159882380D01*
X37892857Y-159930000D01*
X37940476Y-159977619D01*
X37988095Y-160072857D01*
X38035714Y-160263333D01*
X38035714Y-160501428D01*
X37988095Y-160691904D01*
X37940476Y-160787142D01*
X37892857Y-160834761D01*
X37797619Y-160882380D01*
X37702380Y-160882380D01*
X37607142Y-160834761D01*
X37559523Y-160787142D01*
X37511904Y-160691904D01*
X37464285Y-160501428D01*
X37464285Y-160263333D01*
X37511904Y-160072857D01*
X37559523Y-159977619D01*
X37607142Y-159930000D01*
X37702380Y-159882380D01*
X38464285Y-160787142D02*
X38511904Y-160834761D01*
X38464285Y-160882380D01*
X38416666Y-160834761D01*
X38464285Y-160787142D01*
X38464285Y-160882380D01*
X39464285Y-160882380D02*
X38892857Y-160882380D01*
X39178571Y-160882380D02*
X39178571Y-159882380D01*
X39083333Y-160025238D01*
X38988095Y-160120476D01*
X38892857Y-160168095D01*
X40321428Y-160215714D02*
X40321428Y-160882380D01*
X39892857Y-160215714D02*
X39892857Y-160739523D01*
X39940476Y-160834761D01*
X40035714Y-160882380D01*
X40178571Y-160882380D01*
X40273809Y-160834761D01*
X40321428Y-160787142D01*
X41130952Y-160358571D02*
X40797619Y-160358571D01*
X40797619Y-160882380D02*
X40797619Y-159882380D01*
X41273809Y-159882380D01*
X42369047Y-159834761D02*
X41511904Y-161120476D01*
X43226190Y-160882380D02*
X42654761Y-160882380D01*
X42940476Y-160882380D02*
X42940476Y-159882380D01*
X42845238Y-160025238D01*
X42750000Y-160120476D01*
X42654761Y-160168095D01*
X43845238Y-159882380D02*
X43940476Y-159882380D01*
X44035714Y-159930000D01*
X44083333Y-159977619D01*
X44130952Y-160072857D01*
X44178571Y-160263333D01*
X44178571Y-160501428D01*
X44130952Y-160691904D01*
X44083333Y-160787142D01*
X44035714Y-160834761D01*
X43940476Y-160882380D01*
X43845238Y-160882380D01*
X43750000Y-160834761D01*
X43702380Y-160787142D01*
X43654761Y-160691904D01*
X43607142Y-160501428D01*
X43607142Y-160263333D01*
X43654761Y-160072857D01*
X43702380Y-159977619D01*
X43750000Y-159930000D01*
X43845238Y-159882380D01*
X44464285Y-159882380D02*
X44797619Y-160882380D01*
X45130952Y-159882380D01*
D13*
X41000000Y-159285714D02*
X40928571Y-159357142D01*
X40714285Y-159428571D01*
X40571428Y-159428571D01*
X40357142Y-159357142D01*
X40214285Y-159214285D01*
X40142857Y-159071428D01*
X40071428Y-158785714D01*
X40071428Y-158571428D01*
X40142857Y-158285714D01*
X40214285Y-158142857D01*
X40357142Y-158000000D01*
X40571428Y-157928571D01*
X40714285Y-157928571D01*
X40928571Y-158000000D01*
X41000000Y-158071428D01*
X42428571Y-159428571D02*
X41571428Y-159428571D01*
X42000000Y-159428571D02*
X42000000Y-157928571D01*
X41857142Y-158142857D01*
X41714285Y-158285714D01*
X41571428Y-158357142D01*
G04 #@! TD*
M02*
