M48
; DRILL file {KiCad 5.1.7-a382d34a8~88~ubuntu20.04.1} date Sun Apr 25 17:04:25 2021
; FORMAT={-:-/ absolute / metric / decimal}
; #@! TF.CreationDate,2021-04-25T17:04:25-07:00
; #@! TF.GenerationSoftware,Kicad,Pcbnew,5.1.7-a382d34a8~88~ubuntu20.04.1
FMAT,2
METRIC
T1C0.400
T2C0.500
T3C0.600
T4C0.800
T5C1.000
T6C4.000
T7C0.650
%
G90
G05
T1
X20.7Y-150.2
X20.7Y-151.2
X20.7Y-152.2
X23.0Y-148.25
X24.797Y-162.271
X25.0Y-44.5
X25.0Y-160.775
X25.255Y-137.4
X26.2Y-147.1
X26.255Y-137.398
X27.255Y-137.419
X27.5Y-166.3
X27.6Y-157.8
X27.7Y-155.0
X28.246Y-137.29
X29.158Y-137.7
X29.6Y-163.2
X30.05Y-138.153
X30.7Y-56.4
X30.7Y-57.7
X30.8Y-58.9
X30.8Y-60.3
X31.15Y-139.9
X31.167Y-150.669
X31.2Y-143.0
X31.5Y-82.4
X31.515Y-164.385
X32.2Y-133.4
X32.5Y-157.0
X33.2Y-79.7
X33.2Y-85.7
X33.2Y-160.4
X33.443Y-159.43
X33.475Y-157.224
X34.1Y-79.7
X34.1Y-85.7
X35.0Y-79.7
X35.0Y-85.7
X35.938Y-165.302
X35.949Y-167.299
X36.0Y-166.3
X36.725Y-164.044
X37.4Y-161.9
X37.7Y-147.5
X39.11Y-130.8
X39.9Y-175.8
X40.0Y-97.05
X40.0Y-107.75
X40.25Y-154.5
X40.5Y-126.0
X40.5Y-132.8
X42.2Y-131.4
X42.5Y-94.05
X42.5Y-105.2
X42.827Y-142.925
X42.9Y-135.2
X43.005Y-170.3
X43.4Y-176.5
X43.455Y-128.743
X43.5Y-122.25
X43.75Y-119.575
X43.787Y-169.65
X44.0Y-123.25
X44.0Y-166.25
X44.104Y-142.999
X44.396Y-175.65
X44.637Y-168.75
X44.668Y-119.075
X44.75Y-124.0
X44.763Y-120.525
X44.763Y-121.525
X45.0Y-97.05
X45.0Y-107.75
X45.201Y-143.107
X45.25Y-164.0
X45.25Y-165.0
X45.628Y-117.628
X45.698Y-168.254
X46.596Y-175.65
X46.603Y-117.851
X47.2Y-176.5
X47.5Y-94.05
X47.5Y-105.0
X47.5Y-118.5
X48.351Y-164.351
X50.0Y-97.05
X50.0Y-107.75
X50.0Y-119.25
X50.95Y-42.75
X51.1Y-45.2
X51.1Y-82.4
X51.25Y-120.0
X51.5Y-118.5
X52.5Y-94.05
X52.5Y-105.0
X52.75Y-120.75
X53.45Y-142.715
X53.5Y-96.5
X53.7Y-36.5
X53.75Y-121.5
X54.0Y-117.75
X54.506Y-142.192
X54.74Y-149.736
X54.8Y-154.6
X55.0Y-107.75
X55.2Y-136.9
X56.0Y-96.75
X56.0Y-99.25
X56.0Y-154.75
X56.3Y-163.9
X56.5Y-45.2
X56.5Y-117.0
X56.75Y-125.75
X57.15Y-143.25
X57.25Y-163.0
X57.5Y-94.05
X57.5Y-105.0
X58.25Y-143.25
X58.25Y-163.0
X58.5Y-96.0
X59.1Y-170.1
X59.25Y-119.0
X59.7Y-147.7
X60.25Y-121.25
X60.5Y-117.75
X61.24Y-158.855
X61.25Y-143.5
X61.5Y-120.0
X61.901Y-149.101
X62.177Y-44.322
X63.4Y-73.9
X63.4Y-80.5
X63.75Y-118.9
X63.8Y-34.0
X63.8Y-56.5
X63.801Y-39.001
X63.822Y-156.422
X64.0Y-31.8
X64.1Y-57.7
X64.25Y-117.75
X64.253Y-83.825
X64.3Y-58.9
X64.5Y-59.9
X65.235Y-156.435
X66.0Y-55.0
X66.3Y-61.0
X66.53Y-154.33
X66.601Y-137.899
X67.5Y-47.75
X67.72Y-154.78
X67.75Y-137.0
X68.0Y-139.0
X68.0Y-140.0
X68.0Y-145.25
X68.6Y-28.1
X68.8Y-77.7
X69.0Y-47.5
X69.15Y-119.474
X69.945Y-121.168
X70.0Y-124.0
X70.25Y-54.25
X70.25Y-123.0
X70.25Y-137.0
X70.5Y-122.0
X71.25Y-52.5
X71.25Y-97.5
X71.25Y-138.0
X71.4Y-158.5
X71.4Y-159.8
X71.4Y-161.1
X71.5Y-125.75
X71.975Y-98.75
X72.25Y-96.0
X72.25Y-139.0
X72.5Y-50.0
X73.0Y-140.0
X73.8Y-82.4
X74.0Y-49.52
X75.25Y-60.0
X75.6Y-76.0
X75.6Y-153.3
X76.63Y-103.0
X77.9Y-45.7
X78.154Y-82.846
X78.5Y-86.0
X79.1Y-60.0
X80.5Y-110.0
X80.565Y-81.26
X80.701Y-55.799
X81.6Y-70.9
X81.6Y-31.645
X81.75Y-52.25
X82.146Y-38.546
X82.3Y-33.717
X82.75Y-40.75
X82.75Y-51.22
X83.75Y-48.5
X83.79Y-82.51
X83.91Y-43.16
X84.117Y-75.9
X84.649Y-51.899
X84.75Y-44.5
X85.022Y-79.0
X85.126Y-64.524
X85.226Y-53.976
X85.3Y-71.1
X85.31Y-63.541
X85.6Y-56.0
X85.8Y-62.669
X86.0Y-47.0
X86.0Y-52.0
X86.15Y-66.201
X87.35Y-67.4
X88.5Y-164.0
X91.5Y-30.25
X91.5Y-81.66
X91.75Y-68.5
X91.863Y-74.49
X92.156Y-67.481
X92.5Y-29.6
X93.452Y-65.259
X93.5Y-29.6
X93.985Y-66.95
X94.275Y-71.275
X94.818Y-67.65
X95.771Y-68.274
X97.8Y-61.2
X99.416Y-76.359
X100.053Y-72.511
X100.226Y-47.25
X101.1Y-81.711
X101.374Y-52.677
X101.89Y-45.518
X101.926Y-47.191
X102.336Y-59.866
X103.851Y-83.349
X110.25Y-62.25
X110.9Y-58.5
X111.65Y-38.25
X113.776Y-55.324
X115.0Y-39.5
X115.75Y-42.25
X116.83Y-44.58
X117.88Y-47.12
X118.3Y-157.2
X118.7Y-41.0
X119.0Y-173.6
X119.2Y-156.3
X120.0Y-155.35
X120.3Y-174.7
X120.4Y-69.3
X121.0Y-153.2
X121.1Y-148.6
X121.1Y-149.8
X121.1Y-154.4
X121.341Y-147.241
X121.75Y-56.35
X122.158Y-59.332
X123.0Y-136.7
X123.75Y-23.0
X123.8Y-147.1
X123.9Y-148.6
X124.0Y-146.0
X124.0Y-149.8
X124.1Y-138.8
X124.1Y-153.2
X124.1Y-154.4
X124.654Y-91.5
X125.0Y-131.0
X125.055Y-141.345
X126.025Y-142.375
X126.217Y-91.5
X128.0Y-127.55
X129.0Y-92.0
X130.0Y-124.05
X130.25Y-67.5
X130.8Y-106.7
X132.0Y-120.55
X132.675Y-78.65
X133.0Y-91.1
X134.0Y-117.05
X135.1Y-90.0
X136.0Y-113.55
X137.0Y-41.0
X138.0Y-132.25
X139.25Y-160.75
X139.456Y-95.75
X140.5Y-69.75
X140.8Y-94.0
X140.825Y-97.475
X142.1Y-105.7
X142.25Y-178.25
X142.3Y-169.5
X143.0Y-23.0
X143.0Y-157.0
X143.4Y-92.6
X144.635Y-106.635
X144.7Y-104.3
X144.8Y-152.0
X144.815Y-70.954
X145.9Y-108.6
X146.77Y-102.28
X147.175Y-105.125
X147.75Y-62.25
X148.4Y-104.1
X148.612Y-102.4
X151.282Y-133.491
X154.625Y-78.9
X157.476Y-65.226
X166.0Y-52.75
X167.0Y-55.25
X167.5Y-57.5
X168.75Y-60.5
X169.25Y-63.0
X169.5Y-65.5
X170.25Y-68.0
X170.75Y-164.5
X174.0Y-162.5
T4
X89.0Y-33.0
X89.0Y-35.54
X89.0Y-38.08
X89.0Y-40.62
X89.0Y-43.16
X89.0Y-45.7
X89.0Y-48.24
X89.0Y-50.78
X89.0Y-53.32
X89.0Y-55.86
X89.0Y-58.4
X89.0Y-60.94
X89.0Y-63.48
X89.0Y-66.02
X89.0Y-68.56
X89.0Y-71.1
X89.0Y-73.64
X89.0Y-76.18
X89.0Y-78.72
X89.0Y-81.26
X104.24Y-33.0
X104.24Y-35.54
X104.24Y-38.08
X104.24Y-40.62
X104.24Y-43.16
X104.24Y-45.7
X104.24Y-48.24
X104.24Y-50.78
X104.24Y-53.32
X104.24Y-55.86
X104.24Y-58.4
X104.24Y-60.94
X104.24Y-63.48
X104.24Y-66.02
X104.24Y-68.56
X104.24Y-71.1
X104.24Y-73.64
X104.24Y-76.18
X104.24Y-78.72
X104.24Y-81.26
X127.8Y-35.67
X127.8Y-38.21
X127.8Y-40.75
X127.8Y-43.29
X127.8Y-45.83
X127.8Y-48.37
X127.8Y-50.91
X127.8Y-53.45
X127.8Y-55.99
X127.8Y-58.53
X127.8Y-61.07
X127.8Y-63.61
X127.8Y-66.15
X127.8Y-68.69
X143.04Y-35.67
X143.04Y-38.21
X143.04Y-40.75
X143.04Y-43.29
X143.04Y-45.83
X143.04Y-48.37
X143.04Y-50.91
X143.04Y-53.45
X143.04Y-55.99
X143.04Y-58.53
X143.04Y-61.07
X143.04Y-63.61
X143.04Y-66.15
X143.04Y-68.69
X153.42Y-93.38
X153.42Y-108.62
X155.96Y-93.38
X155.96Y-108.62
X158.5Y-93.38
X158.5Y-108.62
X161.04Y-93.38
X161.04Y-108.62
X163.58Y-93.38
X163.58Y-108.62
X77.38Y-128.64
X77.38Y-131.18
X77.38Y-133.72
X77.38Y-136.26
X77.38Y-138.8
X77.38Y-141.34
X77.38Y-143.88
X77.38Y-146.42
X77.38Y-148.96
X77.38Y-151.5
X85.0Y-128.64
X85.0Y-131.18
X85.0Y-133.72
X85.0Y-136.26
X85.0Y-138.8
X85.0Y-141.34
X85.0Y-143.88
X85.0Y-146.42
X85.0Y-148.96
X85.0Y-151.5
X48.13Y-47.38
X48.13Y-49.92
X48.13Y-52.46
X48.13Y-55.0
X55.75Y-47.38
X55.75Y-49.92
X55.75Y-52.46
X55.75Y-55.0
X40.03Y-86.9
X40.03Y-115.1
X42.57Y-86.9
X42.57Y-115.1
X45.11Y-86.9
X45.11Y-115.1
X47.65Y-86.9
X47.65Y-115.1
X50.19Y-86.9
X50.19Y-115.1
X52.73Y-86.9
X52.73Y-115.1
X55.27Y-86.9
X55.27Y-115.1
X57.81Y-86.9
X57.81Y-115.1
X60.35Y-86.9
X60.35Y-115.1
X62.89Y-86.9
X62.89Y-115.1
X65.43Y-86.9
X65.43Y-115.1
X67.97Y-86.9
X67.97Y-115.1
X108.55Y-35.67
X108.55Y-38.21
X108.55Y-40.75
X108.55Y-43.29
X108.55Y-45.83
X108.55Y-48.37
X108.55Y-50.91
X108.55Y-53.45
X108.55Y-55.99
X108.55Y-58.53
X108.55Y-61.07
X108.55Y-63.61
X108.55Y-66.15
X108.55Y-68.69
X123.79Y-35.67
X123.79Y-38.21
X123.79Y-40.75
X123.79Y-43.29
X123.79Y-45.83
X123.79Y-48.37
X123.79Y-50.91
X123.79Y-53.45
X123.79Y-55.99
X123.79Y-58.53
X123.79Y-61.07
X123.79Y-63.61
X123.79Y-66.15
X123.79Y-68.69
X107.15Y-93.38
X107.15Y-108.62
X109.69Y-93.38
X109.69Y-108.62
X112.23Y-93.38
X112.23Y-108.62
X114.77Y-93.38
X114.77Y-108.62
X117.31Y-93.38
X117.31Y-108.62
X119.85Y-93.38
X119.85Y-108.62
X48.13Y-69.13
X48.13Y-71.67
X48.13Y-74.21
X48.13Y-76.75
X55.75Y-69.13
X55.75Y-71.67
X55.75Y-74.21
X55.75Y-76.75
T5
X76.63Y-87.76
X76.63Y-103.0
X84.25Y-87.76
X84.25Y-103.0
X47.4Y-173.0
X49.94Y-173.0
X52.48Y-173.0
X55.02Y-173.0
X57.56Y-173.0
X60.1Y-173.0
X62.64Y-173.0
X65.18Y-173.0
X67.72Y-173.0
X70.26Y-173.0
X72.8Y-173.0
X75.34Y-173.0
X77.88Y-173.0
X80.42Y-173.0
X82.96Y-173.0
X85.5Y-173.0
X160.75Y-47.68
X160.75Y-50.22
X160.75Y-52.76
X160.75Y-55.3
X160.75Y-57.84
X160.75Y-60.38
X160.75Y-62.92
X160.75Y-65.46
X160.75Y-68.0
X151.5Y-27.36
X151.5Y-29.9
X151.5Y-32.44
X151.5Y-34.98
X151.5Y-37.52
X151.5Y-40.06
X151.5Y-42.6
X151.5Y-45.14
X151.5Y-47.68
X151.5Y-50.22
X151.5Y-52.76
X151.5Y-55.3
X151.5Y-57.84
X151.5Y-60.38
X151.5Y-62.92
X151.5Y-65.46
X151.5Y-68.0
X170.26Y-142.5
X172.8Y-142.5
X118.84Y-80.625
X121.38Y-80.625
X123.92Y-80.625
X126.46Y-80.625
X129.0Y-80.625
X131.54Y-80.625
X134.08Y-80.625
X136.62Y-80.625
X139.16Y-80.625
T6
X27.0Y-27.0
X27.0Y-173.0
X173.0Y-27.0
X173.0Y-173.0
T7
X25.31Y-159.11
X25.31Y-164.89
T2
G00X26.41Y-157.68
M15
G01X25.21Y-157.68
M16
G05
G00X26.41Y-166.32
M15
G01X25.21Y-166.32
M16
G05
T3
G00X21.93Y-157.68
M15
G01X21.33Y-157.68
M16
G05
G00X21.93Y-166.32
M15
G01X21.33Y-166.32
M16
G05
T0
M30
