G04 #@! TF.GenerationSoftware,KiCad,Pcbnew,5.1.7-a382d34a8~88~ubuntu20.04.1*
G04 #@! TF.CreationDate,2021-04-25T17:04:25-07:00*
G04 #@! TF.ProjectId,tec-1,7465632d-312e-46b6-9963-61645f706362,Apr2021*
G04 #@! TF.SameCoordinates,Original*
G04 #@! TF.FileFunction,Other,User*
%FSLAX46Y46*%
G04 Gerber Fmt 4.6, Leading zero omitted, Abs format (unit mm)*
G04 Created by KiCad (PCBNEW 5.1.7-a382d34a8~88~ubuntu20.04.1) date 2021-04-25 17:04:25*
%MOMM*%
%LPD*%
G01*
G04 APERTURE LIST*
%ADD10C,0.050000*%
%ADD11C,0.120000*%
G04 APERTURE END LIST*
D10*
G04 #@! TO.C,C21*
X75520000Y-97800000D02*
X75520000Y-101200000D01*
X77480000Y-97800000D02*
X75520000Y-97800000D01*
X77480000Y-101200000D02*
X77480000Y-97800000D01*
X75520000Y-101200000D02*
X77480000Y-101200000D01*
G04 #@! TO.C,U17*
X81800000Y-83800000D02*
X62700000Y-83800000D01*
X81800000Y-64700000D02*
X81800000Y-83800000D01*
X62700000Y-64700000D02*
X81800000Y-64700000D01*
X62700000Y-83800000D02*
X62700000Y-64700000D01*
G04 #@! TO.C,TP31*
X93400000Y-88600000D02*
G75*
G03*
X93400000Y-88600000I-1500000J0D01*
G01*
G04 #@! TO.C,TP30*
X93300000Y-85200000D02*
G75*
G03*
X93300000Y-85200000I-1500000J0D01*
G01*
G04 #@! TO.C,TP29*
X49800000Y-65800000D02*
G75*
G03*
X49800000Y-65800000I-1500000J0D01*
G01*
G04 #@! TO.C,TP28*
X56250000Y-65750000D02*
G75*
G03*
X56250000Y-65750000I-1500000J0D01*
G01*
G04 #@! TO.C,TP27*
X53000000Y-65750000D02*
G75*
G03*
X53000000Y-65750000I-1500000J0D01*
G01*
G04 #@! TO.C,R47*
X50320000Y-77700000D02*
X53680000Y-77700000D01*
X50320000Y-75800000D02*
X50320000Y-77700000D01*
X53680000Y-75800000D02*
X50320000Y-75800000D01*
X53680000Y-77700000D02*
X53680000Y-75800000D01*
G04 #@! TO.C,R46*
X50320000Y-75200000D02*
X53680000Y-75200000D01*
X50320000Y-73300000D02*
X50320000Y-75200000D01*
X53680000Y-73300000D02*
X50320000Y-73300000D01*
X53680000Y-75200000D02*
X53680000Y-73300000D01*
G04 #@! TO.C,R45*
X50320000Y-72700000D02*
X53680000Y-72700000D01*
X50320000Y-70800000D02*
X50320000Y-72700000D01*
X53680000Y-70800000D02*
X50320000Y-70800000D01*
X53680000Y-72700000D02*
X53680000Y-70800000D01*
G04 #@! TO.C,R44*
X50320000Y-70200000D02*
X53680000Y-70200000D01*
X50320000Y-68300000D02*
X50320000Y-70200000D01*
X53680000Y-68300000D02*
X50320000Y-68300000D01*
X53680000Y-70200000D02*
X53680000Y-68300000D01*
G04 #@! TO.C,R43*
X85200000Y-99930000D02*
X85200000Y-96570000D01*
X83300000Y-99930000D02*
X85200000Y-99930000D01*
X83300000Y-96570000D02*
X83300000Y-99930000D01*
X85200000Y-96570000D02*
X83300000Y-96570000D01*
G04 #@! TO.C,R42*
X77820000Y-100200000D02*
X81180000Y-100200000D01*
X77820000Y-98300000D02*
X77820000Y-100200000D01*
X81180000Y-98300000D02*
X77820000Y-98300000D01*
X81180000Y-100200000D02*
X81180000Y-98300000D01*
G04 #@! TO.C,J2*
X169600000Y-158600000D02*
X159400000Y-158600000D01*
X159400000Y-158600000D02*
X159400000Y-149400000D01*
X159400000Y-149400000D02*
X169600000Y-149400000D01*
X169600000Y-149400000D02*
X169600000Y-158600000D01*
D11*
G04 #@! TO.C,Q1*
X172500000Y-147000000D02*
X173000000Y-147000000D01*
X173000000Y-147000000D02*
X173000000Y-146000000D01*
X173000000Y-146000000D02*
X172500000Y-146000000D01*
X170000000Y-148250000D02*
X172500000Y-148250000D01*
X172500000Y-148250000D02*
X172500000Y-147000000D01*
X172500000Y-146000000D02*
X172500000Y-144750000D01*
X172500000Y-144750000D02*
X170000000Y-144750000D01*
X170000000Y-144750000D02*
X170000000Y-146000000D01*
X170000000Y-146000000D02*
X170750000Y-146000000D01*
X170750000Y-146000000D02*
X170750000Y-147000000D01*
X170750000Y-147000000D02*
X170000000Y-147000000D01*
X170000000Y-147000000D02*
X170000000Y-148250000D01*
D10*
G04 #@! TO.C,U16*
X40150000Y-136430000D02*
X26850000Y-136430000D01*
X26850000Y-136430000D02*
X26850000Y-124570000D01*
X26850000Y-124570000D02*
X40150000Y-124570000D01*
X40150000Y-124570000D02*
X40150000Y-136430000D01*
G04 #@! TO.C,U15*
X71150000Y-136430000D02*
X57850000Y-136430000D01*
X57850000Y-136430000D02*
X57850000Y-124570000D01*
X57850000Y-124570000D02*
X71150000Y-124570000D01*
X71150000Y-124570000D02*
X71150000Y-136430000D01*
G04 #@! TO.C,U14*
X56150000Y-136430000D02*
X42850000Y-136430000D01*
X42850000Y-136430000D02*
X42850000Y-124570000D01*
X42850000Y-124570000D02*
X56150000Y-124570000D01*
X56150000Y-124570000D02*
X56150000Y-136430000D01*
G04 #@! TO.C,U11*
X136150000Y-145430000D02*
X122850000Y-145430000D01*
X122850000Y-145430000D02*
X122850000Y-133570000D01*
X122850000Y-133570000D02*
X136150000Y-133570000D01*
X136150000Y-133570000D02*
X136150000Y-145430000D01*
G04 #@! TO.C,U10*
X150650000Y-145430000D02*
X137350000Y-145430000D01*
X137350000Y-145430000D02*
X137350000Y-133570000D01*
X137350000Y-133570000D02*
X150650000Y-133570000D01*
X150650000Y-133570000D02*
X150650000Y-145430000D01*
G04 #@! TO.C,U9*
X48950000Y-160550000D02*
X48950000Y-141450000D01*
X48950000Y-141450000D02*
X68050000Y-141450000D01*
X68050000Y-141450000D02*
X68050000Y-160550000D01*
X68050000Y-160550000D02*
X48950000Y-160550000D01*
G04 #@! TO.C,U2*
X57950000Y-25700000D02*
X77050000Y-25700000D01*
X77050000Y-25700000D02*
X77050000Y-44800000D01*
X77050000Y-44800000D02*
X57950000Y-44800000D01*
X57950000Y-44800000D02*
X57950000Y-25700000D01*
G04 #@! TO.C,U1*
X29450000Y-160550000D02*
X29450000Y-141450000D01*
X29450000Y-141450000D02*
X48550000Y-141450000D01*
X48550000Y-141450000D02*
X48550000Y-160550000D01*
X48550000Y-160550000D02*
X29450000Y-160550000D01*
G04 #@! TO.C,TP25*
X123000000Y-129500000D02*
G75*
G03*
X123000000Y-129500000I-1500000J0D01*
G01*
G04 #@! TO.C,TP24*
X40500000Y-167400000D02*
G75*
G03*
X40500000Y-167400000I-1500000J0D01*
G01*
G04 #@! TO.C,TP22*
X39100000Y-162100000D02*
G75*
G03*
X39100000Y-162100000I-1500000J0D01*
G01*
G04 #@! TO.C,TP18*
X57800000Y-40600000D02*
G75*
G03*
X57800000Y-40600000I-1500000J0D01*
G01*
G04 #@! TO.C,TP16*
X42300000Y-162100000D02*
G75*
G03*
X42300000Y-162100000I-1500000J0D01*
G01*
G04 #@! TO.C,TP13*
X70500000Y-50100000D02*
G75*
G03*
X70500000Y-50100000I-1500000J0D01*
G01*
G04 #@! TO.C,TP5*
X80100000Y-30500000D02*
G75*
G03*
X80100000Y-30500000I-1500000J0D01*
G01*
G04 #@! TO.C,TP3*
X80100000Y-36600000D02*
G75*
G03*
X80100000Y-36600000I-1500000J0D01*
G01*
G04 #@! TO.C,TP2*
X32500000Y-139900000D02*
G75*
G03*
X32500000Y-139900000I-1500000J0D01*
G01*
G04 #@! TO.C,TP1*
X27000000Y-145500000D02*
G75*
G03*
X27000000Y-145500000I-1500000J0D01*
G01*
G04 #@! TO.C,R41*
X58450000Y-88820000D02*
X56550000Y-88820000D01*
X56550000Y-88820000D02*
X56550000Y-92180000D01*
X56550000Y-92180000D02*
X58450000Y-92180000D01*
X58450000Y-92180000D02*
X58450000Y-88820000D01*
G04 #@! TO.C,R40*
X55950000Y-88820000D02*
X54050000Y-88820000D01*
X54050000Y-88820000D02*
X54050000Y-92180000D01*
X54050000Y-92180000D02*
X55950000Y-92180000D01*
X55950000Y-92180000D02*
X55950000Y-88820000D01*
G04 #@! TO.C,R39*
X53450000Y-88820000D02*
X51550000Y-88820000D01*
X51550000Y-88820000D02*
X51550000Y-92180000D01*
X51550000Y-92180000D02*
X53450000Y-92180000D01*
X53450000Y-92180000D02*
X53450000Y-88820000D01*
G04 #@! TO.C,R38*
X50950000Y-88820000D02*
X49050000Y-88820000D01*
X49050000Y-88820000D02*
X49050000Y-92180000D01*
X49050000Y-92180000D02*
X50950000Y-92180000D01*
X50950000Y-92180000D02*
X50950000Y-88820000D01*
G04 #@! TO.C,R37*
X48450000Y-88820000D02*
X46550000Y-88820000D01*
X46550000Y-88820000D02*
X46550000Y-92180000D01*
X46550000Y-92180000D02*
X48450000Y-92180000D01*
X48450000Y-92180000D02*
X48450000Y-88820000D01*
G04 #@! TO.C,R36*
X45950000Y-88820000D02*
X44050000Y-88820000D01*
X44050000Y-88820000D02*
X44050000Y-92180000D01*
X44050000Y-92180000D02*
X45950000Y-92180000D01*
X45950000Y-92180000D02*
X45950000Y-88820000D01*
G04 #@! TO.C,R35*
X43450000Y-88820000D02*
X41550000Y-88820000D01*
X41550000Y-88820000D02*
X41550000Y-92180000D01*
X41550000Y-92180000D02*
X43450000Y-92180000D01*
X43450000Y-92180000D02*
X43450000Y-88820000D01*
G04 #@! TO.C,R34*
X40950000Y-88820000D02*
X39050000Y-88820000D01*
X39050000Y-88820000D02*
X39050000Y-92180000D01*
X39050000Y-92180000D02*
X40950000Y-92180000D01*
X40950000Y-92180000D02*
X40950000Y-88820000D01*
G04 #@! TO.C,R33*
X56550000Y-113180000D02*
X58450000Y-113180000D01*
X58450000Y-113180000D02*
X58450000Y-109820000D01*
X58450000Y-109820000D02*
X56550000Y-109820000D01*
X56550000Y-109820000D02*
X56550000Y-113180000D01*
G04 #@! TO.C,R32*
X54050000Y-113180000D02*
X55950000Y-113180000D01*
X55950000Y-113180000D02*
X55950000Y-109820000D01*
X55950000Y-109820000D02*
X54050000Y-109820000D01*
X54050000Y-109820000D02*
X54050000Y-113180000D01*
G04 #@! TO.C,R31*
X51550000Y-113180000D02*
X53450000Y-113180000D01*
X53450000Y-113180000D02*
X53450000Y-109820000D01*
X53450000Y-109820000D02*
X51550000Y-109820000D01*
X51550000Y-109820000D02*
X51550000Y-113180000D01*
G04 #@! TO.C,R30*
X49050000Y-113180000D02*
X50950000Y-113180000D01*
X50950000Y-113180000D02*
X50950000Y-109820000D01*
X50950000Y-109820000D02*
X49050000Y-109820000D01*
X49050000Y-109820000D02*
X49050000Y-113180000D01*
G04 #@! TO.C,R29*
X46550000Y-113180000D02*
X48450000Y-113180000D01*
X48450000Y-113180000D02*
X48450000Y-109820000D01*
X48450000Y-109820000D02*
X46550000Y-109820000D01*
X46550000Y-109820000D02*
X46550000Y-113180000D01*
G04 #@! TO.C,R28*
X44050000Y-113180000D02*
X45950000Y-113180000D01*
X45950000Y-113180000D02*
X45950000Y-109820000D01*
X45950000Y-109820000D02*
X44050000Y-109820000D01*
X44050000Y-109820000D02*
X44050000Y-113180000D01*
G04 #@! TO.C,R27*
X41550000Y-113180000D02*
X43450000Y-113180000D01*
X43450000Y-113180000D02*
X43450000Y-109820000D01*
X43450000Y-109820000D02*
X41550000Y-109820000D01*
X41550000Y-109820000D02*
X41550000Y-113180000D01*
G04 #@! TO.C,R26*
X39050000Y-113180000D02*
X40950000Y-113180000D01*
X40950000Y-113180000D02*
X40950000Y-109820000D01*
X40950000Y-109820000D02*
X39050000Y-109820000D01*
X39050000Y-109820000D02*
X39050000Y-113180000D01*
G04 #@! TO.C,R25*
X135950000Y-107320000D02*
X134050000Y-107320000D01*
X134050000Y-107320000D02*
X134050000Y-110680000D01*
X134050000Y-110680000D02*
X135950000Y-110680000D01*
X135950000Y-110680000D02*
X135950000Y-107320000D01*
G04 #@! TO.C,R24*
X50950000Y-167820000D02*
X49050000Y-167820000D01*
X49050000Y-167820000D02*
X49050000Y-171180000D01*
X49050000Y-171180000D02*
X50950000Y-171180000D01*
X50950000Y-171180000D02*
X50950000Y-167820000D01*
G04 #@! TO.C,R23*
X133950000Y-107320000D02*
X132050000Y-107320000D01*
X132050000Y-107320000D02*
X132050000Y-110680000D01*
X132050000Y-110680000D02*
X133950000Y-110680000D01*
X133950000Y-110680000D02*
X133950000Y-107320000D01*
G04 #@! TO.C,R22*
X131950000Y-107320000D02*
X130050000Y-107320000D01*
X130050000Y-107320000D02*
X130050000Y-110680000D01*
X130050000Y-110680000D02*
X131950000Y-110680000D01*
X131950000Y-110680000D02*
X131950000Y-107320000D01*
G04 #@! TO.C,R21*
X129950000Y-107320000D02*
X128050000Y-107320000D01*
X128050000Y-107320000D02*
X128050000Y-110680000D01*
X128050000Y-110680000D02*
X129950000Y-110680000D01*
X129950000Y-110680000D02*
X129950000Y-107320000D01*
G04 #@! TO.C,R20*
X127950000Y-107320000D02*
X126050000Y-107320000D01*
X126050000Y-107320000D02*
X126050000Y-110680000D01*
X126050000Y-110680000D02*
X127950000Y-110680000D01*
X127950000Y-110680000D02*
X127950000Y-107320000D01*
G04 #@! TO.C,R19*
X125950000Y-107320000D02*
X124050000Y-107320000D01*
X124050000Y-107320000D02*
X124050000Y-110680000D01*
X124050000Y-110680000D02*
X125950000Y-110680000D01*
X125950000Y-110680000D02*
X125950000Y-107320000D01*
G04 #@! TO.C,R18*
X165640000Y-146550000D02*
X165640000Y-148450000D01*
X165640000Y-148450000D02*
X169000000Y-148450000D01*
X169000000Y-148450000D02*
X169000000Y-146550000D01*
X169000000Y-146550000D02*
X165640000Y-146550000D01*
G04 #@! TO.C,R17*
X171550000Y-158180000D02*
X173450000Y-158180000D01*
X173450000Y-158180000D02*
X173450000Y-154820000D01*
X173450000Y-154820000D02*
X171550000Y-154820000D01*
X171550000Y-154820000D02*
X171550000Y-158180000D01*
G04 #@! TO.C,R16*
X169820000Y-152050000D02*
X169820000Y-153950000D01*
X169820000Y-153950000D02*
X173180000Y-153950000D01*
X173180000Y-153950000D02*
X173180000Y-152050000D01*
X173180000Y-152050000D02*
X169820000Y-152050000D01*
G04 #@! TO.C,R15*
X26050000Y-155680000D02*
X27950000Y-155680000D01*
X27950000Y-155680000D02*
X27950000Y-152320000D01*
X27950000Y-152320000D02*
X26050000Y-152320000D01*
X26050000Y-152320000D02*
X26050000Y-155680000D01*
G04 #@! TO.C,R12*
X78050000Y-115180000D02*
X79950000Y-115180000D01*
X79950000Y-115180000D02*
X79950000Y-111820000D01*
X79950000Y-111820000D02*
X78050000Y-111820000D01*
X78050000Y-111820000D02*
X78050000Y-115180000D01*
G04 #@! TO.C,R11*
X137820000Y-40050000D02*
X137820000Y-41950000D01*
X137820000Y-41950000D02*
X141180000Y-41950000D01*
X141180000Y-41950000D02*
X141180000Y-40050000D01*
X141180000Y-40050000D02*
X137820000Y-40050000D01*
G04 #@! TO.C,R10*
X118820000Y-40050000D02*
X118820000Y-41950000D01*
X118820000Y-41950000D02*
X122180000Y-41950000D01*
X122180000Y-41950000D02*
X122180000Y-40050000D01*
X122180000Y-40050000D02*
X118820000Y-40050000D01*
G04 #@! TO.C,R9*
X71150000Y-55020000D02*
X69250000Y-55020000D01*
X69250000Y-55020000D02*
X69250000Y-58380000D01*
X69250000Y-58380000D02*
X71150000Y-58380000D01*
X71150000Y-58380000D02*
X71150000Y-55020000D01*
G04 #@! TO.C,R8*
X53680000Y-55950000D02*
X53680000Y-54050000D01*
X53680000Y-54050000D02*
X50320000Y-54050000D01*
X50320000Y-54050000D02*
X50320000Y-55950000D01*
X50320000Y-55950000D02*
X53680000Y-55950000D01*
G04 #@! TO.C,R7*
X53680000Y-53450000D02*
X53680000Y-51550000D01*
X53680000Y-51550000D02*
X50320000Y-51550000D01*
X50320000Y-51550000D02*
X50320000Y-53450000D01*
X50320000Y-53450000D02*
X53680000Y-53450000D01*
G04 #@! TO.C,R6*
X53680000Y-50950000D02*
X53680000Y-49050000D01*
X53680000Y-49050000D02*
X50320000Y-49050000D01*
X50320000Y-49050000D02*
X50320000Y-50950000D01*
X50320000Y-50950000D02*
X53680000Y-50950000D01*
G04 #@! TO.C,R5*
X53680000Y-48450000D02*
X53680000Y-46550000D01*
X53680000Y-46550000D02*
X50320000Y-46550000D01*
X50320000Y-46550000D02*
X50320000Y-48450000D01*
X50320000Y-48450000D02*
X53680000Y-48450000D01*
G04 #@! TO.C,R4*
X101930000Y-72200000D02*
X101930000Y-70300000D01*
X101930000Y-70300000D02*
X98570000Y-70300000D01*
X98570000Y-70300000D02*
X98570000Y-72200000D01*
X98570000Y-72200000D02*
X101930000Y-72200000D01*
G04 #@! TO.C,R3*
X106570000Y-70800000D02*
X106570000Y-72700000D01*
X106570000Y-72700000D02*
X109930000Y-72700000D01*
X109930000Y-72700000D02*
X109930000Y-70800000D01*
X109930000Y-70800000D02*
X106570000Y-70800000D01*
G04 #@! TO.C,R2*
X106570000Y-73300000D02*
X106570000Y-75200000D01*
X106570000Y-75200000D02*
X109930000Y-75200000D01*
X109930000Y-75200000D02*
X109930000Y-73300000D01*
X109930000Y-73300000D02*
X106570000Y-73300000D01*
D11*
G04 #@! TO.C,Q23*
X50500000Y-96000000D02*
X50500000Y-95500000D01*
X50500000Y-95500000D02*
X49500000Y-95500000D01*
X49500000Y-95500000D02*
X49500000Y-96000000D01*
X51750000Y-98500000D02*
X51750000Y-96000000D01*
X51750000Y-96000000D02*
X50500000Y-96000000D01*
X49500000Y-96000000D02*
X48250000Y-96000000D01*
X48250000Y-96000000D02*
X48250000Y-98500000D01*
X48250000Y-98500000D02*
X49500000Y-98500000D01*
X49500000Y-98500000D02*
X49500000Y-97750000D01*
X49500000Y-97750000D02*
X50500000Y-97750000D01*
X50500000Y-97750000D02*
X50500000Y-98500000D01*
X50500000Y-98500000D02*
X51750000Y-98500000D01*
G04 #@! TO.C,Q22*
X40500000Y-96000000D02*
X40500000Y-95500000D01*
X40500000Y-95500000D02*
X39500000Y-95500000D01*
X39500000Y-95500000D02*
X39500000Y-96000000D01*
X41750000Y-98500000D02*
X41750000Y-96000000D01*
X41750000Y-96000000D02*
X40500000Y-96000000D01*
X39500000Y-96000000D02*
X38250000Y-96000000D01*
X38250000Y-96000000D02*
X38250000Y-98500000D01*
X38250000Y-98500000D02*
X39500000Y-98500000D01*
X39500000Y-98500000D02*
X39500000Y-97750000D01*
X39500000Y-97750000D02*
X40500000Y-97750000D01*
X40500000Y-97750000D02*
X40500000Y-98500000D01*
X40500000Y-98500000D02*
X41750000Y-98500000D01*
G04 #@! TO.C,Q21*
X53000000Y-93000000D02*
X53000000Y-92500000D01*
X53000000Y-92500000D02*
X52000000Y-92500000D01*
X52000000Y-92500000D02*
X52000000Y-93000000D01*
X54250000Y-95500000D02*
X54250000Y-93000000D01*
X54250000Y-93000000D02*
X53000000Y-93000000D01*
X52000000Y-93000000D02*
X50750000Y-93000000D01*
X50750000Y-93000000D02*
X50750000Y-95500000D01*
X50750000Y-95500000D02*
X52000000Y-95500000D01*
X52000000Y-95500000D02*
X52000000Y-94750000D01*
X52000000Y-94750000D02*
X53000000Y-94750000D01*
X53000000Y-94750000D02*
X53000000Y-95500000D01*
X53000000Y-95500000D02*
X54250000Y-95500000D01*
G04 #@! TO.C,Q20*
X43000000Y-93000000D02*
X43000000Y-92500000D01*
X43000000Y-92500000D02*
X42000000Y-92500000D01*
X42000000Y-92500000D02*
X42000000Y-93000000D01*
X44250000Y-95500000D02*
X44250000Y-93000000D01*
X44250000Y-93000000D02*
X43000000Y-93000000D01*
X42000000Y-93000000D02*
X40750000Y-93000000D01*
X40750000Y-93000000D02*
X40750000Y-95500000D01*
X40750000Y-95500000D02*
X42000000Y-95500000D01*
X42000000Y-95500000D02*
X42000000Y-94750000D01*
X42000000Y-94750000D02*
X43000000Y-94750000D01*
X43000000Y-94750000D02*
X43000000Y-95500000D01*
X43000000Y-95500000D02*
X44250000Y-95500000D01*
G04 #@! TO.C,Q19*
X55500000Y-96000000D02*
X55500000Y-95500000D01*
X55500000Y-95500000D02*
X54500000Y-95500000D01*
X54500000Y-95500000D02*
X54500000Y-96000000D01*
X56750000Y-98500000D02*
X56750000Y-96000000D01*
X56750000Y-96000000D02*
X55500000Y-96000000D01*
X54500000Y-96000000D02*
X53250000Y-96000000D01*
X53250000Y-96000000D02*
X53250000Y-98500000D01*
X53250000Y-98500000D02*
X54500000Y-98500000D01*
X54500000Y-98500000D02*
X54500000Y-97750000D01*
X54500000Y-97750000D02*
X55500000Y-97750000D01*
X55500000Y-97750000D02*
X55500000Y-98500000D01*
X55500000Y-98500000D02*
X56750000Y-98500000D01*
G04 #@! TO.C,Q18*
X45500000Y-96000000D02*
X45500000Y-95500000D01*
X45500000Y-95500000D02*
X44500000Y-95500000D01*
X44500000Y-95500000D02*
X44500000Y-96000000D01*
X46750000Y-98500000D02*
X46750000Y-96000000D01*
X46750000Y-96000000D02*
X45500000Y-96000000D01*
X44500000Y-96000000D02*
X43250000Y-96000000D01*
X43250000Y-96000000D02*
X43250000Y-98500000D01*
X43250000Y-98500000D02*
X44500000Y-98500000D01*
X44500000Y-98500000D02*
X44500000Y-97750000D01*
X44500000Y-97750000D02*
X45500000Y-97750000D01*
X45500000Y-97750000D02*
X45500000Y-98500000D01*
X45500000Y-98500000D02*
X46750000Y-98500000D01*
G04 #@! TO.C,Q17*
X58000000Y-93000000D02*
X58000000Y-92500000D01*
X58000000Y-92500000D02*
X57000000Y-92500000D01*
X57000000Y-92500000D02*
X57000000Y-93000000D01*
X59250000Y-95500000D02*
X59250000Y-93000000D01*
X59250000Y-93000000D02*
X58000000Y-93000000D01*
X57000000Y-93000000D02*
X55750000Y-93000000D01*
X55750000Y-93000000D02*
X55750000Y-95500000D01*
X55750000Y-95500000D02*
X57000000Y-95500000D01*
X57000000Y-95500000D02*
X57000000Y-94750000D01*
X57000000Y-94750000D02*
X58000000Y-94750000D01*
X58000000Y-94750000D02*
X58000000Y-95500000D01*
X58000000Y-95500000D02*
X59250000Y-95500000D01*
G04 #@! TO.C,Q16*
X48000000Y-93000000D02*
X48000000Y-92500000D01*
X48000000Y-92500000D02*
X47000000Y-92500000D01*
X47000000Y-92500000D02*
X47000000Y-93000000D01*
X49250000Y-95500000D02*
X49250000Y-93000000D01*
X49250000Y-93000000D02*
X48000000Y-93000000D01*
X47000000Y-93000000D02*
X45750000Y-93000000D01*
X45750000Y-93000000D02*
X45750000Y-95500000D01*
X45750000Y-95500000D02*
X47000000Y-95500000D01*
X47000000Y-95500000D02*
X47000000Y-94750000D01*
X47000000Y-94750000D02*
X48000000Y-94750000D01*
X48000000Y-94750000D02*
X48000000Y-95500000D01*
X48000000Y-95500000D02*
X49250000Y-95500000D01*
G04 #@! TO.C,Q15*
X57000000Y-106250000D02*
X57000000Y-106750000D01*
X57000000Y-106750000D02*
X58000000Y-106750000D01*
X58000000Y-106750000D02*
X58000000Y-106250000D01*
X55750000Y-103750000D02*
X55750000Y-106250000D01*
X55750000Y-106250000D02*
X57000000Y-106250000D01*
X58000000Y-106250000D02*
X59250000Y-106250000D01*
X59250000Y-106250000D02*
X59250000Y-103750000D01*
X59250000Y-103750000D02*
X58000000Y-103750000D01*
X58000000Y-103750000D02*
X58000000Y-104500000D01*
X58000000Y-104500000D02*
X57000000Y-104500000D01*
X57000000Y-104500000D02*
X57000000Y-103750000D01*
X57000000Y-103750000D02*
X55750000Y-103750000D01*
G04 #@! TO.C,Q14*
X47000000Y-106250000D02*
X47000000Y-106750000D01*
X47000000Y-106750000D02*
X48000000Y-106750000D01*
X48000000Y-106750000D02*
X48000000Y-106250000D01*
X45750000Y-103750000D02*
X45750000Y-106250000D01*
X45750000Y-106250000D02*
X47000000Y-106250000D01*
X48000000Y-106250000D02*
X49250000Y-106250000D01*
X49250000Y-106250000D02*
X49250000Y-103750000D01*
X49250000Y-103750000D02*
X48000000Y-103750000D01*
X48000000Y-103750000D02*
X48000000Y-104500000D01*
X48000000Y-104500000D02*
X47000000Y-104500000D01*
X47000000Y-104500000D02*
X47000000Y-103750000D01*
X47000000Y-103750000D02*
X45750000Y-103750000D01*
G04 #@! TO.C,Q13*
X54500000Y-109000000D02*
X54500000Y-109500000D01*
X54500000Y-109500000D02*
X55500000Y-109500000D01*
X55500000Y-109500000D02*
X55500000Y-109000000D01*
X53250000Y-106500000D02*
X53250000Y-109000000D01*
X53250000Y-109000000D02*
X54500000Y-109000000D01*
X55500000Y-109000000D02*
X56750000Y-109000000D01*
X56750000Y-109000000D02*
X56750000Y-106500000D01*
X56750000Y-106500000D02*
X55500000Y-106500000D01*
X55500000Y-106500000D02*
X55500000Y-107250000D01*
X55500000Y-107250000D02*
X54500000Y-107250000D01*
X54500000Y-107250000D02*
X54500000Y-106500000D01*
X54500000Y-106500000D02*
X53250000Y-106500000D01*
G04 #@! TO.C,Q12*
X44500000Y-109000000D02*
X44500000Y-109500000D01*
X44500000Y-109500000D02*
X45500000Y-109500000D01*
X45500000Y-109500000D02*
X45500000Y-109000000D01*
X43250000Y-106500000D02*
X43250000Y-109000000D01*
X43250000Y-109000000D02*
X44500000Y-109000000D01*
X45500000Y-109000000D02*
X46750000Y-109000000D01*
X46750000Y-109000000D02*
X46750000Y-106500000D01*
X46750000Y-106500000D02*
X45500000Y-106500000D01*
X45500000Y-106500000D02*
X45500000Y-107250000D01*
X45500000Y-107250000D02*
X44500000Y-107250000D01*
X44500000Y-107250000D02*
X44500000Y-106500000D01*
X44500000Y-106500000D02*
X43250000Y-106500000D01*
G04 #@! TO.C,Q11*
X52000000Y-106250000D02*
X52000000Y-106750000D01*
X52000000Y-106750000D02*
X53000000Y-106750000D01*
X53000000Y-106750000D02*
X53000000Y-106250000D01*
X50750000Y-103750000D02*
X50750000Y-106250000D01*
X50750000Y-106250000D02*
X52000000Y-106250000D01*
X53000000Y-106250000D02*
X54250000Y-106250000D01*
X54250000Y-106250000D02*
X54250000Y-103750000D01*
X54250000Y-103750000D02*
X53000000Y-103750000D01*
X53000000Y-103750000D02*
X53000000Y-104500000D01*
X53000000Y-104500000D02*
X52000000Y-104500000D01*
X52000000Y-104500000D02*
X52000000Y-103750000D01*
X52000000Y-103750000D02*
X50750000Y-103750000D01*
G04 #@! TO.C,Q10*
X42000000Y-106250000D02*
X42000000Y-106750000D01*
X42000000Y-106750000D02*
X43000000Y-106750000D01*
X43000000Y-106750000D02*
X43000000Y-106250000D01*
X40750000Y-103750000D02*
X40750000Y-106250000D01*
X40750000Y-106250000D02*
X42000000Y-106250000D01*
X43000000Y-106250000D02*
X44250000Y-106250000D01*
X44250000Y-106250000D02*
X44250000Y-103750000D01*
X44250000Y-103750000D02*
X43000000Y-103750000D01*
X43000000Y-103750000D02*
X43000000Y-104500000D01*
X43000000Y-104500000D02*
X42000000Y-104500000D01*
X42000000Y-104500000D02*
X42000000Y-103750000D01*
X42000000Y-103750000D02*
X40750000Y-103750000D01*
G04 #@! TO.C,Q9*
X49500000Y-109000000D02*
X49500000Y-109500000D01*
X49500000Y-109500000D02*
X50500000Y-109500000D01*
X50500000Y-109500000D02*
X50500000Y-109000000D01*
X48250000Y-106500000D02*
X48250000Y-109000000D01*
X48250000Y-109000000D02*
X49500000Y-109000000D01*
X50500000Y-109000000D02*
X51750000Y-109000000D01*
X51750000Y-109000000D02*
X51750000Y-106500000D01*
X51750000Y-106500000D02*
X50500000Y-106500000D01*
X50500000Y-106500000D02*
X50500000Y-107250000D01*
X50500000Y-107250000D02*
X49500000Y-107250000D01*
X49500000Y-107250000D02*
X49500000Y-106500000D01*
X49500000Y-106500000D02*
X48250000Y-106500000D01*
G04 #@! TO.C,Q8*
X39500000Y-109000000D02*
X39500000Y-109500000D01*
X39500000Y-109500000D02*
X40500000Y-109500000D01*
X40500000Y-109500000D02*
X40500000Y-109000000D01*
X38250000Y-106500000D02*
X38250000Y-109000000D01*
X38250000Y-109000000D02*
X39500000Y-109000000D01*
X40500000Y-109000000D02*
X41750000Y-109000000D01*
X41750000Y-109000000D02*
X41750000Y-106500000D01*
X41750000Y-106500000D02*
X40500000Y-106500000D01*
X40500000Y-106500000D02*
X40500000Y-107250000D01*
X40500000Y-107250000D02*
X39500000Y-107250000D01*
X39500000Y-107250000D02*
X39500000Y-106500000D01*
X39500000Y-106500000D02*
X38250000Y-106500000D01*
G04 #@! TO.C,Q7*
X136500000Y-112500000D02*
X136500000Y-112000000D01*
X136500000Y-112000000D02*
X135500000Y-112000000D01*
X135500000Y-112000000D02*
X135500000Y-112500000D01*
X137750000Y-115000000D02*
X137750000Y-112500000D01*
X137750000Y-112500000D02*
X136500000Y-112500000D01*
X135500000Y-112500000D02*
X134250000Y-112500000D01*
X134250000Y-112500000D02*
X134250000Y-115000000D01*
X134250000Y-115000000D02*
X135500000Y-115000000D01*
X135500000Y-115000000D02*
X135500000Y-114250000D01*
X135500000Y-114250000D02*
X136500000Y-114250000D01*
X136500000Y-114250000D02*
X136500000Y-115000000D01*
X136500000Y-115000000D02*
X137750000Y-115000000D01*
G04 #@! TO.C,Q6*
X134500000Y-116000000D02*
X134500000Y-115500000D01*
X134500000Y-115500000D02*
X133500000Y-115500000D01*
X133500000Y-115500000D02*
X133500000Y-116000000D01*
X135750000Y-118500000D02*
X135750000Y-116000000D01*
X135750000Y-116000000D02*
X134500000Y-116000000D01*
X133500000Y-116000000D02*
X132250000Y-116000000D01*
X132250000Y-116000000D02*
X132250000Y-118500000D01*
X132250000Y-118500000D02*
X133500000Y-118500000D01*
X133500000Y-118500000D02*
X133500000Y-117750000D01*
X133500000Y-117750000D02*
X134500000Y-117750000D01*
X134500000Y-117750000D02*
X134500000Y-118500000D01*
X134500000Y-118500000D02*
X135750000Y-118500000D01*
G04 #@! TO.C,Q5*
X132500000Y-119500000D02*
X132500000Y-119000000D01*
X132500000Y-119000000D02*
X131500000Y-119000000D01*
X131500000Y-119000000D02*
X131500000Y-119500000D01*
X133750000Y-122000000D02*
X133750000Y-119500000D01*
X133750000Y-119500000D02*
X132500000Y-119500000D01*
X131500000Y-119500000D02*
X130250000Y-119500000D01*
X130250000Y-119500000D02*
X130250000Y-122000000D01*
X130250000Y-122000000D02*
X131500000Y-122000000D01*
X131500000Y-122000000D02*
X131500000Y-121250000D01*
X131500000Y-121250000D02*
X132500000Y-121250000D01*
X132500000Y-121250000D02*
X132500000Y-122000000D01*
X132500000Y-122000000D02*
X133750000Y-122000000D01*
G04 #@! TO.C,Q4*
X130500000Y-123000000D02*
X130500000Y-122500000D01*
X130500000Y-122500000D02*
X129500000Y-122500000D01*
X129500000Y-122500000D02*
X129500000Y-123000000D01*
X131750000Y-125500000D02*
X131750000Y-123000000D01*
X131750000Y-123000000D02*
X130500000Y-123000000D01*
X129500000Y-123000000D02*
X128250000Y-123000000D01*
X128250000Y-123000000D02*
X128250000Y-125500000D01*
X128250000Y-125500000D02*
X129500000Y-125500000D01*
X129500000Y-125500000D02*
X129500000Y-124750000D01*
X129500000Y-124750000D02*
X130500000Y-124750000D01*
X130500000Y-124750000D02*
X130500000Y-125500000D01*
X130500000Y-125500000D02*
X131750000Y-125500000D01*
G04 #@! TO.C,Q3*
X128500000Y-126500000D02*
X128500000Y-126000000D01*
X128500000Y-126000000D02*
X127500000Y-126000000D01*
X127500000Y-126000000D02*
X127500000Y-126500000D01*
X129750000Y-129000000D02*
X129750000Y-126500000D01*
X129750000Y-126500000D02*
X128500000Y-126500000D01*
X127500000Y-126500000D02*
X126250000Y-126500000D01*
X126250000Y-126500000D02*
X126250000Y-129000000D01*
X126250000Y-129000000D02*
X127500000Y-129000000D01*
X127500000Y-129000000D02*
X127500000Y-128250000D01*
X127500000Y-128250000D02*
X128500000Y-128250000D01*
X128500000Y-128250000D02*
X128500000Y-129000000D01*
X128500000Y-129000000D02*
X129750000Y-129000000D01*
G04 #@! TO.C,Q2*
X126500000Y-130000000D02*
X126500000Y-129500000D01*
X126500000Y-129500000D02*
X125500000Y-129500000D01*
X125500000Y-129500000D02*
X125500000Y-130000000D01*
X127750000Y-132500000D02*
X127750000Y-130000000D01*
X127750000Y-130000000D02*
X126500000Y-130000000D01*
X125500000Y-130000000D02*
X124250000Y-130000000D01*
X124250000Y-130000000D02*
X124250000Y-132500000D01*
X124250000Y-132500000D02*
X125500000Y-132500000D01*
X125500000Y-132500000D02*
X125500000Y-131750000D01*
X125500000Y-131750000D02*
X126500000Y-131750000D01*
X126500000Y-131750000D02*
X126500000Y-132500000D01*
X126500000Y-132500000D02*
X127750000Y-132500000D01*
D10*
G04 #@! TO.C,C16*
X152300000Y-129020000D02*
X152300000Y-130980000D01*
X152300000Y-130980000D02*
X155700000Y-130980000D01*
X155700000Y-130980000D02*
X155700000Y-129020000D01*
X155700000Y-129020000D02*
X152300000Y-129020000D01*
G04 #@! TO.C,C15*
X135800000Y-129020000D02*
X135800000Y-130980000D01*
X135800000Y-130980000D02*
X139200000Y-130980000D01*
X139200000Y-130980000D02*
X139200000Y-129020000D01*
X139200000Y-129020000D02*
X135800000Y-129020000D01*
G04 #@! TO.C,C14*
X83200000Y-139480000D02*
X83200000Y-137520000D01*
X83200000Y-137520000D02*
X79800000Y-137520000D01*
X79800000Y-137520000D02*
X79800000Y-139480000D01*
X79800000Y-139480000D02*
X83200000Y-139480000D01*
G04 #@! TO.C,C13*
X60730000Y-160800000D02*
X58770000Y-160800000D01*
X58770000Y-160800000D02*
X58770000Y-164200000D01*
X58770000Y-164200000D02*
X60730000Y-164200000D01*
X60730000Y-164200000D02*
X60730000Y-160800000D01*
G04 #@! TO.C,C12*
X83200000Y-136980000D02*
X83200000Y-135020000D01*
X83200000Y-135020000D02*
X79800000Y-135020000D01*
X79800000Y-135020000D02*
X79800000Y-136980000D01*
X79800000Y-136980000D02*
X83200000Y-136980000D01*
G04 #@! TO.C,C11*
X79300000Y-150520000D02*
X79300000Y-152480000D01*
X79300000Y-152480000D02*
X82700000Y-152480000D01*
X82700000Y-152480000D02*
X82700000Y-150520000D01*
X82700000Y-150520000D02*
X79300000Y-150520000D01*
G04 #@! TO.C,C6*
X141200000Y-36480000D02*
X141200000Y-34520000D01*
X141200000Y-34520000D02*
X137800000Y-34520000D01*
X137800000Y-34520000D02*
X137800000Y-36480000D01*
X137800000Y-36480000D02*
X141200000Y-36480000D01*
G04 #@! TO.C,C5*
X122200000Y-36480000D02*
X122200000Y-34520000D01*
X122200000Y-34520000D02*
X118800000Y-34520000D01*
X118800000Y-34520000D02*
X118800000Y-36480000D01*
X118800000Y-36480000D02*
X122200000Y-36480000D01*
G04 #@! TO.C,C4*
X69700000Y-46980000D02*
X69700000Y-45020000D01*
X69700000Y-45020000D02*
X66300000Y-45020000D01*
X66300000Y-45020000D02*
X66300000Y-46980000D01*
X66300000Y-46980000D02*
X69700000Y-46980000D01*
G04 #@! TO.C,C3*
X90800000Y-57520000D02*
X90800000Y-59480000D01*
X90800000Y-59480000D02*
X94200000Y-59480000D01*
X94200000Y-59480000D02*
X94200000Y-57520000D01*
X94200000Y-57520000D02*
X90800000Y-57520000D01*
G04 #@! TO.C,C2*
X57450000Y-37480000D02*
X57450000Y-35520000D01*
X57450000Y-35520000D02*
X54050000Y-35520000D01*
X54050000Y-35520000D02*
X54050000Y-37480000D01*
X54050000Y-37480000D02*
X57450000Y-37480000D01*
G04 #@! TD*
M02*
