G04 #@! TF.GenerationSoftware,KiCad,Pcbnew,5.1.7-a382d34a8~88~ubuntu20.04.1*
G04 #@! TF.CreationDate,2021-04-25T17:04:25-07:00*
G04 #@! TF.ProjectId,tec-1,7465632d-312e-46b6-9963-61645f706362,Apr2021*
G04 #@! TF.SameCoordinates,Original*
G04 #@! TF.FileFunction,Soldermask,Top*
G04 #@! TF.FilePolarity,Negative*
%FSLAX46Y46*%
G04 Gerber Fmt 4.6, Leading zero omitted, Abs format (unit mm)*
G04 Created by KiCad (PCBNEW 5.1.7-a382d34a8~88~ubuntu20.04.1) date 2021-04-25 17:04:25*
%MOMM*%
%LPD*%
G01*
G04 APERTURE LIST*
%ADD10O,1.700000X2.600000*%
%ADD11R,1.700000X2.600000*%
%ADD12R,1.600000X1.500000*%
%ADD13R,1.200000X1.200000*%
%ADD14C,2.500000*%
%ADD15R,2.500000X2.500000*%
%ADD16O,2.400000X1.600000*%
%ADD17R,2.400000X1.600000*%
%ADD18R,3.000000X1.500000*%
%ADD19R,1.925000X0.700000*%
%ADD20R,0.700000X1.925000*%
%ADD21O,2.600000X1.700000*%
%ADD22R,2.600000X1.700000*%
%ADD23O,1.500000X2.500000*%
%ADD24R,1.500000X2.500000*%
%ADD25R,1.750000X0.450000*%
%ADD26R,1.500000X3.000000*%
%ADD27R,1.750000X0.300000*%
%ADD28C,0.650000*%
%ADD29O,2.100000X0.900000*%
%ADD30O,1.600000X1.000000*%
G04 APERTURE END LIST*
D10*
G04 #@! TO.C,J7*
X139160000Y-80625000D03*
X136620000Y-80625000D03*
X134080000Y-80625000D03*
X131540000Y-80625000D03*
X129000000Y-80625000D03*
X126460000Y-80625000D03*
X123920000Y-80625000D03*
X121380000Y-80625000D03*
D11*
X118840000Y-80625000D03*
G04 #@! TD*
D12*
G04 #@! TO.C,RV1*
X80400000Y-167650000D03*
D13*
X79400000Y-164400000D03*
X81400000Y-164400000D03*
G04 #@! TD*
G04 #@! TO.C,R48*
G36*
G01*
X37650001Y-149400000D02*
X36749999Y-149400000D01*
G75*
G02*
X36500000Y-149150001I0J249999D01*
G01*
X36500000Y-148624999D01*
G75*
G02*
X36749999Y-148375000I249999J0D01*
G01*
X37650001Y-148375000D01*
G75*
G02*
X37900000Y-148624999I0J-249999D01*
G01*
X37900000Y-149150001D01*
G75*
G02*
X37650001Y-149400000I-249999J0D01*
G01*
G37*
G36*
G01*
X37650001Y-151225000D02*
X36749999Y-151225000D01*
G75*
G02*
X36500000Y-150975001I0J249999D01*
G01*
X36500000Y-150449999D01*
G75*
G02*
X36749999Y-150200000I249999J0D01*
G01*
X37650001Y-150200000D01*
G75*
G02*
X37900000Y-150449999I0J-249999D01*
G01*
X37900000Y-150975001D01*
G75*
G02*
X37650001Y-151225000I-249999J0D01*
G01*
G37*
G04 #@! TD*
G04 #@! TO.C,D3*
G36*
G01*
X36743750Y-153750000D02*
X37656250Y-153750000D01*
G75*
G02*
X37900000Y-153993750I0J-243750D01*
G01*
X37900000Y-154481250D01*
G75*
G02*
X37656250Y-154725000I-243750J0D01*
G01*
X36743750Y-154725000D01*
G75*
G02*
X36500000Y-154481250I0J243750D01*
G01*
X36500000Y-153993750D01*
G75*
G02*
X36743750Y-153750000I243750J0D01*
G01*
G37*
G36*
G01*
X36743750Y-151875000D02*
X37656250Y-151875000D01*
G75*
G02*
X37900000Y-152118750I0J-243750D01*
G01*
X37900000Y-152606250D01*
G75*
G02*
X37656250Y-152850000I-243750J0D01*
G01*
X36743750Y-152850000D01*
G75*
G02*
X36500000Y-152606250I0J243750D01*
G01*
X36500000Y-152118750D01*
G75*
G02*
X36743750Y-151875000I243750J0D01*
G01*
G37*
G04 #@! TD*
D10*
G04 #@! TO.C,J6*
X170260000Y-142500000D03*
D11*
X172800000Y-142500000D03*
G04 #@! TD*
G04 #@! TO.C,C22*
G36*
G01*
X31725000Y-166650000D02*
X32675000Y-166650000D01*
G75*
G02*
X32925000Y-166900000I0J-250000D01*
G01*
X32925000Y-167400000D01*
G75*
G02*
X32675000Y-167650000I-250000J0D01*
G01*
X31725000Y-167650000D01*
G75*
G02*
X31475000Y-167400000I0J250000D01*
G01*
X31475000Y-166900000D01*
G75*
G02*
X31725000Y-166650000I250000J0D01*
G01*
G37*
G36*
G01*
X31725000Y-164750000D02*
X32675000Y-164750000D01*
G75*
G02*
X32925000Y-165000000I0J-250000D01*
G01*
X32925000Y-165500000D01*
G75*
G02*
X32675000Y-165750000I-250000J0D01*
G01*
X31725000Y-165750000D01*
G75*
G02*
X31475000Y-165500000I0J250000D01*
G01*
X31475000Y-165000000D01*
G75*
G02*
X31725000Y-164750000I250000J0D01*
G01*
G37*
G04 #@! TD*
D14*
G04 #@! TO.C,X1*
X84250000Y-87760000D03*
X76630000Y-87760000D03*
X76630000Y-103000000D03*
D15*
X84250000Y-103000000D03*
G04 #@! TD*
D16*
G04 #@! TO.C,SW24*
X48130000Y-76750000D03*
X55750000Y-69130000D03*
X48130000Y-74210000D03*
X55750000Y-71670000D03*
X48130000Y-71670000D03*
X55750000Y-74210000D03*
X48130000Y-69130000D03*
D17*
X55750000Y-76750000D03*
G04 #@! TD*
G04 #@! TO.C,C20*
G36*
G01*
X76750000Y-83275000D02*
X76750000Y-82325000D01*
G75*
G02*
X77000000Y-82075000I250000J0D01*
G01*
X77500000Y-82075000D01*
G75*
G02*
X77750000Y-82325000I0J-250000D01*
G01*
X77750000Y-83275000D01*
G75*
G02*
X77500000Y-83525000I-250000J0D01*
G01*
X77000000Y-83525000D01*
G75*
G02*
X76750000Y-83275000I0J250000D01*
G01*
G37*
G36*
G01*
X74850000Y-83275000D02*
X74850000Y-82325000D01*
G75*
G02*
X75100000Y-82075000I250000J0D01*
G01*
X75600000Y-82075000D01*
G75*
G02*
X75850000Y-82325000I0J-250000D01*
G01*
X75850000Y-83275000D01*
G75*
G02*
X75600000Y-83525000I-250000J0D01*
G01*
X75100000Y-83525000D01*
G75*
G02*
X74850000Y-83275000I0J250000D01*
G01*
G37*
G04 #@! TD*
D18*
G04 #@! TO.C,SW23*
X169500000Y-80575000D03*
X154500000Y-80575000D03*
X169500000Y-85575000D03*
X154500000Y-85575000D03*
G04 #@! TD*
D19*
G04 #@! TO.C,U4*
X62177500Y-61330000D03*
X72822500Y-61330000D03*
X72822500Y-60060000D03*
X62177500Y-60060000D03*
X72822500Y-51170000D03*
X72822500Y-52440000D03*
X72822500Y-53710000D03*
X72822500Y-54980000D03*
X72822500Y-56250000D03*
X72822500Y-57520000D03*
X72822500Y-58790000D03*
D20*
X71310000Y-62842500D03*
X70040000Y-62842500D03*
X68770000Y-62842500D03*
X67500000Y-62842500D03*
X66230000Y-62842500D03*
X64960000Y-62842500D03*
X63690000Y-62842500D03*
D19*
X62177500Y-58790000D03*
X62177500Y-57520000D03*
X62177500Y-56250000D03*
X62177500Y-54980000D03*
X62177500Y-53710000D03*
X62177500Y-52440000D03*
X62177500Y-51170000D03*
D20*
X71310000Y-49657500D03*
X70040000Y-49657500D03*
X68770000Y-49657500D03*
X63690000Y-49657500D03*
X64960000Y-49657500D03*
X66230000Y-49657500D03*
X67500000Y-49657500D03*
G04 #@! TD*
G04 #@! TO.C,C8*
G36*
G01*
X24025000Y-145425000D02*
X21975000Y-145425000D01*
G75*
G02*
X21725000Y-145175000I0J250000D01*
G01*
X21725000Y-143600000D01*
G75*
G02*
X21975000Y-143350000I250000J0D01*
G01*
X24025000Y-143350000D01*
G75*
G02*
X24275000Y-143600000I0J-250000D01*
G01*
X24275000Y-145175000D01*
G75*
G02*
X24025000Y-145425000I-250000J0D01*
G01*
G37*
G36*
G01*
X24025000Y-151650000D02*
X21975000Y-151650000D01*
G75*
G02*
X21725000Y-151400000I0J250000D01*
G01*
X21725000Y-149825000D01*
G75*
G02*
X21975000Y-149575000I250000J0D01*
G01*
X24025000Y-149575000D01*
G75*
G02*
X24275000Y-149825000I0J-250000D01*
G01*
X24275000Y-151400000D01*
G75*
G02*
X24025000Y-151650000I-250000J0D01*
G01*
G37*
G04 #@! TD*
D16*
G04 #@! TO.C,U8*
X77380000Y-151500000D03*
X85000000Y-128640000D03*
X77380000Y-148960000D03*
X85000000Y-131180000D03*
X77380000Y-146420000D03*
X85000000Y-133720000D03*
X77380000Y-143880000D03*
X85000000Y-136260000D03*
X77380000Y-141340000D03*
X85000000Y-138800000D03*
X77380000Y-138800000D03*
X85000000Y-141340000D03*
X77380000Y-136260000D03*
X85000000Y-143880000D03*
X77380000Y-133720000D03*
X85000000Y-146420000D03*
X77380000Y-131180000D03*
X85000000Y-148960000D03*
X77380000Y-128640000D03*
D17*
X85000000Y-151500000D03*
G04 #@! TD*
D21*
G04 #@! TO.C,J5*
X160750000Y-47680000D03*
X160750000Y-50220000D03*
X160750000Y-52760000D03*
X160750000Y-55300000D03*
X160750000Y-57840000D03*
X160750000Y-60380000D03*
X160750000Y-62920000D03*
X160750000Y-65460000D03*
D22*
X160750000Y-68000000D03*
G04 #@! TD*
D21*
G04 #@! TO.C,J4*
X151500000Y-27360000D03*
X151500000Y-29900000D03*
X151500000Y-32440000D03*
X151500000Y-34980000D03*
X151500000Y-37520000D03*
X151500000Y-40060000D03*
X151500000Y-42600000D03*
X151500000Y-45140000D03*
X151500000Y-47680000D03*
X151500000Y-50220000D03*
X151500000Y-52760000D03*
X151500000Y-55300000D03*
X151500000Y-57840000D03*
X151500000Y-60380000D03*
X151500000Y-62920000D03*
X151500000Y-65460000D03*
D22*
X151500000Y-68000000D03*
G04 #@! TD*
D23*
G04 #@! TO.C,U12*
X161040000Y-93380000D03*
X163580000Y-93380000D03*
X158500000Y-93380000D03*
X155960000Y-93380000D03*
X153420000Y-93380000D03*
X163580000Y-108620000D03*
X161040000Y-108620000D03*
X158500000Y-108620000D03*
X155960000Y-108620000D03*
D24*
X153420000Y-108620000D03*
G04 #@! TD*
D23*
G04 #@! TO.C,U13*
X119850000Y-108620000D03*
X119850000Y-93380000D03*
X114770000Y-93380000D03*
X117310000Y-93380000D03*
X112230000Y-93380000D03*
X109690000Y-93380000D03*
X107150000Y-93380000D03*
X117310000Y-108620000D03*
X114770000Y-108620000D03*
X112230000Y-108620000D03*
X109690000Y-108620000D03*
D24*
X107150000Y-108620000D03*
G04 #@! TD*
D25*
G04 #@! TO.C,U7*
X34400000Y-170225000D03*
X34400000Y-169575000D03*
X34400000Y-168925000D03*
X34400000Y-168275000D03*
X34400000Y-167625000D03*
X34400000Y-166975000D03*
X34400000Y-166325000D03*
X34400000Y-165675000D03*
X34400000Y-165025000D03*
X34400000Y-164375000D03*
X34400000Y-163725000D03*
X34400000Y-163075000D03*
X34400000Y-162425000D03*
X34400000Y-161775000D03*
X41600000Y-161775000D03*
X41600000Y-162425000D03*
X41600000Y-163075000D03*
X41600000Y-163725000D03*
X41600000Y-164375000D03*
X41600000Y-165025000D03*
X41600000Y-165675000D03*
X41600000Y-166325000D03*
X41600000Y-166975000D03*
X41600000Y-167625000D03*
X41600000Y-168275000D03*
X41600000Y-168925000D03*
X41600000Y-169575000D03*
X41600000Y-170225000D03*
G04 #@! TD*
D16*
G04 #@! TO.C,U6*
X143040000Y-35670000D03*
X127800000Y-68690000D03*
X143040000Y-38210000D03*
X127800000Y-66150000D03*
X143040000Y-40750000D03*
X127800000Y-63610000D03*
X143040000Y-43290000D03*
X127800000Y-61070000D03*
X143040000Y-45830000D03*
X127800000Y-58530000D03*
X143040000Y-48370000D03*
X127800000Y-55990000D03*
X143040000Y-50910000D03*
X127800000Y-53450000D03*
X143040000Y-53450000D03*
X127800000Y-50910000D03*
X143040000Y-55990000D03*
X127800000Y-48370000D03*
X143040000Y-58530000D03*
X127800000Y-45830000D03*
X143040000Y-61070000D03*
X127800000Y-43290000D03*
X143040000Y-63610000D03*
X127800000Y-40750000D03*
X143040000Y-66150000D03*
X127800000Y-38210000D03*
X143040000Y-68690000D03*
D17*
X127800000Y-35670000D03*
G04 #@! TD*
D16*
G04 #@! TO.C,U5*
X123790000Y-35670000D03*
X108550000Y-68690000D03*
X123790000Y-38210000D03*
X108550000Y-66150000D03*
X123790000Y-40750000D03*
X108550000Y-63610000D03*
X123790000Y-43290000D03*
X108550000Y-61070000D03*
X123790000Y-45830000D03*
X108550000Y-58530000D03*
X123790000Y-48370000D03*
X108550000Y-55990000D03*
X123790000Y-50910000D03*
X108550000Y-53450000D03*
X123790000Y-53450000D03*
X108550000Y-50910000D03*
X123790000Y-55990000D03*
X108550000Y-48370000D03*
X123790000Y-58530000D03*
X108550000Y-45830000D03*
X123790000Y-61070000D03*
X108550000Y-43290000D03*
X123790000Y-63610000D03*
X108550000Y-40750000D03*
X123790000Y-66150000D03*
X108550000Y-38210000D03*
X123790000Y-68690000D03*
D17*
X108550000Y-35670000D03*
G04 #@! TD*
D16*
G04 #@! TO.C,U3*
X104240000Y-33000000D03*
X89000000Y-81260000D03*
X104240000Y-35540000D03*
X89000000Y-78720000D03*
X104240000Y-38080000D03*
X89000000Y-76180000D03*
X104240000Y-40620000D03*
X89000000Y-73640000D03*
X104240000Y-43160000D03*
X89000000Y-71100000D03*
X104240000Y-45700000D03*
X89000000Y-68560000D03*
X104240000Y-48240000D03*
X89000000Y-66020000D03*
X104240000Y-50780000D03*
X89000000Y-63480000D03*
X104240000Y-53320000D03*
X89000000Y-60940000D03*
X104240000Y-55860000D03*
X89000000Y-58400000D03*
X104240000Y-58400000D03*
X89000000Y-55860000D03*
X104240000Y-60940000D03*
X89000000Y-53320000D03*
X104240000Y-63480000D03*
X89000000Y-50780000D03*
X104240000Y-66020000D03*
X89000000Y-48240000D03*
X104240000Y-68560000D03*
X89000000Y-45700000D03*
X104240000Y-71100000D03*
X89000000Y-43160000D03*
X104240000Y-73640000D03*
X89000000Y-40620000D03*
X104240000Y-76180000D03*
X89000000Y-38080000D03*
X104240000Y-78720000D03*
X89000000Y-35540000D03*
X104240000Y-81260000D03*
D17*
X89000000Y-33000000D03*
G04 #@! TD*
D26*
G04 #@! TO.C,SW22*
X159000000Y-162500000D03*
X159000000Y-177500000D03*
X164000000Y-162500000D03*
X164000000Y-177500000D03*
G04 #@! TD*
D18*
G04 #@! TO.C,SW21*
X154000000Y-156500000D03*
X169000000Y-156500000D03*
X154000000Y-151500000D03*
X169000000Y-151500000D03*
G04 #@! TD*
D26*
G04 #@! TO.C,SW20*
X159500000Y-130500000D03*
X159500000Y-145500000D03*
X164500000Y-130500000D03*
X164500000Y-145500000D03*
G04 #@! TD*
D18*
G04 #@! TO.C,SW19*
X154500000Y-124500000D03*
X169500000Y-124500000D03*
X154500000Y-119500000D03*
X169500000Y-119500000D03*
G04 #@! TD*
G04 #@! TO.C,SW18*
X138000000Y-172500000D03*
X153000000Y-172500000D03*
X138000000Y-167500000D03*
X153000000Y-167500000D03*
G04 #@! TD*
D26*
G04 #@! TO.C,SW17*
X148000000Y-161500000D03*
X148000000Y-146500000D03*
X143000000Y-161500000D03*
X143000000Y-146500000D03*
G04 #@! TD*
D18*
G04 #@! TO.C,SW16*
X138500000Y-140500000D03*
X153500000Y-140500000D03*
X138500000Y-135500000D03*
X153500000Y-135500000D03*
G04 #@! TD*
D26*
G04 #@! TO.C,SW15*
X148500000Y-129500000D03*
X148500000Y-114500000D03*
X143500000Y-129500000D03*
X143500000Y-114500000D03*
G04 #@! TD*
G04 #@! TO.C,SW14*
X132000000Y-177500000D03*
X132000000Y-162500000D03*
X127000000Y-177500000D03*
X127000000Y-162500000D03*
G04 #@! TD*
D18*
G04 #@! TO.C,SW13*
X122000000Y-156500000D03*
X137000000Y-156500000D03*
X122000000Y-151500000D03*
X137000000Y-151500000D03*
G04 #@! TD*
D26*
G04 #@! TO.C,SW12*
X132000000Y-145500000D03*
X132000000Y-130500000D03*
X127000000Y-145500000D03*
X127000000Y-130500000D03*
G04 #@! TD*
D18*
G04 #@! TO.C,SW11*
X122000000Y-124500000D03*
X137000000Y-124500000D03*
X122000000Y-119500000D03*
X137000000Y-119500000D03*
G04 #@! TD*
G04 #@! TO.C,SW10*
X106000000Y-172500000D03*
X121000000Y-172500000D03*
X106000000Y-167500000D03*
X121000000Y-167500000D03*
G04 #@! TD*
D26*
G04 #@! TO.C,SW9*
X116000000Y-161500000D03*
X116000000Y-146500000D03*
X111000000Y-161500000D03*
X111000000Y-146500000D03*
G04 #@! TD*
D18*
G04 #@! TO.C,SW8*
X106000000Y-140500000D03*
X121000000Y-140500000D03*
X106000000Y-135500000D03*
X121000000Y-135500000D03*
G04 #@! TD*
D26*
G04 #@! TO.C,SW7*
X116000000Y-129500000D03*
X116000000Y-114500000D03*
X111000000Y-129500000D03*
X111000000Y-114500000D03*
G04 #@! TD*
G04 #@! TO.C,SW6*
X100000000Y-177500000D03*
X100000000Y-162500000D03*
X95000000Y-177500000D03*
X95000000Y-162500000D03*
G04 #@! TD*
D18*
G04 #@! TO.C,SW5*
X90000000Y-156500000D03*
X105000000Y-156500000D03*
X90000000Y-151500000D03*
X105000000Y-151500000D03*
G04 #@! TD*
D26*
G04 #@! TO.C,SW4*
X100000000Y-145500000D03*
X100000000Y-130500000D03*
X95000000Y-145500000D03*
X95000000Y-130500000D03*
G04 #@! TD*
D18*
G04 #@! TO.C,SW3*
X90000000Y-124500000D03*
X105000000Y-124500000D03*
X90000000Y-119500000D03*
X105000000Y-119500000D03*
G04 #@! TD*
D26*
G04 #@! TO.C,SW2*
X84000000Y-125000000D03*
X84000000Y-110000000D03*
X79000000Y-125000000D03*
X79000000Y-110000000D03*
G04 #@! TD*
D16*
G04 #@! TO.C,SW1*
X48130000Y-55000000D03*
X55750000Y-47380000D03*
X48130000Y-52460000D03*
X55750000Y-49920000D03*
X48130000Y-49920000D03*
X55750000Y-52460000D03*
X48130000Y-47380000D03*
D17*
X55750000Y-55000000D03*
G04 #@! TD*
G04 #@! TO.C,R14*
G36*
G01*
X30650001Y-165800000D02*
X29749999Y-165800000D01*
G75*
G02*
X29500000Y-165550001I0J249999D01*
G01*
X29500000Y-165024999D01*
G75*
G02*
X29749999Y-164775000I249999J0D01*
G01*
X30650001Y-164775000D01*
G75*
G02*
X30900000Y-165024999I0J-249999D01*
G01*
X30900000Y-165550001D01*
G75*
G02*
X30650001Y-165800000I-249999J0D01*
G01*
G37*
G36*
G01*
X30650001Y-167625000D02*
X29749999Y-167625000D01*
G75*
G02*
X29500000Y-167375001I0J249999D01*
G01*
X29500000Y-166849999D01*
G75*
G02*
X29749999Y-166600000I249999J0D01*
G01*
X30650001Y-166600000D01*
G75*
G02*
X30900000Y-166849999I0J-249999D01*
G01*
X30900000Y-167375001D01*
G75*
G02*
X30650001Y-167625000I-249999J0D01*
G01*
G37*
G04 #@! TD*
G04 #@! TO.C,R13*
G36*
G01*
X33900000Y-176950001D02*
X33900000Y-176049999D01*
G75*
G02*
X34149999Y-175800000I249999J0D01*
G01*
X34675001Y-175800000D01*
G75*
G02*
X34925000Y-176049999I0J-249999D01*
G01*
X34925000Y-176950001D01*
G75*
G02*
X34675001Y-177200000I-249999J0D01*
G01*
X34149999Y-177200000D01*
G75*
G02*
X33900000Y-176950001I0J249999D01*
G01*
G37*
G36*
G01*
X32075000Y-176950001D02*
X32075000Y-176049999D01*
G75*
G02*
X32324999Y-175800000I249999J0D01*
G01*
X32850001Y-175800000D01*
G75*
G02*
X33100000Y-176049999I0J-249999D01*
G01*
X33100000Y-176950001D01*
G75*
G02*
X32850001Y-177200000I-249999J0D01*
G01*
X32324999Y-177200000D01*
G75*
G02*
X32075000Y-176950001I0J249999D01*
G01*
G37*
G04 #@! TD*
G04 #@! TO.C,R1*
G36*
G01*
X83100000Y-70549999D02*
X83100000Y-71450001D01*
G75*
G02*
X82850001Y-71700000I-249999J0D01*
G01*
X82324999Y-71700000D01*
G75*
G02*
X82075000Y-71450001I0J249999D01*
G01*
X82075000Y-70549999D01*
G75*
G02*
X82324999Y-70300000I249999J0D01*
G01*
X82850001Y-70300000D01*
G75*
G02*
X83100000Y-70549999I0J-249999D01*
G01*
G37*
G36*
G01*
X84925000Y-70549999D02*
X84925000Y-71450001D01*
G75*
G02*
X84675001Y-71700000I-249999J0D01*
G01*
X84149999Y-71700000D01*
G75*
G02*
X83900000Y-71450001I0J249999D01*
G01*
X83900000Y-70549999D01*
G75*
G02*
X84149999Y-70300000I249999J0D01*
G01*
X84675001Y-70300000D01*
G75*
G02*
X84925000Y-70549999I0J-249999D01*
G01*
G37*
G04 #@! TD*
D10*
G04 #@! TO.C,J3*
X47400000Y-173000000D03*
X49940000Y-173000000D03*
X52480000Y-173000000D03*
X55020000Y-173000000D03*
X57560000Y-173000000D03*
X60100000Y-173000000D03*
X62640000Y-173000000D03*
X65180000Y-173000000D03*
X67720000Y-173000000D03*
X70260000Y-173000000D03*
X72800000Y-173000000D03*
X75340000Y-173000000D03*
X77880000Y-173000000D03*
X80420000Y-173000000D03*
X82960000Y-173000000D03*
D11*
X85500000Y-173000000D03*
G04 #@! TD*
D27*
G04 #@! TO.C,J1*
X26650000Y-165350000D03*
X26650000Y-165050000D03*
X26650000Y-164250000D03*
X26650000Y-164550000D03*
X26650000Y-159750000D03*
X26650000Y-159450000D03*
X26650000Y-158950000D03*
X26650000Y-158650000D03*
X26650000Y-161750000D03*
X26650000Y-160750000D03*
X26650000Y-160250000D03*
X26650000Y-161250000D03*
X26650000Y-163750000D03*
X26650000Y-163250000D03*
X26650000Y-162750000D03*
X26650000Y-162250000D03*
D28*
X25310000Y-164890000D03*
X25310000Y-159110000D03*
D29*
X25810000Y-166320000D03*
X25810000Y-157680000D03*
D30*
X21630000Y-166320000D03*
X21630000Y-157680000D03*
G04 #@! TD*
G04 #@! TO.C,FB1*
G36*
G01*
X22375000Y-153618750D02*
X22375000Y-154381250D01*
G75*
G02*
X22156250Y-154600000I-218750J0D01*
G01*
X21718750Y-154600000D01*
G75*
G02*
X21500000Y-154381250I0J218750D01*
G01*
X21500000Y-153618750D01*
G75*
G02*
X21718750Y-153400000I218750J0D01*
G01*
X22156250Y-153400000D01*
G75*
G02*
X22375000Y-153618750I0J-218750D01*
G01*
G37*
G36*
G01*
X24500000Y-153618750D02*
X24500000Y-154381250D01*
G75*
G02*
X24281250Y-154600000I-218750J0D01*
G01*
X23843750Y-154600000D01*
G75*
G02*
X23625000Y-154381250I0J218750D01*
G01*
X23625000Y-153618750D01*
G75*
G02*
X23843750Y-153400000I218750J0D01*
G01*
X24281250Y-153400000D01*
G75*
G02*
X24500000Y-153618750I0J-218750D01*
G01*
G37*
G04 #@! TD*
D23*
G04 #@! TO.C,D2*
X45110000Y-115100000D03*
X45110000Y-86900000D03*
X42570000Y-86900000D03*
X42570000Y-115100000D03*
X47650000Y-115100000D03*
X55270000Y-115100000D03*
X50190000Y-115100000D03*
X52730000Y-86900000D03*
X55270000Y-86900000D03*
X50190000Y-86900000D03*
X52730000Y-115100000D03*
X47650000Y-86900000D03*
X60350000Y-115100000D03*
X57810000Y-86900000D03*
X60350000Y-86900000D03*
X57810000Y-115100000D03*
X62890000Y-86900000D03*
X62890000Y-115100000D03*
X65430000Y-115100000D03*
X65430000Y-86900000D03*
X40030000Y-115100000D03*
X40030000Y-86900000D03*
X67970000Y-115100000D03*
D24*
X67970000Y-86900000D03*
G04 #@! TD*
G04 #@! TO.C,D1*
G36*
G01*
X172550000Y-164043750D02*
X172550000Y-164956250D01*
G75*
G02*
X172306250Y-165200000I-243750J0D01*
G01*
X171818750Y-165200000D01*
G75*
G02*
X171575000Y-164956250I0J243750D01*
G01*
X171575000Y-164043750D01*
G75*
G02*
X171818750Y-163800000I243750J0D01*
G01*
X172306250Y-163800000D01*
G75*
G02*
X172550000Y-164043750I0J-243750D01*
G01*
G37*
G36*
G01*
X174425000Y-164043750D02*
X174425000Y-164956250D01*
G75*
G02*
X174181250Y-165200000I-243750J0D01*
G01*
X173693750Y-165200000D01*
G75*
G02*
X173450000Y-164956250I0J243750D01*
G01*
X173450000Y-164043750D01*
G75*
G02*
X173693750Y-163800000I243750J0D01*
G01*
X174181250Y-163800000D01*
G75*
G02*
X174425000Y-164043750I0J-243750D01*
G01*
G37*
G04 #@! TD*
G04 #@! TO.C,C19*
G36*
G01*
X37800000Y-125275000D02*
X37800000Y-126225000D01*
G75*
G02*
X37550000Y-126475000I-250000J0D01*
G01*
X37050000Y-126475000D01*
G75*
G02*
X36800000Y-126225000I0J250000D01*
G01*
X36800000Y-125275000D01*
G75*
G02*
X37050000Y-125025000I250000J0D01*
G01*
X37550000Y-125025000D01*
G75*
G02*
X37800000Y-125275000I0J-250000D01*
G01*
G37*
G36*
G01*
X39700000Y-125275000D02*
X39700000Y-126225000D01*
G75*
G02*
X39450000Y-126475000I-250000J0D01*
G01*
X38950000Y-126475000D01*
G75*
G02*
X38700000Y-126225000I0J250000D01*
G01*
X38700000Y-125275000D01*
G75*
G02*
X38950000Y-125025000I250000J0D01*
G01*
X39450000Y-125025000D01*
G75*
G02*
X39700000Y-125275000I0J-250000D01*
G01*
G37*
G04 #@! TD*
G04 #@! TO.C,C18*
G36*
G01*
X68800000Y-125275000D02*
X68800000Y-126225000D01*
G75*
G02*
X68550000Y-126475000I-250000J0D01*
G01*
X68050000Y-126475000D01*
G75*
G02*
X67800000Y-126225000I0J250000D01*
G01*
X67800000Y-125275000D01*
G75*
G02*
X68050000Y-125025000I250000J0D01*
G01*
X68550000Y-125025000D01*
G75*
G02*
X68800000Y-125275000I0J-250000D01*
G01*
G37*
G36*
G01*
X70700000Y-125275000D02*
X70700000Y-126225000D01*
G75*
G02*
X70450000Y-126475000I-250000J0D01*
G01*
X69950000Y-126475000D01*
G75*
G02*
X69700000Y-126225000I0J250000D01*
G01*
X69700000Y-125275000D01*
G75*
G02*
X69950000Y-125025000I250000J0D01*
G01*
X70450000Y-125025000D01*
G75*
G02*
X70700000Y-125275000I0J-250000D01*
G01*
G37*
G04 #@! TD*
G04 #@! TO.C,C17*
G36*
G01*
X53800000Y-125275000D02*
X53800000Y-126225000D01*
G75*
G02*
X53550000Y-126475000I-250000J0D01*
G01*
X53050000Y-126475000D01*
G75*
G02*
X52800000Y-126225000I0J250000D01*
G01*
X52800000Y-125275000D01*
G75*
G02*
X53050000Y-125025000I250000J0D01*
G01*
X53550000Y-125025000D01*
G75*
G02*
X53800000Y-125275000I0J-250000D01*
G01*
G37*
G36*
G01*
X55700000Y-125275000D02*
X55700000Y-126225000D01*
G75*
G02*
X55450000Y-126475000I-250000J0D01*
G01*
X54950000Y-126475000D01*
G75*
G02*
X54700000Y-126225000I0J250000D01*
G01*
X54700000Y-125275000D01*
G75*
G02*
X54950000Y-125025000I250000J0D01*
G01*
X55450000Y-125025000D01*
G75*
G02*
X55700000Y-125275000I0J-250000D01*
G01*
G37*
G04 #@! TD*
G04 #@! TO.C,C10*
G36*
G01*
X42200000Y-173475000D02*
X42200000Y-172525000D01*
G75*
G02*
X42450000Y-172275000I250000J0D01*
G01*
X42950000Y-172275000D01*
G75*
G02*
X43200000Y-172525000I0J-250000D01*
G01*
X43200000Y-173475000D01*
G75*
G02*
X42950000Y-173725000I-250000J0D01*
G01*
X42450000Y-173725000D01*
G75*
G02*
X42200000Y-173475000I0J250000D01*
G01*
G37*
G36*
G01*
X40300000Y-173475000D02*
X40300000Y-172525000D01*
G75*
G02*
X40550000Y-172275000I250000J0D01*
G01*
X41050000Y-172275000D01*
G75*
G02*
X41300000Y-172525000I0J-250000D01*
G01*
X41300000Y-173475000D01*
G75*
G02*
X41050000Y-173725000I-250000J0D01*
G01*
X40550000Y-173725000D01*
G75*
G02*
X40300000Y-173475000I0J250000D01*
G01*
G37*
G04 #@! TD*
G04 #@! TO.C,C9*
G36*
G01*
X37550000Y-172525000D02*
X37550000Y-173475000D01*
G75*
G02*
X37300000Y-173725000I-250000J0D01*
G01*
X36800000Y-173725000D01*
G75*
G02*
X36550000Y-173475000I0J250000D01*
G01*
X36550000Y-172525000D01*
G75*
G02*
X36800000Y-172275000I250000J0D01*
G01*
X37300000Y-172275000D01*
G75*
G02*
X37550000Y-172525000I0J-250000D01*
G01*
G37*
G36*
G01*
X39450000Y-172525000D02*
X39450000Y-173475000D01*
G75*
G02*
X39200000Y-173725000I-250000J0D01*
G01*
X38700000Y-173725000D01*
G75*
G02*
X38450000Y-173475000I0J250000D01*
G01*
X38450000Y-172525000D01*
G75*
G02*
X38700000Y-172275000I250000J0D01*
G01*
X39200000Y-172275000D01*
G75*
G02*
X39450000Y-172525000I0J-250000D01*
G01*
G37*
G04 #@! TD*
G04 #@! TO.C,C7*
G36*
G01*
X33050000Y-178025000D02*
X33050000Y-178975000D01*
G75*
G02*
X32800000Y-179225000I-250000J0D01*
G01*
X32300000Y-179225000D01*
G75*
G02*
X32050000Y-178975000I0J250000D01*
G01*
X32050000Y-178025000D01*
G75*
G02*
X32300000Y-177775000I250000J0D01*
G01*
X32800000Y-177775000D01*
G75*
G02*
X33050000Y-178025000I0J-250000D01*
G01*
G37*
G36*
G01*
X34950000Y-178025000D02*
X34950000Y-178975000D01*
G75*
G02*
X34700000Y-179225000I-250000J0D01*
G01*
X34200000Y-179225000D01*
G75*
G02*
X33950000Y-178975000I0J250000D01*
G01*
X33950000Y-178025000D01*
G75*
G02*
X34200000Y-177775000I250000J0D01*
G01*
X34700000Y-177775000D01*
G75*
G02*
X34950000Y-178025000I0J-250000D01*
G01*
G37*
G04 #@! TD*
G04 #@! TO.C,C1*
G36*
G01*
X41700000Y-159225000D02*
X41700000Y-158275000D01*
G75*
G02*
X41950000Y-158025000I250000J0D01*
G01*
X42450000Y-158025000D01*
G75*
G02*
X42700000Y-158275000I0J-250000D01*
G01*
X42700000Y-159225000D01*
G75*
G02*
X42450000Y-159475000I-250000J0D01*
G01*
X41950000Y-159475000D01*
G75*
G02*
X41700000Y-159225000I0J250000D01*
G01*
G37*
G36*
G01*
X39800000Y-159225000D02*
X39800000Y-158275000D01*
G75*
G02*
X40050000Y-158025000I250000J0D01*
G01*
X40550000Y-158025000D01*
G75*
G02*
X40800000Y-158275000I0J-250000D01*
G01*
X40800000Y-159225000D01*
G75*
G02*
X40550000Y-159475000I-250000J0D01*
G01*
X40050000Y-159475000D01*
G75*
G02*
X39800000Y-159225000I0J250000D01*
G01*
G37*
G04 #@! TD*
M02*
