G04 #@! TF.GenerationSoftware,KiCad,Pcbnew,5.1.7-a382d34a8~88~ubuntu20.04.1*
G04 #@! TF.CreationDate,2021-04-25T17:04:25-07:00*
G04 #@! TF.ProjectId,tec-1,7465632d-312e-46b6-9963-61645f706362,Apr2021*
G04 #@! TF.SameCoordinates,Original*
G04 #@! TF.FileFunction,Soldermask,Bot*
G04 #@! TF.FilePolarity,Negative*
%FSLAX46Y46*%
G04 Gerber Fmt 4.6, Leading zero omitted, Abs format (unit mm)*
G04 Created by KiCad (PCBNEW 5.1.7-a382d34a8~88~ubuntu20.04.1) date 2021-04-25 17:04:25*
%MOMM*%
%LPD*%
G01*
G04 APERTURE LIST*
%ADD10O,1.700000X2.600000*%
%ADD11R,1.700000X2.600000*%
%ADD12C,2.500000*%
%ADD13R,2.500000X2.500000*%
%ADD14R,1.925000X0.700000*%
%ADD15R,0.700000X1.925000*%
%ADD16C,2.000000*%
%ADD17O,2.400000X1.600000*%
%ADD18R,2.400000X1.600000*%
%ADD19O,2.600000X1.700000*%
%ADD20R,2.600000X1.700000*%
%ADD21R,0.900000X0.800000*%
%ADD22O,1.500000X2.500000*%
%ADD23R,1.500000X2.500000*%
%ADD24R,0.800000X0.900000*%
%ADD25C,0.650000*%
%ADD26O,2.100000X0.900000*%
%ADD27O,1.600000X1.000000*%
G04 APERTURE END LIST*
D10*
G04 #@! TO.C,J7*
X139160000Y-80625000D03*
X136620000Y-80625000D03*
X134080000Y-80625000D03*
X131540000Y-80625000D03*
X129000000Y-80625000D03*
X126460000Y-80625000D03*
X123920000Y-80625000D03*
X121380000Y-80625000D03*
D11*
X118840000Y-80625000D03*
G04 #@! TD*
D10*
G04 #@! TO.C,J6*
X170260000Y-142500000D03*
D11*
X172800000Y-142500000D03*
G04 #@! TD*
G04 #@! TO.C,C21*
G36*
G01*
X76975000Y-99050000D02*
X76025000Y-99050000D01*
G75*
G02*
X75775000Y-98800000I0J250000D01*
G01*
X75775000Y-98300000D01*
G75*
G02*
X76025000Y-98050000I250000J0D01*
G01*
X76975000Y-98050000D01*
G75*
G02*
X77225000Y-98300000I0J-250000D01*
G01*
X77225000Y-98800000D01*
G75*
G02*
X76975000Y-99050000I-250000J0D01*
G01*
G37*
G36*
G01*
X76975000Y-100950000D02*
X76025000Y-100950000D01*
G75*
G02*
X75775000Y-100700000I0J250000D01*
G01*
X75775000Y-100200000D01*
G75*
G02*
X76025000Y-99950000I250000J0D01*
G01*
X76975000Y-99950000D01*
G75*
G02*
X77225000Y-100200000I0J-250000D01*
G01*
X77225000Y-100700000D01*
G75*
G02*
X76975000Y-100950000I-250000J0D01*
G01*
G37*
G04 #@! TD*
D12*
G04 #@! TO.C,X1*
X84250000Y-87760000D03*
X76630000Y-87760000D03*
X76630000Y-103000000D03*
D13*
X84250000Y-103000000D03*
G04 #@! TD*
D14*
G04 #@! TO.C,U17*
X77572500Y-78060000D03*
X77572500Y-76790000D03*
X77572500Y-75520000D03*
X77572500Y-74250000D03*
X77572500Y-72980000D03*
X77572500Y-71710000D03*
X77572500Y-70440000D03*
D15*
X76060000Y-68927500D03*
X74790000Y-68927500D03*
X73520000Y-68927500D03*
X72250000Y-68927500D03*
X70980000Y-68927500D03*
X69710000Y-68927500D03*
X68440000Y-68927500D03*
D14*
X66927500Y-70440000D03*
X66927500Y-71710000D03*
X66927500Y-72980000D03*
X66927500Y-74250000D03*
X66927500Y-75520000D03*
X66927500Y-76790000D03*
X66927500Y-78060000D03*
D15*
X76060000Y-79572500D03*
X74790000Y-79572500D03*
X73520000Y-79572500D03*
X68440000Y-79572500D03*
X69710000Y-79572500D03*
X70980000Y-79572500D03*
X72250000Y-79572500D03*
G04 #@! TD*
D16*
G04 #@! TO.C,TP31*
X91900000Y-88600000D03*
G04 #@! TD*
G04 #@! TO.C,TP30*
X91800000Y-85200000D03*
G04 #@! TD*
G04 #@! TO.C,TP29*
X48300000Y-65800000D03*
G04 #@! TD*
G04 #@! TO.C,TP28*
X54750000Y-65750000D03*
G04 #@! TD*
G04 #@! TO.C,TP27*
X51500000Y-65750000D03*
G04 #@! TD*
D17*
G04 #@! TO.C,SW24*
X48130000Y-76750000D03*
X55750000Y-69130000D03*
X48130000Y-74210000D03*
X55750000Y-71670000D03*
X48130000Y-71670000D03*
X55750000Y-74210000D03*
X48130000Y-69130000D03*
D18*
X55750000Y-76750000D03*
G04 #@! TD*
G04 #@! TO.C,R47*
G36*
G01*
X51600000Y-76299999D02*
X51600000Y-77200001D01*
G75*
G02*
X51350001Y-77450000I-249999J0D01*
G01*
X50824999Y-77450000D01*
G75*
G02*
X50575000Y-77200001I0J249999D01*
G01*
X50575000Y-76299999D01*
G75*
G02*
X50824999Y-76050000I249999J0D01*
G01*
X51350001Y-76050000D01*
G75*
G02*
X51600000Y-76299999I0J-249999D01*
G01*
G37*
G36*
G01*
X53425000Y-76299999D02*
X53425000Y-77200001D01*
G75*
G02*
X53175001Y-77450000I-249999J0D01*
G01*
X52649999Y-77450000D01*
G75*
G02*
X52400000Y-77200001I0J249999D01*
G01*
X52400000Y-76299999D01*
G75*
G02*
X52649999Y-76050000I249999J0D01*
G01*
X53175001Y-76050000D01*
G75*
G02*
X53425000Y-76299999I0J-249999D01*
G01*
G37*
G04 #@! TD*
G04 #@! TO.C,R46*
G36*
G01*
X51600000Y-73799999D02*
X51600000Y-74700001D01*
G75*
G02*
X51350001Y-74950000I-249999J0D01*
G01*
X50824999Y-74950000D01*
G75*
G02*
X50575000Y-74700001I0J249999D01*
G01*
X50575000Y-73799999D01*
G75*
G02*
X50824999Y-73550000I249999J0D01*
G01*
X51350001Y-73550000D01*
G75*
G02*
X51600000Y-73799999I0J-249999D01*
G01*
G37*
G36*
G01*
X53425000Y-73799999D02*
X53425000Y-74700001D01*
G75*
G02*
X53175001Y-74950000I-249999J0D01*
G01*
X52649999Y-74950000D01*
G75*
G02*
X52400000Y-74700001I0J249999D01*
G01*
X52400000Y-73799999D01*
G75*
G02*
X52649999Y-73550000I249999J0D01*
G01*
X53175001Y-73550000D01*
G75*
G02*
X53425000Y-73799999I0J-249999D01*
G01*
G37*
G04 #@! TD*
G04 #@! TO.C,R45*
G36*
G01*
X51600000Y-71299999D02*
X51600000Y-72200001D01*
G75*
G02*
X51350001Y-72450000I-249999J0D01*
G01*
X50824999Y-72450000D01*
G75*
G02*
X50575000Y-72200001I0J249999D01*
G01*
X50575000Y-71299999D01*
G75*
G02*
X50824999Y-71050000I249999J0D01*
G01*
X51350001Y-71050000D01*
G75*
G02*
X51600000Y-71299999I0J-249999D01*
G01*
G37*
G36*
G01*
X53425000Y-71299999D02*
X53425000Y-72200001D01*
G75*
G02*
X53175001Y-72450000I-249999J0D01*
G01*
X52649999Y-72450000D01*
G75*
G02*
X52400000Y-72200001I0J249999D01*
G01*
X52400000Y-71299999D01*
G75*
G02*
X52649999Y-71050000I249999J0D01*
G01*
X53175001Y-71050000D01*
G75*
G02*
X53425000Y-71299999I0J-249999D01*
G01*
G37*
G04 #@! TD*
G04 #@! TO.C,R44*
G36*
G01*
X51600000Y-68799999D02*
X51600000Y-69700001D01*
G75*
G02*
X51350001Y-69950000I-249999J0D01*
G01*
X50824999Y-69950000D01*
G75*
G02*
X50575000Y-69700001I0J249999D01*
G01*
X50575000Y-68799999D01*
G75*
G02*
X50824999Y-68550000I249999J0D01*
G01*
X51350001Y-68550000D01*
G75*
G02*
X51600000Y-68799999I0J-249999D01*
G01*
G37*
G36*
G01*
X53425000Y-68799999D02*
X53425000Y-69700001D01*
G75*
G02*
X53175001Y-69950000I-249999J0D01*
G01*
X52649999Y-69950000D01*
G75*
G02*
X52400000Y-69700001I0J249999D01*
G01*
X52400000Y-68799999D01*
G75*
G02*
X52649999Y-68550000I249999J0D01*
G01*
X53175001Y-68550000D01*
G75*
G02*
X53425000Y-68799999I0J-249999D01*
G01*
G37*
G04 #@! TD*
G04 #@! TO.C,R43*
G36*
G01*
X83799999Y-98650000D02*
X84700001Y-98650000D01*
G75*
G02*
X84950000Y-98899999I0J-249999D01*
G01*
X84950000Y-99425001D01*
G75*
G02*
X84700001Y-99675000I-249999J0D01*
G01*
X83799999Y-99675000D01*
G75*
G02*
X83550000Y-99425001I0J249999D01*
G01*
X83550000Y-98899999D01*
G75*
G02*
X83799999Y-98650000I249999J0D01*
G01*
G37*
G36*
G01*
X83799999Y-96825000D02*
X84700001Y-96825000D01*
G75*
G02*
X84950000Y-97074999I0J-249999D01*
G01*
X84950000Y-97600001D01*
G75*
G02*
X84700001Y-97850000I-249999J0D01*
G01*
X83799999Y-97850000D01*
G75*
G02*
X83550000Y-97600001I0J249999D01*
G01*
X83550000Y-97074999D01*
G75*
G02*
X83799999Y-96825000I249999J0D01*
G01*
G37*
G04 #@! TD*
G04 #@! TO.C,R42*
G36*
G01*
X79100000Y-98799999D02*
X79100000Y-99700001D01*
G75*
G02*
X78850001Y-99950000I-249999J0D01*
G01*
X78324999Y-99950000D01*
G75*
G02*
X78075000Y-99700001I0J249999D01*
G01*
X78075000Y-98799999D01*
G75*
G02*
X78324999Y-98550000I249999J0D01*
G01*
X78850001Y-98550000D01*
G75*
G02*
X79100000Y-98799999I0J-249999D01*
G01*
G37*
G36*
G01*
X80925000Y-98799999D02*
X80925000Y-99700001D01*
G75*
G02*
X80675001Y-99950000I-249999J0D01*
G01*
X80149999Y-99950000D01*
G75*
G02*
X79900000Y-99700001I0J249999D01*
G01*
X79900000Y-98799999D01*
G75*
G02*
X80149999Y-98550000I249999J0D01*
G01*
X80675001Y-98550000D01*
G75*
G02*
X80925000Y-98799999I0J-249999D01*
G01*
G37*
G04 #@! TD*
D17*
G04 #@! TO.C,U8*
X77380000Y-151500000D03*
X85000000Y-128640000D03*
X77380000Y-148960000D03*
X85000000Y-131180000D03*
X77380000Y-146420000D03*
X85000000Y-133720000D03*
X77380000Y-143880000D03*
X85000000Y-136260000D03*
X77380000Y-141340000D03*
X85000000Y-138800000D03*
X77380000Y-138800000D03*
X85000000Y-141340000D03*
X77380000Y-136260000D03*
X85000000Y-143880000D03*
X77380000Y-133720000D03*
X85000000Y-146420000D03*
X77380000Y-131180000D03*
X85000000Y-148960000D03*
X77380000Y-128640000D03*
D18*
X85000000Y-151500000D03*
G04 #@! TD*
D19*
G04 #@! TO.C,J5*
X160750000Y-47680000D03*
X160750000Y-50220000D03*
X160750000Y-52760000D03*
X160750000Y-55300000D03*
X160750000Y-57840000D03*
X160750000Y-60380000D03*
X160750000Y-62920000D03*
X160750000Y-65460000D03*
D20*
X160750000Y-68000000D03*
G04 #@! TD*
D19*
G04 #@! TO.C,J4*
X151500000Y-27360000D03*
X151500000Y-29900000D03*
X151500000Y-32440000D03*
X151500000Y-34980000D03*
X151500000Y-37520000D03*
X151500000Y-40060000D03*
X151500000Y-42600000D03*
X151500000Y-45140000D03*
X151500000Y-47680000D03*
X151500000Y-50220000D03*
X151500000Y-52760000D03*
X151500000Y-55300000D03*
X151500000Y-57840000D03*
X151500000Y-60380000D03*
X151500000Y-62920000D03*
X151500000Y-65460000D03*
D20*
X151500000Y-68000000D03*
G04 #@! TD*
G04 #@! TO.C,J2*
G36*
G01*
X163050000Y-151400000D02*
X160150000Y-151400000D01*
G75*
G02*
X159900000Y-151150000I0J250000D01*
G01*
X159900000Y-150150000D01*
G75*
G02*
X160150000Y-149900000I250000J0D01*
G01*
X163050000Y-149900000D01*
G75*
G02*
X163300000Y-150150000I0J-250000D01*
G01*
X163300000Y-151150000D01*
G75*
G02*
X163050000Y-151400000I-250000J0D01*
G01*
G37*
G36*
G01*
X163050000Y-158100000D02*
X160150000Y-158100000D01*
G75*
G02*
X159900000Y-157850000I0J250000D01*
G01*
X159900000Y-156850000D01*
G75*
G02*
X160150000Y-156600000I250000J0D01*
G01*
X163050000Y-156600000D01*
G75*
G02*
X163300000Y-156850000I0J-250000D01*
G01*
X163300000Y-157850000D01*
G75*
G02*
X163050000Y-158100000I-250000J0D01*
G01*
G37*
G36*
G01*
X168850000Y-153500000D02*
X165850000Y-153500000D01*
G75*
G02*
X165600000Y-153250000I0J250000D01*
G01*
X165600000Y-152750000D01*
G75*
G02*
X165850000Y-152500000I250000J0D01*
G01*
X168850000Y-152500000D01*
G75*
G02*
X169100000Y-152750000I0J-250000D01*
G01*
X169100000Y-153250000D01*
G75*
G02*
X168850000Y-153500000I-250000J0D01*
G01*
G37*
G36*
G01*
X168850000Y-155500000D02*
X165850000Y-155500000D01*
G75*
G02*
X165600000Y-155250000I0J250000D01*
G01*
X165600000Y-154750000D01*
G75*
G02*
X165850000Y-154500000I250000J0D01*
G01*
X168850000Y-154500000D01*
G75*
G02*
X169100000Y-154750000I0J-250000D01*
G01*
X169100000Y-155250000D01*
G75*
G02*
X168850000Y-155500000I-250000J0D01*
G01*
G37*
G04 #@! TD*
D21*
G04 #@! TO.C,Q1*
X172500000Y-146500000D03*
X170500000Y-145550000D03*
X170500000Y-147450000D03*
G04 #@! TD*
D22*
G04 #@! TO.C,U12*
X161040000Y-93380000D03*
X163580000Y-93380000D03*
X158500000Y-93380000D03*
X155960000Y-93380000D03*
X153420000Y-93380000D03*
X163580000Y-108620000D03*
X161040000Y-108620000D03*
X158500000Y-108620000D03*
X155960000Y-108620000D03*
D23*
X153420000Y-108620000D03*
G04 #@! TD*
G04 #@! TO.C,U16*
G36*
G01*
X39365000Y-126875000D02*
X39065000Y-126875000D01*
G75*
G02*
X38915000Y-126725000I0J150000D01*
G01*
X38915000Y-124975000D01*
G75*
G02*
X39065000Y-124825000I150000J0D01*
G01*
X39365000Y-124825000D01*
G75*
G02*
X39515000Y-124975000I0J-150000D01*
G01*
X39515000Y-126725000D01*
G75*
G02*
X39365000Y-126875000I-150000J0D01*
G01*
G37*
G36*
G01*
X38095000Y-126875000D02*
X37795000Y-126875000D01*
G75*
G02*
X37645000Y-126725000I0J150000D01*
G01*
X37645000Y-124975000D01*
G75*
G02*
X37795000Y-124825000I150000J0D01*
G01*
X38095000Y-124825000D01*
G75*
G02*
X38245000Y-124975000I0J-150000D01*
G01*
X38245000Y-126725000D01*
G75*
G02*
X38095000Y-126875000I-150000J0D01*
G01*
G37*
G36*
G01*
X36825000Y-126875000D02*
X36525000Y-126875000D01*
G75*
G02*
X36375000Y-126725000I0J150000D01*
G01*
X36375000Y-124975000D01*
G75*
G02*
X36525000Y-124825000I150000J0D01*
G01*
X36825000Y-124825000D01*
G75*
G02*
X36975000Y-124975000I0J-150000D01*
G01*
X36975000Y-126725000D01*
G75*
G02*
X36825000Y-126875000I-150000J0D01*
G01*
G37*
G36*
G01*
X35555000Y-126875000D02*
X35255000Y-126875000D01*
G75*
G02*
X35105000Y-126725000I0J150000D01*
G01*
X35105000Y-124975000D01*
G75*
G02*
X35255000Y-124825000I150000J0D01*
G01*
X35555000Y-124825000D01*
G75*
G02*
X35705000Y-124975000I0J-150000D01*
G01*
X35705000Y-126725000D01*
G75*
G02*
X35555000Y-126875000I-150000J0D01*
G01*
G37*
G36*
G01*
X34285000Y-126875000D02*
X33985000Y-126875000D01*
G75*
G02*
X33835000Y-126725000I0J150000D01*
G01*
X33835000Y-124975000D01*
G75*
G02*
X33985000Y-124825000I150000J0D01*
G01*
X34285000Y-124825000D01*
G75*
G02*
X34435000Y-124975000I0J-150000D01*
G01*
X34435000Y-126725000D01*
G75*
G02*
X34285000Y-126875000I-150000J0D01*
G01*
G37*
G36*
G01*
X33015000Y-126875000D02*
X32715000Y-126875000D01*
G75*
G02*
X32565000Y-126725000I0J150000D01*
G01*
X32565000Y-124975000D01*
G75*
G02*
X32715000Y-124825000I150000J0D01*
G01*
X33015000Y-124825000D01*
G75*
G02*
X33165000Y-124975000I0J-150000D01*
G01*
X33165000Y-126725000D01*
G75*
G02*
X33015000Y-126875000I-150000J0D01*
G01*
G37*
G36*
G01*
X31745000Y-126875000D02*
X31445000Y-126875000D01*
G75*
G02*
X31295000Y-126725000I0J150000D01*
G01*
X31295000Y-124975000D01*
G75*
G02*
X31445000Y-124825000I150000J0D01*
G01*
X31745000Y-124825000D01*
G75*
G02*
X31895000Y-124975000I0J-150000D01*
G01*
X31895000Y-126725000D01*
G75*
G02*
X31745000Y-126875000I-150000J0D01*
G01*
G37*
G36*
G01*
X30475000Y-126875000D02*
X30175000Y-126875000D01*
G75*
G02*
X30025000Y-126725000I0J150000D01*
G01*
X30025000Y-124975000D01*
G75*
G02*
X30175000Y-124825000I150000J0D01*
G01*
X30475000Y-124825000D01*
G75*
G02*
X30625000Y-124975000I0J-150000D01*
G01*
X30625000Y-126725000D01*
G75*
G02*
X30475000Y-126875000I-150000J0D01*
G01*
G37*
G36*
G01*
X29205000Y-126875000D02*
X28905000Y-126875000D01*
G75*
G02*
X28755000Y-126725000I0J150000D01*
G01*
X28755000Y-124975000D01*
G75*
G02*
X28905000Y-124825000I150000J0D01*
G01*
X29205000Y-124825000D01*
G75*
G02*
X29355000Y-124975000I0J-150000D01*
G01*
X29355000Y-126725000D01*
G75*
G02*
X29205000Y-126875000I-150000J0D01*
G01*
G37*
G36*
G01*
X27935000Y-126875000D02*
X27635000Y-126875000D01*
G75*
G02*
X27485000Y-126725000I0J150000D01*
G01*
X27485000Y-124975000D01*
G75*
G02*
X27635000Y-124825000I150000J0D01*
G01*
X27935000Y-124825000D01*
G75*
G02*
X28085000Y-124975000I0J-150000D01*
G01*
X28085000Y-126725000D01*
G75*
G02*
X27935000Y-126875000I-150000J0D01*
G01*
G37*
G36*
G01*
X27935000Y-136175000D02*
X27635000Y-136175000D01*
G75*
G02*
X27485000Y-136025000I0J150000D01*
G01*
X27485000Y-134275000D01*
G75*
G02*
X27635000Y-134125000I150000J0D01*
G01*
X27935000Y-134125000D01*
G75*
G02*
X28085000Y-134275000I0J-150000D01*
G01*
X28085000Y-136025000D01*
G75*
G02*
X27935000Y-136175000I-150000J0D01*
G01*
G37*
G36*
G01*
X29205000Y-136175000D02*
X28905000Y-136175000D01*
G75*
G02*
X28755000Y-136025000I0J150000D01*
G01*
X28755000Y-134275000D01*
G75*
G02*
X28905000Y-134125000I150000J0D01*
G01*
X29205000Y-134125000D01*
G75*
G02*
X29355000Y-134275000I0J-150000D01*
G01*
X29355000Y-136025000D01*
G75*
G02*
X29205000Y-136175000I-150000J0D01*
G01*
G37*
G36*
G01*
X30475000Y-136175000D02*
X30175000Y-136175000D01*
G75*
G02*
X30025000Y-136025000I0J150000D01*
G01*
X30025000Y-134275000D01*
G75*
G02*
X30175000Y-134125000I150000J0D01*
G01*
X30475000Y-134125000D01*
G75*
G02*
X30625000Y-134275000I0J-150000D01*
G01*
X30625000Y-136025000D01*
G75*
G02*
X30475000Y-136175000I-150000J0D01*
G01*
G37*
G36*
G01*
X31745000Y-136175000D02*
X31445000Y-136175000D01*
G75*
G02*
X31295000Y-136025000I0J150000D01*
G01*
X31295000Y-134275000D01*
G75*
G02*
X31445000Y-134125000I150000J0D01*
G01*
X31745000Y-134125000D01*
G75*
G02*
X31895000Y-134275000I0J-150000D01*
G01*
X31895000Y-136025000D01*
G75*
G02*
X31745000Y-136175000I-150000J0D01*
G01*
G37*
G36*
G01*
X33015000Y-136175000D02*
X32715000Y-136175000D01*
G75*
G02*
X32565000Y-136025000I0J150000D01*
G01*
X32565000Y-134275000D01*
G75*
G02*
X32715000Y-134125000I150000J0D01*
G01*
X33015000Y-134125000D01*
G75*
G02*
X33165000Y-134275000I0J-150000D01*
G01*
X33165000Y-136025000D01*
G75*
G02*
X33015000Y-136175000I-150000J0D01*
G01*
G37*
G36*
G01*
X34285000Y-136175000D02*
X33985000Y-136175000D01*
G75*
G02*
X33835000Y-136025000I0J150000D01*
G01*
X33835000Y-134275000D01*
G75*
G02*
X33985000Y-134125000I150000J0D01*
G01*
X34285000Y-134125000D01*
G75*
G02*
X34435000Y-134275000I0J-150000D01*
G01*
X34435000Y-136025000D01*
G75*
G02*
X34285000Y-136175000I-150000J0D01*
G01*
G37*
G36*
G01*
X35555000Y-136175000D02*
X35255000Y-136175000D01*
G75*
G02*
X35105000Y-136025000I0J150000D01*
G01*
X35105000Y-134275000D01*
G75*
G02*
X35255000Y-134125000I150000J0D01*
G01*
X35555000Y-134125000D01*
G75*
G02*
X35705000Y-134275000I0J-150000D01*
G01*
X35705000Y-136025000D01*
G75*
G02*
X35555000Y-136175000I-150000J0D01*
G01*
G37*
G36*
G01*
X36825000Y-136175000D02*
X36525000Y-136175000D01*
G75*
G02*
X36375000Y-136025000I0J150000D01*
G01*
X36375000Y-134275000D01*
G75*
G02*
X36525000Y-134125000I150000J0D01*
G01*
X36825000Y-134125000D01*
G75*
G02*
X36975000Y-134275000I0J-150000D01*
G01*
X36975000Y-136025000D01*
G75*
G02*
X36825000Y-136175000I-150000J0D01*
G01*
G37*
G36*
G01*
X38095000Y-136175000D02*
X37795000Y-136175000D01*
G75*
G02*
X37645000Y-136025000I0J150000D01*
G01*
X37645000Y-134275000D01*
G75*
G02*
X37795000Y-134125000I150000J0D01*
G01*
X38095000Y-134125000D01*
G75*
G02*
X38245000Y-134275000I0J-150000D01*
G01*
X38245000Y-136025000D01*
G75*
G02*
X38095000Y-136175000I-150000J0D01*
G01*
G37*
G36*
G01*
X39365000Y-136175000D02*
X39065000Y-136175000D01*
G75*
G02*
X38915000Y-136025000I0J150000D01*
G01*
X38915000Y-134275000D01*
G75*
G02*
X39065000Y-134125000I150000J0D01*
G01*
X39365000Y-134125000D01*
G75*
G02*
X39515000Y-134275000I0J-150000D01*
G01*
X39515000Y-136025000D01*
G75*
G02*
X39365000Y-136175000I-150000J0D01*
G01*
G37*
G04 #@! TD*
G04 #@! TO.C,U15*
G36*
G01*
X70365000Y-126875000D02*
X70065000Y-126875000D01*
G75*
G02*
X69915000Y-126725000I0J150000D01*
G01*
X69915000Y-124975000D01*
G75*
G02*
X70065000Y-124825000I150000J0D01*
G01*
X70365000Y-124825000D01*
G75*
G02*
X70515000Y-124975000I0J-150000D01*
G01*
X70515000Y-126725000D01*
G75*
G02*
X70365000Y-126875000I-150000J0D01*
G01*
G37*
G36*
G01*
X69095000Y-126875000D02*
X68795000Y-126875000D01*
G75*
G02*
X68645000Y-126725000I0J150000D01*
G01*
X68645000Y-124975000D01*
G75*
G02*
X68795000Y-124825000I150000J0D01*
G01*
X69095000Y-124825000D01*
G75*
G02*
X69245000Y-124975000I0J-150000D01*
G01*
X69245000Y-126725000D01*
G75*
G02*
X69095000Y-126875000I-150000J0D01*
G01*
G37*
G36*
G01*
X67825000Y-126875000D02*
X67525000Y-126875000D01*
G75*
G02*
X67375000Y-126725000I0J150000D01*
G01*
X67375000Y-124975000D01*
G75*
G02*
X67525000Y-124825000I150000J0D01*
G01*
X67825000Y-124825000D01*
G75*
G02*
X67975000Y-124975000I0J-150000D01*
G01*
X67975000Y-126725000D01*
G75*
G02*
X67825000Y-126875000I-150000J0D01*
G01*
G37*
G36*
G01*
X66555000Y-126875000D02*
X66255000Y-126875000D01*
G75*
G02*
X66105000Y-126725000I0J150000D01*
G01*
X66105000Y-124975000D01*
G75*
G02*
X66255000Y-124825000I150000J0D01*
G01*
X66555000Y-124825000D01*
G75*
G02*
X66705000Y-124975000I0J-150000D01*
G01*
X66705000Y-126725000D01*
G75*
G02*
X66555000Y-126875000I-150000J0D01*
G01*
G37*
G36*
G01*
X65285000Y-126875000D02*
X64985000Y-126875000D01*
G75*
G02*
X64835000Y-126725000I0J150000D01*
G01*
X64835000Y-124975000D01*
G75*
G02*
X64985000Y-124825000I150000J0D01*
G01*
X65285000Y-124825000D01*
G75*
G02*
X65435000Y-124975000I0J-150000D01*
G01*
X65435000Y-126725000D01*
G75*
G02*
X65285000Y-126875000I-150000J0D01*
G01*
G37*
G36*
G01*
X64015000Y-126875000D02*
X63715000Y-126875000D01*
G75*
G02*
X63565000Y-126725000I0J150000D01*
G01*
X63565000Y-124975000D01*
G75*
G02*
X63715000Y-124825000I150000J0D01*
G01*
X64015000Y-124825000D01*
G75*
G02*
X64165000Y-124975000I0J-150000D01*
G01*
X64165000Y-126725000D01*
G75*
G02*
X64015000Y-126875000I-150000J0D01*
G01*
G37*
G36*
G01*
X62745000Y-126875000D02*
X62445000Y-126875000D01*
G75*
G02*
X62295000Y-126725000I0J150000D01*
G01*
X62295000Y-124975000D01*
G75*
G02*
X62445000Y-124825000I150000J0D01*
G01*
X62745000Y-124825000D01*
G75*
G02*
X62895000Y-124975000I0J-150000D01*
G01*
X62895000Y-126725000D01*
G75*
G02*
X62745000Y-126875000I-150000J0D01*
G01*
G37*
G36*
G01*
X61475000Y-126875000D02*
X61175000Y-126875000D01*
G75*
G02*
X61025000Y-126725000I0J150000D01*
G01*
X61025000Y-124975000D01*
G75*
G02*
X61175000Y-124825000I150000J0D01*
G01*
X61475000Y-124825000D01*
G75*
G02*
X61625000Y-124975000I0J-150000D01*
G01*
X61625000Y-126725000D01*
G75*
G02*
X61475000Y-126875000I-150000J0D01*
G01*
G37*
G36*
G01*
X60205000Y-126875000D02*
X59905000Y-126875000D01*
G75*
G02*
X59755000Y-126725000I0J150000D01*
G01*
X59755000Y-124975000D01*
G75*
G02*
X59905000Y-124825000I150000J0D01*
G01*
X60205000Y-124825000D01*
G75*
G02*
X60355000Y-124975000I0J-150000D01*
G01*
X60355000Y-126725000D01*
G75*
G02*
X60205000Y-126875000I-150000J0D01*
G01*
G37*
G36*
G01*
X58935000Y-126875000D02*
X58635000Y-126875000D01*
G75*
G02*
X58485000Y-126725000I0J150000D01*
G01*
X58485000Y-124975000D01*
G75*
G02*
X58635000Y-124825000I150000J0D01*
G01*
X58935000Y-124825000D01*
G75*
G02*
X59085000Y-124975000I0J-150000D01*
G01*
X59085000Y-126725000D01*
G75*
G02*
X58935000Y-126875000I-150000J0D01*
G01*
G37*
G36*
G01*
X58935000Y-136175000D02*
X58635000Y-136175000D01*
G75*
G02*
X58485000Y-136025000I0J150000D01*
G01*
X58485000Y-134275000D01*
G75*
G02*
X58635000Y-134125000I150000J0D01*
G01*
X58935000Y-134125000D01*
G75*
G02*
X59085000Y-134275000I0J-150000D01*
G01*
X59085000Y-136025000D01*
G75*
G02*
X58935000Y-136175000I-150000J0D01*
G01*
G37*
G36*
G01*
X60205000Y-136175000D02*
X59905000Y-136175000D01*
G75*
G02*
X59755000Y-136025000I0J150000D01*
G01*
X59755000Y-134275000D01*
G75*
G02*
X59905000Y-134125000I150000J0D01*
G01*
X60205000Y-134125000D01*
G75*
G02*
X60355000Y-134275000I0J-150000D01*
G01*
X60355000Y-136025000D01*
G75*
G02*
X60205000Y-136175000I-150000J0D01*
G01*
G37*
G36*
G01*
X61475000Y-136175000D02*
X61175000Y-136175000D01*
G75*
G02*
X61025000Y-136025000I0J150000D01*
G01*
X61025000Y-134275000D01*
G75*
G02*
X61175000Y-134125000I150000J0D01*
G01*
X61475000Y-134125000D01*
G75*
G02*
X61625000Y-134275000I0J-150000D01*
G01*
X61625000Y-136025000D01*
G75*
G02*
X61475000Y-136175000I-150000J0D01*
G01*
G37*
G36*
G01*
X62745000Y-136175000D02*
X62445000Y-136175000D01*
G75*
G02*
X62295000Y-136025000I0J150000D01*
G01*
X62295000Y-134275000D01*
G75*
G02*
X62445000Y-134125000I150000J0D01*
G01*
X62745000Y-134125000D01*
G75*
G02*
X62895000Y-134275000I0J-150000D01*
G01*
X62895000Y-136025000D01*
G75*
G02*
X62745000Y-136175000I-150000J0D01*
G01*
G37*
G36*
G01*
X64015000Y-136175000D02*
X63715000Y-136175000D01*
G75*
G02*
X63565000Y-136025000I0J150000D01*
G01*
X63565000Y-134275000D01*
G75*
G02*
X63715000Y-134125000I150000J0D01*
G01*
X64015000Y-134125000D01*
G75*
G02*
X64165000Y-134275000I0J-150000D01*
G01*
X64165000Y-136025000D01*
G75*
G02*
X64015000Y-136175000I-150000J0D01*
G01*
G37*
G36*
G01*
X65285000Y-136175000D02*
X64985000Y-136175000D01*
G75*
G02*
X64835000Y-136025000I0J150000D01*
G01*
X64835000Y-134275000D01*
G75*
G02*
X64985000Y-134125000I150000J0D01*
G01*
X65285000Y-134125000D01*
G75*
G02*
X65435000Y-134275000I0J-150000D01*
G01*
X65435000Y-136025000D01*
G75*
G02*
X65285000Y-136175000I-150000J0D01*
G01*
G37*
G36*
G01*
X66555000Y-136175000D02*
X66255000Y-136175000D01*
G75*
G02*
X66105000Y-136025000I0J150000D01*
G01*
X66105000Y-134275000D01*
G75*
G02*
X66255000Y-134125000I150000J0D01*
G01*
X66555000Y-134125000D01*
G75*
G02*
X66705000Y-134275000I0J-150000D01*
G01*
X66705000Y-136025000D01*
G75*
G02*
X66555000Y-136175000I-150000J0D01*
G01*
G37*
G36*
G01*
X67825000Y-136175000D02*
X67525000Y-136175000D01*
G75*
G02*
X67375000Y-136025000I0J150000D01*
G01*
X67375000Y-134275000D01*
G75*
G02*
X67525000Y-134125000I150000J0D01*
G01*
X67825000Y-134125000D01*
G75*
G02*
X67975000Y-134275000I0J-150000D01*
G01*
X67975000Y-136025000D01*
G75*
G02*
X67825000Y-136175000I-150000J0D01*
G01*
G37*
G36*
G01*
X69095000Y-136175000D02*
X68795000Y-136175000D01*
G75*
G02*
X68645000Y-136025000I0J150000D01*
G01*
X68645000Y-134275000D01*
G75*
G02*
X68795000Y-134125000I150000J0D01*
G01*
X69095000Y-134125000D01*
G75*
G02*
X69245000Y-134275000I0J-150000D01*
G01*
X69245000Y-136025000D01*
G75*
G02*
X69095000Y-136175000I-150000J0D01*
G01*
G37*
G36*
G01*
X70365000Y-136175000D02*
X70065000Y-136175000D01*
G75*
G02*
X69915000Y-136025000I0J150000D01*
G01*
X69915000Y-134275000D01*
G75*
G02*
X70065000Y-134125000I150000J0D01*
G01*
X70365000Y-134125000D01*
G75*
G02*
X70515000Y-134275000I0J-150000D01*
G01*
X70515000Y-136025000D01*
G75*
G02*
X70365000Y-136175000I-150000J0D01*
G01*
G37*
G04 #@! TD*
G04 #@! TO.C,U14*
G36*
G01*
X55365000Y-126875000D02*
X55065000Y-126875000D01*
G75*
G02*
X54915000Y-126725000I0J150000D01*
G01*
X54915000Y-124975000D01*
G75*
G02*
X55065000Y-124825000I150000J0D01*
G01*
X55365000Y-124825000D01*
G75*
G02*
X55515000Y-124975000I0J-150000D01*
G01*
X55515000Y-126725000D01*
G75*
G02*
X55365000Y-126875000I-150000J0D01*
G01*
G37*
G36*
G01*
X54095000Y-126875000D02*
X53795000Y-126875000D01*
G75*
G02*
X53645000Y-126725000I0J150000D01*
G01*
X53645000Y-124975000D01*
G75*
G02*
X53795000Y-124825000I150000J0D01*
G01*
X54095000Y-124825000D01*
G75*
G02*
X54245000Y-124975000I0J-150000D01*
G01*
X54245000Y-126725000D01*
G75*
G02*
X54095000Y-126875000I-150000J0D01*
G01*
G37*
G36*
G01*
X52825000Y-126875000D02*
X52525000Y-126875000D01*
G75*
G02*
X52375000Y-126725000I0J150000D01*
G01*
X52375000Y-124975000D01*
G75*
G02*
X52525000Y-124825000I150000J0D01*
G01*
X52825000Y-124825000D01*
G75*
G02*
X52975000Y-124975000I0J-150000D01*
G01*
X52975000Y-126725000D01*
G75*
G02*
X52825000Y-126875000I-150000J0D01*
G01*
G37*
G36*
G01*
X51555000Y-126875000D02*
X51255000Y-126875000D01*
G75*
G02*
X51105000Y-126725000I0J150000D01*
G01*
X51105000Y-124975000D01*
G75*
G02*
X51255000Y-124825000I150000J0D01*
G01*
X51555000Y-124825000D01*
G75*
G02*
X51705000Y-124975000I0J-150000D01*
G01*
X51705000Y-126725000D01*
G75*
G02*
X51555000Y-126875000I-150000J0D01*
G01*
G37*
G36*
G01*
X50285000Y-126875000D02*
X49985000Y-126875000D01*
G75*
G02*
X49835000Y-126725000I0J150000D01*
G01*
X49835000Y-124975000D01*
G75*
G02*
X49985000Y-124825000I150000J0D01*
G01*
X50285000Y-124825000D01*
G75*
G02*
X50435000Y-124975000I0J-150000D01*
G01*
X50435000Y-126725000D01*
G75*
G02*
X50285000Y-126875000I-150000J0D01*
G01*
G37*
G36*
G01*
X49015000Y-126875000D02*
X48715000Y-126875000D01*
G75*
G02*
X48565000Y-126725000I0J150000D01*
G01*
X48565000Y-124975000D01*
G75*
G02*
X48715000Y-124825000I150000J0D01*
G01*
X49015000Y-124825000D01*
G75*
G02*
X49165000Y-124975000I0J-150000D01*
G01*
X49165000Y-126725000D01*
G75*
G02*
X49015000Y-126875000I-150000J0D01*
G01*
G37*
G36*
G01*
X47745000Y-126875000D02*
X47445000Y-126875000D01*
G75*
G02*
X47295000Y-126725000I0J150000D01*
G01*
X47295000Y-124975000D01*
G75*
G02*
X47445000Y-124825000I150000J0D01*
G01*
X47745000Y-124825000D01*
G75*
G02*
X47895000Y-124975000I0J-150000D01*
G01*
X47895000Y-126725000D01*
G75*
G02*
X47745000Y-126875000I-150000J0D01*
G01*
G37*
G36*
G01*
X46475000Y-126875000D02*
X46175000Y-126875000D01*
G75*
G02*
X46025000Y-126725000I0J150000D01*
G01*
X46025000Y-124975000D01*
G75*
G02*
X46175000Y-124825000I150000J0D01*
G01*
X46475000Y-124825000D01*
G75*
G02*
X46625000Y-124975000I0J-150000D01*
G01*
X46625000Y-126725000D01*
G75*
G02*
X46475000Y-126875000I-150000J0D01*
G01*
G37*
G36*
G01*
X45205000Y-126875000D02*
X44905000Y-126875000D01*
G75*
G02*
X44755000Y-126725000I0J150000D01*
G01*
X44755000Y-124975000D01*
G75*
G02*
X44905000Y-124825000I150000J0D01*
G01*
X45205000Y-124825000D01*
G75*
G02*
X45355000Y-124975000I0J-150000D01*
G01*
X45355000Y-126725000D01*
G75*
G02*
X45205000Y-126875000I-150000J0D01*
G01*
G37*
G36*
G01*
X43935000Y-126875000D02*
X43635000Y-126875000D01*
G75*
G02*
X43485000Y-126725000I0J150000D01*
G01*
X43485000Y-124975000D01*
G75*
G02*
X43635000Y-124825000I150000J0D01*
G01*
X43935000Y-124825000D01*
G75*
G02*
X44085000Y-124975000I0J-150000D01*
G01*
X44085000Y-126725000D01*
G75*
G02*
X43935000Y-126875000I-150000J0D01*
G01*
G37*
G36*
G01*
X43935000Y-136175000D02*
X43635000Y-136175000D01*
G75*
G02*
X43485000Y-136025000I0J150000D01*
G01*
X43485000Y-134275000D01*
G75*
G02*
X43635000Y-134125000I150000J0D01*
G01*
X43935000Y-134125000D01*
G75*
G02*
X44085000Y-134275000I0J-150000D01*
G01*
X44085000Y-136025000D01*
G75*
G02*
X43935000Y-136175000I-150000J0D01*
G01*
G37*
G36*
G01*
X45205000Y-136175000D02*
X44905000Y-136175000D01*
G75*
G02*
X44755000Y-136025000I0J150000D01*
G01*
X44755000Y-134275000D01*
G75*
G02*
X44905000Y-134125000I150000J0D01*
G01*
X45205000Y-134125000D01*
G75*
G02*
X45355000Y-134275000I0J-150000D01*
G01*
X45355000Y-136025000D01*
G75*
G02*
X45205000Y-136175000I-150000J0D01*
G01*
G37*
G36*
G01*
X46475000Y-136175000D02*
X46175000Y-136175000D01*
G75*
G02*
X46025000Y-136025000I0J150000D01*
G01*
X46025000Y-134275000D01*
G75*
G02*
X46175000Y-134125000I150000J0D01*
G01*
X46475000Y-134125000D01*
G75*
G02*
X46625000Y-134275000I0J-150000D01*
G01*
X46625000Y-136025000D01*
G75*
G02*
X46475000Y-136175000I-150000J0D01*
G01*
G37*
G36*
G01*
X47745000Y-136175000D02*
X47445000Y-136175000D01*
G75*
G02*
X47295000Y-136025000I0J150000D01*
G01*
X47295000Y-134275000D01*
G75*
G02*
X47445000Y-134125000I150000J0D01*
G01*
X47745000Y-134125000D01*
G75*
G02*
X47895000Y-134275000I0J-150000D01*
G01*
X47895000Y-136025000D01*
G75*
G02*
X47745000Y-136175000I-150000J0D01*
G01*
G37*
G36*
G01*
X49015000Y-136175000D02*
X48715000Y-136175000D01*
G75*
G02*
X48565000Y-136025000I0J150000D01*
G01*
X48565000Y-134275000D01*
G75*
G02*
X48715000Y-134125000I150000J0D01*
G01*
X49015000Y-134125000D01*
G75*
G02*
X49165000Y-134275000I0J-150000D01*
G01*
X49165000Y-136025000D01*
G75*
G02*
X49015000Y-136175000I-150000J0D01*
G01*
G37*
G36*
G01*
X50285000Y-136175000D02*
X49985000Y-136175000D01*
G75*
G02*
X49835000Y-136025000I0J150000D01*
G01*
X49835000Y-134275000D01*
G75*
G02*
X49985000Y-134125000I150000J0D01*
G01*
X50285000Y-134125000D01*
G75*
G02*
X50435000Y-134275000I0J-150000D01*
G01*
X50435000Y-136025000D01*
G75*
G02*
X50285000Y-136175000I-150000J0D01*
G01*
G37*
G36*
G01*
X51555000Y-136175000D02*
X51255000Y-136175000D01*
G75*
G02*
X51105000Y-136025000I0J150000D01*
G01*
X51105000Y-134275000D01*
G75*
G02*
X51255000Y-134125000I150000J0D01*
G01*
X51555000Y-134125000D01*
G75*
G02*
X51705000Y-134275000I0J-150000D01*
G01*
X51705000Y-136025000D01*
G75*
G02*
X51555000Y-136175000I-150000J0D01*
G01*
G37*
G36*
G01*
X52825000Y-136175000D02*
X52525000Y-136175000D01*
G75*
G02*
X52375000Y-136025000I0J150000D01*
G01*
X52375000Y-134275000D01*
G75*
G02*
X52525000Y-134125000I150000J0D01*
G01*
X52825000Y-134125000D01*
G75*
G02*
X52975000Y-134275000I0J-150000D01*
G01*
X52975000Y-136025000D01*
G75*
G02*
X52825000Y-136175000I-150000J0D01*
G01*
G37*
G36*
G01*
X54095000Y-136175000D02*
X53795000Y-136175000D01*
G75*
G02*
X53645000Y-136025000I0J150000D01*
G01*
X53645000Y-134275000D01*
G75*
G02*
X53795000Y-134125000I150000J0D01*
G01*
X54095000Y-134125000D01*
G75*
G02*
X54245000Y-134275000I0J-150000D01*
G01*
X54245000Y-136025000D01*
G75*
G02*
X54095000Y-136175000I-150000J0D01*
G01*
G37*
G36*
G01*
X55365000Y-136175000D02*
X55065000Y-136175000D01*
G75*
G02*
X54915000Y-136025000I0J150000D01*
G01*
X54915000Y-134275000D01*
G75*
G02*
X55065000Y-134125000I150000J0D01*
G01*
X55365000Y-134125000D01*
G75*
G02*
X55515000Y-134275000I0J-150000D01*
G01*
X55515000Y-136025000D01*
G75*
G02*
X55365000Y-136175000I-150000J0D01*
G01*
G37*
G04 #@! TD*
D22*
G04 #@! TO.C,U13*
X119850000Y-108620000D03*
X119850000Y-93380000D03*
X114770000Y-93380000D03*
X117310000Y-93380000D03*
X112230000Y-93380000D03*
X109690000Y-93380000D03*
X107150000Y-93380000D03*
X117310000Y-108620000D03*
X114770000Y-108620000D03*
X112230000Y-108620000D03*
X109690000Y-108620000D03*
D23*
X107150000Y-108620000D03*
G04 #@! TD*
G04 #@! TO.C,U11*
G36*
G01*
X135365000Y-135875000D02*
X135065000Y-135875000D01*
G75*
G02*
X134915000Y-135725000I0J150000D01*
G01*
X134915000Y-133975000D01*
G75*
G02*
X135065000Y-133825000I150000J0D01*
G01*
X135365000Y-133825000D01*
G75*
G02*
X135515000Y-133975000I0J-150000D01*
G01*
X135515000Y-135725000D01*
G75*
G02*
X135365000Y-135875000I-150000J0D01*
G01*
G37*
G36*
G01*
X134095000Y-135875000D02*
X133795000Y-135875000D01*
G75*
G02*
X133645000Y-135725000I0J150000D01*
G01*
X133645000Y-133975000D01*
G75*
G02*
X133795000Y-133825000I150000J0D01*
G01*
X134095000Y-133825000D01*
G75*
G02*
X134245000Y-133975000I0J-150000D01*
G01*
X134245000Y-135725000D01*
G75*
G02*
X134095000Y-135875000I-150000J0D01*
G01*
G37*
G36*
G01*
X132825000Y-135875000D02*
X132525000Y-135875000D01*
G75*
G02*
X132375000Y-135725000I0J150000D01*
G01*
X132375000Y-133975000D01*
G75*
G02*
X132525000Y-133825000I150000J0D01*
G01*
X132825000Y-133825000D01*
G75*
G02*
X132975000Y-133975000I0J-150000D01*
G01*
X132975000Y-135725000D01*
G75*
G02*
X132825000Y-135875000I-150000J0D01*
G01*
G37*
G36*
G01*
X131555000Y-135875000D02*
X131255000Y-135875000D01*
G75*
G02*
X131105000Y-135725000I0J150000D01*
G01*
X131105000Y-133975000D01*
G75*
G02*
X131255000Y-133825000I150000J0D01*
G01*
X131555000Y-133825000D01*
G75*
G02*
X131705000Y-133975000I0J-150000D01*
G01*
X131705000Y-135725000D01*
G75*
G02*
X131555000Y-135875000I-150000J0D01*
G01*
G37*
G36*
G01*
X130285000Y-135875000D02*
X129985000Y-135875000D01*
G75*
G02*
X129835000Y-135725000I0J150000D01*
G01*
X129835000Y-133975000D01*
G75*
G02*
X129985000Y-133825000I150000J0D01*
G01*
X130285000Y-133825000D01*
G75*
G02*
X130435000Y-133975000I0J-150000D01*
G01*
X130435000Y-135725000D01*
G75*
G02*
X130285000Y-135875000I-150000J0D01*
G01*
G37*
G36*
G01*
X129015000Y-135875000D02*
X128715000Y-135875000D01*
G75*
G02*
X128565000Y-135725000I0J150000D01*
G01*
X128565000Y-133975000D01*
G75*
G02*
X128715000Y-133825000I150000J0D01*
G01*
X129015000Y-133825000D01*
G75*
G02*
X129165000Y-133975000I0J-150000D01*
G01*
X129165000Y-135725000D01*
G75*
G02*
X129015000Y-135875000I-150000J0D01*
G01*
G37*
G36*
G01*
X127745000Y-135875000D02*
X127445000Y-135875000D01*
G75*
G02*
X127295000Y-135725000I0J150000D01*
G01*
X127295000Y-133975000D01*
G75*
G02*
X127445000Y-133825000I150000J0D01*
G01*
X127745000Y-133825000D01*
G75*
G02*
X127895000Y-133975000I0J-150000D01*
G01*
X127895000Y-135725000D01*
G75*
G02*
X127745000Y-135875000I-150000J0D01*
G01*
G37*
G36*
G01*
X126475000Y-135875000D02*
X126175000Y-135875000D01*
G75*
G02*
X126025000Y-135725000I0J150000D01*
G01*
X126025000Y-133975000D01*
G75*
G02*
X126175000Y-133825000I150000J0D01*
G01*
X126475000Y-133825000D01*
G75*
G02*
X126625000Y-133975000I0J-150000D01*
G01*
X126625000Y-135725000D01*
G75*
G02*
X126475000Y-135875000I-150000J0D01*
G01*
G37*
G36*
G01*
X125205000Y-135875000D02*
X124905000Y-135875000D01*
G75*
G02*
X124755000Y-135725000I0J150000D01*
G01*
X124755000Y-133975000D01*
G75*
G02*
X124905000Y-133825000I150000J0D01*
G01*
X125205000Y-133825000D01*
G75*
G02*
X125355000Y-133975000I0J-150000D01*
G01*
X125355000Y-135725000D01*
G75*
G02*
X125205000Y-135875000I-150000J0D01*
G01*
G37*
G36*
G01*
X123935000Y-135875000D02*
X123635000Y-135875000D01*
G75*
G02*
X123485000Y-135725000I0J150000D01*
G01*
X123485000Y-133975000D01*
G75*
G02*
X123635000Y-133825000I150000J0D01*
G01*
X123935000Y-133825000D01*
G75*
G02*
X124085000Y-133975000I0J-150000D01*
G01*
X124085000Y-135725000D01*
G75*
G02*
X123935000Y-135875000I-150000J0D01*
G01*
G37*
G36*
G01*
X123935000Y-145175000D02*
X123635000Y-145175000D01*
G75*
G02*
X123485000Y-145025000I0J150000D01*
G01*
X123485000Y-143275000D01*
G75*
G02*
X123635000Y-143125000I150000J0D01*
G01*
X123935000Y-143125000D01*
G75*
G02*
X124085000Y-143275000I0J-150000D01*
G01*
X124085000Y-145025000D01*
G75*
G02*
X123935000Y-145175000I-150000J0D01*
G01*
G37*
G36*
G01*
X125205000Y-145175000D02*
X124905000Y-145175000D01*
G75*
G02*
X124755000Y-145025000I0J150000D01*
G01*
X124755000Y-143275000D01*
G75*
G02*
X124905000Y-143125000I150000J0D01*
G01*
X125205000Y-143125000D01*
G75*
G02*
X125355000Y-143275000I0J-150000D01*
G01*
X125355000Y-145025000D01*
G75*
G02*
X125205000Y-145175000I-150000J0D01*
G01*
G37*
G36*
G01*
X126475000Y-145175000D02*
X126175000Y-145175000D01*
G75*
G02*
X126025000Y-145025000I0J150000D01*
G01*
X126025000Y-143275000D01*
G75*
G02*
X126175000Y-143125000I150000J0D01*
G01*
X126475000Y-143125000D01*
G75*
G02*
X126625000Y-143275000I0J-150000D01*
G01*
X126625000Y-145025000D01*
G75*
G02*
X126475000Y-145175000I-150000J0D01*
G01*
G37*
G36*
G01*
X127745000Y-145175000D02*
X127445000Y-145175000D01*
G75*
G02*
X127295000Y-145025000I0J150000D01*
G01*
X127295000Y-143275000D01*
G75*
G02*
X127445000Y-143125000I150000J0D01*
G01*
X127745000Y-143125000D01*
G75*
G02*
X127895000Y-143275000I0J-150000D01*
G01*
X127895000Y-145025000D01*
G75*
G02*
X127745000Y-145175000I-150000J0D01*
G01*
G37*
G36*
G01*
X129015000Y-145175000D02*
X128715000Y-145175000D01*
G75*
G02*
X128565000Y-145025000I0J150000D01*
G01*
X128565000Y-143275000D01*
G75*
G02*
X128715000Y-143125000I150000J0D01*
G01*
X129015000Y-143125000D01*
G75*
G02*
X129165000Y-143275000I0J-150000D01*
G01*
X129165000Y-145025000D01*
G75*
G02*
X129015000Y-145175000I-150000J0D01*
G01*
G37*
G36*
G01*
X130285000Y-145175000D02*
X129985000Y-145175000D01*
G75*
G02*
X129835000Y-145025000I0J150000D01*
G01*
X129835000Y-143275000D01*
G75*
G02*
X129985000Y-143125000I150000J0D01*
G01*
X130285000Y-143125000D01*
G75*
G02*
X130435000Y-143275000I0J-150000D01*
G01*
X130435000Y-145025000D01*
G75*
G02*
X130285000Y-145175000I-150000J0D01*
G01*
G37*
G36*
G01*
X131555000Y-145175000D02*
X131255000Y-145175000D01*
G75*
G02*
X131105000Y-145025000I0J150000D01*
G01*
X131105000Y-143275000D01*
G75*
G02*
X131255000Y-143125000I150000J0D01*
G01*
X131555000Y-143125000D01*
G75*
G02*
X131705000Y-143275000I0J-150000D01*
G01*
X131705000Y-145025000D01*
G75*
G02*
X131555000Y-145175000I-150000J0D01*
G01*
G37*
G36*
G01*
X132825000Y-145175000D02*
X132525000Y-145175000D01*
G75*
G02*
X132375000Y-145025000I0J150000D01*
G01*
X132375000Y-143275000D01*
G75*
G02*
X132525000Y-143125000I150000J0D01*
G01*
X132825000Y-143125000D01*
G75*
G02*
X132975000Y-143275000I0J-150000D01*
G01*
X132975000Y-145025000D01*
G75*
G02*
X132825000Y-145175000I-150000J0D01*
G01*
G37*
G36*
G01*
X134095000Y-145175000D02*
X133795000Y-145175000D01*
G75*
G02*
X133645000Y-145025000I0J150000D01*
G01*
X133645000Y-143275000D01*
G75*
G02*
X133795000Y-143125000I150000J0D01*
G01*
X134095000Y-143125000D01*
G75*
G02*
X134245000Y-143275000I0J-150000D01*
G01*
X134245000Y-145025000D01*
G75*
G02*
X134095000Y-145175000I-150000J0D01*
G01*
G37*
G36*
G01*
X135365000Y-145175000D02*
X135065000Y-145175000D01*
G75*
G02*
X134915000Y-145025000I0J150000D01*
G01*
X134915000Y-143275000D01*
G75*
G02*
X135065000Y-143125000I150000J0D01*
G01*
X135365000Y-143125000D01*
G75*
G02*
X135515000Y-143275000I0J-150000D01*
G01*
X135515000Y-145025000D01*
G75*
G02*
X135365000Y-145175000I-150000J0D01*
G01*
G37*
G04 #@! TD*
G04 #@! TO.C,U10*
G36*
G01*
X149865000Y-135875000D02*
X149565000Y-135875000D01*
G75*
G02*
X149415000Y-135725000I0J150000D01*
G01*
X149415000Y-133975000D01*
G75*
G02*
X149565000Y-133825000I150000J0D01*
G01*
X149865000Y-133825000D01*
G75*
G02*
X150015000Y-133975000I0J-150000D01*
G01*
X150015000Y-135725000D01*
G75*
G02*
X149865000Y-135875000I-150000J0D01*
G01*
G37*
G36*
G01*
X148595000Y-135875000D02*
X148295000Y-135875000D01*
G75*
G02*
X148145000Y-135725000I0J150000D01*
G01*
X148145000Y-133975000D01*
G75*
G02*
X148295000Y-133825000I150000J0D01*
G01*
X148595000Y-133825000D01*
G75*
G02*
X148745000Y-133975000I0J-150000D01*
G01*
X148745000Y-135725000D01*
G75*
G02*
X148595000Y-135875000I-150000J0D01*
G01*
G37*
G36*
G01*
X147325000Y-135875000D02*
X147025000Y-135875000D01*
G75*
G02*
X146875000Y-135725000I0J150000D01*
G01*
X146875000Y-133975000D01*
G75*
G02*
X147025000Y-133825000I150000J0D01*
G01*
X147325000Y-133825000D01*
G75*
G02*
X147475000Y-133975000I0J-150000D01*
G01*
X147475000Y-135725000D01*
G75*
G02*
X147325000Y-135875000I-150000J0D01*
G01*
G37*
G36*
G01*
X146055000Y-135875000D02*
X145755000Y-135875000D01*
G75*
G02*
X145605000Y-135725000I0J150000D01*
G01*
X145605000Y-133975000D01*
G75*
G02*
X145755000Y-133825000I150000J0D01*
G01*
X146055000Y-133825000D01*
G75*
G02*
X146205000Y-133975000I0J-150000D01*
G01*
X146205000Y-135725000D01*
G75*
G02*
X146055000Y-135875000I-150000J0D01*
G01*
G37*
G36*
G01*
X144785000Y-135875000D02*
X144485000Y-135875000D01*
G75*
G02*
X144335000Y-135725000I0J150000D01*
G01*
X144335000Y-133975000D01*
G75*
G02*
X144485000Y-133825000I150000J0D01*
G01*
X144785000Y-133825000D01*
G75*
G02*
X144935000Y-133975000I0J-150000D01*
G01*
X144935000Y-135725000D01*
G75*
G02*
X144785000Y-135875000I-150000J0D01*
G01*
G37*
G36*
G01*
X143515000Y-135875000D02*
X143215000Y-135875000D01*
G75*
G02*
X143065000Y-135725000I0J150000D01*
G01*
X143065000Y-133975000D01*
G75*
G02*
X143215000Y-133825000I150000J0D01*
G01*
X143515000Y-133825000D01*
G75*
G02*
X143665000Y-133975000I0J-150000D01*
G01*
X143665000Y-135725000D01*
G75*
G02*
X143515000Y-135875000I-150000J0D01*
G01*
G37*
G36*
G01*
X142245000Y-135875000D02*
X141945000Y-135875000D01*
G75*
G02*
X141795000Y-135725000I0J150000D01*
G01*
X141795000Y-133975000D01*
G75*
G02*
X141945000Y-133825000I150000J0D01*
G01*
X142245000Y-133825000D01*
G75*
G02*
X142395000Y-133975000I0J-150000D01*
G01*
X142395000Y-135725000D01*
G75*
G02*
X142245000Y-135875000I-150000J0D01*
G01*
G37*
G36*
G01*
X140975000Y-135875000D02*
X140675000Y-135875000D01*
G75*
G02*
X140525000Y-135725000I0J150000D01*
G01*
X140525000Y-133975000D01*
G75*
G02*
X140675000Y-133825000I150000J0D01*
G01*
X140975000Y-133825000D01*
G75*
G02*
X141125000Y-133975000I0J-150000D01*
G01*
X141125000Y-135725000D01*
G75*
G02*
X140975000Y-135875000I-150000J0D01*
G01*
G37*
G36*
G01*
X139705000Y-135875000D02*
X139405000Y-135875000D01*
G75*
G02*
X139255000Y-135725000I0J150000D01*
G01*
X139255000Y-133975000D01*
G75*
G02*
X139405000Y-133825000I150000J0D01*
G01*
X139705000Y-133825000D01*
G75*
G02*
X139855000Y-133975000I0J-150000D01*
G01*
X139855000Y-135725000D01*
G75*
G02*
X139705000Y-135875000I-150000J0D01*
G01*
G37*
G36*
G01*
X138435000Y-135875000D02*
X138135000Y-135875000D01*
G75*
G02*
X137985000Y-135725000I0J150000D01*
G01*
X137985000Y-133975000D01*
G75*
G02*
X138135000Y-133825000I150000J0D01*
G01*
X138435000Y-133825000D01*
G75*
G02*
X138585000Y-133975000I0J-150000D01*
G01*
X138585000Y-135725000D01*
G75*
G02*
X138435000Y-135875000I-150000J0D01*
G01*
G37*
G36*
G01*
X138435000Y-145175000D02*
X138135000Y-145175000D01*
G75*
G02*
X137985000Y-145025000I0J150000D01*
G01*
X137985000Y-143275000D01*
G75*
G02*
X138135000Y-143125000I150000J0D01*
G01*
X138435000Y-143125000D01*
G75*
G02*
X138585000Y-143275000I0J-150000D01*
G01*
X138585000Y-145025000D01*
G75*
G02*
X138435000Y-145175000I-150000J0D01*
G01*
G37*
G36*
G01*
X139705000Y-145175000D02*
X139405000Y-145175000D01*
G75*
G02*
X139255000Y-145025000I0J150000D01*
G01*
X139255000Y-143275000D01*
G75*
G02*
X139405000Y-143125000I150000J0D01*
G01*
X139705000Y-143125000D01*
G75*
G02*
X139855000Y-143275000I0J-150000D01*
G01*
X139855000Y-145025000D01*
G75*
G02*
X139705000Y-145175000I-150000J0D01*
G01*
G37*
G36*
G01*
X140975000Y-145175000D02*
X140675000Y-145175000D01*
G75*
G02*
X140525000Y-145025000I0J150000D01*
G01*
X140525000Y-143275000D01*
G75*
G02*
X140675000Y-143125000I150000J0D01*
G01*
X140975000Y-143125000D01*
G75*
G02*
X141125000Y-143275000I0J-150000D01*
G01*
X141125000Y-145025000D01*
G75*
G02*
X140975000Y-145175000I-150000J0D01*
G01*
G37*
G36*
G01*
X142245000Y-145175000D02*
X141945000Y-145175000D01*
G75*
G02*
X141795000Y-145025000I0J150000D01*
G01*
X141795000Y-143275000D01*
G75*
G02*
X141945000Y-143125000I150000J0D01*
G01*
X142245000Y-143125000D01*
G75*
G02*
X142395000Y-143275000I0J-150000D01*
G01*
X142395000Y-145025000D01*
G75*
G02*
X142245000Y-145175000I-150000J0D01*
G01*
G37*
G36*
G01*
X143515000Y-145175000D02*
X143215000Y-145175000D01*
G75*
G02*
X143065000Y-145025000I0J150000D01*
G01*
X143065000Y-143275000D01*
G75*
G02*
X143215000Y-143125000I150000J0D01*
G01*
X143515000Y-143125000D01*
G75*
G02*
X143665000Y-143275000I0J-150000D01*
G01*
X143665000Y-145025000D01*
G75*
G02*
X143515000Y-145175000I-150000J0D01*
G01*
G37*
G36*
G01*
X144785000Y-145175000D02*
X144485000Y-145175000D01*
G75*
G02*
X144335000Y-145025000I0J150000D01*
G01*
X144335000Y-143275000D01*
G75*
G02*
X144485000Y-143125000I150000J0D01*
G01*
X144785000Y-143125000D01*
G75*
G02*
X144935000Y-143275000I0J-150000D01*
G01*
X144935000Y-145025000D01*
G75*
G02*
X144785000Y-145175000I-150000J0D01*
G01*
G37*
G36*
G01*
X146055000Y-145175000D02*
X145755000Y-145175000D01*
G75*
G02*
X145605000Y-145025000I0J150000D01*
G01*
X145605000Y-143275000D01*
G75*
G02*
X145755000Y-143125000I150000J0D01*
G01*
X146055000Y-143125000D01*
G75*
G02*
X146205000Y-143275000I0J-150000D01*
G01*
X146205000Y-145025000D01*
G75*
G02*
X146055000Y-145175000I-150000J0D01*
G01*
G37*
G36*
G01*
X147325000Y-145175000D02*
X147025000Y-145175000D01*
G75*
G02*
X146875000Y-145025000I0J150000D01*
G01*
X146875000Y-143275000D01*
G75*
G02*
X147025000Y-143125000I150000J0D01*
G01*
X147325000Y-143125000D01*
G75*
G02*
X147475000Y-143275000I0J-150000D01*
G01*
X147475000Y-145025000D01*
G75*
G02*
X147325000Y-145175000I-150000J0D01*
G01*
G37*
G36*
G01*
X148595000Y-145175000D02*
X148295000Y-145175000D01*
G75*
G02*
X148145000Y-145025000I0J150000D01*
G01*
X148145000Y-143275000D01*
G75*
G02*
X148295000Y-143125000I150000J0D01*
G01*
X148595000Y-143125000D01*
G75*
G02*
X148745000Y-143275000I0J-150000D01*
G01*
X148745000Y-145025000D01*
G75*
G02*
X148595000Y-145175000I-150000J0D01*
G01*
G37*
G36*
G01*
X149865000Y-145175000D02*
X149565000Y-145175000D01*
G75*
G02*
X149415000Y-145025000I0J150000D01*
G01*
X149415000Y-143275000D01*
G75*
G02*
X149565000Y-143125000I150000J0D01*
G01*
X149865000Y-143125000D01*
G75*
G02*
X150015000Y-143275000I0J-150000D01*
G01*
X150015000Y-145025000D01*
G75*
G02*
X149865000Y-145175000I-150000J0D01*
G01*
G37*
G04 #@! TD*
D14*
G04 #@! TO.C,U9*
X63822500Y-154810000D03*
X63822500Y-153540000D03*
X63822500Y-152270000D03*
X63822500Y-151000000D03*
X63822500Y-149730000D03*
X63822500Y-148460000D03*
X63822500Y-147190000D03*
D15*
X62310000Y-145677500D03*
X61040000Y-145677500D03*
X59770000Y-145677500D03*
X58500000Y-145677500D03*
X57230000Y-145677500D03*
X55960000Y-145677500D03*
X54690000Y-145677500D03*
D14*
X53177500Y-147190000D03*
X53177500Y-148460000D03*
X53177500Y-149730000D03*
X53177500Y-151000000D03*
X53177500Y-152270000D03*
X53177500Y-153540000D03*
X53177500Y-154810000D03*
D15*
X62310000Y-156322500D03*
X61040000Y-156322500D03*
X59770000Y-156322500D03*
X54690000Y-156322500D03*
X55960000Y-156322500D03*
X57230000Y-156322500D03*
X58500000Y-156322500D03*
G04 #@! TD*
D17*
G04 #@! TO.C,U6*
X143040000Y-35670000D03*
X127800000Y-68690000D03*
X143040000Y-38210000D03*
X127800000Y-66150000D03*
X143040000Y-40750000D03*
X127800000Y-63610000D03*
X143040000Y-43290000D03*
X127800000Y-61070000D03*
X143040000Y-45830000D03*
X127800000Y-58530000D03*
X143040000Y-48370000D03*
X127800000Y-55990000D03*
X143040000Y-50910000D03*
X127800000Y-53450000D03*
X143040000Y-53450000D03*
X127800000Y-50910000D03*
X143040000Y-55990000D03*
X127800000Y-48370000D03*
X143040000Y-58530000D03*
X127800000Y-45830000D03*
X143040000Y-61070000D03*
X127800000Y-43290000D03*
X143040000Y-63610000D03*
X127800000Y-40750000D03*
X143040000Y-66150000D03*
X127800000Y-38210000D03*
X143040000Y-68690000D03*
D18*
X127800000Y-35670000D03*
G04 #@! TD*
D17*
G04 #@! TO.C,U5*
X123790000Y-35670000D03*
X108550000Y-68690000D03*
X123790000Y-38210000D03*
X108550000Y-66150000D03*
X123790000Y-40750000D03*
X108550000Y-63610000D03*
X123790000Y-43290000D03*
X108550000Y-61070000D03*
X123790000Y-45830000D03*
X108550000Y-58530000D03*
X123790000Y-48370000D03*
X108550000Y-55990000D03*
X123790000Y-50910000D03*
X108550000Y-53450000D03*
X123790000Y-53450000D03*
X108550000Y-50910000D03*
X123790000Y-55990000D03*
X108550000Y-48370000D03*
X123790000Y-58530000D03*
X108550000Y-45830000D03*
X123790000Y-61070000D03*
X108550000Y-43290000D03*
X123790000Y-63610000D03*
X108550000Y-40750000D03*
X123790000Y-66150000D03*
X108550000Y-38210000D03*
X123790000Y-68690000D03*
D18*
X108550000Y-35670000D03*
G04 #@! TD*
D17*
G04 #@! TO.C,U3*
X104240000Y-33000000D03*
X89000000Y-81260000D03*
X104240000Y-35540000D03*
X89000000Y-78720000D03*
X104240000Y-38080000D03*
X89000000Y-76180000D03*
X104240000Y-40620000D03*
X89000000Y-73640000D03*
X104240000Y-43160000D03*
X89000000Y-71100000D03*
X104240000Y-45700000D03*
X89000000Y-68560000D03*
X104240000Y-48240000D03*
X89000000Y-66020000D03*
X104240000Y-50780000D03*
X89000000Y-63480000D03*
X104240000Y-53320000D03*
X89000000Y-60940000D03*
X104240000Y-55860000D03*
X89000000Y-58400000D03*
X104240000Y-58400000D03*
X89000000Y-55860000D03*
X104240000Y-60940000D03*
X89000000Y-53320000D03*
X104240000Y-63480000D03*
X89000000Y-50780000D03*
X104240000Y-66020000D03*
X89000000Y-48240000D03*
X104240000Y-68560000D03*
X89000000Y-45700000D03*
X104240000Y-71100000D03*
X89000000Y-43160000D03*
X104240000Y-73640000D03*
X89000000Y-40620000D03*
X104240000Y-76180000D03*
X89000000Y-38080000D03*
X104240000Y-78720000D03*
X89000000Y-35540000D03*
X104240000Y-81260000D03*
D18*
X89000000Y-33000000D03*
G04 #@! TD*
D15*
G04 #@! TO.C,U2*
X63690000Y-40572500D03*
X64960000Y-40572500D03*
X66230000Y-40572500D03*
X67500000Y-40572500D03*
X68770000Y-40572500D03*
X70040000Y-40572500D03*
X71310000Y-40572500D03*
D14*
X72822500Y-39060000D03*
X72822500Y-37790000D03*
X72822500Y-36520000D03*
X72822500Y-35250000D03*
X72822500Y-33980000D03*
X72822500Y-32710000D03*
X72822500Y-31440000D03*
D15*
X71310000Y-29927500D03*
X70040000Y-29927500D03*
X68770000Y-29927500D03*
X67500000Y-29927500D03*
X66230000Y-29927500D03*
X64960000Y-29927500D03*
X63690000Y-29927500D03*
D14*
X62177500Y-39060000D03*
X62177500Y-37790000D03*
X62177500Y-36520000D03*
X62177500Y-31440000D03*
X62177500Y-32710000D03*
X62177500Y-33980000D03*
X62177500Y-35250000D03*
G04 #@! TD*
G04 #@! TO.C,U1*
X44322500Y-154810000D03*
X44322500Y-153540000D03*
X44322500Y-152270000D03*
X44322500Y-151000000D03*
X44322500Y-149730000D03*
X44322500Y-148460000D03*
X44322500Y-147190000D03*
D15*
X42810000Y-145677500D03*
X41540000Y-145677500D03*
X40270000Y-145677500D03*
X39000000Y-145677500D03*
X37730000Y-145677500D03*
X36460000Y-145677500D03*
X35190000Y-145677500D03*
D14*
X33677500Y-147190000D03*
X33677500Y-148460000D03*
X33677500Y-149730000D03*
X33677500Y-151000000D03*
X33677500Y-152270000D03*
X33677500Y-153540000D03*
X33677500Y-154810000D03*
D15*
X42810000Y-156322500D03*
X41540000Y-156322500D03*
X40270000Y-156322500D03*
X35190000Y-156322500D03*
X36460000Y-156322500D03*
X37730000Y-156322500D03*
X39000000Y-156322500D03*
G04 #@! TD*
D16*
G04 #@! TO.C,TP25*
X121500000Y-129500000D03*
G04 #@! TD*
G04 #@! TO.C,TP24*
X39000000Y-167400000D03*
G04 #@! TD*
G04 #@! TO.C,TP22*
X37600000Y-162100000D03*
G04 #@! TD*
G04 #@! TO.C,TP18*
X56300000Y-40600000D03*
G04 #@! TD*
G04 #@! TO.C,TP16*
X40800000Y-162100000D03*
G04 #@! TD*
G04 #@! TO.C,TP13*
X69000000Y-50100000D03*
G04 #@! TD*
G04 #@! TO.C,TP5*
X78600000Y-30500000D03*
G04 #@! TD*
G04 #@! TO.C,TP3*
X78600000Y-36600000D03*
G04 #@! TD*
G04 #@! TO.C,TP2*
X31000000Y-139900000D03*
G04 #@! TD*
G04 #@! TO.C,TP1*
X25500000Y-145500000D03*
G04 #@! TD*
D17*
G04 #@! TO.C,SW1*
X48130000Y-55000000D03*
X55750000Y-47380000D03*
X48130000Y-52460000D03*
X55750000Y-49920000D03*
X48130000Y-49920000D03*
X55750000Y-52460000D03*
X48130000Y-47380000D03*
D18*
X55750000Y-55000000D03*
G04 #@! TD*
G04 #@! TO.C,R41*
G36*
G01*
X57049999Y-90900000D02*
X57950001Y-90900000D01*
G75*
G02*
X58200000Y-91149999I0J-249999D01*
G01*
X58200000Y-91675001D01*
G75*
G02*
X57950001Y-91925000I-249999J0D01*
G01*
X57049999Y-91925000D01*
G75*
G02*
X56800000Y-91675001I0J249999D01*
G01*
X56800000Y-91149999D01*
G75*
G02*
X57049999Y-90900000I249999J0D01*
G01*
G37*
G36*
G01*
X57049999Y-89075000D02*
X57950001Y-89075000D01*
G75*
G02*
X58200000Y-89324999I0J-249999D01*
G01*
X58200000Y-89850001D01*
G75*
G02*
X57950001Y-90100000I-249999J0D01*
G01*
X57049999Y-90100000D01*
G75*
G02*
X56800000Y-89850001I0J249999D01*
G01*
X56800000Y-89324999D01*
G75*
G02*
X57049999Y-89075000I249999J0D01*
G01*
G37*
G04 #@! TD*
G04 #@! TO.C,R40*
G36*
G01*
X54549999Y-90900000D02*
X55450001Y-90900000D01*
G75*
G02*
X55700000Y-91149999I0J-249999D01*
G01*
X55700000Y-91675001D01*
G75*
G02*
X55450001Y-91925000I-249999J0D01*
G01*
X54549999Y-91925000D01*
G75*
G02*
X54300000Y-91675001I0J249999D01*
G01*
X54300000Y-91149999D01*
G75*
G02*
X54549999Y-90900000I249999J0D01*
G01*
G37*
G36*
G01*
X54549999Y-89075000D02*
X55450001Y-89075000D01*
G75*
G02*
X55700000Y-89324999I0J-249999D01*
G01*
X55700000Y-89850001D01*
G75*
G02*
X55450001Y-90100000I-249999J0D01*
G01*
X54549999Y-90100000D01*
G75*
G02*
X54300000Y-89850001I0J249999D01*
G01*
X54300000Y-89324999D01*
G75*
G02*
X54549999Y-89075000I249999J0D01*
G01*
G37*
G04 #@! TD*
G04 #@! TO.C,R39*
G36*
G01*
X52049999Y-90900000D02*
X52950001Y-90900000D01*
G75*
G02*
X53200000Y-91149999I0J-249999D01*
G01*
X53200000Y-91675001D01*
G75*
G02*
X52950001Y-91925000I-249999J0D01*
G01*
X52049999Y-91925000D01*
G75*
G02*
X51800000Y-91675001I0J249999D01*
G01*
X51800000Y-91149999D01*
G75*
G02*
X52049999Y-90900000I249999J0D01*
G01*
G37*
G36*
G01*
X52049999Y-89075000D02*
X52950001Y-89075000D01*
G75*
G02*
X53200000Y-89324999I0J-249999D01*
G01*
X53200000Y-89850001D01*
G75*
G02*
X52950001Y-90100000I-249999J0D01*
G01*
X52049999Y-90100000D01*
G75*
G02*
X51800000Y-89850001I0J249999D01*
G01*
X51800000Y-89324999D01*
G75*
G02*
X52049999Y-89075000I249999J0D01*
G01*
G37*
G04 #@! TD*
G04 #@! TO.C,R38*
G36*
G01*
X49549999Y-90900000D02*
X50450001Y-90900000D01*
G75*
G02*
X50700000Y-91149999I0J-249999D01*
G01*
X50700000Y-91675001D01*
G75*
G02*
X50450001Y-91925000I-249999J0D01*
G01*
X49549999Y-91925000D01*
G75*
G02*
X49300000Y-91675001I0J249999D01*
G01*
X49300000Y-91149999D01*
G75*
G02*
X49549999Y-90900000I249999J0D01*
G01*
G37*
G36*
G01*
X49549999Y-89075000D02*
X50450001Y-89075000D01*
G75*
G02*
X50700000Y-89324999I0J-249999D01*
G01*
X50700000Y-89850001D01*
G75*
G02*
X50450001Y-90100000I-249999J0D01*
G01*
X49549999Y-90100000D01*
G75*
G02*
X49300000Y-89850001I0J249999D01*
G01*
X49300000Y-89324999D01*
G75*
G02*
X49549999Y-89075000I249999J0D01*
G01*
G37*
G04 #@! TD*
G04 #@! TO.C,R37*
G36*
G01*
X47049999Y-90900000D02*
X47950001Y-90900000D01*
G75*
G02*
X48200000Y-91149999I0J-249999D01*
G01*
X48200000Y-91675001D01*
G75*
G02*
X47950001Y-91925000I-249999J0D01*
G01*
X47049999Y-91925000D01*
G75*
G02*
X46800000Y-91675001I0J249999D01*
G01*
X46800000Y-91149999D01*
G75*
G02*
X47049999Y-90900000I249999J0D01*
G01*
G37*
G36*
G01*
X47049999Y-89075000D02*
X47950001Y-89075000D01*
G75*
G02*
X48200000Y-89324999I0J-249999D01*
G01*
X48200000Y-89850001D01*
G75*
G02*
X47950001Y-90100000I-249999J0D01*
G01*
X47049999Y-90100000D01*
G75*
G02*
X46800000Y-89850001I0J249999D01*
G01*
X46800000Y-89324999D01*
G75*
G02*
X47049999Y-89075000I249999J0D01*
G01*
G37*
G04 #@! TD*
G04 #@! TO.C,R36*
G36*
G01*
X44549999Y-90900000D02*
X45450001Y-90900000D01*
G75*
G02*
X45700000Y-91149999I0J-249999D01*
G01*
X45700000Y-91675001D01*
G75*
G02*
X45450001Y-91925000I-249999J0D01*
G01*
X44549999Y-91925000D01*
G75*
G02*
X44300000Y-91675001I0J249999D01*
G01*
X44300000Y-91149999D01*
G75*
G02*
X44549999Y-90900000I249999J0D01*
G01*
G37*
G36*
G01*
X44549999Y-89075000D02*
X45450001Y-89075000D01*
G75*
G02*
X45700000Y-89324999I0J-249999D01*
G01*
X45700000Y-89850001D01*
G75*
G02*
X45450001Y-90100000I-249999J0D01*
G01*
X44549999Y-90100000D01*
G75*
G02*
X44300000Y-89850001I0J249999D01*
G01*
X44300000Y-89324999D01*
G75*
G02*
X44549999Y-89075000I249999J0D01*
G01*
G37*
G04 #@! TD*
G04 #@! TO.C,R35*
G36*
G01*
X42049999Y-90900000D02*
X42950001Y-90900000D01*
G75*
G02*
X43200000Y-91149999I0J-249999D01*
G01*
X43200000Y-91675001D01*
G75*
G02*
X42950001Y-91925000I-249999J0D01*
G01*
X42049999Y-91925000D01*
G75*
G02*
X41800000Y-91675001I0J249999D01*
G01*
X41800000Y-91149999D01*
G75*
G02*
X42049999Y-90900000I249999J0D01*
G01*
G37*
G36*
G01*
X42049999Y-89075000D02*
X42950001Y-89075000D01*
G75*
G02*
X43200000Y-89324999I0J-249999D01*
G01*
X43200000Y-89850001D01*
G75*
G02*
X42950001Y-90100000I-249999J0D01*
G01*
X42049999Y-90100000D01*
G75*
G02*
X41800000Y-89850001I0J249999D01*
G01*
X41800000Y-89324999D01*
G75*
G02*
X42049999Y-89075000I249999J0D01*
G01*
G37*
G04 #@! TD*
G04 #@! TO.C,R34*
G36*
G01*
X39549999Y-90900000D02*
X40450001Y-90900000D01*
G75*
G02*
X40700000Y-91149999I0J-249999D01*
G01*
X40700000Y-91675001D01*
G75*
G02*
X40450001Y-91925000I-249999J0D01*
G01*
X39549999Y-91925000D01*
G75*
G02*
X39300000Y-91675001I0J249999D01*
G01*
X39300000Y-91149999D01*
G75*
G02*
X39549999Y-90900000I249999J0D01*
G01*
G37*
G36*
G01*
X39549999Y-89075000D02*
X40450001Y-89075000D01*
G75*
G02*
X40700000Y-89324999I0J-249999D01*
G01*
X40700000Y-89850001D01*
G75*
G02*
X40450001Y-90100000I-249999J0D01*
G01*
X39549999Y-90100000D01*
G75*
G02*
X39300000Y-89850001I0J249999D01*
G01*
X39300000Y-89324999D01*
G75*
G02*
X39549999Y-89075000I249999J0D01*
G01*
G37*
G04 #@! TD*
G04 #@! TO.C,R33*
G36*
G01*
X57950001Y-111100000D02*
X57049999Y-111100000D01*
G75*
G02*
X56800000Y-110850001I0J249999D01*
G01*
X56800000Y-110324999D01*
G75*
G02*
X57049999Y-110075000I249999J0D01*
G01*
X57950001Y-110075000D01*
G75*
G02*
X58200000Y-110324999I0J-249999D01*
G01*
X58200000Y-110850001D01*
G75*
G02*
X57950001Y-111100000I-249999J0D01*
G01*
G37*
G36*
G01*
X57950001Y-112925000D02*
X57049999Y-112925000D01*
G75*
G02*
X56800000Y-112675001I0J249999D01*
G01*
X56800000Y-112149999D01*
G75*
G02*
X57049999Y-111900000I249999J0D01*
G01*
X57950001Y-111900000D01*
G75*
G02*
X58200000Y-112149999I0J-249999D01*
G01*
X58200000Y-112675001D01*
G75*
G02*
X57950001Y-112925000I-249999J0D01*
G01*
G37*
G04 #@! TD*
G04 #@! TO.C,R32*
G36*
G01*
X55450001Y-111100000D02*
X54549999Y-111100000D01*
G75*
G02*
X54300000Y-110850001I0J249999D01*
G01*
X54300000Y-110324999D01*
G75*
G02*
X54549999Y-110075000I249999J0D01*
G01*
X55450001Y-110075000D01*
G75*
G02*
X55700000Y-110324999I0J-249999D01*
G01*
X55700000Y-110850001D01*
G75*
G02*
X55450001Y-111100000I-249999J0D01*
G01*
G37*
G36*
G01*
X55450001Y-112925000D02*
X54549999Y-112925000D01*
G75*
G02*
X54300000Y-112675001I0J249999D01*
G01*
X54300000Y-112149999D01*
G75*
G02*
X54549999Y-111900000I249999J0D01*
G01*
X55450001Y-111900000D01*
G75*
G02*
X55700000Y-112149999I0J-249999D01*
G01*
X55700000Y-112675001D01*
G75*
G02*
X55450001Y-112925000I-249999J0D01*
G01*
G37*
G04 #@! TD*
G04 #@! TO.C,R31*
G36*
G01*
X52950001Y-111100000D02*
X52049999Y-111100000D01*
G75*
G02*
X51800000Y-110850001I0J249999D01*
G01*
X51800000Y-110324999D01*
G75*
G02*
X52049999Y-110075000I249999J0D01*
G01*
X52950001Y-110075000D01*
G75*
G02*
X53200000Y-110324999I0J-249999D01*
G01*
X53200000Y-110850001D01*
G75*
G02*
X52950001Y-111100000I-249999J0D01*
G01*
G37*
G36*
G01*
X52950001Y-112925000D02*
X52049999Y-112925000D01*
G75*
G02*
X51800000Y-112675001I0J249999D01*
G01*
X51800000Y-112149999D01*
G75*
G02*
X52049999Y-111900000I249999J0D01*
G01*
X52950001Y-111900000D01*
G75*
G02*
X53200000Y-112149999I0J-249999D01*
G01*
X53200000Y-112675001D01*
G75*
G02*
X52950001Y-112925000I-249999J0D01*
G01*
G37*
G04 #@! TD*
G04 #@! TO.C,R30*
G36*
G01*
X50450001Y-111100000D02*
X49549999Y-111100000D01*
G75*
G02*
X49300000Y-110850001I0J249999D01*
G01*
X49300000Y-110324999D01*
G75*
G02*
X49549999Y-110075000I249999J0D01*
G01*
X50450001Y-110075000D01*
G75*
G02*
X50700000Y-110324999I0J-249999D01*
G01*
X50700000Y-110850001D01*
G75*
G02*
X50450001Y-111100000I-249999J0D01*
G01*
G37*
G36*
G01*
X50450001Y-112925000D02*
X49549999Y-112925000D01*
G75*
G02*
X49300000Y-112675001I0J249999D01*
G01*
X49300000Y-112149999D01*
G75*
G02*
X49549999Y-111900000I249999J0D01*
G01*
X50450001Y-111900000D01*
G75*
G02*
X50700000Y-112149999I0J-249999D01*
G01*
X50700000Y-112675001D01*
G75*
G02*
X50450001Y-112925000I-249999J0D01*
G01*
G37*
G04 #@! TD*
G04 #@! TO.C,R29*
G36*
G01*
X47950001Y-111100000D02*
X47049999Y-111100000D01*
G75*
G02*
X46800000Y-110850001I0J249999D01*
G01*
X46800000Y-110324999D01*
G75*
G02*
X47049999Y-110075000I249999J0D01*
G01*
X47950001Y-110075000D01*
G75*
G02*
X48200000Y-110324999I0J-249999D01*
G01*
X48200000Y-110850001D01*
G75*
G02*
X47950001Y-111100000I-249999J0D01*
G01*
G37*
G36*
G01*
X47950001Y-112925000D02*
X47049999Y-112925000D01*
G75*
G02*
X46800000Y-112675001I0J249999D01*
G01*
X46800000Y-112149999D01*
G75*
G02*
X47049999Y-111900000I249999J0D01*
G01*
X47950001Y-111900000D01*
G75*
G02*
X48200000Y-112149999I0J-249999D01*
G01*
X48200000Y-112675001D01*
G75*
G02*
X47950001Y-112925000I-249999J0D01*
G01*
G37*
G04 #@! TD*
G04 #@! TO.C,R28*
G36*
G01*
X45450001Y-111100000D02*
X44549999Y-111100000D01*
G75*
G02*
X44300000Y-110850001I0J249999D01*
G01*
X44300000Y-110324999D01*
G75*
G02*
X44549999Y-110075000I249999J0D01*
G01*
X45450001Y-110075000D01*
G75*
G02*
X45700000Y-110324999I0J-249999D01*
G01*
X45700000Y-110850001D01*
G75*
G02*
X45450001Y-111100000I-249999J0D01*
G01*
G37*
G36*
G01*
X45450001Y-112925000D02*
X44549999Y-112925000D01*
G75*
G02*
X44300000Y-112675001I0J249999D01*
G01*
X44300000Y-112149999D01*
G75*
G02*
X44549999Y-111900000I249999J0D01*
G01*
X45450001Y-111900000D01*
G75*
G02*
X45700000Y-112149999I0J-249999D01*
G01*
X45700000Y-112675001D01*
G75*
G02*
X45450001Y-112925000I-249999J0D01*
G01*
G37*
G04 #@! TD*
G04 #@! TO.C,R27*
G36*
G01*
X42950001Y-111100000D02*
X42049999Y-111100000D01*
G75*
G02*
X41800000Y-110850001I0J249999D01*
G01*
X41800000Y-110324999D01*
G75*
G02*
X42049999Y-110075000I249999J0D01*
G01*
X42950001Y-110075000D01*
G75*
G02*
X43200000Y-110324999I0J-249999D01*
G01*
X43200000Y-110850001D01*
G75*
G02*
X42950001Y-111100000I-249999J0D01*
G01*
G37*
G36*
G01*
X42950001Y-112925000D02*
X42049999Y-112925000D01*
G75*
G02*
X41800000Y-112675001I0J249999D01*
G01*
X41800000Y-112149999D01*
G75*
G02*
X42049999Y-111900000I249999J0D01*
G01*
X42950001Y-111900000D01*
G75*
G02*
X43200000Y-112149999I0J-249999D01*
G01*
X43200000Y-112675001D01*
G75*
G02*
X42950001Y-112925000I-249999J0D01*
G01*
G37*
G04 #@! TD*
G04 #@! TO.C,R26*
G36*
G01*
X40450001Y-111100000D02*
X39549999Y-111100000D01*
G75*
G02*
X39300000Y-110850001I0J249999D01*
G01*
X39300000Y-110324999D01*
G75*
G02*
X39549999Y-110075000I249999J0D01*
G01*
X40450001Y-110075000D01*
G75*
G02*
X40700000Y-110324999I0J-249999D01*
G01*
X40700000Y-110850001D01*
G75*
G02*
X40450001Y-111100000I-249999J0D01*
G01*
G37*
G36*
G01*
X40450001Y-112925000D02*
X39549999Y-112925000D01*
G75*
G02*
X39300000Y-112675001I0J249999D01*
G01*
X39300000Y-112149999D01*
G75*
G02*
X39549999Y-111900000I249999J0D01*
G01*
X40450001Y-111900000D01*
G75*
G02*
X40700000Y-112149999I0J-249999D01*
G01*
X40700000Y-112675001D01*
G75*
G02*
X40450001Y-112925000I-249999J0D01*
G01*
G37*
G04 #@! TD*
G04 #@! TO.C,R25*
G36*
G01*
X134549999Y-109400000D02*
X135450001Y-109400000D01*
G75*
G02*
X135700000Y-109649999I0J-249999D01*
G01*
X135700000Y-110175001D01*
G75*
G02*
X135450001Y-110425000I-249999J0D01*
G01*
X134549999Y-110425000D01*
G75*
G02*
X134300000Y-110175001I0J249999D01*
G01*
X134300000Y-109649999D01*
G75*
G02*
X134549999Y-109400000I249999J0D01*
G01*
G37*
G36*
G01*
X134549999Y-107575000D02*
X135450001Y-107575000D01*
G75*
G02*
X135700000Y-107824999I0J-249999D01*
G01*
X135700000Y-108350001D01*
G75*
G02*
X135450001Y-108600000I-249999J0D01*
G01*
X134549999Y-108600000D01*
G75*
G02*
X134300000Y-108350001I0J249999D01*
G01*
X134300000Y-107824999D01*
G75*
G02*
X134549999Y-107575000I249999J0D01*
G01*
G37*
G04 #@! TD*
G04 #@! TO.C,R24*
G36*
G01*
X49549999Y-169900000D02*
X50450001Y-169900000D01*
G75*
G02*
X50700000Y-170149999I0J-249999D01*
G01*
X50700000Y-170675001D01*
G75*
G02*
X50450001Y-170925000I-249999J0D01*
G01*
X49549999Y-170925000D01*
G75*
G02*
X49300000Y-170675001I0J249999D01*
G01*
X49300000Y-170149999D01*
G75*
G02*
X49549999Y-169900000I249999J0D01*
G01*
G37*
G36*
G01*
X49549999Y-168075000D02*
X50450001Y-168075000D01*
G75*
G02*
X50700000Y-168324999I0J-249999D01*
G01*
X50700000Y-168850001D01*
G75*
G02*
X50450001Y-169100000I-249999J0D01*
G01*
X49549999Y-169100000D01*
G75*
G02*
X49300000Y-168850001I0J249999D01*
G01*
X49300000Y-168324999D01*
G75*
G02*
X49549999Y-168075000I249999J0D01*
G01*
G37*
G04 #@! TD*
G04 #@! TO.C,R23*
G36*
G01*
X132549999Y-109400000D02*
X133450001Y-109400000D01*
G75*
G02*
X133700000Y-109649999I0J-249999D01*
G01*
X133700000Y-110175001D01*
G75*
G02*
X133450001Y-110425000I-249999J0D01*
G01*
X132549999Y-110425000D01*
G75*
G02*
X132300000Y-110175001I0J249999D01*
G01*
X132300000Y-109649999D01*
G75*
G02*
X132549999Y-109400000I249999J0D01*
G01*
G37*
G36*
G01*
X132549999Y-107575000D02*
X133450001Y-107575000D01*
G75*
G02*
X133700000Y-107824999I0J-249999D01*
G01*
X133700000Y-108350001D01*
G75*
G02*
X133450001Y-108600000I-249999J0D01*
G01*
X132549999Y-108600000D01*
G75*
G02*
X132300000Y-108350001I0J249999D01*
G01*
X132300000Y-107824999D01*
G75*
G02*
X132549999Y-107575000I249999J0D01*
G01*
G37*
G04 #@! TD*
G04 #@! TO.C,R22*
G36*
G01*
X130549999Y-109400000D02*
X131450001Y-109400000D01*
G75*
G02*
X131700000Y-109649999I0J-249999D01*
G01*
X131700000Y-110175001D01*
G75*
G02*
X131450001Y-110425000I-249999J0D01*
G01*
X130549999Y-110425000D01*
G75*
G02*
X130300000Y-110175001I0J249999D01*
G01*
X130300000Y-109649999D01*
G75*
G02*
X130549999Y-109400000I249999J0D01*
G01*
G37*
G36*
G01*
X130549999Y-107575000D02*
X131450001Y-107575000D01*
G75*
G02*
X131700000Y-107824999I0J-249999D01*
G01*
X131700000Y-108350001D01*
G75*
G02*
X131450001Y-108600000I-249999J0D01*
G01*
X130549999Y-108600000D01*
G75*
G02*
X130300000Y-108350001I0J249999D01*
G01*
X130300000Y-107824999D01*
G75*
G02*
X130549999Y-107575000I249999J0D01*
G01*
G37*
G04 #@! TD*
G04 #@! TO.C,R21*
G36*
G01*
X128549999Y-109400000D02*
X129450001Y-109400000D01*
G75*
G02*
X129700000Y-109649999I0J-249999D01*
G01*
X129700000Y-110175001D01*
G75*
G02*
X129450001Y-110425000I-249999J0D01*
G01*
X128549999Y-110425000D01*
G75*
G02*
X128300000Y-110175001I0J249999D01*
G01*
X128300000Y-109649999D01*
G75*
G02*
X128549999Y-109400000I249999J0D01*
G01*
G37*
G36*
G01*
X128549999Y-107575000D02*
X129450001Y-107575000D01*
G75*
G02*
X129700000Y-107824999I0J-249999D01*
G01*
X129700000Y-108350001D01*
G75*
G02*
X129450001Y-108600000I-249999J0D01*
G01*
X128549999Y-108600000D01*
G75*
G02*
X128300000Y-108350001I0J249999D01*
G01*
X128300000Y-107824999D01*
G75*
G02*
X128549999Y-107575000I249999J0D01*
G01*
G37*
G04 #@! TD*
G04 #@! TO.C,R20*
G36*
G01*
X126549999Y-109400000D02*
X127450001Y-109400000D01*
G75*
G02*
X127700000Y-109649999I0J-249999D01*
G01*
X127700000Y-110175001D01*
G75*
G02*
X127450001Y-110425000I-249999J0D01*
G01*
X126549999Y-110425000D01*
G75*
G02*
X126300000Y-110175001I0J249999D01*
G01*
X126300000Y-109649999D01*
G75*
G02*
X126549999Y-109400000I249999J0D01*
G01*
G37*
G36*
G01*
X126549999Y-107575000D02*
X127450001Y-107575000D01*
G75*
G02*
X127700000Y-107824999I0J-249999D01*
G01*
X127700000Y-108350001D01*
G75*
G02*
X127450001Y-108600000I-249999J0D01*
G01*
X126549999Y-108600000D01*
G75*
G02*
X126300000Y-108350001I0J249999D01*
G01*
X126300000Y-107824999D01*
G75*
G02*
X126549999Y-107575000I249999J0D01*
G01*
G37*
G04 #@! TD*
G04 #@! TO.C,R19*
G36*
G01*
X124549999Y-109400000D02*
X125450001Y-109400000D01*
G75*
G02*
X125700000Y-109649999I0J-249999D01*
G01*
X125700000Y-110175001D01*
G75*
G02*
X125450001Y-110425000I-249999J0D01*
G01*
X124549999Y-110425000D01*
G75*
G02*
X124300000Y-110175001I0J249999D01*
G01*
X124300000Y-109649999D01*
G75*
G02*
X124549999Y-109400000I249999J0D01*
G01*
G37*
G36*
G01*
X124549999Y-107575000D02*
X125450001Y-107575000D01*
G75*
G02*
X125700000Y-107824999I0J-249999D01*
G01*
X125700000Y-108350001D01*
G75*
G02*
X125450001Y-108600000I-249999J0D01*
G01*
X124549999Y-108600000D01*
G75*
G02*
X124300000Y-108350001I0J249999D01*
G01*
X124300000Y-107824999D01*
G75*
G02*
X124549999Y-107575000I249999J0D01*
G01*
G37*
G04 #@! TD*
G04 #@! TO.C,R18*
G36*
G01*
X167720000Y-147950001D02*
X167720000Y-147049999D01*
G75*
G02*
X167969999Y-146800000I249999J0D01*
G01*
X168495001Y-146800000D01*
G75*
G02*
X168745000Y-147049999I0J-249999D01*
G01*
X168745000Y-147950001D01*
G75*
G02*
X168495001Y-148200000I-249999J0D01*
G01*
X167969999Y-148200000D01*
G75*
G02*
X167720000Y-147950001I0J249999D01*
G01*
G37*
G36*
G01*
X165895000Y-147950001D02*
X165895000Y-147049999D01*
G75*
G02*
X166144999Y-146800000I249999J0D01*
G01*
X166670001Y-146800000D01*
G75*
G02*
X166920000Y-147049999I0J-249999D01*
G01*
X166920000Y-147950001D01*
G75*
G02*
X166670001Y-148200000I-249999J0D01*
G01*
X166144999Y-148200000D01*
G75*
G02*
X165895000Y-147950001I0J249999D01*
G01*
G37*
G04 #@! TD*
G04 #@! TO.C,R17*
G36*
G01*
X172950001Y-156100000D02*
X172049999Y-156100000D01*
G75*
G02*
X171800000Y-155850001I0J249999D01*
G01*
X171800000Y-155324999D01*
G75*
G02*
X172049999Y-155075000I249999J0D01*
G01*
X172950001Y-155075000D01*
G75*
G02*
X173200000Y-155324999I0J-249999D01*
G01*
X173200000Y-155850001D01*
G75*
G02*
X172950001Y-156100000I-249999J0D01*
G01*
G37*
G36*
G01*
X172950001Y-157925000D02*
X172049999Y-157925000D01*
G75*
G02*
X171800000Y-157675001I0J249999D01*
G01*
X171800000Y-157149999D01*
G75*
G02*
X172049999Y-156900000I249999J0D01*
G01*
X172950001Y-156900000D01*
G75*
G02*
X173200000Y-157149999I0J-249999D01*
G01*
X173200000Y-157675001D01*
G75*
G02*
X172950001Y-157925000I-249999J0D01*
G01*
G37*
G04 #@! TD*
G04 #@! TO.C,R16*
G36*
G01*
X171900000Y-153450001D02*
X171900000Y-152549999D01*
G75*
G02*
X172149999Y-152300000I249999J0D01*
G01*
X172675001Y-152300000D01*
G75*
G02*
X172925000Y-152549999I0J-249999D01*
G01*
X172925000Y-153450001D01*
G75*
G02*
X172675001Y-153700000I-249999J0D01*
G01*
X172149999Y-153700000D01*
G75*
G02*
X171900000Y-153450001I0J249999D01*
G01*
G37*
G36*
G01*
X170075000Y-153450001D02*
X170075000Y-152549999D01*
G75*
G02*
X170324999Y-152300000I249999J0D01*
G01*
X170850001Y-152300000D01*
G75*
G02*
X171100000Y-152549999I0J-249999D01*
G01*
X171100000Y-153450001D01*
G75*
G02*
X170850001Y-153700000I-249999J0D01*
G01*
X170324999Y-153700000D01*
G75*
G02*
X170075000Y-153450001I0J249999D01*
G01*
G37*
G04 #@! TD*
G04 #@! TO.C,R15*
G36*
G01*
X27450001Y-153600000D02*
X26549999Y-153600000D01*
G75*
G02*
X26300000Y-153350001I0J249999D01*
G01*
X26300000Y-152824999D01*
G75*
G02*
X26549999Y-152575000I249999J0D01*
G01*
X27450001Y-152575000D01*
G75*
G02*
X27700000Y-152824999I0J-249999D01*
G01*
X27700000Y-153350001D01*
G75*
G02*
X27450001Y-153600000I-249999J0D01*
G01*
G37*
G36*
G01*
X27450001Y-155425000D02*
X26549999Y-155425000D01*
G75*
G02*
X26300000Y-155175001I0J249999D01*
G01*
X26300000Y-154649999D01*
G75*
G02*
X26549999Y-154400000I249999J0D01*
G01*
X27450001Y-154400000D01*
G75*
G02*
X27700000Y-154649999I0J-249999D01*
G01*
X27700000Y-155175001D01*
G75*
G02*
X27450001Y-155425000I-249999J0D01*
G01*
G37*
G04 #@! TD*
G04 #@! TO.C,R12*
G36*
G01*
X79450001Y-113100000D02*
X78549999Y-113100000D01*
G75*
G02*
X78300000Y-112850001I0J249999D01*
G01*
X78300000Y-112324999D01*
G75*
G02*
X78549999Y-112075000I249999J0D01*
G01*
X79450001Y-112075000D01*
G75*
G02*
X79700000Y-112324999I0J-249999D01*
G01*
X79700000Y-112850001D01*
G75*
G02*
X79450001Y-113100000I-249999J0D01*
G01*
G37*
G36*
G01*
X79450001Y-114925000D02*
X78549999Y-114925000D01*
G75*
G02*
X78300000Y-114675001I0J249999D01*
G01*
X78300000Y-114149999D01*
G75*
G02*
X78549999Y-113900000I249999J0D01*
G01*
X79450001Y-113900000D01*
G75*
G02*
X79700000Y-114149999I0J-249999D01*
G01*
X79700000Y-114675001D01*
G75*
G02*
X79450001Y-114925000I-249999J0D01*
G01*
G37*
G04 #@! TD*
G04 #@! TO.C,R11*
G36*
G01*
X139900000Y-41450001D02*
X139900000Y-40549999D01*
G75*
G02*
X140149999Y-40300000I249999J0D01*
G01*
X140675001Y-40300000D01*
G75*
G02*
X140925000Y-40549999I0J-249999D01*
G01*
X140925000Y-41450001D01*
G75*
G02*
X140675001Y-41700000I-249999J0D01*
G01*
X140149999Y-41700000D01*
G75*
G02*
X139900000Y-41450001I0J249999D01*
G01*
G37*
G36*
G01*
X138075000Y-41450001D02*
X138075000Y-40549999D01*
G75*
G02*
X138324999Y-40300000I249999J0D01*
G01*
X138850001Y-40300000D01*
G75*
G02*
X139100000Y-40549999I0J-249999D01*
G01*
X139100000Y-41450001D01*
G75*
G02*
X138850001Y-41700000I-249999J0D01*
G01*
X138324999Y-41700000D01*
G75*
G02*
X138075000Y-41450001I0J249999D01*
G01*
G37*
G04 #@! TD*
G04 #@! TO.C,R10*
G36*
G01*
X120900000Y-41450001D02*
X120900000Y-40549999D01*
G75*
G02*
X121149999Y-40300000I249999J0D01*
G01*
X121675001Y-40300000D01*
G75*
G02*
X121925000Y-40549999I0J-249999D01*
G01*
X121925000Y-41450001D01*
G75*
G02*
X121675001Y-41700000I-249999J0D01*
G01*
X121149999Y-41700000D01*
G75*
G02*
X120900000Y-41450001I0J249999D01*
G01*
G37*
G36*
G01*
X119075000Y-41450001D02*
X119075000Y-40549999D01*
G75*
G02*
X119324999Y-40300000I249999J0D01*
G01*
X119850001Y-40300000D01*
G75*
G02*
X120100000Y-40549999I0J-249999D01*
G01*
X120100000Y-41450001D01*
G75*
G02*
X119850001Y-41700000I-249999J0D01*
G01*
X119324999Y-41700000D01*
G75*
G02*
X119075000Y-41450001I0J249999D01*
G01*
G37*
G04 #@! TD*
G04 #@! TO.C,R9*
G36*
G01*
X69749999Y-57100000D02*
X70650001Y-57100000D01*
G75*
G02*
X70900000Y-57349999I0J-249999D01*
G01*
X70900000Y-57875001D01*
G75*
G02*
X70650001Y-58125000I-249999J0D01*
G01*
X69749999Y-58125000D01*
G75*
G02*
X69500000Y-57875001I0J249999D01*
G01*
X69500000Y-57349999D01*
G75*
G02*
X69749999Y-57100000I249999J0D01*
G01*
G37*
G36*
G01*
X69749999Y-55275000D02*
X70650001Y-55275000D01*
G75*
G02*
X70900000Y-55524999I0J-249999D01*
G01*
X70900000Y-56050001D01*
G75*
G02*
X70650001Y-56300000I-249999J0D01*
G01*
X69749999Y-56300000D01*
G75*
G02*
X69500000Y-56050001I0J249999D01*
G01*
X69500000Y-55524999D01*
G75*
G02*
X69749999Y-55275000I249999J0D01*
G01*
G37*
G04 #@! TD*
G04 #@! TO.C,R8*
G36*
G01*
X51600000Y-54549999D02*
X51600000Y-55450001D01*
G75*
G02*
X51350001Y-55700000I-249999J0D01*
G01*
X50824999Y-55700000D01*
G75*
G02*
X50575000Y-55450001I0J249999D01*
G01*
X50575000Y-54549999D01*
G75*
G02*
X50824999Y-54300000I249999J0D01*
G01*
X51350001Y-54300000D01*
G75*
G02*
X51600000Y-54549999I0J-249999D01*
G01*
G37*
G36*
G01*
X53425000Y-54549999D02*
X53425000Y-55450001D01*
G75*
G02*
X53175001Y-55700000I-249999J0D01*
G01*
X52649999Y-55700000D01*
G75*
G02*
X52400000Y-55450001I0J249999D01*
G01*
X52400000Y-54549999D01*
G75*
G02*
X52649999Y-54300000I249999J0D01*
G01*
X53175001Y-54300000D01*
G75*
G02*
X53425000Y-54549999I0J-249999D01*
G01*
G37*
G04 #@! TD*
G04 #@! TO.C,R7*
G36*
G01*
X51600000Y-52049999D02*
X51600000Y-52950001D01*
G75*
G02*
X51350001Y-53200000I-249999J0D01*
G01*
X50824999Y-53200000D01*
G75*
G02*
X50575000Y-52950001I0J249999D01*
G01*
X50575000Y-52049999D01*
G75*
G02*
X50824999Y-51800000I249999J0D01*
G01*
X51350001Y-51800000D01*
G75*
G02*
X51600000Y-52049999I0J-249999D01*
G01*
G37*
G36*
G01*
X53425000Y-52049999D02*
X53425000Y-52950001D01*
G75*
G02*
X53175001Y-53200000I-249999J0D01*
G01*
X52649999Y-53200000D01*
G75*
G02*
X52400000Y-52950001I0J249999D01*
G01*
X52400000Y-52049999D01*
G75*
G02*
X52649999Y-51800000I249999J0D01*
G01*
X53175001Y-51800000D01*
G75*
G02*
X53425000Y-52049999I0J-249999D01*
G01*
G37*
G04 #@! TD*
G04 #@! TO.C,R6*
G36*
G01*
X51600000Y-49549999D02*
X51600000Y-50450001D01*
G75*
G02*
X51350001Y-50700000I-249999J0D01*
G01*
X50824999Y-50700000D01*
G75*
G02*
X50575000Y-50450001I0J249999D01*
G01*
X50575000Y-49549999D01*
G75*
G02*
X50824999Y-49300000I249999J0D01*
G01*
X51350001Y-49300000D01*
G75*
G02*
X51600000Y-49549999I0J-249999D01*
G01*
G37*
G36*
G01*
X53425000Y-49549999D02*
X53425000Y-50450001D01*
G75*
G02*
X53175001Y-50700000I-249999J0D01*
G01*
X52649999Y-50700000D01*
G75*
G02*
X52400000Y-50450001I0J249999D01*
G01*
X52400000Y-49549999D01*
G75*
G02*
X52649999Y-49300000I249999J0D01*
G01*
X53175001Y-49300000D01*
G75*
G02*
X53425000Y-49549999I0J-249999D01*
G01*
G37*
G04 #@! TD*
G04 #@! TO.C,R5*
G36*
G01*
X51600000Y-47049999D02*
X51600000Y-47950001D01*
G75*
G02*
X51350001Y-48200000I-249999J0D01*
G01*
X50824999Y-48200000D01*
G75*
G02*
X50575000Y-47950001I0J249999D01*
G01*
X50575000Y-47049999D01*
G75*
G02*
X50824999Y-46800000I249999J0D01*
G01*
X51350001Y-46800000D01*
G75*
G02*
X51600000Y-47049999I0J-249999D01*
G01*
G37*
G36*
G01*
X53425000Y-47049999D02*
X53425000Y-47950001D01*
G75*
G02*
X53175001Y-48200000I-249999J0D01*
G01*
X52649999Y-48200000D01*
G75*
G02*
X52400000Y-47950001I0J249999D01*
G01*
X52400000Y-47049999D01*
G75*
G02*
X52649999Y-46800000I249999J0D01*
G01*
X53175001Y-46800000D01*
G75*
G02*
X53425000Y-47049999I0J-249999D01*
G01*
G37*
G04 #@! TD*
G04 #@! TO.C,R4*
G36*
G01*
X99850000Y-70799999D02*
X99850000Y-71700001D01*
G75*
G02*
X99600001Y-71950000I-249999J0D01*
G01*
X99074999Y-71950000D01*
G75*
G02*
X98825000Y-71700001I0J249999D01*
G01*
X98825000Y-70799999D01*
G75*
G02*
X99074999Y-70550000I249999J0D01*
G01*
X99600001Y-70550000D01*
G75*
G02*
X99850000Y-70799999I0J-249999D01*
G01*
G37*
G36*
G01*
X101675000Y-70799999D02*
X101675000Y-71700001D01*
G75*
G02*
X101425001Y-71950000I-249999J0D01*
G01*
X100899999Y-71950000D01*
G75*
G02*
X100650000Y-71700001I0J249999D01*
G01*
X100650000Y-70799999D01*
G75*
G02*
X100899999Y-70550000I249999J0D01*
G01*
X101425001Y-70550000D01*
G75*
G02*
X101675000Y-70799999I0J-249999D01*
G01*
G37*
G04 #@! TD*
G04 #@! TO.C,R3*
G36*
G01*
X108650000Y-72200001D02*
X108650000Y-71299999D01*
G75*
G02*
X108899999Y-71050000I249999J0D01*
G01*
X109425001Y-71050000D01*
G75*
G02*
X109675000Y-71299999I0J-249999D01*
G01*
X109675000Y-72200001D01*
G75*
G02*
X109425001Y-72450000I-249999J0D01*
G01*
X108899999Y-72450000D01*
G75*
G02*
X108650000Y-72200001I0J249999D01*
G01*
G37*
G36*
G01*
X106825000Y-72200001D02*
X106825000Y-71299999D01*
G75*
G02*
X107074999Y-71050000I249999J0D01*
G01*
X107600001Y-71050000D01*
G75*
G02*
X107850000Y-71299999I0J-249999D01*
G01*
X107850000Y-72200001D01*
G75*
G02*
X107600001Y-72450000I-249999J0D01*
G01*
X107074999Y-72450000D01*
G75*
G02*
X106825000Y-72200001I0J249999D01*
G01*
G37*
G04 #@! TD*
G04 #@! TO.C,R2*
G36*
G01*
X108650000Y-74700001D02*
X108650000Y-73799999D01*
G75*
G02*
X108899999Y-73550000I249999J0D01*
G01*
X109425001Y-73550000D01*
G75*
G02*
X109675000Y-73799999I0J-249999D01*
G01*
X109675000Y-74700001D01*
G75*
G02*
X109425001Y-74950000I-249999J0D01*
G01*
X108899999Y-74950000D01*
G75*
G02*
X108650000Y-74700001I0J249999D01*
G01*
G37*
G36*
G01*
X106825000Y-74700001D02*
X106825000Y-73799999D01*
G75*
G02*
X107074999Y-73550000I249999J0D01*
G01*
X107600001Y-73550000D01*
G75*
G02*
X107850000Y-73799999I0J-249999D01*
G01*
X107850000Y-74700001D01*
G75*
G02*
X107600001Y-74950000I-249999J0D01*
G01*
X107074999Y-74950000D01*
G75*
G02*
X106825000Y-74700001I0J249999D01*
G01*
G37*
G04 #@! TD*
D24*
G04 #@! TO.C,Q23*
X50000000Y-96000000D03*
X49050000Y-98000000D03*
X50950000Y-98000000D03*
G04 #@! TD*
G04 #@! TO.C,Q22*
X40000000Y-96000000D03*
X39050000Y-98000000D03*
X40950000Y-98000000D03*
G04 #@! TD*
G04 #@! TO.C,Q21*
X52500000Y-93000000D03*
X51550000Y-95000000D03*
X53450000Y-95000000D03*
G04 #@! TD*
G04 #@! TO.C,Q20*
X42500000Y-93000000D03*
X41550000Y-95000000D03*
X43450000Y-95000000D03*
G04 #@! TD*
G04 #@! TO.C,Q19*
X55000000Y-96000000D03*
X54050000Y-98000000D03*
X55950000Y-98000000D03*
G04 #@! TD*
G04 #@! TO.C,Q18*
X45000000Y-96000000D03*
X44050000Y-98000000D03*
X45950000Y-98000000D03*
G04 #@! TD*
G04 #@! TO.C,Q17*
X57500000Y-93000000D03*
X56550000Y-95000000D03*
X58450000Y-95000000D03*
G04 #@! TD*
G04 #@! TO.C,Q16*
X47500000Y-93000000D03*
X46550000Y-95000000D03*
X48450000Y-95000000D03*
G04 #@! TD*
G04 #@! TO.C,Q15*
X57500000Y-106250000D03*
X58450000Y-104250000D03*
X56550000Y-104250000D03*
G04 #@! TD*
G04 #@! TO.C,Q14*
X47500000Y-106250000D03*
X48450000Y-104250000D03*
X46550000Y-104250000D03*
G04 #@! TD*
G04 #@! TO.C,Q13*
X55000000Y-109000000D03*
X55950000Y-107000000D03*
X54050000Y-107000000D03*
G04 #@! TD*
G04 #@! TO.C,Q12*
X45000000Y-109000000D03*
X45950000Y-107000000D03*
X44050000Y-107000000D03*
G04 #@! TD*
G04 #@! TO.C,Q11*
X52500000Y-106250000D03*
X53450000Y-104250000D03*
X51550000Y-104250000D03*
G04 #@! TD*
G04 #@! TO.C,Q10*
X42500000Y-106250000D03*
X43450000Y-104250000D03*
X41550000Y-104250000D03*
G04 #@! TD*
G04 #@! TO.C,Q9*
X50000000Y-109000000D03*
X50950000Y-107000000D03*
X49050000Y-107000000D03*
G04 #@! TD*
G04 #@! TO.C,Q8*
X40000000Y-109000000D03*
X40950000Y-107000000D03*
X39050000Y-107000000D03*
G04 #@! TD*
G04 #@! TO.C,Q7*
X136000000Y-112500000D03*
X135050000Y-114500000D03*
X136950000Y-114500000D03*
G04 #@! TD*
G04 #@! TO.C,Q6*
X134000000Y-116000000D03*
X133050000Y-118000000D03*
X134950000Y-118000000D03*
G04 #@! TD*
G04 #@! TO.C,Q5*
X132000000Y-119500000D03*
X131050000Y-121500000D03*
X132950000Y-121500000D03*
G04 #@! TD*
G04 #@! TO.C,Q4*
X130000000Y-123000000D03*
X129050000Y-125000000D03*
X130950000Y-125000000D03*
G04 #@! TD*
G04 #@! TO.C,Q3*
X128000000Y-126500000D03*
X127050000Y-128500000D03*
X128950000Y-128500000D03*
G04 #@! TD*
G04 #@! TO.C,Q2*
X126000000Y-130000000D03*
X125050000Y-132000000D03*
X126950000Y-132000000D03*
G04 #@! TD*
D10*
G04 #@! TO.C,J3*
X47400000Y-173000000D03*
X49940000Y-173000000D03*
X52480000Y-173000000D03*
X55020000Y-173000000D03*
X57560000Y-173000000D03*
X60100000Y-173000000D03*
X62640000Y-173000000D03*
X65180000Y-173000000D03*
X67720000Y-173000000D03*
X70260000Y-173000000D03*
X72800000Y-173000000D03*
X75340000Y-173000000D03*
X77880000Y-173000000D03*
X80420000Y-173000000D03*
X82960000Y-173000000D03*
D11*
X85500000Y-173000000D03*
G04 #@! TD*
D25*
G04 #@! TO.C,J1*
X25310000Y-164890000D03*
X25310000Y-159110000D03*
D26*
X25810000Y-166320000D03*
X25810000Y-157680000D03*
D27*
X21630000Y-166320000D03*
X21630000Y-157680000D03*
G04 #@! TD*
D22*
G04 #@! TO.C,D2*
X45110000Y-115100000D03*
X45110000Y-86900000D03*
X42570000Y-86900000D03*
X42570000Y-115100000D03*
X47650000Y-115100000D03*
X55270000Y-115100000D03*
X50190000Y-115100000D03*
X52730000Y-86900000D03*
X55270000Y-86900000D03*
X50190000Y-86900000D03*
X52730000Y-115100000D03*
X47650000Y-86900000D03*
X60350000Y-115100000D03*
X57810000Y-86900000D03*
X60350000Y-86900000D03*
X57810000Y-115100000D03*
X62890000Y-86900000D03*
X62890000Y-115100000D03*
X65430000Y-115100000D03*
X65430000Y-86900000D03*
X40030000Y-115100000D03*
X40030000Y-86900000D03*
X67970000Y-115100000D03*
D23*
X67970000Y-86900000D03*
G04 #@! TD*
G04 #@! TO.C,C16*
G36*
G01*
X154450000Y-130475000D02*
X154450000Y-129525000D01*
G75*
G02*
X154700000Y-129275000I250000J0D01*
G01*
X155200000Y-129275000D01*
G75*
G02*
X155450000Y-129525000I0J-250000D01*
G01*
X155450000Y-130475000D01*
G75*
G02*
X155200000Y-130725000I-250000J0D01*
G01*
X154700000Y-130725000D01*
G75*
G02*
X154450000Y-130475000I0J250000D01*
G01*
G37*
G36*
G01*
X152550000Y-130475000D02*
X152550000Y-129525000D01*
G75*
G02*
X152800000Y-129275000I250000J0D01*
G01*
X153300000Y-129275000D01*
G75*
G02*
X153550000Y-129525000I0J-250000D01*
G01*
X153550000Y-130475000D01*
G75*
G02*
X153300000Y-130725000I-250000J0D01*
G01*
X152800000Y-130725000D01*
G75*
G02*
X152550000Y-130475000I0J250000D01*
G01*
G37*
G04 #@! TD*
G04 #@! TO.C,C15*
G36*
G01*
X137950000Y-130475000D02*
X137950000Y-129525000D01*
G75*
G02*
X138200000Y-129275000I250000J0D01*
G01*
X138700000Y-129275000D01*
G75*
G02*
X138950000Y-129525000I0J-250000D01*
G01*
X138950000Y-130475000D01*
G75*
G02*
X138700000Y-130725000I-250000J0D01*
G01*
X138200000Y-130725000D01*
G75*
G02*
X137950000Y-130475000I0J250000D01*
G01*
G37*
G36*
G01*
X136050000Y-130475000D02*
X136050000Y-129525000D01*
G75*
G02*
X136300000Y-129275000I250000J0D01*
G01*
X136800000Y-129275000D01*
G75*
G02*
X137050000Y-129525000I0J-250000D01*
G01*
X137050000Y-130475000D01*
G75*
G02*
X136800000Y-130725000I-250000J0D01*
G01*
X136300000Y-130725000D01*
G75*
G02*
X136050000Y-130475000I0J250000D01*
G01*
G37*
G04 #@! TD*
G04 #@! TO.C,C14*
G36*
G01*
X81050000Y-138025000D02*
X81050000Y-138975000D01*
G75*
G02*
X80800000Y-139225000I-250000J0D01*
G01*
X80300000Y-139225000D01*
G75*
G02*
X80050000Y-138975000I0J250000D01*
G01*
X80050000Y-138025000D01*
G75*
G02*
X80300000Y-137775000I250000J0D01*
G01*
X80800000Y-137775000D01*
G75*
G02*
X81050000Y-138025000I0J-250000D01*
G01*
G37*
G36*
G01*
X82950000Y-138025000D02*
X82950000Y-138975000D01*
G75*
G02*
X82700000Y-139225000I-250000J0D01*
G01*
X82200000Y-139225000D01*
G75*
G02*
X81950000Y-138975000I0J250000D01*
G01*
X81950000Y-138025000D01*
G75*
G02*
X82200000Y-137775000I250000J0D01*
G01*
X82700000Y-137775000D01*
G75*
G02*
X82950000Y-138025000I0J-250000D01*
G01*
G37*
G04 #@! TD*
G04 #@! TO.C,C13*
G36*
G01*
X59275000Y-162950000D02*
X60225000Y-162950000D01*
G75*
G02*
X60475000Y-163200000I0J-250000D01*
G01*
X60475000Y-163700000D01*
G75*
G02*
X60225000Y-163950000I-250000J0D01*
G01*
X59275000Y-163950000D01*
G75*
G02*
X59025000Y-163700000I0J250000D01*
G01*
X59025000Y-163200000D01*
G75*
G02*
X59275000Y-162950000I250000J0D01*
G01*
G37*
G36*
G01*
X59275000Y-161050000D02*
X60225000Y-161050000D01*
G75*
G02*
X60475000Y-161300000I0J-250000D01*
G01*
X60475000Y-161800000D01*
G75*
G02*
X60225000Y-162050000I-250000J0D01*
G01*
X59275000Y-162050000D01*
G75*
G02*
X59025000Y-161800000I0J250000D01*
G01*
X59025000Y-161300000D01*
G75*
G02*
X59275000Y-161050000I250000J0D01*
G01*
G37*
G04 #@! TD*
G04 #@! TO.C,C12*
G36*
G01*
X81050000Y-135525000D02*
X81050000Y-136475000D01*
G75*
G02*
X80800000Y-136725000I-250000J0D01*
G01*
X80300000Y-136725000D01*
G75*
G02*
X80050000Y-136475000I0J250000D01*
G01*
X80050000Y-135525000D01*
G75*
G02*
X80300000Y-135275000I250000J0D01*
G01*
X80800000Y-135275000D01*
G75*
G02*
X81050000Y-135525000I0J-250000D01*
G01*
G37*
G36*
G01*
X82950000Y-135525000D02*
X82950000Y-136475000D01*
G75*
G02*
X82700000Y-136725000I-250000J0D01*
G01*
X82200000Y-136725000D01*
G75*
G02*
X81950000Y-136475000I0J250000D01*
G01*
X81950000Y-135525000D01*
G75*
G02*
X82200000Y-135275000I250000J0D01*
G01*
X82700000Y-135275000D01*
G75*
G02*
X82950000Y-135525000I0J-250000D01*
G01*
G37*
G04 #@! TD*
G04 #@! TO.C,C11*
G36*
G01*
X81450000Y-151975000D02*
X81450000Y-151025000D01*
G75*
G02*
X81700000Y-150775000I250000J0D01*
G01*
X82200000Y-150775000D01*
G75*
G02*
X82450000Y-151025000I0J-250000D01*
G01*
X82450000Y-151975000D01*
G75*
G02*
X82200000Y-152225000I-250000J0D01*
G01*
X81700000Y-152225000D01*
G75*
G02*
X81450000Y-151975000I0J250000D01*
G01*
G37*
G36*
G01*
X79550000Y-151975000D02*
X79550000Y-151025000D01*
G75*
G02*
X79800000Y-150775000I250000J0D01*
G01*
X80300000Y-150775000D01*
G75*
G02*
X80550000Y-151025000I0J-250000D01*
G01*
X80550000Y-151975000D01*
G75*
G02*
X80300000Y-152225000I-250000J0D01*
G01*
X79800000Y-152225000D01*
G75*
G02*
X79550000Y-151975000I0J250000D01*
G01*
G37*
G04 #@! TD*
G04 #@! TO.C,C6*
G36*
G01*
X139050000Y-35025000D02*
X139050000Y-35975000D01*
G75*
G02*
X138800000Y-36225000I-250000J0D01*
G01*
X138300000Y-36225000D01*
G75*
G02*
X138050000Y-35975000I0J250000D01*
G01*
X138050000Y-35025000D01*
G75*
G02*
X138300000Y-34775000I250000J0D01*
G01*
X138800000Y-34775000D01*
G75*
G02*
X139050000Y-35025000I0J-250000D01*
G01*
G37*
G36*
G01*
X140950000Y-35025000D02*
X140950000Y-35975000D01*
G75*
G02*
X140700000Y-36225000I-250000J0D01*
G01*
X140200000Y-36225000D01*
G75*
G02*
X139950000Y-35975000I0J250000D01*
G01*
X139950000Y-35025000D01*
G75*
G02*
X140200000Y-34775000I250000J0D01*
G01*
X140700000Y-34775000D01*
G75*
G02*
X140950000Y-35025000I0J-250000D01*
G01*
G37*
G04 #@! TD*
G04 #@! TO.C,C5*
G36*
G01*
X120050000Y-35025000D02*
X120050000Y-35975000D01*
G75*
G02*
X119800000Y-36225000I-250000J0D01*
G01*
X119300000Y-36225000D01*
G75*
G02*
X119050000Y-35975000I0J250000D01*
G01*
X119050000Y-35025000D01*
G75*
G02*
X119300000Y-34775000I250000J0D01*
G01*
X119800000Y-34775000D01*
G75*
G02*
X120050000Y-35025000I0J-250000D01*
G01*
G37*
G36*
G01*
X121950000Y-35025000D02*
X121950000Y-35975000D01*
G75*
G02*
X121700000Y-36225000I-250000J0D01*
G01*
X121200000Y-36225000D01*
G75*
G02*
X120950000Y-35975000I0J250000D01*
G01*
X120950000Y-35025000D01*
G75*
G02*
X121200000Y-34775000I250000J0D01*
G01*
X121700000Y-34775000D01*
G75*
G02*
X121950000Y-35025000I0J-250000D01*
G01*
G37*
G04 #@! TD*
G04 #@! TO.C,C4*
G36*
G01*
X67550000Y-45525000D02*
X67550000Y-46475000D01*
G75*
G02*
X67300000Y-46725000I-250000J0D01*
G01*
X66800000Y-46725000D01*
G75*
G02*
X66550000Y-46475000I0J250000D01*
G01*
X66550000Y-45525000D01*
G75*
G02*
X66800000Y-45275000I250000J0D01*
G01*
X67300000Y-45275000D01*
G75*
G02*
X67550000Y-45525000I0J-250000D01*
G01*
G37*
G36*
G01*
X69450000Y-45525000D02*
X69450000Y-46475000D01*
G75*
G02*
X69200000Y-46725000I-250000J0D01*
G01*
X68700000Y-46725000D01*
G75*
G02*
X68450000Y-46475000I0J250000D01*
G01*
X68450000Y-45525000D01*
G75*
G02*
X68700000Y-45275000I250000J0D01*
G01*
X69200000Y-45275000D01*
G75*
G02*
X69450000Y-45525000I0J-250000D01*
G01*
G37*
G04 #@! TD*
G04 #@! TO.C,C3*
G36*
G01*
X92950000Y-58975000D02*
X92950000Y-58025000D01*
G75*
G02*
X93200000Y-57775000I250000J0D01*
G01*
X93700000Y-57775000D01*
G75*
G02*
X93950000Y-58025000I0J-250000D01*
G01*
X93950000Y-58975000D01*
G75*
G02*
X93700000Y-59225000I-250000J0D01*
G01*
X93200000Y-59225000D01*
G75*
G02*
X92950000Y-58975000I0J250000D01*
G01*
G37*
G36*
G01*
X91050000Y-58975000D02*
X91050000Y-58025000D01*
G75*
G02*
X91300000Y-57775000I250000J0D01*
G01*
X91800000Y-57775000D01*
G75*
G02*
X92050000Y-58025000I0J-250000D01*
G01*
X92050000Y-58975000D01*
G75*
G02*
X91800000Y-59225000I-250000J0D01*
G01*
X91300000Y-59225000D01*
G75*
G02*
X91050000Y-58975000I0J250000D01*
G01*
G37*
G04 #@! TD*
G04 #@! TO.C,C2*
G36*
G01*
X55300000Y-36025000D02*
X55300000Y-36975000D01*
G75*
G02*
X55050000Y-37225000I-250000J0D01*
G01*
X54550000Y-37225000D01*
G75*
G02*
X54300000Y-36975000I0J250000D01*
G01*
X54300000Y-36025000D01*
G75*
G02*
X54550000Y-35775000I250000J0D01*
G01*
X55050000Y-35775000D01*
G75*
G02*
X55300000Y-36025000I0J-250000D01*
G01*
G37*
G36*
G01*
X57200000Y-36025000D02*
X57200000Y-36975000D01*
G75*
G02*
X56950000Y-37225000I-250000J0D01*
G01*
X56450000Y-37225000D01*
G75*
G02*
X56200000Y-36975000I0J250000D01*
G01*
X56200000Y-36025000D01*
G75*
G02*
X56450000Y-35775000I250000J0D01*
G01*
X56950000Y-35775000D01*
G75*
G02*
X57200000Y-36025000I0J-250000D01*
G01*
G37*
G04 #@! TD*
M02*
